<?xml version="1.0" encoding="UTF-8"?>
<!DOCTYPE svg PUBLIC "-//W3C//DTD SVG 1.1//EN" "http://www.w3.org/Graphics/SVG/1.1/DTD/svg11.dtd">
<svg xmlns="http://www.w3.org/2000/svg" xmlns:xlink="http://www.w3.org/1999/xlink" version="1.1" width="1401px" height="782px" viewBox="-0.5 -0.5 1401 782"><defs/><g><g data-cell-id="0"><g data-cell-id="1"><g data-cell-id="title"><g><rect x="0" y="0" width="1400" height="40" fill="none" stroke="none" pointer-events="all"/></g><g><g transform="translate(-0.5 -0.5)"><switch><foreignObject pointer-events="none" width="100%" height="100%" requiredFeatures="http://www.w3.org/TR/SVG11/feature#Extensibility" style="overflow: visible; text-align: left;"><div xmlns="http://www.w3.org/1999/xhtml" style="display: flex; align-items: unsafe center; justify-content: unsafe center; width: 1398px; height: 1px; padding-top: 20px; margin-left: 1px;"><div data-drawio-colors="color: rgb(0, 0, 0); " style="box-sizing: border-box; font-size: 0px; text-align: center;"><div style="display: inline-block; font-size: 22px; font-family: Helvetica; color: rgb(0, 0, 0); line-height: 1.2; pointer-events: all; font-weight: bold; white-space: normal; overflow-wrap: normal;">terminility Repository Architecture</div></div></div></foreignObject><text x="700" y="27" fill="rgb(0, 0, 0)" font-family="&quot;Helvetica&quot;" font-size="22px" text-anchor="middle" font-weight="bold">terminility Repository Architecture</text></switch></g></g></g><g data-cell-id="layer_group"><g><path d="M 30 90 L 30 60 L 610 60 L 610 90" fill="#f5f5f5" stroke="#666666" stroke-miterlimit="10" pointer-events="all"/><path d="M 30 90 L 30 620 L 610 620 L 610 90" fill="none" stroke="#666666" stroke-miterlimit="10" pointer-events="none"/><path d="M 30 90 L 610 90" fill="none" stroke="#666666" stroke-miterlimit="10" pointer-events="none"/></g><g><g fill="#333333" font-family="&quot;Helvetica&quot;" font-weight="bold" text-anchor="middle" font-size="14px"><text x="319.5" y="80.5">Layer Stack</text></g></g><g data-cell-id="L1"><g><rect x="50" y="110" width="540" height="110" rx="16.5" ry="16.5" fill="#d5e8d4" stroke="#82b366" pointer-events="all"/></g><g><g transform="translate(-0.5 -0.5)"><switch><foreignObject pointer-events="none" width="100%" height="100%" requiredFeatures="http://www.w3.org/TR/SVG11/feature#Extensibility" style="overflow: visible; text-align: left;"><div xmlns="http://www.w3.org/1999/xhtml" style="display: flex; align-items: unsafe center; justify-content: unsafe flex-start; width: 530px; height: 1px; padding-top: 165px; margin-left: 60px;"><div data-drawio-colors="color: rgb(0, 0, 0); " style="box-sizing: border-box; font-size: 0px; text-align: left;"><div style="display: inline-block; font-size: 12px; font-family: Helvetica; color: rgb(0, 0, 0); line-height: 1.2; pointer-events: all; white-space: normal; overflow-wrap: normal;">1) Installation Layer<br />• install.sh<br />• detects package manager (apt/dnf/pacman/brew/zypper)<br />• installs tmux, clones/updates TPM<br />• backs up existing ~/.tmux.conf<br />• runs TPM headlessly to install plugins<br />• invokes sessions.sh<br />• wires alias source guard into ~/.bashrc / ~/.zshrc</div></div></div></foreignObject><text x="60" y="169" fill="rgb(0, 0, 0)" font-family="&quot;Helvetica&quot;" font-size="12px">1) Installation Layer...</text></switch></g></g></g><g data-cell-id="L2"><g><rect x="50" y="245" width="540" height="95" rx="14.25" ry="14.25" fill="#d5e8d4" stroke="#82b366" pointer-events="all"/></g><g><g transform="translate(-0.5 -0.5)"><switch><foreignObject pointer-events="none" width="100%" height="100%" requiredFeatures="http://www.w3.org/TR/SVG11/feature#Extensibility" style="overflow: visible; text-align: left;"><div xmlns="http://www.w3.org/1999/xhtml" style="display: flex; align-items: unsafe center; justify-content: unsafe flex-start; width: 530px; height: 1px; padding-top: 293px; margin-left: 60px;"><div data-drawio-colors="color: rgb(0, 0, 0); " style="box-sizing: border-box; font-size: 0px; text-align: left;"><div style="display: inline-block; font-size: 12px; font-family: Helvetica; color: rgb(0, 0, 0); line-height: 1.2; pointer-events: all; white-space: normal; overflow-wrap: normal;">2) Configuration Layer<br />• tmux.conf  →  ~/.tmux.conf<br />• 256-color + true-color, mouse, 50k history, base-index 1<br />• intuitive split/nav bindings + reload key (prefix+r)<br />• TPM plugins: tmux-sensible, tmux-resurrect, tmux-continuum<br />• auto-save every 15 min, auto-restore on server start</div></div></div></foreignObject><text x="60" y="296" fill="rgb(0, 0, 0)" font-family="&quot;Helvetica&quot;" font-size="12px">2) Configuration Layer...</text></switch></g></g></g><g data-cell-id="L3"><g><rect x="50" y="365" width="540" height="95" rx="14.25" ry="14.25" fill="#d5e8d4" stroke="#82b366" pointer-events="all"/></g><g><g transform="translate(-0.5 -0.5)"><switch><foreignObject pointer-events="none" width="100%" height="100%" requiredFeatures="http://www.w3.org/TR/SVG11/feature#Extensibility" style="overflow: visible; text-align: left;"><div xmlns="http://www.w3.org/1999/xhtml" style="display: flex; align-items: unsafe center; justify-content: unsafe flex-start; width: 530px; height: 1px; padding-top: 413px; margin-left: 60px;"><div data-drawio-colors="color: rgb(0, 0, 0); " style="box-sizing: border-box; font-size: 0px; text-align: left;"><div style="display: inline-block; font-size: 12px; font-family: Helvetica; color: rgb(0, 0, 0); line-height: 1.2; pointer-events: all; white-space: normal; overflow-wrap: normal;">3) Session Management Layer<br />• sessions.sh<br />• scans GIT_BASE (default: /mnt/4tb-m2/git) for .git dirs<br />• derives tmux-safe session name  (/ → -,  spaces/dots → -)<br />• creates sessions idempotently (skips existing)<br />• ensures tmux server is running before creation</div></div></div></foreignObject><text x="60" y="416" fill="rgb(0, 0, 0)" font-family="&quot;Helvetica&quot;" font-size="12px">3) Session Management Layer...</text></switch></g></g></g><g data-cell-id="L4"><g><rect x="50" y="485" width="540" height="95" rx="14.25" ry="14.25" fill="#d5e8d4" stroke="#82b366" pointer-events="all"/></g><g><g transform="translate(-0.5 -0.5)"><switch><foreignObject pointer-events="none" width="100%" height="100%" requiredFeatures="http://www.w3.org/TR/SVG11/feature#Extensibility" style="overflow: visible; text-align: left;"><div xmlns="http://www.w3.org/1999/xhtml" style="display: flex; align-items: unsafe center; justify-content: unsafe flex-start; width: 530px; height: 1px; padding-top: 533px; margin-left: 60px;"><div data-drawio-colors="color: rgb(0, 0, 0); " style="box-sizing: border-box; font-size: 0px; text-align: left;"><div style="display: inline-block; font-size: 12px; font-family: Helvetica; color: rgb(0, 0, 0); line-height: 1.2; pointer-events: all; white-space: normal; overflow-wrap: normal;">4) Alias Layer<br />• writes ~/.terminility_aliases  (regenerated atomically each run)<br />• one alias per session:  tmux new-session -A -s &lt;name&gt; -c &lt;path&gt;<br />  (-A: attach or create;  -c: start in repo root)<br />• install.sh adds source guard to shell RCs (idempotent)</div></div></div></foreignObject><text x="60" y="536" fill="rgb(0, 0, 0)" font-family="&quot;Helvetica&quot;" font-size="12px">4) Alias Layer...</text></switch></g></g></g><g data-cell-id="a_L1L2"><g><path d="M 320 220 L 320 238.63" fill="none" stroke="rgb(0, 0, 0)" stroke-miterlimit="10" pointer-events="stroke"/><path d="M 320 243.88 L 316.5 236.88 L 320 238.63 L 323.5 236.88 Z" fill="rgb(0, 0, 0)" stroke="rgb(0, 0, 0)" stroke-miterlimit="10" pointer-events="all"/></g></g><g data-cell-id="a_L2L3"><g><path d="M 320 340 L 320 358.63" fill="none" stroke="rgb(0, 0, 0)" stroke-miterlimit="10" pointer-events="stroke"/><path d="M 320 363.88 L 316.5 356.88 L 320 358.63 L 323.5 356.88 Z" fill="rgb(0, 0, 0)" stroke="rgb(0, 0, 0)" stroke-miterlimit="10" pointer-events="all"/></g></g><g data-cell-id="a_L3L4"><g><path d="M 320 460 L 320 478.63" fill="none" stroke="rgb(0, 0, 0)" stroke-miterlimit="10" pointer-events="stroke"/><path d="M 320 483.88 L 316.5 476.88 L 320 478.63 L 323.5 476.88 Z" fill="rgb(0, 0, 0)" stroke="rgb(0, 0, 0)" stroke-miterlimit="10" pointer-events="all"/></g></g></g><g data-cell-id="src_group"><g><path d="M 660 90 L 660 60 L 980 60 L 980 90" fill="#f5f5f5" stroke="#666666" stroke-miterlimit="10" pointer-events="all"/><path d="M 660 90 L 660 340 L 980 340 L 980 90" fill="none" stroke="#666666" stroke-miterlimit="10" pointer-events="none"/><path d="M 660 90 L 980 90" fill="none" stroke="#666666" stroke-miterlimit="10" pointer-events="none"/></g><g><g fill="#333333" font-family="&quot;Helvetica&quot;" font-weight="bold" text-anchor="middle" font-size="14px"><text x="819.5" y="80.5">Source Files (tracked)</text></g></g><g data-cell-id="S1"><g><rect x="680" y="110" width="280" height="45" rx="6.75" ry="6.75" fill="#dae8fc" stroke="#6c8ebf" pointer-events="all"/></g><g><g fill="rgb(0, 0, 0)" font-family="&quot;Helvetica&quot;" font-size="12px"><text x="689.5" y="130">install.sh</text><text x="689.5" y="144">Full install orchestrator</text></g></g></g><g data-cell-id="S2"><g><rect x="680" y="170" width="280" height="45" rx="6.75" ry="6.75" fill="#dae8fc" stroke="#6c8ebf" pointer-events="all"/></g><g><g fill="rgb(0, 0, 0)" font-family="&quot;Helvetica&quot;" font-size="12px"><text x="689.5" y="190">sessions.sh</text><text x="689.5" y="204">Repo scanner + session creator + alias generator</text></g></g></g><g data-cell-id="S3"><g><rect x="680" y="230" width="280" height="45" rx="6.75" ry="6.75" fill="#dae8fc" stroke="#6c8ebf" pointer-events="all"/></g><g><g fill="rgb(0, 0, 0)" font-family="&quot;Helvetica&quot;" font-size="12px"><text x="689.5" y="250">tmux.conf</text><text x="689.5" y="264">Tmux configuration source</text></g></g></g><g data-cell-id="S4"><g><rect x="680" y="280" width="280" height="45" rx="6.75" ry="6.75" fill="#dae8fc" stroke="#6c8ebf" pointer-events="all"/></g><g><g fill="rgb(0, 0, 0)" font-family="&quot;Helvetica&quot;" font-size="12px"><text x="689.5" y="293">docs/</text><text x="689.5" y="307">contributor-architecture-blueprint.md</text><text x="689.5" y="321">diagrams/repo-architecture.{puml,drawio}</text></g></g></g></g><g data-cell-id="ext_group"><g><path d="M 660 410 L 660 380 L 980 380 L 980 410" fill="#f5f5f5" stroke="#666666" stroke-miterlimit="10" pointer-events="all"/><path d="M 660 410 L 660 620 L 980 620 L 980 410" fill="none" stroke="#666666" stroke-miterlimit="10" pointer-events="none"/><path d="M 660 410 L 980 410" fill="none" stroke="#666666" stroke-miterlimit="10" pointer-events="none"/></g><g><g fill="#333333" font-family="&quot;Helvetica&quot;" font-weight="bold" text-anchor="middle" font-size="14px"><text x="819.5" y="400.5">External Inputs</text></g></g><g data-cell-id="E1"><g><rect x="680" y="430" width="280" height="50" rx="7.5" ry="7.5" fill="#fff2cc" stroke="#d6b656" pointer-events="all"/></g><g><g fill="rgb(0, 0, 0)" font-family="&quot;Helvetica&quot;" font-size="12px"><text x="689.5" y="445.5">/mnt/4tb-m2/git/**/.git</text><text x="689.5" y="459.5">git repositories on disk</text><text x="689.5" y="473.5">(GIT_BASE, overridable via env)</text></g></g></g><g data-cell-id="E2"><g><rect x="680" y="495" width="280" height="50" rx="7.5" ry="7.5" fill="#fff2cc" stroke="#d6b656" pointer-events="all"/></g><g><g fill="rgb(0, 0, 0)" font-family="&quot;Helvetica&quot;" font-size="12px"><text x="689.5" y="510.5">System package manager</text><text x="689.5" y="524.5">apt / dnf / pacman / brew / zypper</text><text x="689.5" y="538.5">(auto-detected)</text></g></g></g><g data-cell-id="E3"><g><rect x="680" y="558" width="280" height="50" rx="7.5" ry="7.5" fill="#fff2cc" stroke="#d6b656" pointer-events="all"/></g><g><g fill="rgb(0, 0, 0)" font-family="&quot;Helvetica&quot;" font-size="12px"><text x="689.5" y="573.5">GitHub (TPM + plugins)</text><text x="689.5" y="587.5">tmux-plugins/tpm</text><text x="689.5" y="601.5">tmux-resurrect  •  tmux-continuum</text></g></g></g></g><g data-cell-id="rt_group"><g><path d="M 1030 90 L 1030 60 L 1370 60 L 1370 90" fill="#f5f5f5" stroke="#666666" stroke-miterlimit="10" pointer-events="all"/><path d="M 1030 90 L 1030 620 L 1370 620 L 1370 90" fill="none" stroke="#666666" stroke-miterlimit="10" pointer-events="none"/><path d="M 1030 90 L 1370 90" fill="none" stroke="#666666" stroke-miterlimit="10" pointer-events="none"/></g><g><g fill="#333333" font-family="&quot;Helvetica&quot;" font-weight="bold" text-anchor="middle" font-size="14px"><text x="1199.5" y="80.5">Runtime Artifacts (untracked)</text></g></g><g data-cell-id="R1"><g><rect x="1050" y="110" width="300" height="45" fill="#ffe6cc" stroke="#d79b00" pointer-events="all"/></g><g><g fill="rgb(0, 0, 0)" font-family="&quot;Helvetica&quot;" text-anchor="middle" font-size="12px"><text x="1199.5" y="130">~/.tmux.conf</text><text x="1199.5" y="144">deployed config</text></g></g></g><g data-cell-id="R1b"><g><rect x="1050" y="110" width="300" height="40" rx="6" ry="6" fill="#ffe6cc" stroke="#d79b00" pointer-events="all"/></g><g><g fill="rgb(0, 0, 0)" font-family="&quot;Helvetica&quot;" font-size="12px"><text x="1059.5" y="134.5">~/.tmux.conf  —  deployed config</text></g></g></g><g data-cell-id="R2"><g><rect x="1050" y="165" width="300" height="40" rx="6" ry="6" fill="#ffe6cc" stroke="#d79b00" pointer-events="all"/></g><g><g fill="rgb(0, 0, 0)" font-family="&quot;Helvetica&quot;" font-size="12px"><text x="1059.5" y="189.5">~/.tmux/plugins/tpm/  —  TPM clone</text></g></g></g><g data-cell-id="R3"><g><rect x="1050" y="220" width="300" height="50" rx="7.5" ry="7.5" fill="#ffe6cc" stroke="#d79b00" pointer-events="all"/></g><g><g fill="rgb(0, 0, 0)" font-family="&quot;Helvetica&quot;" font-size="12px"><text x="1059.5" y="242.5">~/.tmux/plugins/tmux-resurrect/</text><text x="1059.5" y="256.5">~/.tmux/plugins/tmux-continuum/</text></g></g></g><g data-cell-id="R4"><g><rect x="1050" y="285" width="300" height="40" rx="6" ry="6" fill="#ffe6cc" stroke="#d79b00" pointer-events="all"/></g><g><g fill="rgb(0, 0, 0)" font-family="&quot;Helvetica&quot;" font-size="12px"><text x="1059.5" y="309.5">~/.tmux/resurrect/  —  session save files</text></g></g></g><g data-cell-id="R5"><g><rect x="1050" y="340" width="300" height="50" rx="7.5" ry="7.5" fill="#ffe6cc" stroke="#d79b00" pointer-events="all"/></g><g><g fill="rgb(0, 0, 0)" font-family="&quot;Helvetica&quot;" font-size="12px"><text x="1059.5" y="362.5">~/.terminility_aliases</text><text x="1059.5" y="376.5">generated alias file  (regenerated each run)</text></g></g></g><g data-cell-id="R6"><g><rect x="1050" y="405" width="300" height="50" rx="7.5" ry="7.5" fill="#ffe6cc" stroke="#d79b00" pointer-events="all"/></g><g><g fill="rgb(0, 0, 0)" font-family="&quot;Helvetica&quot;" font-size="12px"><text x="1059.5" y="427.5">~/.bash_aliases  /  ~/.zshrc</text><text x="1059.5" y="441.5">source guard added by install.sh</text></g></g></g></g><g data-cell-id="flow_label"><g><rect x="1030" y="650" width="340" height="130" fill="#f5f5f5" stroke="#666666" pointer-events="all"/></g><g><g transform="translate(-0.5 -0.5)"><switch><foreignObject pointer-events="none" width="100%" height="100%" requiredFeatures="http://www.w3.org/TR/SVG11/feature#Extensibility" style="overflow: visible; text-align: left;"><div xmlns="http://www.w3.org/1999/xhtml" style="display: flex; align-items: unsafe flex-start; justify-content: unsafe flex-start; width: 338px; height: 1px; padding-top: 657px; margin-left: 1032px;"><div data-drawio-colors="color: rgb(0, 0, 0); " style="box-sizing: border-box; font-size: 0px; text-align: left;"><div style="display: inline-block; font-size: 12px; font-family: Helvetica; color: rgb(0, 0, 0); line-height: 1.2; pointer-events: all; white-space: normal; overflow-wrap: normal;">Data Flow<br />/mnt/4tb-m2/git/**/.git<br />  → sessions.sh<br />  → tmux sessions (idempotent)<br />  → ~/.terminility_aliases<br />  → ~/.bash_aliases / ~/.zshrc<br />  → aliases active in every new shell</div></div></div></foreignObject><text x="1032" y="669" fill="rgb(0, 0, 0)" font-family="&quot;Helvetica&quot;" font-size="12px">Data Flow...</text></switch></g></g></g><g data-cell-id="a_S1L1"><g><path d="M 680 132.5 L 645 132.5 Q 635 132.5 635 142.5 L 635 155 Q 635 165 625 165 L 592.24 165" fill="none" stroke="rgb(0, 0, 0)" stroke-miterlimit="10" stroke-dasharray="3 3" pointer-events="stroke"/><path d="M 598.12 161.5 L 591.12 165 L 598.12 168.5" fill="none" stroke="rgb(0, 0, 0)" stroke-miterlimit="10" pointer-events="all"/></g><g><g fill="rgb(0, 0, 0)" font-family="&quot;Helvetica&quot;" text-anchor="middle" font-size="11px"><rect fill="rgb(255, 255, 255)" stroke="none" x="604" y="143" width="63" height="14" stroke-width="0"/><text x="634.5" y="152.5">orchestrates</text></g></g></g><g data-cell-id="a_S2L3"><g><path d="M 680 192.5 L 330 192.5 Q 320 192.5 320 202.5 L 320 362.76" fill="none" stroke="rgb(0, 0, 0)" stroke-miterlimit="10" stroke-dasharray="3 3" pointer-events="stroke"/><path d="M 316.5 356.88 L 320 363.88 L 323.5 356.88" fill="none" stroke="rgb(0, 0, 0)" stroke-miterlimit="10" pointer-events="all"/></g><g><g fill="rgb(0, 0, 0)" font-family="&quot;Helvetica&quot;" text-anchor="middle" font-size="11px"><rect fill="rgb(255, 255, 255)" stroke="none" x="386" y="187" width="58" height="14" stroke-width="0"/><text x="413.5" y="196.5">implements</text></g></g></g><g data-cell-id="a_S3L2"><g><path d="M 680 252.5 L 645 252.5 Q 635 252.5 635 262.5 L 635 282.5 Q 635 292.5 625 292.5 L 592.24 292.5" fill="none" stroke="rgb(0, 0, 0)" stroke-miterlimit="10" stroke-dasharray="3 3" pointer-events="stroke"/><path d="M 598.12 289 L 591.12 292.5 L 598.12 296" fill="none" stroke="rgb(0, 0, 0)" stroke-miterlimit="10" pointer-events="all"/></g><g><g fill="rgb(0, 0, 0)" font-family="&quot;Helvetica&quot;" text-anchor="middle" font-size="11px"><rect fill="rgb(255, 255, 255)" stroke="none" x="618" y="267" width="35" height="14" stroke-width="0"/><text x="634.5" y="276.5">source</text></g></g></g><g data-cell-id="a_E2L1"><g><path d="M 680 520 L 330 520 Q 320 520 320 510 L 320 228.12" fill="none" stroke="rgb(0, 0, 0)" stroke-miterlimit="10" pointer-events="stroke"/><path d="M 320 221.12 L 323.5 228.12 L 316.5 228.12 Z" fill="rgb(0, 0, 0)" stroke="rgb(0, 0, 0)" stroke-miterlimit="10" pointer-events="all"/></g><g><g fill="rgb(0, 0, 0)" font-family="&quot;Helvetica&quot;" text-anchor="middle" font-size="11px"><rect fill="rgb(255, 255, 255)" stroke="none" x="319" y="514" width="63" height="14" stroke-width="0"/><text x="349.5" y="524">installs tmux</text></g></g></g><g data-cell-id="a_E3L1"><g><path d="M 680 583 L 330 583 Q 320 583 320 573 L 320 228.12" fill="none" stroke="rgb(0, 0, 0)" stroke-miterlimit="10" pointer-events="stroke"/><path d="M 320 221.12 L 323.5 228.12 L 316.5 228.12 Z" fill="rgb(0, 0, 0)" stroke="rgb(0, 0, 0)" stroke-miterlimit="10" pointer-events="all"/></g><g><g fill="rgb(0, 0, 0)" font-family="&quot;Helvetica&quot;" text-anchor="middle" font-size="11px"><rect fill="rgb(255, 255, 255)" stroke="none" x="270" y="575" width="101" height="14" stroke-width="0"/><text x="319.5" y="585">clones TPM+plugins</text></g></g></g><g data-cell-id="a_E1L3"><g><path d="M 680 455 L 645 455 Q 635 455 635 445 L 635 422.5 Q 635 412.5 625 412.5 L 598.12 412.5" fill="none" stroke="rgb(0, 0, 0)" stroke-miterlimit="10" pointer-events="stroke"/><path d="M 591.12 412.5 L 598.12 409 L 598.12 416 Z" fill="rgb(0, 0, 0)" stroke="rgb(0, 0, 0)" stroke-miterlimit="10" pointer-events="all"/></g><g><g fill="rgb(0, 0, 0)" font-family="&quot;Helvetica&quot;" text-anchor="middle" font-size="11px"><rect fill="rgb(255, 255, 255)" stroke="none" x="591" y="428" width="90" height="14" stroke-width="0"/><text x="634.5" y="438">scanned for repos</text></g></g></g><g data-cell-id="a_L1R1"><g><path d="M 590 165 L 810 165 Q 820 165 820 155 L 820 140 Q 820 130 830 130 L 1041.88 130" fill="none" stroke="rgb(0, 0, 0)" stroke-miterlimit="10" pointer-events="stroke"/><path d="M 1048.88 130 L 1041.88 133.5 L 1041.88 126.5 Z" fill="rgb(0, 0, 0)" stroke="rgb(0, 0, 0)" stroke-miterlimit="10" pointer-events="all"/></g><g><g fill="rgb(0, 0, 0)" font-family="&quot;Helvetica&quot;" text-anchor="middle" font-size="11px"><rect fill="rgb(255, 255, 255)" stroke="none" x="801" y="141" width="40" height="14" stroke-width="0"/><text x="819.5" y="151">deploys</text></g></g></g><g data-cell-id="a_L1R2"><g><path d="M 590 165 L 810 165 Q 820 165 820 175 L 820 180 Q 820 185 830 185 L 1041.88 185" fill="none" stroke="rgb(0, 0, 0)" stroke-miterlimit="10" pointer-events="stroke"/><path d="M 1048.88 185 L 1041.88 188.5 L 1041.88 181.5 Z" fill="rgb(0, 0, 0)" stroke="rgb(0, 0, 0)" stroke-miterlimit="10" pointer-events="all"/></g><g><g fill="rgb(0, 0, 0)" font-family="&quot;Helvetica&quot;" text-anchor="middle" font-size="11px"><rect fill="rgb(255, 255, 255)" stroke="none" x="804" y="169" width="34" height="14" stroke-width="0"/><text x="819.5" y="179">clones</text></g></g></g><g data-cell-id="a_L1R3"><g><path d="M 590 165 L 810 165 Q 820 165 820 175 L 820 235 Q 820 245 830 245 L 1041.88 245" fill="none" stroke="rgb(0, 0, 0)" stroke-miterlimit="10" pointer-events="stroke"/><path d="M 1048.88 245 L 1041.88 248.5 L 1041.88 241.5 Z" fill="rgb(0, 0, 0)" stroke="rgb(0, 0, 0)" stroke-miterlimit="10" pointer-events="all"/></g><g><g fill="rgb(0, 0, 0)" font-family="&quot;Helvetica&quot;" text-anchor="middle" font-size="11px"><rect fill="rgb(255, 255, 255)" stroke="none" x="803" y="199" width="36" height="14" stroke-width="0"/><text x="819.5" y="209">installs</text></g></g></g><g data-cell-id="a_L3R4"><g><path d="M 590 412.5 L 1190 412.5 Q 1200 412.5 1200 402.5 L 1200 333.12" fill="none" stroke="rgb(0, 0, 0)" stroke-miterlimit="10" pointer-events="stroke"/><path d="M 1200 326.12 L 1203.5 333.12 L 1196.5 333.12 Z" fill="rgb(0, 0, 0)" stroke="rgb(0, 0, 0)" stroke-miterlimit="10" pointer-events="all"/></g><g><g fill="rgb(0, 0, 0)" font-family="&quot;Helvetica&quot;" text-anchor="middle" font-size="11px"><rect fill="rgb(255, 255, 255)" stroke="none" x="907" y="407" width="66" height="14" stroke-width="0"/><text x="938.5" y="416.5">sessions use</text></g></g></g><g data-cell-id="a_L4R5"><g><path d="M 590 532.5 L 1190 532.5 Q 1200 532.5 1200 522.5 L 1200 398.12" fill="none" stroke="rgb(0, 0, 0)" stroke-miterlimit="10" pointer-events="stroke"/><path d="M 1200 391.12 L 1203.5 398.12 L 1196.5 398.12 Z" fill="rgb(0, 0, 0)" stroke="rgb(0, 0, 0)" stroke-miterlimit="10" pointer-events="all"/></g><g><g fill="rgb(0, 0, 0)" font-family="&quot;Helvetica&quot;" text-anchor="middle" font-size="11px"><rect fill="rgb(255, 255, 255)" stroke="none" x="941" y="527" width="51" height="14" stroke-width="0"/><text x="965.5" y="536.5">generates</text></g></g></g><g data-cell-id="a_L4R6"><g><path d="M 590 532.5 L 1190 532.5 Q 1200 532.5 1200 522.5 L 1200 463.12" fill="none" stroke="rgb(0, 0, 0)" stroke-miterlimit="10" pointer-events="stroke"/><path d="M 1200 456.12 L 1203.5 463.12 L 1196.5 463.12 Z" fill="rgb(0, 0, 0)" stroke="rgb(0, 0, 0)" stroke-miterlimit="10" pointer-events="all"/></g><g><g fill="rgb(0, 0, 0)" font-family="&quot;Helvetica&quot;" text-anchor="middle" font-size="11px"><rect fill="rgb(255, 255, 255)" stroke="none" x="887" y="527" width="95" height="14" stroke-width="0"/><text x="933.5" y="536.5">wires source guard</text></g></g></g></g></g></g><switch><g requiredFeatures="http://www.w3.org/TR/SVG11/feature#Extensibility"/><a transform="translate(0,-5)" xlink:href="https://www.drawio.com/doc/faq/svg-export-text-problems" target="_blank"><text text-anchor="middle" font-size="10px" x="50%" y="100%">Text is not SVG - cannot display</text></a></switch></svg>