<?xml version="1.0" encoding="UTF-8"?>
<!DOCTYPE svg PUBLIC "-//W3C//DTD SVG 1.1//EN" "http://www.w3.org/Graphics/SVG/1.1/DTD/svg11.dtd">
<svg xmlns="http://www.w3.org/2000/svg" xmlns:xlink="http://www.w3.org/1999/xlink" version="1.1" width="1421px" height="821px" viewBox="-0.5 -0.5 1421 821"><defs/><g><g data-cell-id="0"><g data-cell-id="1"><g data-cell-id="title"><g><rect x="19" y="39" width="1400" height="40" fill="none" stroke="none" pointer-events="all"/></g><g><g transform="translate(-0.5 -0.5)"><switch><foreignObject pointer-events="none" width="100%" height="100%" requiredFeatures="http://www.w3.org/TR/SVG11/feature#Extensibility" style="overflow: visible; text-align: left;"><div xmlns="http://www.w3.org/1999/xhtml" style="display: flex; align-items: unsafe center; justify-content: unsafe center; width: 1398px; height: 1px; padding-top: 59px; margin-left: 20px;"><div data-drawio-colors="color: rgb(0, 0, 0); " style="box-sizing: border-box; font-size: 0px; text-align: center;"><div style="display: inline-block; font-size: 22px; font-family: Helvetica; color: rgb(0, 0, 0); line-height: 1.2; pointer-events: all; font-weight: bold; white-space: normal; overflow-wrap: normal;">terminility Repository Architecture</div></div></div></foreignObject><text x="719" y="66" fill="rgb(0, 0, 0)" font-family="&quot;Helvetica&quot;" font-size="22px" text-anchor="middle" font-weight="bold">terminility Repository Architecture</text></switch></g></g></g><g data-cell-id="layer_group"><g><path d="M 49 129 L 49 99 L 629 99 L 629 129" fill="#f5f5f5" stroke="#666666" stroke-miterlimit="10" pointer-events="all"/><path d="M 49 129 L 49 659 L 629 659 L 629 129" fill="none" stroke="#666666" stroke-miterlimit="10" pointer-events="none"/><path d="M 49 129 L 629 129" fill="none" stroke="#666666" stroke-miterlimit="10" pointer-events="none"/></g><g><g fill="#333333" font-family="&quot;Helvetica&quot;" font-weight="bold" text-anchor="middle" font-size="14px"><text x="338.5" y="119.5">Layer Stack</text></g></g><g data-cell-id="L1"><g><rect x="69" y="149" width="540" height="110" rx="16.5" ry="16.5" fill="#d5e8d4" stroke="#82b366" pointer-events="all"/></g><g><g transform="translate(-0.5 -0.5)"><switch><foreignObject pointer-events="none" width="100%" height="100%" requiredFeatures="http://www.w3.org/TR/SVG11/feature#Extensibility" style="overflow: visible; text-align: left;"><div xmlns="http://www.w3.org/1999/xhtml" style="display: flex; align-items: unsafe center; justify-content: unsafe flex-start; width: 530px; height: 1px; padding-top: 204px; margin-left: 79px;"><div data-drawio-colors="color: rgb(0, 0, 0); " style="box-sizing: border-box; font-size: 0px; text-align: left;"><div style="display: inline-block; font-size: 12px; font-family: Helvetica; color: rgb(0, 0, 0); line-height: 1.2; pointer-events: all; white-space: normal; overflow-wrap: normal;">1) Installation Layer<br />• install.sh<br />• detects package manager (apt/dnf/pacman/brew/zypper)<br />• installs tmux, clones/updates TPM<br />• backs up existing ~/.tmux.conf<br />• runs TPM headlessly to install plugins<br />• invokes sessions.sh<br />• wires alias source guard into ~/.bashrc / ~/.zshrc</div></div></div></foreignObject><text x="79" y="208" fill="rgb(0, 0, 0)" font-family="&quot;Helvetica&quot;" font-size="12px">1) Installation Layer...</text></switch></g></g></g><g data-cell-id="L2"><g><rect x="69" y="284" width="540" height="95" rx="14.25" ry="14.25" fill="#d5e8d4" stroke="#82b366" pointer-events="all"/></g><g><g transform="translate(-0.5 -0.5)"><switch><foreignObject pointer-events="none" width="100%" height="100%" requiredFeatures="http://www.w3.org/TR/SVG11/feature#Extensibility" style="overflow: visible; text-align: left;"><div xmlns="http://www.w3.org/1999/xhtml" style="display: flex; align-items: unsafe center; justify-content: unsafe flex-start; width: 530px; height: 1px; padding-top: 332px; margin-left: 79px;"><div data-drawio-colors="color: rgb(0, 0, 0); " style="box-sizing: border-box; font-size: 0px; text-align: left;"><div style="display: inline-block; font-size: 12px; font-family: Helvetica; color: rgb(0, 0, 0); line-height: 1.2; pointer-events: all; white-space: normal; overflow-wrap: normal;">2) Configuration Layer<br />• tmux.conf  →  ~/.tmux.conf<br />• 256-color + true-color, mouse, 50k history, base-index 1<br />• intuitive split/nav bindings + reload key (prefix+r)<br />• TPM plugins: tmux-sensible, tmux-resurrect, tmux-continuum<br />• auto-save every 15 min, auto-restore on server start</div></div></div></foreignObject><text x="79" y="335" fill="rgb(0, 0, 0)" font-family="&quot;Helvetica&quot;" font-size="12px">2) Configuration Layer...</text></switch></g></g></g><g data-cell-id="L3"><g><rect x="69" y="404" width="540" height="95" rx="14.25" ry="14.25" fill="#d5e8d4" stroke="#82b366" pointer-events="all"/></g><g><g transform="translate(-0.5 -0.5)"><switch><foreignObject pointer-events="none" width="100%" height="100%" requiredFeatures="http://www.w3.org/TR/SVG11/feature#Extensibility" style="overflow: visible; text-align: left;"><div xmlns="http://www.w3.org/1999/xhtml" style="display: flex; align-items: unsafe center; justify-content: unsafe flex-start; width: 530px; height: 1px; padding-top: 452px; margin-left: 79px;"><div data-drawio-colors="color: rgb(0, 0, 0); " style="box-sizing: border-box; font-size: 0px; text-align: left;"><div style="display: inline-block; font-size: 12px; font-family: Helvetica; color: rgb(0, 0, 0); line-height: 1.2; pointer-events: all; white-space: normal; overflow-wrap: normal;">3) Session Management Layer<br />• sessions.sh<br />• scans GIT_BASE (default: /mnt/4tb-m2/git) for .git dirs<br />• derives tmux-safe session name  (/ → -,  spaces/dots → -)<br />• creates sessions idempotently (skips existing)<br />• ensures tmux server is running before creation</div></div></div></foreignObject><text x="79" y="455" fill="rgb(0, 0, 0)" font-family="&quot;Helvetica&quot;" font-size="12px">3) Session Management Layer...</text></switch></g></g></g><g data-cell-id="L4"><g><rect x="69" y="524" width="540" height="95" rx="14.25" ry="14.25" fill="#d5e8d4" stroke="#82b366" pointer-events="all"/></g><g><g transform="translate(-0.5 -0.5)"><switch><foreignObject pointer-events="none" width="100%" height="100%" requiredFeatures="http://www.w3.org/TR/SVG11/feature#Extensibility" style="overflow: visible; text-align: left;"><div xmlns="http://www.w3.org/1999/xhtml" style="display: flex; align-items: unsafe center; justify-content: unsafe flex-start; width: 530px; height: 1px; padding-top: 572px; margin-left: 79px;"><div data-drawio-colors="color: rgb(0, 0, 0); " style="box-sizing: border-box; font-size: 0px; text-align: left;"><div style="display: inline-block; font-size: 12px; font-family: Helvetica; color: rgb(0, 0, 0); line-height: 1.2; pointer-events: all; white-space: normal; overflow-wrap: normal;">4) Alias Layer<br />• writes ~/.terminility_aliases  (regenerated atomically each run)<br />• one alias per session:  tmux new-session -A -s &lt;name&gt; -c &lt;path&gt;<br />  (-A: attach or create;  -c: start in repo root)<br />• install.sh adds source guard to shell RCs (idempotent)</div></div></div></foreignObject><text x="79" y="575" fill="rgb(0, 0, 0)" font-family="&quot;Helvetica&quot;" font-size="12px">4) Alias Layer...</text></switch></g></g></g><g data-cell-id="a_L1L2"><g><path d="M 339 259 L 339 283 L 37 283 L 37 260 L 339 260 L 339 277.63" fill="none" stroke="rgb(0, 0, 0)" stroke-miterlimit="10" pointer-events="stroke"/><path d="M 339 282.88 L 335.5 275.88 L 339 277.63 L 342.5 275.88 Z" fill="rgb(0, 0, 0)" stroke="rgb(0, 0, 0)" stroke-miterlimit="10" pointer-events="all"/></g></g><g data-cell-id="a_L2L3"><g><path d="M 339 379 L 339 403 L 37 403 L 37 380 L 109 380 L 109 397.63" fill="none" stroke="rgb(0, 0, 0)" stroke-miterlimit="10" pointer-events="stroke"/><path d="M 109 402.88 L 105.5 395.88 L 109 397.63 L 112.5 395.88 Z" fill="rgb(0, 0, 0)" stroke="rgb(0, 0, 0)" stroke-miterlimit="10" pointer-events="all"/></g></g><g data-cell-id="a_L3L4"><g><path d="M 339 499 L 339 523 L 37 523 L 37 500 L 339 500 L 339 517.63" fill="none" stroke="rgb(0, 0, 0)" stroke-miterlimit="10" pointer-events="stroke"/><path d="M 339 522.88 L 335.5 515.88 L 339 517.63 L 342.5 515.88 Z" fill="rgb(0, 0, 0)" stroke="rgb(0, 0, 0)" stroke-miterlimit="10" pointer-events="all"/></g></g></g><g data-cell-id="src_group"><g><path d="M 679 129 L 679 99 L 999 99 L 999 129" fill="#f5f5f5" stroke="#666666" stroke-miterlimit="10" pointer-events="all"/><path d="M 679 129 L 679 379 L 999 379 L 999 129" fill="none" stroke="#666666" stroke-miterlimit="10" pointer-events="none"/><path d="M 679 129 L 999 129" fill="none" stroke="#666666" stroke-miterlimit="10" pointer-events="none"/></g><g><g fill="#333333" font-family="&quot;Helvetica&quot;" font-weight="bold" text-anchor="middle" font-size="14px"><text x="838.5" y="119.5">Source Files (tracked)</text></g></g><g data-cell-id="S1"><g><rect x="699" y="149" width="280" height="45" rx="6.75" ry="6.75" fill="#dae8fc" stroke="#6c8ebf" pointer-events="all"/></g><g><g fill="rgb(0, 0, 0)" font-family="&quot;Helvetica&quot;" font-size="12px"><text x="708.5" y="169">install.sh</text><text x="708.5" y="183">Full install orchestrator</text></g></g></g><g data-cell-id="S2"><g><rect x="699" y="209" width="280" height="45" rx="6.75" ry="6.75" fill="#dae8fc" stroke="#6c8ebf" pointer-events="all"/></g><g><g fill="rgb(0, 0, 0)" font-family="&quot;Helvetica&quot;" font-size="12px"><text x="708.5" y="229">sessions.sh</text><text x="708.5" y="243">Repo scanner + session creator + alias generator</text></g></g></g><g data-cell-id="S3"><g><rect x="699" y="269" width="280" height="45" rx="6.75" ry="6.75" fill="#dae8fc" stroke="#6c8ebf" pointer-events="all"/></g><g><g fill="rgb(0, 0, 0)" font-family="&quot;Helvetica&quot;" font-size="12px"><text x="708.5" y="289">tmux.conf</text><text x="708.5" y="303">Tmux configuration source</text></g></g></g><g data-cell-id="S4"><g><rect x="699" y="319" width="280" height="45" rx="6.75" ry="6.75" fill="#dae8fc" stroke="#6c8ebf" pointer-events="all"/></g><g><g fill="rgb(0, 0, 0)" font-family="&quot;Helvetica&quot;" font-size="12px"><text x="708.5" y="332">docs/</text><text x="708.5" y="346">contributor-architecture-blueprint.md</text><text x="708.5" y="360">diagrams/repo-architecture.{puml,drawio}</text></g></g></g></g><g data-cell-id="ext_group"><g><path d="M 679 449 L 679 419 L 999 419 L 999 449" fill="#f5f5f5" stroke="#666666" stroke-miterlimit="10" pointer-events="all"/><path d="M 679 449 L 679 659 L 999 659 L 999 449" fill="none" stroke="#666666" stroke-miterlimit="10" pointer-events="none"/><path d="M 679 449 L 999 449" fill="none" stroke="#666666" stroke-miterlimit="10" pointer-events="none"/></g><g><g fill="#333333" font-family="&quot;Helvetica&quot;" font-weight="bold" text-anchor="middle" font-size="14px"><text x="838.5" y="439.5">External Inputs</text></g></g><g data-cell-id="E1"><g><rect x="699" y="469" width="280" height="50" rx="7.5" ry="7.5" fill="#fff2cc" stroke="#d6b656" pointer-events="all"/></g><g><g fill="rgb(0, 0, 0)" font-family="&quot;Helvetica&quot;" font-size="12px"><text x="708.5" y="484.5">/mnt/4tb-m2/git/**/.git</text><text x="708.5" y="498.5">git repositories on disk</text><text x="708.5" y="512.5">(GIT_BASE, overridable via env)</text></g></g></g><g data-cell-id="E2"><g><rect x="699" y="534" width="280" height="50" rx="7.5" ry="7.5" fill="#fff2cc" stroke="#d6b656" pointer-events="all"/></g><g><g fill="rgb(0, 0, 0)" font-family="&quot;Helvetica&quot;" font-size="12px"><text x="708.5" y="549.5">System package manager</text><text x="708.5" y="563.5">apt / dnf / pacman / brew / zypper</text><text x="708.5" y="577.5">(auto-detected)</text></g></g></g><g data-cell-id="E3"><g><rect x="699" y="597" width="280" height="50" rx="7.5" ry="7.5" fill="#fff2cc" stroke="#d6b656" pointer-events="all"/></g><g><g fill="rgb(0, 0, 0)" font-family="&quot;Helvetica&quot;" font-size="12px"><text x="708.5" y="612.5">GitHub (TPM + plugins)</text><text x="708.5" y="626.5">tmux-plugins/tpm</text><text x="708.5" y="640.5">tmux-resurrect  •  tmux-continuum</text></g></g></g></g><g data-cell-id="rt_group"><g><path d="M 1049 129 L 1049 99 L 1389 99 L 1389 129" fill="#f5f5f5" stroke="#666666" stroke-miterlimit="10" pointer-events="all"/><path d="M 1049 129 L 1049 659 L 1389 659 L 1389 129" fill="none" stroke="#666666" stroke-miterlimit="10" pointer-events="none"/><path d="M 1049 129 L 1389 129" fill="none" stroke="#666666" stroke-miterlimit="10" pointer-events="none"/></g><g><g fill="#333333" font-family="&quot;Helvetica&quot;" font-weight="bold" text-anchor="middle" font-size="14px"><text x="1218.5" y="119.5">Runtime Artifacts (untracked)</text></g></g><g data-cell-id="R1"><g><rect x="1069" y="149" width="300" height="45" fill="#ffe6cc" stroke="#d79b00" pointer-events="all"/></g><g><g fill="rgb(0, 0, 0)" font-family="&quot;Helvetica&quot;" text-anchor="middle" font-size="12px"><text x="1218.5" y="169">~/.tmux.conf</text><text x="1218.5" y="183">deployed config</text></g></g></g><g data-cell-id="R1b"><g><rect x="1069" y="149" width="300" height="40" rx="6" ry="6" fill="#ffe6cc" stroke="#d79b00" pointer-events="all"/></g><g><g fill="rgb(0, 0, 0)" font-family="&quot;Helvetica&quot;" font-size="12px"><text x="1078.5" y="173.5">~/.tmux.conf  —  deployed config</text></g></g></g><g data-cell-id="R2"><g><rect x="1069" y="204" width="300" height="40" rx="6" ry="6" fill="#ffe6cc" stroke="#d79b00" pointer-events="all"/></g><g><g fill="rgb(0, 0, 0)" font-family="&quot;Helvetica&quot;" font-size="12px"><text x="1078.5" y="228.5">~/.tmux/plugins/tpm/  —  TPM clone</text></g></g></g><g data-cell-id="R3"><g><rect x="1069" y="259" width="300" height="50" rx="7.5" ry="7.5" fill="#ffe6cc" stroke="#d79b00" pointer-events="all"/></g><g><g fill="rgb(0, 0, 0)" font-family="&quot;Helvetica&quot;" font-size="12px"><text x="1078.5" y="281.5">~/.tmux/plugins/tmux-resurrect/</text><text x="1078.5" y="295.5">~/.tmux/plugins/tmux-continuum/</text></g></g></g><g data-cell-id="R4"><g><rect x="1069" y="324" width="300" height="40" rx="6" ry="6" fill="#ffe6cc" stroke="#d79b00" pointer-events="all"/></g><g><g fill="rgb(0, 0, 0)" font-family="&quot;Helvetica&quot;" font-size="12px"><text x="1078.5" y="348.5">~/.tmux/resurrect/  —  session save files</text></g></g></g><g data-cell-id="R5"><g><rect x="1069" y="379" width="300" height="50" rx="7.5" ry="7.5" fill="#ffe6cc" stroke="#d79b00" pointer-events="all"/></g><g><g fill="rgb(0, 0, 0)" font-family="&quot;Helvetica&quot;" font-size="12px"><text x="1078.5" y="401.5">~/.terminility_aliases</text><text x="1078.5" y="415.5">generated alias file  (regenerated each run)</text></g></g></g><g data-cell-id="R6"><g><rect x="1069" y="444" width="300" height="50" rx="7.5" ry="7.5" fill="#ffe6cc" stroke="#d79b00" pointer-events="all"/></g><g><g fill="rgb(0, 0, 0)" font-family="&quot;Helvetica&quot;" font-size="12px"><text x="1078.5" y="466.5">~/.bash_aliases  /  ~/.zshrc</text><text x="1078.5" y="480.5">source guard added by install.sh</text></g></g></g></g><g data-cell-id="flow_label"><g><rect x="1049" y="689" width="340" height="130" fill="#f5f5f5" stroke="#666666" pointer-events="all"/></g><g><g transform="translate(-0.5 -0.5)"><switch><foreignObject pointer-events="none" width="100%" height="100%" requiredFeatures="http://www.w3.org/TR/SVG11/feature#Extensibility" style="overflow: visible; text-align: left;"><div xmlns="http://www.w3.org/1999/xhtml" style="display: flex; align-items: unsafe flex-start; justify-content: unsafe flex-start; width: 338px; height: 1px; padding-top: 696px; margin-left: 1051px;"><div data-drawio-colors="color: rgb(0, 0, 0); " style="box-sizing: border-box; font-size: 0px; text-align: left;"><div style="display: inline-block; font-size: 12px; font-family: Helvetica; color: rgb(0, 0, 0); line-height: 1.2; pointer-events: all; white-space: normal; overflow-wrap: normal;">Data Flow<br />/mnt/4tb-m2/git/**/.git<br />  → sessions.sh<br />  → tmux sessions (idempotent)<br />  → ~/.terminility_aliases<br />  → ~/.bash_aliases / ~/.zshrc<br />  → aliases active in every new shell</div></div></div></foreignObject><text x="1051" y="708" fill="rgb(0, 0, 0)" font-family="&quot;Helvetica&quot;" font-size="12px">Data Flow...</text></switch></g></g></g><g data-cell-id="a_S1L1"><g><path d="M 839 149 L 839 101.5 Q 839 91.5 829 91.5 L 353 91.5 Q 343 91.5 343 81.5 L 343 17 Q 343 7 333 7 L 25 7 Q 15 7 15 17 L 15 99 Q 15 109 25 109 L 329 109 Q 339 109 339 119 L 339 146.76" fill="none" stroke="rgb(0, 0, 0)" stroke-miterlimit="10" stroke-dasharray="3 3" pointer-events="stroke"/><path d="M 335.5 140.88 L 339 147.88 L 342.5 140.88" fill="none" stroke="rgb(0, 0, 0)" stroke-miterlimit="10" pointer-events="all"/></g><g><g fill="rgb(0, 0, 0)" font-family="&quot;Helvetica&quot;" text-anchor="middle" font-size="11px"><rect fill="rgb(255, 255, 255)" stroke="none" x="234" y="1" width="63" height="14" stroke-width="0"/><text x="264.5" y="11">orchestrates</text></g></g></g><g data-cell-id="a_S2L3"><g><path d="M 699 231.5 L 189 231.5 Q 179 231.5 179 221.5 L 179 208 Q 179 198 169 198 L 17 198 Q 7 198 7 208 L 7 290 Q 7 300 17 300 L 299 300 Q 309 300 309 310 L 309 393 Q 309 403 309 402.38 L 309 401.76" fill="none" stroke="rgb(0, 0, 0)" stroke-miterlimit="10" stroke-dasharray="3 3" pointer-events="stroke"/><path d="M 305.5 395.88 L 309 402.88 L 312.5 395.88" fill="none" stroke="rgb(0, 0, 0)" stroke-miterlimit="10" pointer-events="all"/></g><g><g fill="rgb(0, 0, 0)" font-family="&quot;Helvetica&quot;" text-anchor="middle" font-size="11px"><rect fill="rgb(255, 255, 255)" stroke="none" x="87" y="192" width="58" height="14" stroke-width="0"/><text x="115" y="202">implements</text></g></g></g><g data-cell-id="a_S3L2"><g><path d="M 839 269 L 839 221.5 Q 839 211.5 829 211.5 L 353 211.5 Q 343 211.5 343 201.5 L 343 17 Q 343 7 333 7 L 25 7 Q 15 7 15 17 L 15 193 C 21.5 193 21.5 203 15 203 L 15 203 L 15 241.5 Q 15 251.5 25 251.5 L 329 251.5 Q 339 251.5 339 261.5 L 339 281.76" fill="none" stroke="rgb(0, 0, 0)" stroke-miterlimit="10" stroke-dasharray="3 3" pointer-events="stroke"/><path d="M 335.5 275.88 L 339 282.88 L 342.5 275.88" fill="none" stroke="rgb(0, 0, 0)" stroke-miterlimit="10" pointer-events="all"/></g><g><g fill="rgb(0, 0, 0)" font-family="&quot;Helvetica&quot;" text-anchor="middle" font-size="11px"><rect fill="rgb(255, 255, 255)" stroke="none" x="240" y="1" width="35" height="14" stroke-width="0"/><text x="256.5" y="11">source</text></g></g></g><g data-cell-id="a_E2L1"><g><path d="M 839 534 L 839 169 Q 839 159 829 159 L 353 159 Q 343 159 343 149 L 343 17 Q 343 7 333 7 L 25 7 Q 15 7 15 17 L 15 129 Q 15 139 25 139 L 329 139 Q 339 139 339 139.94 L 339 140.88" fill="none" stroke="rgb(0, 0, 0)" stroke-miterlimit="10" pointer-events="stroke"/><path d="M 339 147.88 L 335.5 140.88 L 342.5 140.88 Z" fill="rgb(0, 0, 0)" stroke="rgb(0, 0, 0)" stroke-miterlimit="10" pointer-events="all"/></g><g><g fill="rgb(0, 0, 0)" font-family="&quot;Helvetica&quot;" text-anchor="middle" font-size="11px"><rect fill="rgb(255, 255, 255)" stroke="none" x="312" y="115" width="63" height="14" stroke-width="0"/><text x="342.5" y="125">installs tmux</text></g></g></g><g data-cell-id="a_E3L1"><g><path d="M 839 597 L 839 183 Q 839 173 829 173 L 348 173 C 348 166.5 338 166.5 338 173 L 338 173 L 20 173 C 20 166.5 10 166.5 10 173 L 10 173 L 8.5 173 Q 7 173 7 183 L 7 193 Q 7 203 8.5 203 L 10 203 C 10 196.5 20 196.5 20 203 L 20 203 L 60.88 203" fill="none" stroke="rgb(0, 0, 0)" stroke-miterlimit="10" pointer-events="stroke"/><path d="M 67.88 203 L 60.88 206.5 L 60.88 199.5 Z" fill="rgb(0, 0, 0)" stroke="rgb(0, 0, 0)" stroke-miterlimit="10" pointer-events="all"/></g><g><g fill="rgb(0, 0, 0)" font-family="&quot;Helvetica&quot;" text-anchor="middle" font-size="11px"><rect fill="rgb(255, 255, 255)" stroke="none" x="539" y="167" width="101" height="14" stroke-width="0"/><text x="588.5" y="177">clones TPM+plugins</text></g></g></g><g data-cell-id="a_E1L3"><g><path d="M 699 494 L 189 494 Q 179 494 179 484 L 179 408 C 185.5 408 185.5 398 179 398 L 179 398 L 179 305 C 185.5 305 185.5 295 179 295 L 179 295 L 179 288 C 185.5 288 185.5 278 179 278 L 179 278 L 179 265 C 185.5 265 185.5 255 179 255 L 179 255 L 179 256.5 C 185.5 256.5 185.5 246.5 179 246.5 L 179 246.5 L 179 178 C 185.5 178 185.5 168 179 168 L 179 168 L 179 153 Q 179 143 189 143 L 329 143 Q 339 143 341 143 L 342 143 Q 343 143 353 143 L 643 143 Q 653 143 653 148.5 L 653 154 C 659.5 154 659.5 164 653 164 L 653 164 L 653 168 C 659.5 168 659.5 178 653 178 L 653 178 L 653 206.5 C 659.5 206.5 659.5 216.5 653 216.5 L 653 216.5 L 653 226.5 C 659.5 226.5 659.5 236.5 653 236.5 L 653 236.5 L 653 290 Q 653 300 643 300 L 549 300 Q 539 300 539 310 L 539 395.88" fill="none" stroke="rgb(0, 0, 0)" stroke-miterlimit="10" pointer-events="stroke"/><path d="M 539 402.88 L 535.5 395.88 L 542.5 395.88 Z" fill="rgb(0, 0, 0)" stroke="rgb(0, 0, 0)" stroke-miterlimit="10" pointer-events="all"/></g><g><g fill="rgb(0, 0, 0)" font-family="&quot;Helvetica&quot;" text-anchor="middle" font-size="11px"><rect fill="rgb(255, 255, 255)" stroke="none" x="135" y="148" width="90" height="14" stroke-width="0"/><text x="178.5" y="158">scanned for repos</text></g></g></g><g data-cell-id="a_L1R1"><g><path d="M 339 149 L 339 148 C 345.5 148 345.5 138 339 138 L 339 138 L 339 119 Q 339 109 329 109 L 25 109 Q 15 109 15 99 L 15 17 Q 15 7 25 7 L 353 7 Q 363 7 363 17 L 363 79 Q 363 89 373 89 L 1209 89 Q 1219 89 1219 99 L 1219 140.88" fill="none" stroke="rgb(0, 0, 0)" stroke-miterlimit="10" pointer-events="stroke"/><path d="M 1219 147.88 L 1215.5 140.88 L 1222.5 140.88 Z" fill="rgb(0, 0, 0)" stroke="rgb(0, 0, 0)" stroke-miterlimit="10" pointer-events="all"/></g><g><g fill="rgb(0, 0, 0)" font-family="&quot;Helvetica&quot;" text-anchor="middle" font-size="11px"><rect fill="rgb(255, 255, 255)" stroke="none" x="354" y="83" width="40" height="14" stroke-width="0"/><text x="372.5" y="93">deploys</text></g></g></g><g data-cell-id="a_L1R2"><g><path d="M 339 149 L 339 148 C 345.5 148 345.5 138 339 138 L 339 138 L 339 131 Q 339 124 329 124 L 25 124 Q 15 124 15 114 L 15 17 Q 15 7 25 7 L 353 7 Q 363 7 363 17 L 363 86.5 C 369.5 86.5 369.5 96.5 363 96.5 L 363 96.5 L 363 133 Q 363 143 363 143.5 L 363 143.75 Q 363 144 373 144 L 648 144 C 648 137.5 658 137.5 658 144 L 658 144 L 834 144 C 834 137.5 844 137.5 844 144 L 844 144 L 1209 144 Q 1219 144 1219 154 L 1219 195.88" fill="none" stroke="rgb(0, 0, 0)" stroke-miterlimit="10" pointer-events="stroke"/><path d="M 1219 202.88 L 1215.5 195.88 L 1222.5 195.88 Z" fill="rgb(0, 0, 0)" stroke="rgb(0, 0, 0)" stroke-miterlimit="10" pointer-events="all"/></g><g><g fill="rgb(0, 0, 0)" font-family="&quot;Helvetica&quot;" text-anchor="middle" font-size="11px"><rect fill="rgb(255, 255, 255)" stroke="none" x="347" y="121" width="34" height="14" stroke-width="0"/><text x="362.5" y="131">clones</text></g></g></g><g data-cell-id="a_L1R3"><g><path d="M 339 149 L 339 146 Q 339 143 339 141 L 339 140 Q 339 139 329 139 L 25 139 Q 15 139 15 129 L 15 17 Q 15 7 25 7 L 353 7 Q 363 7 363 17 L 363 86.5 C 369.5 86.5 369.5 96.5 363 96.5 L 363 96.5 L 363 138 C 369.5 138 369.5 148 363 148 L 363 148 L 363 154 C 369.5 154 369.5 164 363 164 L 363 164 L 363 168 C 369.5 168 369.5 178 363 178 L 363 178 L 363 194 Q 363 204 373 204 L 648 204 C 648 197.5 658 197.5 658 204 L 658 204 L 834 204 C 834 197.5 844 197.5 844 204 L 844 204 L 1209 204 Q 1219 204 1219 214 L 1219 250.88" fill="none" stroke="rgb(0, 0, 0)" stroke-miterlimit="10" pointer-events="stroke"/><path d="M 1219 257.88 L 1215.5 250.88 L 1222.5 250.88 Z" fill="rgb(0, 0, 0)" stroke="rgb(0, 0, 0)" stroke-miterlimit="10" pointer-events="all"/></g><g><g fill="rgb(0, 0, 0)" font-family="&quot;Helvetica&quot;" text-anchor="middle" font-size="11px"><rect fill="rgb(255, 255, 255)" stroke="none" x="346" y="148" width="36" height="14" stroke-width="0"/><text x="362.5" y="158">installs</text></g></g></g><g data-cell-id="a_L3R4"><g><path d="M 309 404 L 309 403.5 Q 309 403 309 393 L 309 310 Q 309 300 299 300 L 184 300 C 184 293.5 174 293.5 174 300 L 174 300 L 17 300 Q 7 300 7 304 L 7 306 Q 7 308 17 308 L 174 308 C 174 301.5 184 301.5 184 308 L 184 308 L 186.5 308 Q 189 308 189 318 L 189 334 Q 189 344 199 344 L 304 344 C 304 337.5 314 337.5 314 344 L 314 344 L 534 344 C 534 337.5 544 337.5 544 344 L 544 344 L 834 344 C 834 337.5 844 337.5 844 344 L 844 344 L 1060.88 344" fill="none" stroke="rgb(0, 0, 0)" stroke-miterlimit="10" pointer-events="stroke"/><path d="M 1067.88 344 L 1060.88 347.5 L 1060.88 340.5 Z" fill="rgb(0, 0, 0)" stroke="rgb(0, 0, 0)" stroke-miterlimit="10" pointer-events="all"/></g><g><g fill="rgb(0, 0, 0)" font-family="&quot;Helvetica&quot;" text-anchor="middle" font-size="11px"><rect fill="rgb(255, 255, 255)" stroke="none" x="281" y="338" width="66" height="14" stroke-width="0"/><text x="312.5" y="348">sessions use</text></g></g></g><g data-cell-id="a_L4R5"><g><path d="M 79 524 L 79 523.5 Q 79 523 79 514 L 79 505 C 85.5 505 85.5 495 79 495 L 79 495 L 79 430 Q 79 420 69 420 L 17 420 Q 7 420 7 410 L 7 383 Q 7 373 17 373 L 174 373 C 174 366.5 184 366.5 184 373 L 184 373 L 186.5 373 Q 189 373 189 383 L 189 393 Q 189 403 189 403.5 L 189 403.75 Q 189 404 199 404 L 299 404 Q 309 404 319 404 L 534 404 C 534 397.5 544 397.5 544 404 L 544 404 L 834 404 C 834 397.5 844 397.5 844 404 L 844 404 L 1060.88 404" fill="none" stroke="rgb(0, 0, 0)" stroke-miterlimit="10" pointer-events="stroke"/><path d="M 1067.88 404 L 1060.88 407.5 L 1060.88 400.5 Z" fill="rgb(0, 0, 0)" stroke="rgb(0, 0, 0)" stroke-miterlimit="10" pointer-events="all"/></g><g><g fill="rgb(0, 0, 0)" font-family="&quot;Helvetica&quot;" text-anchor="middle" font-size="11px"><rect fill="rgb(255, 255, 255)" stroke="none" x="386" y="398" width="51" height="14" stroke-width="0"/><text x="410.5" y="408">generates</text></g></g></g><g data-cell-id="a_L4R6"><g><path d="M 539 524 L 539 499 C 545.5 499 545.5 489 539 489 L 539 489 L 539 430 Q 539 420 549 420 L 643 420 Q 653 420 653 429 L 653 433.5 Q 653 438 643 438 L 199 438 Q 189 438 189 448 L 189 459 Q 189 469 199 469 L 834 469 C 834 462.5 844 462.5 844 469 L 844 469 L 1060.88 469" fill="none" stroke="rgb(0, 0, 0)" stroke-miterlimit="10" pointer-events="stroke"/><path d="M 1067.88 469 L 1060.88 472.5 L 1060.88 465.5 Z" fill="rgb(0, 0, 0)" stroke="rgb(0, 0, 0)" stroke-miterlimit="10" pointer-events="all"/></g><g><g fill="rgb(0, 0, 0)" font-family="&quot;Helvetica&quot;" text-anchor="middle" font-size="11px"><rect fill="rgb(255, 255, 255)" stroke="none" x="217" y="463" width="95" height="14" stroke-width="0"/><text x="263.5" y="473">wires source guard</text></g></g></g></g></g></g><switch><g requiredFeatures="http://www.w3.org/TR/SVG11/feature#Extensibility"/><a transform="translate(0,-5)" xlink:href="https://www.drawio.com/doc/faq/svg-export-text-problems" target="_blank"><text text-anchor="middle" font-size="10px" x="50%" y="100%">Text is not SVG - cannot display</text></a></switch></svg>