<?xml version="1.0" encoding="UTF-8"?>
<!DOCTYPE svg PUBLIC "-//W3C//DTD SVG 1.1//EN" "http://www.w3.org/Graphics/SVG/1.1/DTD/svg11.dtd">
<svg xmlns="http://www.w3.org/2000/svg" xmlns:xlink="http://www.w3.org/1999/xlink" version="1.1" width="1448px" height="1182px" viewBox="-0.5 -0.5 1448 1182"><defs/><g><g data-cell-id="0"><g data-cell-id="1"><g data-cell-id="title"><g><rect x="46" y="0" width="1400" height="40" fill="none" stroke="none" pointer-events="all"/></g><g><g transform="translate(-0.5 -0.5)"><switch><foreignObject pointer-events="none" width="100%" height="100%" requiredFeatures="http://www.w3.org/TR/SVG11/feature#Extensibility" style="overflow: visible; text-align: left;"><div xmlns="http://www.w3.org/1999/xhtml" style="display: flex; align-items: unsafe center; justify-content: unsafe center; width: 1398px; height: 1px; padding-top: 20px; margin-left: 47px;"><div data-drawio-colors="color: rgb(0, 0, 0); " style="box-sizing: border-box; font-size: 0px; text-align: center;"><div style="display: inline-block; font-size: 22px; font-family: Helvetica; color: rgb(0, 0, 0); line-height: 1.2; pointer-events: all; font-weight: bold; white-space: normal; overflow-wrap: normal;">terminility Repository Architecture</div></div></div></foreignObject><text x="746" y="27" fill="rgb(0, 0, 0)" font-family="&quot;Helvetica&quot;" font-size="22px" text-anchor="middle" font-weight="bold">terminility Repository Architecture</text></switch></g></g></g><g data-cell-id="layer_group"><g><path d="M 76 90 L 76 60 L 656 60 L 656 90" fill="#f5f5f5" stroke="#666666" stroke-miterlimit="10" pointer-events="all"/><path d="M 76 90 L 76 620 L 656 620 L 656 90" fill="none" stroke="#666666" stroke-miterlimit="10" pointer-events="none"/><path d="M 76 90 L 656 90" fill="none" stroke="#666666" stroke-miterlimit="10" pointer-events="none"/></g><g><g fill="#333333" font-family="&quot;Helvetica&quot;" font-weight="bold" text-anchor="middle" font-size="14px"><text x="365.5" y="80.5">Layer Stack</text></g></g><g data-cell-id="L1"><g><rect x="96" y="110" width="540" height="145" rx="21.75" ry="21.75" fill="#d5e8d4" stroke="#82b366" pointer-events="all"/></g><g><g transform="translate(-0.5 -0.5)"><switch><foreignObject pointer-events="none" width="100%" height="100%" requiredFeatures="http://www.w3.org/TR/SVG11/feature#Extensibility" style="overflow: visible; text-align: left;"><div xmlns="http://www.w3.org/1999/xhtml" style="display: flex; align-items: unsafe center; justify-content: unsafe flex-start; width: 530px; height: 1px; padding-top: 183px; margin-left: 106px;"><div data-drawio-colors="color: rgb(0, 0, 0); " style="box-sizing: border-box; font-size: 0px; text-align: left;"><div style="display: inline-block; font-size: 12px; font-family: Helvetica; color: rgb(0, 0, 0); line-height: 1.2; pointer-events: all; white-space: normal; overflow-wrap: normal;">1) Installation Layer<br />• install.sh<br />• detects package manager (apt/dnf/pacman/brew/zypper)<br />• installs tmux, clones/updates TPM<br />• backs up existing ~/.tmux.conf<br />• runs TPM headlessly to install plugins<br />• invokes sessions.sh<br />• wires alias source guard into ~/.bashrc / ~/.zshrc</div></div></div></foreignObject><text x="106" y="186" fill="rgb(0, 0, 0)" font-family="&quot;Helvetica&quot;" font-size="12px">1) Installation Layer...</text></switch></g></g></g><g data-cell-id="L2"><g><rect x="96" y="365" width="540" height="305" rx="45.75" ry="45.75" fill="#d5e8d4" stroke="#82b366" pointer-events="all"/></g><g><g transform="translate(-0.5 -0.5)"><switch><foreignObject pointer-events="none" width="100%" height="100%" requiredFeatures="http://www.w3.org/TR/SVG11/feature#Extensibility" style="overflow: visible; text-align: left;"><div xmlns="http://www.w3.org/1999/xhtml" style="display: flex; align-items: unsafe center; justify-content: unsafe flex-start; width: 530px; height: 1px; padding-top: 518px; margin-left: 106px;"><div data-drawio-colors="color: rgb(0, 0, 0); " style="box-sizing: border-box; font-size: 0px; text-align: left;"><div style="display: inline-block; font-size: 12px; font-family: Helvetica; color: rgb(0, 0, 0); line-height: 1.2; pointer-events: all; white-space: normal; overflow-wrap: normal;">2) Configuration Layer<br />• tmux.conf  →  ~/.tmux.conf<br />• 256-color + true-color, mouse, 50k history, base-index 1<br />• intuitive split/nav bindings + reload key (prefix+r)<br />• TPM plugins: tmux-sensible, tmux-resurrect, tmux-continuum<br />• auto-save every 15 min, auto-restore on server start</div></div></div></foreignObject><text x="106" y="521" fill="rgb(0, 0, 0)" font-family="&quot;Helvetica&quot;" font-size="12px">2) Configuration Layer...</text></switch></g></g></g><g data-cell-id="L3"><g><rect x="96" y="920" width="540" height="140" rx="21" ry="21" fill="#d5e8d4" stroke="#82b366" pointer-events="all"/></g><g><g transform="translate(-0.5 -0.5)"><switch><foreignObject pointer-events="none" width="100%" height="100%" requiredFeatures="http://www.w3.org/TR/SVG11/feature#Extensibility" style="overflow: visible; text-align: left;"><div xmlns="http://www.w3.org/1999/xhtml" style="display: flex; align-items: unsafe center; justify-content: unsafe flex-start; width: 530px; height: 1px; padding-top: 990px; margin-left: 106px;"><div data-drawio-colors="color: rgb(0, 0, 0); " style="box-sizing: border-box; font-size: 0px; text-align: left;"><div style="display: inline-block; font-size: 12px; font-family: Helvetica; color: rgb(0, 0, 0); line-height: 1.2; pointer-events: all; white-space: normal; overflow-wrap: normal;">3) Session Management Layer<br />• sessions.sh<br />• scans GIT_BASE (default: /mnt/4tb-m2/git) for .git dirs<br />• derives tmux-safe session name  (/ → -,  spaces/dots → -)<br />• creates sessions idempotently (skips existing)<br />• ensures tmux server is running before creation</div></div></div></foreignObject><text x="106" y="994" fill="rgb(0, 0, 0)" font-family="&quot;Helvetica&quot;" font-size="12px">3) Session Management Layer...</text></switch></g></g></g><g data-cell-id="L4"><g><rect x="96" y="1085" width="540" height="95" rx="14.25" ry="14.25" fill="#d5e8d4" stroke="#82b366" pointer-events="all"/></g><g><g transform="translate(-0.5 -0.5)"><switch><foreignObject pointer-events="none" width="100%" height="100%" requiredFeatures="http://www.w3.org/TR/SVG11/feature#Extensibility" style="overflow: visible; text-align: left;"><div xmlns="http://www.w3.org/1999/xhtml" style="display: flex; align-items: unsafe center; justify-content: unsafe flex-start; width: 530px; height: 1px; padding-top: 1133px; margin-left: 106px;"><div data-drawio-colors="color: rgb(0, 0, 0); " style="box-sizing: border-box; font-size: 0px; text-align: left;"><div style="display: inline-block; font-size: 12px; font-family: Helvetica; color: rgb(0, 0, 0); line-height: 1.2; pointer-events: all; white-space: normal; overflow-wrap: normal;">4) Alias Layer<br />• writes ~/.terminility_aliases  (regenerated atomically each run)<br />• one alias per session:  tmux new-session -A -s &lt;name&gt; -c &lt;path&gt;<br />  (-A: attach or create;  -c: start in repo root)<br />• install.sh adds source guard to shell RCs (idempotent)</div></div></div></foreignObject><text x="106" y="1136" fill="rgb(0, 0, 0)" font-family="&quot;Helvetica&quot;" font-size="12px">4) Alias Layer...</text></switch></g></g></g><g data-cell-id="a_L1L2"><g><path d="M 136 255 L 136 279 L 64 279 L 64 341 L 366 341 L 366 358.63" fill="none" stroke="rgb(0, 0, 0)" stroke-miterlimit="10" pointer-events="stroke"/><path d="M 366 363.88 L 362.5 356.88 L 366 358.63 L 369.5 356.88 Z" fill="rgb(0, 0, 0)" stroke="rgb(0, 0, 0)" stroke-miterlimit="10" pointer-events="all"/></g></g><g data-cell-id="a_L2L3"><g><path d="M 366 670 L 366 694 L 692 694 L 692 896 L 136 896 L 136 913.63" fill="none" stroke="rgb(0, 0, 0)" stroke-miterlimit="10" pointer-events="stroke"/><path d="M 136 918.88 L 132.5 911.88 L 136 913.63 L 139.5 911.88 Z" fill="rgb(0, 0, 0)" stroke="rgb(0, 0, 0)" stroke-miterlimit="10" pointer-events="all"/></g></g><g data-cell-id="a_L3L4"><g><path d="M 366 1060 L 366 1078.63" fill="none" stroke="rgb(0, 0, 0)" stroke-miterlimit="10" pointer-events="stroke"/><path d="M 366 1083.88 L 362.5 1076.88 L 366 1078.63 L 369.5 1076.88 Z" fill="rgb(0, 0, 0)" stroke="rgb(0, 0, 0)" stroke-miterlimit="10" pointer-events="all"/></g></g></g><g data-cell-id="src_group"><g><path d="M 706 90 L 706 60 L 1026 60 L 1026 90" fill="#f5f5f5" stroke="#666666" stroke-miterlimit="10" pointer-events="all"/><path d="M 706 90 L 706 340 L 1026 340 L 1026 90" fill="none" stroke="#666666" stroke-miterlimit="10" pointer-events="none"/><path d="M 706 90 L 1026 90" fill="none" stroke="#666666" stroke-miterlimit="10" pointer-events="none"/></g><g><g fill="#333333" font-family="&quot;Helvetica&quot;" font-weight="bold" text-anchor="middle" font-size="14px"><text x="865.5" y="80.5">Source Files (tracked)</text></g></g><g data-cell-id="S1"><g><rect x="726" y="110" width="280" height="45" rx="6.75" ry="6.75" fill="#dae8fc" stroke="#6c8ebf" pointer-events="all"/></g><g><g fill="rgb(0, 0, 0)" font-family="&quot;Helvetica&quot;" font-size="12px"><text x="735.5" y="130">install.sh</text><text x="735.5" y="144">Full install orchestrator</text></g></g></g><g data-cell-id="S2"><g><rect x="726" y="225" width="280" height="45" rx="6.75" ry="6.75" fill="#dae8fc" stroke="#6c8ebf" pointer-events="all"/></g><g><g fill="rgb(0, 0, 0)" font-family="&quot;Helvetica&quot;" font-size="12px"><text x="735.5" y="245">sessions.sh</text><text x="735.5" y="259">Repo scanner + session creator + alias generator</text></g></g></g><g data-cell-id="S3"><g><rect x="726" y="415" width="280" height="45" rx="6.75" ry="6.75" fill="#dae8fc" stroke="#6c8ebf" pointer-events="all"/></g><g><g fill="rgb(0, 0, 0)" font-family="&quot;Helvetica&quot;" font-size="12px"><text x="735.5" y="435">tmux.conf</text><text x="735.5" y="449">Tmux configuration source</text></g></g></g><g data-cell-id="S4"><g><rect x="726" y="585" width="280" height="45" rx="6.75" ry="6.75" fill="#dae8fc" stroke="#6c8ebf" pointer-events="all"/></g><g><g fill="rgb(0, 0, 0)" font-family="&quot;Helvetica&quot;" font-size="12px"><text x="735.5" y="598">docs/</text><text x="735.5" y="612">contributor-architecture-blueprint.md</text><text x="735.5" y="626">diagrams/repo-architecture.{puml,drawio}</text></g></g></g></g><g data-cell-id="ext_group"><g><path d="M 706 410 L 706 380 L 1026 380 L 1026 410" fill="#f5f5f5" stroke="#666666" stroke-miterlimit="10" pointer-events="all"/><path d="M 706 410 L 706 620 L 1026 620 L 1026 410" fill="none" stroke="#666666" stroke-miterlimit="10" pointer-events="none"/><path d="M 706 410 L 1026 410" fill="none" stroke="#666666" stroke-miterlimit="10" pointer-events="none"/></g><g><g fill="#333333" font-family="&quot;Helvetica&quot;" font-weight="bold" text-anchor="middle" font-size="14px"><text x="865.5" y="400.5">External Inputs</text></g></g><g data-cell-id="E1"><g><rect x="726" y="430" width="280" height="50" rx="7.5" ry="7.5" fill="#fff2cc" stroke="#d6b656" pointer-events="all"/></g><g><g fill="rgb(0, 0, 0)" font-family="&quot;Helvetica&quot;" font-size="12px"><text x="735.5" y="445.5">/mnt/4tb-m2/git/**/.git</text><text x="735.5" y="459.5">git repositories on disk</text><text x="735.5" y="473.5">(GIT_BASE, overridable via env)</text></g></g></g><g data-cell-id="E2"><g><rect x="726" y="495" width="280" height="135" rx="20.25" ry="20.25" fill="#fff2cc" stroke="#d6b656" pointer-events="all"/></g><g><g fill="rgb(0, 0, 0)" font-family="&quot;Helvetica&quot;" font-size="12px"><text x="735.5" y="553">System package manager</text><text x="735.5" y="567">apt / dnf / pacman / brew / zypper</text><text x="735.5" y="581">(auto-detected)</text></g></g></g><g data-cell-id="E3"><g><rect x="726" y="805" width="280" height="50" rx="7.5" ry="7.5" fill="#fff2cc" stroke="#d6b656" pointer-events="all"/></g><g><g fill="rgb(0, 0, 0)" font-family="&quot;Helvetica&quot;" font-size="12px"><text x="735.5" y="820.5">GitHub (TPM + plugins)</text><text x="735.5" y="834.5">tmux-plugins/tpm</text><text x="735.5" y="848.5">tmux-resurrect  •  tmux-continuum</text></g></g></g></g><g data-cell-id="rt_group"><g><path d="M 1076 90 L 1076 60 L 1416 60 L 1416 90" fill="#f5f5f5" stroke="#666666" stroke-miterlimit="10" pointer-events="all"/><path d="M 1076 90 L 1076 620 L 1416 620 L 1416 90" fill="none" stroke="#666666" stroke-miterlimit="10" pointer-events="none"/><path d="M 1076 90 L 1416 90" fill="none" stroke="#666666" stroke-miterlimit="10" pointer-events="none"/></g><g><g fill="#333333" font-family="&quot;Helvetica&quot;" font-weight="bold" text-anchor="middle" font-size="14px"><text x="1245.5" y="80.5">Runtime Artifacts (untracked)</text></g></g><g data-cell-id="R1"><g><rect x="1096" y="110" width="300" height="45" fill="#ffe6cc" stroke="#d79b00" pointer-events="all"/></g><g><g fill="rgb(0, 0, 0)" font-family="&quot;Helvetica&quot;" text-anchor="middle" font-size="12px"><text x="1245.5" y="130">~/.tmux.conf</text><text x="1245.5" y="144">deployed config</text></g></g></g><g data-cell-id="R1b"><g><rect x="1096" y="110" width="300" height="40" rx="6" ry="6" fill="#ffe6cc" stroke="#d79b00" pointer-events="all"/></g><g><g fill="rgb(0, 0, 0)" font-family="&quot;Helvetica&quot;" font-size="12px"><text x="1105.5" y="134.5">~/.tmux.conf  —  deployed config</text></g></g></g><g data-cell-id="R2"><g><rect x="1096" y="165" width="300" height="40" rx="6" ry="6" fill="#ffe6cc" stroke="#d79b00" pointer-events="all"/></g><g><g fill="rgb(0, 0, 0)" font-family="&quot;Helvetica&quot;" font-size="12px"><text x="1105.5" y="189.5">~/.tmux/plugins/tpm/  —  TPM clone</text></g></g></g><g data-cell-id="R3"><g><rect x="1096" y="340" width="300" height="235" rx="35.25" ry="35.25" fill="#ffe6cc" stroke="#d79b00" pointer-events="all"/></g><g><g fill="rgb(0, 0, 0)" font-family="&quot;Helvetica&quot;" font-size="12px"><text x="1105.5" y="455">~/.tmux/plugins/tmux-resurrect/</text><text x="1105.5" y="469">~/.tmux/plugins/tmux-continuum/</text></g></g></g><g data-cell-id="R4"><g><rect x="1096" y="730" width="300" height="80" rx="12" ry="12" fill="#ffe6cc" stroke="#d79b00" pointer-events="all"/></g><g><g fill="rgb(0, 0, 0)" font-family="&quot;Helvetica&quot;" font-size="12px"><text x="1105.5" y="774.5">~/.tmux/resurrect/  —  session save files</text></g></g></g><g data-cell-id="R5"><g><rect x="1096" y="895" width="300" height="50" rx="7.5" ry="7.5" fill="#ffe6cc" stroke="#d79b00" pointer-events="all"/></g><g><g fill="rgb(0, 0, 0)" font-family="&quot;Helvetica&quot;" font-size="12px"><text x="1105.5" y="917.5">~/.terminility_aliases</text><text x="1105.5" y="931.5">generated alias file  (regenerated each run)</text></g></g></g><g data-cell-id="R6"><g><rect x="1096" y="970" width="300" height="50" rx="7.5" ry="7.5" fill="#ffe6cc" stroke="#d79b00" pointer-events="all"/></g><g><g fill="rgb(0, 0, 0)" font-family="&quot;Helvetica&quot;" font-size="12px"><text x="1105.5" y="992.5">~/.bash_aliases  /  ~/.zshrc</text><text x="1105.5" y="1006.5">source guard added by install.sh</text></g></g></g></g><g data-cell-id="flow_label"><g><rect x="1076" y="650" width="340" height="130" fill="#f5f5f5" stroke="#666666" pointer-events="all"/></g><g><g transform="translate(-0.5 -0.5)"><switch><foreignObject pointer-events="none" width="100%" height="100%" requiredFeatures="http://www.w3.org/TR/SVG11/feature#Extensibility" style="overflow: visible; text-align: left;"><div xmlns="http://www.w3.org/1999/xhtml" style="display: flex; align-items: unsafe flex-start; justify-content: unsafe flex-start; width: 338px; height: 1px; padding-top: 657px; margin-left: 1078px;"><div data-drawio-colors="color: rgb(0, 0, 0); " style="box-sizing: border-box; font-size: 0px; text-align: left;"><div style="display: inline-block; font-size: 12px; font-family: Helvetica; color: rgb(0, 0, 0); line-height: 1.2; pointer-events: all; white-space: normal; overflow-wrap: normal;">Data Flow<br />/mnt/4tb-m2/git/**/.git<br />  → sessions.sh<br />  → tmux sessions (idempotent)<br />  → ~/.terminility_aliases<br />  → ~/.bash_aliases / ~/.zshrc<br />  → aliases active in every new shell</div></div></div></foreignObject><text x="1078" y="669" fill="rgb(0, 0, 0)" font-family="&quot;Helvetica&quot;" font-size="12px">Data Flow...</text></switch></g></g></g><g data-cell-id="a_S1L1"><g><path d="M 726 132.5 L 691 132.5 Q 681 132.5 681 142.5 L 681 172.5 Q 681 182.5 671 182.5 L 638.24 182.5" fill="none" stroke="rgb(0, 0, 0)" stroke-miterlimit="10" stroke-dasharray="3 3" pointer-events="stroke"/><path d="M 644.12 179 L 637.12 182.5 L 644.12 186" fill="none" stroke="rgb(0, 0, 0)" stroke-miterlimit="10" pointer-events="all"/></g><g><g fill="rgb(0, 0, 0)" font-family="&quot;Helvetica&quot;" text-anchor="middle" font-size="11px"><rect fill="rgb(255, 255, 255)" stroke="none" x="650" y="152" width="63" height="14" stroke-width="0"/><text x="680.5" y="161.5">orchestrates</text></g></g></g><g data-cell-id="a_S2L3"><g><path d="M 726 247.5 L 216 247.5 Q 206 247.5 206 237.5 L 206 224 Q 206 214 216 214 L 670 214 Q 680 214 680 224 L 680 689 C 686.5 689 686.5 699 680 699 L 680 699 L 680 806 Q 680 816 670 816 L 346 816 Q 336 816 336 826 L 336 891 C 342.5 891 342.5 901 336 901 L 336 901 L 336 917.76" fill="none" stroke="rgb(0, 0, 0)" stroke-miterlimit="10" stroke-dasharray="3 3" pointer-events="stroke"/><path d="M 332.5 911.88 L 336 918.88 L 339.5 911.88" fill="none" stroke="rgb(0, 0, 0)" stroke-miterlimit="10" pointer-events="all"/></g><g><g fill="rgb(0, 0, 0)" font-family="&quot;Helvetica&quot;" text-anchor="middle" font-size="11px"><rect fill="rgb(255, 255, 255)" stroke="none" x="652" y="220" width="58" height="14" stroke-width="0"/><text x="679.5" y="229.5">implements</text></g></g></g><g data-cell-id="a_S3L2"><g><path d="M 726 437.5 L 691 437.5 Q 681 437.5 681 447.5 L 681 507.5 Q 681 517.5 680.5 517.5 L 680.25 517.5 Q 680 517.5 670 517.5 L 638.24 517.5" fill="none" stroke="rgb(0, 0, 0)" stroke-miterlimit="10" stroke-dasharray="3 3" pointer-events="stroke"/><path d="M 644.12 514 L 637.12 517.5 L 644.12 521" fill="none" stroke="rgb(0, 0, 0)" stroke-miterlimit="10" pointer-events="all"/></g><g><g fill="rgb(0, 0, 0)" font-family="&quot;Helvetica&quot;" text-anchor="middle" font-size="11px"><rect fill="rgb(255, 255, 255)" stroke="none" x="664" y="472" width="35" height="14" stroke-width="0"/><text x="680.5" y="481.5">source</text></g></g></g><g data-cell-id="a_E2L1"><g><path d="M 726 562.5 L 685 562.5 C 685 556 675 556 675 562.5 L 675 562.5 L 376 562.5 Q 366 562.5 366 552.5 L 366 263.12" fill="none" stroke="rgb(0, 0, 0)" stroke-miterlimit="10" pointer-events="stroke"/><path d="M 366 256.12 L 369.5 263.12 L 362.5 263.12 Z" fill="rgb(0, 0, 0)" stroke="rgb(0, 0, 0)" stroke-miterlimit="10" pointer-events="all"/></g><g><g fill="rgb(0, 0, 0)" font-family="&quot;Helvetica&quot;" text-anchor="middle" font-size="11px"><rect fill="rgb(255, 255, 255)" stroke="none" x="361" y="557" width="63" height="14" stroke-width="0"/><text x="391.5" y="566.5">installs tmux</text></g></g></g><g data-cell-id="a_E3L1"><g><path d="M 866 805 L 866 391 Q 866 381 856 381 L 685 381 C 685 374.5 675 374.5 675 381 L 675 381 L 371 381 C 371 374.5 361 374.5 361 381 L 361 381 L 17 381 Q 7 381 7 371 L 7 209 Q 7 199 17 199 L 87.88 199" fill="none" stroke="rgb(0, 0, 0)" stroke-miterlimit="10" pointer-events="stroke"/><path d="M 94.88 199 L 87.88 202.5 L 87.88 195.5 Z" fill="rgb(0, 0, 0)" stroke="rgb(0, 0, 0)" stroke-miterlimit="10" pointer-events="all"/></g><g><g fill="rgb(0, 0, 0)" font-family="&quot;Helvetica&quot;" text-anchor="middle" font-size="11px"><rect fill="rgb(255, 255, 255)" stroke="none" x="463" y="375" width="101" height="14" stroke-width="0"/><text x="512.5" y="385">clones TPM+plugins</text></g></g></g><g data-cell-id="a_E1L3"><g><path d="M 726 455 L 691 455 Q 681 455 680.5 455 L 680.25 455 Q 680 455 670 455 L 371 455 C 371 448.5 361 448.5 361 455 L 361 455 L 216 455 Q 206 455 206 445 L 206 386 C 212.5 386 212.5 376 206 376 L 206 376 L 206 346 C 212.5 346 212.5 336 206 336 L 206 336 L 206 114 Q 206 104 216 104 L 688 104 Q 698 104 698 114 L 698 127.5 C 704.5 127.5 704.5 137.5 698 137.5 L 698 137.5 L 698 242.5 C 704.5 242.5 704.5 252.5 698 252.5 L 698 252.5 L 698 376 C 704.5 376 704.5 386 698 386 L 698 386 L 698 432.5 C 704.5 432.5 704.5 442.5 698 442.5 L 698 442.5 L 698 557.5 C 704.5 557.5 704.5 567.5 698 567.5 L 698 567.5 L 698 806 Q 698 816 697.5 816 L 697 816 C 697 809.5 687 809.5 687 816 L 687 816 L 576 816 Q 566 816 566 826 L 566 891 C 572.5 891 572.5 901 566 901 L 566 901 L 566 911.88" fill="none" stroke="rgb(0, 0, 0)" stroke-miterlimit="10" pointer-events="stroke"/><path d="M 566 918.88 L 562.5 911.88 L 569.5 911.88 Z" fill="rgb(0, 0, 0)" stroke="rgb(0, 0, 0)" stroke-miterlimit="10" pointer-events="all"/></g><g><g fill="rgb(0, 0, 0)" font-family="&quot;Helvetica&quot;" text-anchor="middle" font-size="11px"><rect fill="rgb(255, 255, 255)" stroke="none" x="447" y="98" width="90" height="14" stroke-width="0"/><text x="490.5" y="108">scanned for repos</text></g></g></g><g data-cell-id="a_L1R1"><g><path d="M 636 182.5 L 693 182.5 C 693 176 703 176 703 182.5 L 703 182.5 L 856 182.5 Q 866 182.5 866 172.5 L 866 140 Q 866 130 876 130 L 1087.88 130" fill="none" stroke="rgb(0, 0, 0)" stroke-miterlimit="10" pointer-events="stroke"/><path d="M 1094.88 130 L 1087.88 133.5 L 1087.88 126.5 Z" fill="rgb(0, 0, 0)" stroke="rgb(0, 0, 0)" stroke-miterlimit="10" pointer-events="all"/></g><g><g fill="rgb(0, 0, 0)" font-family="&quot;Helvetica&quot;" text-anchor="middle" font-size="11px"><rect fill="rgb(255, 255, 255)" stroke="none" x="847" y="151" width="40" height="14" stroke-width="0"/><text x="865.5" y="160.5">deploys</text></g></g></g><g data-cell-id="a_L1R2"><g><path d="M 636 182.5 L 693 182.5 C 693 176 703 176 703 182.5 L 703 182.5 L 856 182.5 Q 866 182.5 866 183.75 L 866 184.38 Q 866 185 876 185 L 1087.88 185" fill="none" stroke="rgb(0, 0, 0)" stroke-miterlimit="10" pointer-events="stroke"/><path d="M 1094.88 185 L 1087.88 188.5 L 1087.88 181.5 Z" fill="rgb(0, 0, 0)" stroke="rgb(0, 0, 0)" stroke-miterlimit="10" pointer-events="all"/></g><g><g fill="rgb(0, 0, 0)" font-family="&quot;Helvetica&quot;" text-anchor="middle" font-size="11px"><rect fill="rgb(255, 255, 255)" stroke="none" x="850" y="178" width="34" height="14" stroke-width="0"/><text x="865.5" y="187.5">clones</text></g></g></g><g data-cell-id="a_L1R3"><g><path d="M 636 199 L 693 199 C 693 192.5 703 192.5 703 199 L 703 199 L 1040 199 Q 1050 199 1050 209 L 1050 226 Q 1050 236 1060 236 L 1236 236 Q 1246 236 1246 246 L 1246 331.88" fill="none" stroke="rgb(0, 0, 0)" stroke-miterlimit="10" pointer-events="stroke"/><path d="M 1246 338.88 L 1242.5 331.88 L 1249.5 331.88 Z" fill="rgb(0, 0, 0)" stroke="rgb(0, 0, 0)" stroke-miterlimit="10" pointer-events="all"/></g><g><g fill="rgb(0, 0, 0)" font-family="&quot;Helvetica&quot;" text-anchor="middle" font-size="11px"><rect fill="rgb(255, 255, 255)" stroke="none" x="995" y="193" width="36" height="14" stroke-width="0"/><text x="1011.5" y="203">installs</text></g></g></g><g data-cell-id="a_L3R4"><g><path d="M 336 920 L 336 901 C 342.5 901 342.5 891 336 891 L 336 891 L 336 826 Q 336 816 346 816 L 388 816 Q 398 816 398 806 L 398 764 Q 398 754 388 754 L 226 754 Q 216 754 216 762 L 216 766 Q 216 770 226 770 L 675 770 C 675 763.5 685 763.5 685 770 L 685 770 L 687 770 C 687 763.5 697 763.5 697 770 L 697 770 L 693 770 C 693 763.5 703 763.5 703 770 L 703 770 L 861 770 C 861 763.5 871 763.5 871 770 L 871 770 L 1087.88 770" fill="none" stroke="rgb(0, 0, 0)" stroke-miterlimit="10" pointer-events="stroke"/><path d="M 1094.88 770 L 1087.88 773.5 L 1087.88 766.5 Z" fill="rgb(0, 0, 0)" stroke="rgb(0, 0, 0)" stroke-miterlimit="10" pointer-events="all"/></g><g><g fill="rgb(0, 0, 0)" font-family="&quot;Helvetica&quot;" text-anchor="middle" font-size="11px"><rect fill="rgb(255, 255, 255)" stroke="none" x="411" y="764" width="66" height="14" stroke-width="0"/><text x="442.5" y="774">sessions use</text></g></g></g><g data-cell-id="a_L4R5"><g><path d="M 106 1085 L 106 991 Q 106 981 116 981 L 423 981 Q 433 981 433 971 L 433 901 C 439.5 901 439.5 891 433 891 L 433 891 L 433 890 Q 433 889 423 889 L 341 889 C 341 882.5 331 882.5 331 889 L 331 889 L 226 889 Q 216 889 216 890 L 216 891 C 222.5 891 222.5 901 216 901 L 216 901 L 216 910.5 Q 216 920 226 920 L 326 920 Q 336 920 346 920 L 561 920 C 561 913.5 571 913.5 571 920 L 571 920 L 1087.88 920" fill="none" stroke="rgb(0, 0, 0)" stroke-miterlimit="10" pointer-events="stroke"/><path d="M 1094.88 920 L 1087.88 923.5 L 1087.88 916.5 Z" fill="rgb(0, 0, 0)" stroke="rgb(0, 0, 0)" stroke-miterlimit="10" pointer-events="all"/></g><g><g fill="rgb(0, 0, 0)" font-family="&quot;Helvetica&quot;" text-anchor="middle" font-size="11px"><rect fill="rgb(255, 255, 255)" stroke="none" x="246" y="914" width="51" height="14" stroke-width="0"/><text x="270.5" y="924">generates</text></g></g></g><g data-cell-id="a_L4R6"><g><path d="M 566 1085 L 566 991 Q 566 981 556 981 L 226 981 Q 216 981 216 972.5 L 216 968.25 Q 216 964 226 964 L 428 964 C 428 957.5 438 957.5 438 964 L 438 964 L 1236 964 Q 1246 964 1246 962.94 L 1246 961.88" fill="none" stroke="rgb(0, 0, 0)" stroke-miterlimit="10" pointer-events="stroke"/><path d="M 1246 968.88 L 1242.5 961.88 L 1249.5 961.88 Z" fill="rgb(0, 0, 0)" stroke="rgb(0, 0, 0)" stroke-miterlimit="10" pointer-events="all"/></g><g><g fill="rgb(0, 0, 0)" font-family="&quot;Helvetica&quot;" text-anchor="middle" font-size="11px"><rect fill="rgb(255, 255, 255)" stroke="none" x="452" y="958" width="95" height="14" stroke-width="0"/><text x="498.5" y="968">wires source guard</text></g></g></g></g></g></g><switch><g requiredFeatures="http://www.w3.org/TR/SVG11/feature#Extensibility"/><a transform="translate(0,-5)" xlink:href="https://www.drawio.com/doc/faq/svg-export-text-problems" target="_blank"><text text-anchor="middle" font-size="10px" x="50%" y="100%">Text is not SVG - cannot display</text></a></switch></svg>
