<?plantuml 1.2026.2?><svg xmlns="http://www.w3.org/2000/svg" xmlns:xlink="http://www.w3.org/1999/xlink" contentStyleType="text/css" data-diagram-type="DESCRIPTION" height="1537px" preserveAspectRatio="none" style="width:1549px;height:1537px;background:#FFFFFF;" version="1.1" viewBox="0 0 1549 1537" width="1549px" zoomAndPan="magnify"><title>terminility Repository Architecture (Contributor Blueprint)</title><defs/><g><g class="title" data-source-line="2"><text fill="#000000" font-family="sans-serif" font-size="28" font-weight="bold" lengthAdjust="spacing" textLength="806.62" x="361.9003" y="39.9321">terminility Repository Architecture (Contributor Blueprint)</text></g><rect fill="none" height="683.6029" rx="2.5" ry="2.5" style="stroke:#000000;stroke-width:1;" width="940.5782" x="302.2133" y="291.8567"/><text fill="#000000" font-family="Arial" font-size="12" font-weight="bold" lengthAdjust="spacing" textLength="67.5544" x="738.7252" y="306.6848">Layer Stack</text><rect fill="none" height="124.0323" rx="2.5" ry="2.5" style="stroke:#000000;stroke-width:1;" width="841.5248" x="701.8958" y="87.4803"/><text fill="#000000" font-family="Arial" font-size="12" font-weight="bold" lengthAdjust="spacing" textLength="126.9609" x="1059.1777" y="102.3084">Source Files (tracked)</text><rect fill="none" height="150.2038" rx="2.5" ry="2.5" style="stroke:#000000;stroke-width:1;" width="1233.8284" x="241.9628" y="1055.8038"/><text fill="#000000" font-family="Arial" font-size="12" font-weight="bold" lengthAdjust="spacing" textLength="175.1982" x="771.2779" y="1070.6319">Runtime Artifacts (untracked)</text><rect fill="none" height="140.3765" rx="2.5" ry="2.5" style="stroke:#000000;stroke-width:1;" width="669.8958" x="12" y="71.1362"/><text fill="#000000" font-family="Arial" font-size="12" font-weight="bold" lengthAdjust="spacing" textLength="91.0506" x="301.4226" y="85.9642">External Inputs</text><!--entity L_INSTALL--><g class="entity" data-qualified-name="LAYER_PANEL.L_INSTALL" data-source-line="22" id="ent0003"><rect fill="#D5E8D4" height="150.7529" rx="2.5" ry="2.5" style="stroke:#181818;stroke-width:0.5;" width="350.2424" x="317.2133" y="351.8567"/><text fill="#000000" font-family="Arial" font-size="12" lengthAdjust="spacing" textLength="110.8928" x="327.2133" y="374.6848">1) Installation Layer</text><text fill="#000000" font-family="Arial" font-size="12" lengthAdjust="spacing" textLength="56.8804" x="327.2133" y="391.0289">- install.sh</text><text fill="#000000" font-family="Arial" font-size="12" lengthAdjust="spacing" textLength="330.2424" x="327.2133" y="407.3731">- detects package manager (apt/dnf/pacman/brew/zypper)</text><text fill="#000000" font-family="Arial" font-size="12" lengthAdjust="spacing" textLength="199.2254" x="327.2133" y="423.7172">- installs tmux, clones/updates TPM</text><text fill="#000000" font-family="Arial" font-size="12" lengthAdjust="spacing" textLength="172.1292" x="327.2133" y="440.0613">- backs up existing /.tmux.conf</text><text fill="#000000" font-family="Arial" font-size="12" lengthAdjust="spacing" textLength="218.4496" x="327.2133" y="456.4054">- runs TPM headlessly to install plugins</text><text fill="#000000" font-family="Arial" font-size="12" lengthAdjust="spacing" textLength="116.8089" x="327.2133" y="472.7495">- invokes sessions.sh</text><text fill="#000000" font-family="Arial" font-size="12" lengthAdjust="spacing" textLength="265.4419" x="327.2133" y="489.0936">- wires alias source guard into /.bashrc / /.zshrc</text></g><!--entity L_CONFIG--><g class="entity" data-qualified-name="LAYER_PANEL.L_CONFIG" data-source-line="24" id="ent0004"><rect fill="#D5E8D4" height="118.0647" rx="2.5" ry="2.5" style="stroke:#181818;stroke-width:0.5;" width="374.0145" x="549.3588" y="542.6097"/><text fill="#000000" font-family="Arial" font-size="12" lengthAdjust="spacing" textLength="125.6409" x="559.3588" y="565.4377">2) Configuration Layer</text><text fill="#000000" font-family="Arial" font-size="12" lengthAdjust="spacing" textLength="152.7862" x="559.3588" y="581.7819">- tmux.conf  &#8594;  /.tmux.conf</text><text fill="#000000" font-family="Arial" font-size="12" lengthAdjust="spacing" textLength="319.6343" x="559.3588" y="598.126">- 256-color + true-color, mouse, 50k history, base-index 1</text><text fill="#000000" font-family="Arial" font-size="12" lengthAdjust="spacing" textLength="282.674" x="559.3588" y="614.4701">- intuitive split/nav bindings + reload key (prefix+r)</text><text fill="#000000" font-family="Arial" font-size="12" lengthAdjust="spacing" textLength="354.0145" x="559.3588" y="630.8142">- TPM plugins: tmux-sensible, tmux-resurrect, tmux-continuum</text><text fill="#000000" font-family="Arial" font-size="12" lengthAdjust="spacing" textLength="299.6182" x="559.3588" y="647.1583">- auto-save every 15 min, auto-restore on server start</text></g><!--entity L_SESSION--><g class="entity" data-qualified-name="LAYER_PANEL.L_SESSION" data-source-line="26" id="ent0005"><rect fill="#D5E8D4" height="118.0647" rx="2.5" ry="2.5" style="stroke:#181818;stroke-width:0.5;" width="339.1807" x="809.7018" y="700.6743"/><text fill="#000000" font-family="Arial" font-size="12" lengthAdjust="spacing" textLength="168.9612" x="819.7018" y="723.5024">3) Session Management Layer</text><text fill="#000000" font-family="Arial" font-size="12" lengthAdjust="spacing" textLength="70.8965" x="819.7018" y="739.8465">- sessions.sh</text><text fill="#000000" font-family="Arial" font-size="12" lengthAdjust="spacing" textLength="308.1502" x="819.7018" y="756.1907">- scans GIT_BASE (default: /mnt/4tb-m2/git) for .git dirs</text><text fill="#000000" font-family="Arial" font-size="12" lengthAdjust="spacing" textLength="319.1807" x="819.7018" y="772.5348">- derives tmux-safe session name (/ &#8594; -, spaces/dots &#8594; -)</text><text fill="#000000" font-family="Arial" font-size="12" lengthAdjust="spacing" textLength="262.994" x="819.7018" y="788.8789">- creates sessions idempotently (skips existing)</text><text fill="#000000" font-family="Arial" font-size="12" lengthAdjust="spacing" textLength="272.654" x="819.7018" y="805.223">- ensures tmux server is running before creation</text></g><!--entity L_ALIAS--><g class="entity" data-qualified-name="LAYER_PANEL.L_ALIAS" data-source-line="28" id="ent0006"><rect fill="#D5E8D4" height="101.7206" rx="2.5" ry="2.5" style="stroke:#181818;stroke-width:0.5;" width="383.9386" x="843.8529" y="858.7391"/><text fill="#000000" font-family="Arial" font-size="12" lengthAdjust="spacing" textLength="73.9085" x="853.8529" y="881.5672">4) Alias Layer</text><text fill="#000000" font-family="Arial" font-size="12" lengthAdjust="spacing" textLength="346.7064" x="853.8529" y="897.9113">- writes /.terminility_aliases (regenerated atomically each run)</text><text fill="#000000" font-family="Arial" font-size="12" lengthAdjust="spacing" textLength="363.9386" x="853.8529" y="914.2554">- one alias per session: tmux new-session -A -s &lt;name&gt; -c &lt;path&gt;</text><text fill="#000000" font-family="Arial" font-size="12" lengthAdjust="spacing" textLength="232.5857" x="860.093" y="930.5995">(-A: attach or create; -c: start in repo root)</text><text fill="#000000" font-family="Arial" font-size="12" lengthAdjust="spacing" textLength="309.3983" x="853.8529" y="946.9436">- install.sh adds source guard to shell RCs (idempotent)</text></g><!--entity F_INSTALL--><g class="entity" data-qualified-name="SOURCE_PANEL.F_INSTALL" data-source-line="32" id="ent0008"><rect fill="#DAE8FC" height="52.6882" rx="2.5" ry="2.5" style="stroke:#181818;stroke-width:0.5;" width="150.0689" x="970.7373" y="143.8244"/><text fill="#000000" font-family="Arial" font-size="12" lengthAdjust="spacing" textLength="49.8963" x="980.7373" y="166.6525">install.sh</text><text fill="#000000" font-family="Arial" font-size="12" lengthAdjust="spacing" textLength="130.0689" x="980.7373" y="182.9966">Full install orchestrator</text></g><!--entity F_SESSIONS--><g class="entity" data-qualified-name="SOURCE_PANEL.F_SESSIONS" data-source-line="33" id="ent0009"><rect fill="#DAE8FC" height="69.0323" rx="2.5" ry="2.5" style="stroke:#181818;stroke-width:0.5;" width="195.5613" x="1140.8062" y="127.4803"/><text fill="#000000" font-family="Arial" font-size="12" lengthAdjust="spacing" textLength="63.9125" x="1150.8062" y="150.3084">sessions.sh</text><text fill="#000000" font-family="Arial" font-size="12" lengthAdjust="spacing" textLength="175.5613" x="1150.8062" y="166.6525">Repo scanner + session creator</text><text fill="#000000" font-family="Arial" font-size="12" lengthAdjust="spacing" textLength="95.0767" x="1150.8062" y="182.9966">+ alias generator</text></g><!--entity F_CONF--><g class="entity" data-qualified-name="SOURCE_PANEL.F_CONF" data-source-line="34" id="ent0010"><rect fill="#DAE8FC" height="52.6882" rx="2.5" ry="2.5" style="stroke:#181818;stroke-width:0.5;" width="172.0531" x="1356.3675" y="143.8244"/><text fill="#000000" font-family="Arial" font-size="12" lengthAdjust="spacing" textLength="57.0964" x="1366.3675" y="166.6525">tmux.conf</text><text fill="#000000" font-family="Arial" font-size="12" lengthAdjust="spacing" textLength="152.0531" x="1366.3675" y="182.9966">Tmux configuration source</text></g><!--entity F_DOCS--><g class="entity" data-qualified-name="SOURCE_PANEL.F_DOCS" data-source-line="35" id="ent0011"><rect fill="#DAE8FC" height="69.0323" rx="2.5" ry="2.5" style="stroke:#181818;stroke-width:0.5;" width="233.8415" x="716.8958" y="127.4803"/><text fill="#000000" font-family="Arial" font-size="12" lengthAdjust="spacing" textLength="30.6122" x="726.8958" y="150.3084">docs/</text><text fill="#000000" font-family="Arial" font-size="12" lengthAdjust="spacing" textLength="213.8415" x="726.8958" y="166.6525">contributor-architecture-blueprint.md</text><text fill="#000000" font-family="Arial" font-size="12" lengthAdjust="spacing" textLength="188.5573" x="726.8958" y="182.9966">diagrams/repo-architecture.puml</text></g><!--entity RT_CONF--><g class="entity" data-qualified-name="RUNTIME_PANEL.RT_CONF" data-source-line="39" id="ent0013"><path d="M710.9594,1095.8038 L751.9594,1095.8038 A3.75,3.75 0 0 1 754.4594,1098.3038 L761.4594,1116.8038 L841.323,1116.8038 A2.5,2.5 0 0 1 843.823,1119.3038 L843.823,1169.4396 A2.5,2.5 0 0 1 841.323,1171.9396 L710.9594,1171.9396 A2.5,2.5 0 0 1 708.4594,1169.4396 L708.4594,1098.3038 A2.5,2.5 0 0 1 710.9594,1095.8038" fill="#FFE6CC" style="stroke:#181818;stroke-width:0.5;"/><line style="stroke:#181818;stroke-width:0.5;" x1="708.4594" x2="761.4594" y1="1116.8038" y2="1116.8038"/><text fill="#000000" font-family="sans-serif" font-size="14" lengthAdjust="spacing" textLength="75.5717" x="718.4594" y="1138.7697">/.tmux.conf</text><text fill="#000000" font-family="sans-serif" font-size="14" lengthAdjust="spacing" textLength="105.3636" x="718.4594" y="1157.8376">deployed config</text></g><!--entity RT_TPM--><g class="entity" data-qualified-name="RUNTIME_PANEL.RT_TPM" data-source-line="40" id="ent0014"><path d="M526.9659,1095.8038 L567.9659,1095.8038 A3.75,3.75 0 0 1 570.4659,1098.3038 L577.4659,1116.8038 L685.9594,1116.8038 A2.5,2.5 0 0 1 688.4594,1119.3038 L688.4594,1169.4396 A2.5,2.5 0 0 1 685.9594,1171.9396 L526.9659,1171.9396 A2.5,2.5 0 0 1 524.4659,1169.4396 L524.4659,1098.3038 A2.5,2.5 0 0 1 526.9659,1095.8038" fill="#FFE6CC" style="stroke:#181818;stroke-width:0.5;"/><line style="stroke:#181818;stroke-width:0.5;" x1="524.4659" x2="577.4659" y1="1116.8038" y2="1116.8038"/><text fill="#000000" font-family="sans-serif" font-size="14" lengthAdjust="spacing" textLength="133.9935" x="534.4659" y="1138.7697">/.tmux/plugins/tpm/</text><text fill="#000000" font-family="sans-serif" font-size="14" lengthAdjust="spacing" textLength="67.9417" x="534.4659" y="1157.8376">TPM clone</text></g><!--entity RT_PLUGINS--><g class="entity" data-qualified-name="RUNTIME_PANEL.RT_PLUGINS" data-source-line="41" id="ent0015"><path d="M259.4628,1095.8038 L300.4628,1095.8038 A3.75,3.75 0 0 1 302.9628,1098.3038 L309.9628,1116.8038 L501.9659,1116.8038 A2.5,2.5 0 0 1 504.4659,1119.3038 L504.4659,1188.5075 A2.5,2.5 0 0 1 501.9659,1191.0075 L259.4628,1191.0075 A2.5,2.5 0 0 1 256.9628,1188.5075 L256.9628,1098.3038 A2.5,2.5 0 0 1 259.4628,1095.8038" fill="#FFE6CC" style="stroke:#181818;stroke-width:0.5;"/><line style="stroke:#181818;stroke-width:0.5;" x1="256.9628" x2="309.9628" y1="1116.8038" y2="1116.8038"/><text fill="#000000" font-family="sans-serif" font-size="14" lengthAdjust="spacing" textLength="206.2192" x="266.9628" y="1138.7697">/.tmux/plugins/tmux-resurrect/</text><text fill="#000000" font-family="sans-serif" font-size="14" lengthAdjust="spacing" textLength="217.5031" x="266.9628" y="1157.8376">/.tmux/plugins/tmux-continuum/</text><text fill="#000000" font-family="sans-serif" font-size="14" lengthAdjust="spacing" textLength="91.1956" x="266.9628" y="1176.9055">plugin installs</text></g><!--entity RT_SAVES--><g class="entity" data-qualified-name="RUNTIME_PANEL.RT_SAVES" data-source-line="42" id="ent0016"><path d="M866.323,1095.8038 L907.323,1095.8038 A3.75,3.75 0 0 1 909.823,1098.3038 L916.823,1116.8038 L1005.1705,1116.8038 A2.5,2.5 0 0 1 1007.6705,1119.3038 L1007.6705,1169.4396 A2.5,2.5 0 0 1 1005.1705,1171.9396 L866.323,1171.9396 A2.5,2.5 0 0 1 863.823,1169.4396 L863.823,1098.3038 A2.5,2.5 0 0 1 866.323,1095.8038" fill="#FFE6CC" style="stroke:#181818;stroke-width:0.5;"/><line style="stroke:#181818;stroke-width:0.5;" x1="863.823" x2="916.823" y1="1116.8038" y2="1116.8038"/><text fill="#000000" font-family="sans-serif" font-size="14" lengthAdjust="spacing" textLength="113.8476" x="873.823" y="1138.7697">/.tmux/resurrect/</text><text fill="#000000" font-family="sans-serif" font-size="14" lengthAdjust="spacing" textLength="112.2376" x="873.823" y="1157.8376">session save files</text></g><!--entity RT_ALIASES--><g class="entity" data-qualified-name="RUNTIME_PANEL.RT_ALIASES" data-source-line="43" id="ent0017"><path d="M1030.1705,1095.8038 L1071.1705,1095.8038 A3.75,3.75 0 0 1 1073.6705,1098.3038 L1080.6705,1116.8038 L1181.702,1116.8038 A2.5,2.5 0 0 1 1184.202,1119.3038 L1184.202,1169.4396 A2.5,2.5 0 0 1 1181.702,1171.9396 L1030.1705,1171.9396 A2.5,2.5 0 0 1 1027.6705,1169.4396 L1027.6705,1098.3038 A2.5,2.5 0 0 1 1030.1705,1095.8038" fill="#FFE6CC" style="stroke:#181818;stroke-width:0.5;"/><line style="stroke:#181818;stroke-width:0.5;" x1="1027.6705" x2="1080.6705" y1="1116.8038" y2="1116.8038"/><text fill="#000000" font-family="sans-serif" font-size="14" lengthAdjust="spacing" textLength="126.5315" x="1037.6705" y="1138.7697">/.terminility_aliases</text><text fill="#000000" font-family="sans-serif" font-size="14" lengthAdjust="spacing" textLength="125.1035" x="1037.6705" y="1157.8376">generated alias file</text></g><!--entity RT_RC--><g class="entity" data-qualified-name="RUNTIME_PANEL.RT_RC" data-source-line="44" id="ent0018"><path d="M1206.702,1095.8038 L1247.702,1095.8038 A3.75,3.75 0 0 1 1250.202,1098.3038 L1257.202,1116.8038 L1458.2912,1116.8038 A2.5,2.5 0 0 1 1460.7912,1119.3038 L1460.7912,1169.4396 A2.5,2.5 0 0 1 1458.2912,1171.9396 L1206.702,1171.9396 A2.5,2.5 0 0 1 1204.202,1169.4396 L1204.202,1098.3038 A2.5,2.5 0 0 1 1206.702,1095.8038" fill="#FFE6CC" style="stroke:#181818;stroke-width:0.5;"/><line style="stroke:#181818;stroke-width:0.5;" x1="1204.202" x2="1257.202" y1="1116.8038" y2="1116.8038"/><text fill="#000000" font-family="sans-serif" font-size="14" lengthAdjust="spacing" textLength="147.1254" x="1214.202" y="1138.7697">/.bash_aliases / /.zshrc</text><text fill="#000000" font-family="sans-serif" font-size="14" lengthAdjust="spacing" textLength="226.5891" x="1214.202" y="1157.8376">shell RC files (source guard added)</text></g><!--entity EXT_GIT--><g class="entity" data-qualified-name="EXT_PANEL.EXT_GIT" data-source-line="48" id="ent0020"><rect fill="#FFF2CC" height="69.0323" rx="2.5" ry="2.5" style="stroke:#181818;stroke-width:0.5;" width="194.0012" x="472.8946" y="127.4803"/><text fill="#000000" font-family="Arial" font-size="12" lengthAdjust="spacing" textLength="131.8689" x="482.8946" y="150.3084">/mnt/4tb-m2/git/**/.git</text><text fill="#000000" font-family="Arial" font-size="12" lengthAdjust="spacing" textLength="128.845" x="482.8946" y="166.6525">git repositories on disk</text><text fill="#000000" font-family="Arial" font-size="12" lengthAdjust="spacing" textLength="174.0012" x="482.8946" y="182.9966">(GIT_BASE, overridable via env)</text></g><!--entity EXT_PKG--><g class="entity" data-qualified-name="EXT_PANEL.EXT_PKG" data-source-line="49" id="ent0021"><rect fill="#FFF2CC" height="69.0323" rx="2.5" ry="2.5" style="stroke:#181818;stroke-width:0.5;" width="212.2054" x="27" y="127.4803"/><text fill="#000000" font-family="Arial" font-size="12" lengthAdjust="spacing" textLength="145.381" x="37" y="150.3084">System package manager</text><text fill="#000000" font-family="Arial" font-size="12" lengthAdjust="spacing" textLength="192.2054" x="37" y="166.6525">apt / dnf / pacman / brew / zypper</text><text fill="#000000" font-family="Arial" font-size="12" lengthAdjust="spacing" textLength="86.2926" x="37" y="182.9966">(auto-detected)</text></g><!--entity EXT_GH--><g class="entity" data-qualified-name="EXT_PANEL.EXT_GH" data-source-line="50" id="ent0022"><rect fill="#FFF2CC" height="85.3765" rx="2.5" ry="2.5" style="stroke:#181818;stroke-width:0.5;" width="193.6892" x="259.2054" y="111.1362"/><text fill="#000000" font-family="Arial" font-size="12" lengthAdjust="spacing" textLength="129.6249" x="269.2054" y="133.9642">GitHub (TPM + plugins)</text><text fill="#000000" font-family="Arial" font-size="12" lengthAdjust="spacing" textLength="102.1087" x="269.2054" y="150.3084">tmux-plugins/tpm</text><text fill="#000000" font-family="Arial" font-size="12" lengthAdjust="spacing" textLength="164.0172" x="269.2054" y="166.6525">tmux-plugins/tmux-resurrect</text><text fill="#000000" font-family="Arial" font-size="12" lengthAdjust="spacing" textLength="173.6892" x="269.2054" y="182.9966">tmux-plugins/tmux-continuum</text></g><line style="stroke:#2F4F4F;stroke-width:2;" x1="457.3103" x2="457.3103" y1="502.6097" y2="512.6097"/><line style="stroke:#2F4F4F;stroke-width:2;" x1="457.3103" x2="516.3588" y1="512.6097" y2="512.6097"/><line style="stroke:#2F4F4F;stroke-width:2;" x1="516.3588" x2="516.3588" y1="512.6097" y2="532.6097"/><line style="stroke:#2F4F4F;stroke-width:2;" x1="516.3588" x2="674.0303" y1="532.6097" y2="532.6097"/><line style="stroke:#2F4F4F;stroke-width:2;" x1="674.0303" x2="674.0303" y1="532.6097" y2="542.6097"/><polygon fill="#2F4F4F" points="674.0303,542.6097,678.0303,533.6097,674.0303,537.6097,670.0303,533.6097,674.0303,542.6097" style="stroke:#2F4F4F;stroke-width:2;"/><line style="stroke:#2F4F4F;stroke-width:2;" x1="674.0303" x2="674.0303" y1="660.6743" y2="670.6743"/><line style="stroke:#2F4F4F;stroke-width:2;" x1="674.0303" x2="787.7018" y1="670.6743" y2="670.6743"/><line style="stroke:#2F4F4F;stroke-width:2;" x1="787.7018" x2="787.7018" y1="670.6743" y2="690.6743"/><line style="stroke:#2F4F4F;stroke-width:2;" x1="787.7018" x2="894.4969" y1="690.6743" y2="690.6743"/><line style="stroke:#2F4F4F;stroke-width:2;" x1="894.4969" x2="894.4969" y1="690.6743" y2="700.6743"/><polygon fill="#2F4F4F" points="894.4969,700.6743,898.4969,691.6743,894.4969,695.6743,890.4969,691.6743,894.4969,700.6743" style="stroke:#2F4F4F;stroke-width:2;"/><line style="stroke:#2F4F4F;stroke-width:2;" x1="1035.8222" x2="1035.8222" y1="818.739" y2="858.7391"/><polygon fill="#2F4F4F" points="1035.8222,858.7391,1039.8222,849.7391,1035.8222,853.7391,1031.8222,849.7391,1035.8222,858.7391" style="stroke:#2F4F4F;stroke-width:2;"/><line style="stroke:#2F4F4F;stroke-width:2;stroke-dasharray:7,7;" x1="1045.7717" x2="1045.7717" y1="196.5126" y2="266.8567"/><line style="stroke:#2F4F4F;stroke-width:2;stroke-dasharray:7,7;" x1="1045.7717" x2="579.8952" y1="266.8567" y2="266.8567"/><line style="stroke:#2F4F4F;stroke-width:2;stroke-dasharray:7,7;" x1="579.8952" x2="579.8952" y1="266.8567" y2="351.8567"/><polygon fill="#2F4F4F" points="579.8952,351.8567,583.8952,342.8567,579.8952,346.8567,575.8952,342.8567,579.8952,351.8567" style="stroke:#2F4F4F;stroke-width:2;"/><line style="stroke:#2F4F4F;stroke-width:2;stroke-dasharray:7,7;" x1="1238.5869" x2="1238.5869" y1="196.5126" y2="266.8567"/><line style="stroke:#2F4F4F;stroke-width:2;stroke-dasharray:7,7;" x1="1238.5869" x2="1064.0873" y1="266.8567" y2="266.8567"/><line style="stroke:#2F4F4F;stroke-width:2;stroke-dasharray:7,7;" x1="1064.0873" x2="1064.0873" y1="266.8567" y2="700.6743"/><polygon fill="#2F4F4F" points="1064.0873,700.6743,1068.0873,691.6743,1064.0873,695.6743,1060.0873,691.6743,1064.0873,700.6743" style="stroke:#2F4F4F;stroke-width:2;"/><line style="stroke:#2F4F4F;stroke-width:2;stroke-dasharray:7,7;" x1="1442.394" x2="1442.394" y1="196.5126" y2="276.8567"/><line style="stroke:#2F4F4F;stroke-width:2;stroke-dasharray:7,7;" x1="1442.394" x2="1075.0873" y1="276.8567" y2="276.8567"/><line style="stroke:#2F4F4F;stroke-width:2;stroke-dasharray:7,7;" x1="1075.0873" x2="1075.0873" y1="276.8567" y2="532.6097"/><line style="stroke:#2F4F4F;stroke-width:2;stroke-dasharray:7,7;" x1="1075.0873" x2="798.7018" y1="532.6097" y2="532.6097"/><line style="stroke:#2F4F4F;stroke-width:2;stroke-dasharray:7,7;" x1="798.7018" x2="798.7018" y1="532.6097" y2="542.6097"/><polygon fill="#2F4F4F" points="798.7018,542.6097,802.7018,533.6097,798.7018,537.6097,794.7018,533.6097,798.7018,542.6097" style="stroke:#2F4F4F;stroke-width:2;"/><line style="stroke:#2F4F4F;stroke-width:2;" x1="133.1027" x2="133.1027" y1="196.5126" y2="276.8567"/><line style="stroke:#2F4F4F;stroke-width:2;" x1="133.1027" x2="404.7739" y1="276.8567" y2="276.8567"/><line style="stroke:#2F4F4F;stroke-width:2;" x1="404.7739" x2="404.7739" y1="276.8567" y2="351.8567"/><polygon fill="#2F4F4F" points="404.7739,351.8567,408.7739,342.8567,404.7739,346.8567,400.7739,342.8567,404.7739,351.8567" style="stroke:#2F4F4F;stroke-width:2;"/><text fill="#000000" font-family="sans-serif" font-size="12" lengthAdjust="spacing" textLength="71.7005" x="57.4022" y="251.3407">installs tmux</text><line style="stroke:#2F4F4F;stroke-width:2;" x1="356.05" x2="356.05" y1="196.5126" y2="266.8567"/><line style="stroke:#2F4F4F;stroke-width:2;" x1="356.05" x2="492.3346" y1="266.8567" y2="266.8567"/><line style="stroke:#2F4F4F;stroke-width:2;" x1="492.3346" x2="492.3346" y1="266.8567" y2="351.8567"/><polygon fill="#2F4F4F" points="492.3346,351.8567,496.3346,342.8567,492.3346,346.8567,488.3346,342.8567,492.3346,351.8567" style="stroke:#2F4F4F;stroke-width:2;"/><text fill="#000000" font-family="sans-serif" font-size="12" lengthAdjust="spacing" textLength="118.6208" x="233.4291" y="251.3407">clones TPM + plugins</text><line style="stroke:#2F4F4F;stroke-width:2;" x1="569.8952" x2="569.8952" y1="196.5126" y2="341.8567"/><line style="stroke:#2F4F4F;stroke-width:2;" x1="569.8952" x2="979.2921" y1="341.8567" y2="341.8567"/><line style="stroke:#2F4F4F;stroke-width:2;" x1="979.2921" x2="979.2921" y1="341.8567" y2="700.6743"/><polygon fill="#2F4F4F" points="979.2921,700.6743,983.2921,691.6743,979.2921,695.6743,975.2921,691.6743,979.2921,700.6743" style="stroke:#2F4F4F;stroke-width:2;"/><text fill="#000000" font-family="sans-serif" font-size="12" lengthAdjust="spacing" textLength="101.9167" x="463.9784" y="251.3407">scanned for repos</text><line style="stroke:#2F4F4F;stroke-width:2;" x1="597.4073" x2="597.4073" y1="502.6097" y2="512.6097"/><line style="stroke:#2F4F4F;stroke-width:2;" x1="597.4073" x2="538.3588" y1="512.6097" y2="512.6097"/><line style="stroke:#2F4F4F;stroke-width:2;" x1="538.3588" x2="538.3588" y1="512.6097" y2="990.4596"/><line style="stroke:#2F4F4F;stroke-width:2;" x1="538.3588" x2="588.1111" y1="990.4596" y2="990.4596"/><line style="stroke:#2F4F4F;stroke-width:2;" x1="588.1111" x2="588.1111" y1="990.4596" y2="1030.8038"/><line style="stroke:#2F4F4F;stroke-width:2;" x1="588.1111" x2="753.5806" y1="1030.8038" y2="1030.8038"/><line style="stroke:#2F4F4F;stroke-width:2;" x1="753.5806" x2="753.5806" y1="1030.8038" y2="1104.9856"/><polygon fill="#2F4F4F" points="753.5806,1104.9856,757.5806,1095.9856,753.5806,1099.9856,749.5806,1095.9856,753.5806,1104.9856" style="stroke:#2F4F4F;stroke-width:2;"/><text fill="#000000" font-family="sans-serif" font-size="12" lengthAdjust="spacing" textLength="43.7523" x="540.3588" y="1015.2877">deploys</text><line style="stroke:#2F4F4F;stroke-width:2;" x1="527.3588" x2="527.3588" y1="502.6097" y2="1040.8038"/><line style="stroke:#2F4F4F;stroke-width:2;" x1="527.3588" x2="606.4626" y1="1040.8038" y2="1040.8038"/><line style="stroke:#2F4F4F;stroke-width:2;" x1="606.4626" x2="606.4626" y1="1040.8038" y2="1116.8038"/><polygon fill="#2F4F4F" points="606.4626,1116.8038,610.4626,1107.8038,606.4626,1111.8038,602.4626,1107.8038,606.4626,1116.8038" style="stroke:#2F4F4F;stroke-width:2;"/><text fill="#000000" font-family="sans-serif" font-size="12" lengthAdjust="spacing" textLength="36.0483" x="487.3105" y="1015.2877">clones</text><line style="stroke:#2F4F4F;stroke-width:2;" x1="387.2618" x2="387.2618" y1="502.6097" y2="1030.8038"/><line style="stroke:#2F4F4F;stroke-width:2;" x1="387.2618" x2="380.7143" y1="1030.8038" y2="1030.8038"/><line style="stroke:#2F4F4F;stroke-width:2;" x1="380.7143" x2="380.7143" y1="1030.8038" y2="1116.8038"/><polygon fill="#2F4F4F" points="380.7143,1116.8038,384.7143,1107.8038,380.7143,1111.8038,376.7143,1107.8038,380.7143,1116.8038" style="stroke:#2F4F4F;stroke-width:2;"/><text fill="#000000" font-family="sans-serif" font-size="12" lengthAdjust="spacing" textLength="101.2567" x="282.0051" y="1015.2877">installs headlessly</text><line style="stroke:#2F4F4F;stroke-width:2;" x1="798.7018" x2="798.7018" y1="660.6743" y2="1116.8038"/><polygon fill="#2F4F4F" points="798.7018,1116.8038,802.7018,1107.8038,798.7018,1111.8038,794.7018,1107.8038,798.7018,1116.8038" style="stroke:#2F4F4F;stroke-width:2;"/><text fill="#000000" font-family="sans-serif" font-size="12" lengthAdjust="spacing" textLength="37.9083" x="756.7935" y="1015.2877">source</text><line style="stroke:#2F4F4F;stroke-width:2;" x1="922.762" x2="922.762" y1="818.739" y2="828.739"/><line style="stroke:#2F4F4F;stroke-width:2;" x1="922.762" x2="832.8529" y1="828.739" y2="828.739"/><line style="stroke:#2F4F4F;stroke-width:2;" x1="832.8529" x2="832.8529" y1="828.739" y2="990.4596"/><line style="stroke:#2F4F4F;stroke-width:2;" x1="832.8529" x2="959.6189" y1="990.4596" y2="990.4596"/><line style="stroke:#2F4F4F;stroke-width:2;" x1="959.6189" x2="959.6189" y1="990.4596" y2="1030.8038"/><line style="stroke:#2F4F4F;stroke-width:2;" x1="959.6189" x2="935.7468" y1="1030.8038" y2="1030.8038"/><line style="stroke:#2F4F4F;stroke-width:2;" x1="935.7468" x2="935.7468" y1="1030.8038" y2="1116.8038"/><polygon fill="#2F4F4F" points="935.7468,1116.8038,939.7468,1107.8038,935.7468,1111.8038,931.7468,1107.8038,935.7468,1116.8038" style="stroke:#2F4F4F;stroke-width:2;"/><text fill="#000000" font-family="sans-serif" font-size="12" lengthAdjust="spacing" textLength="143.9171" x="811.7018" y="1015.2877">sessions use resurrect dir</text><line style="stroke:#2F4F4F;stroke-width:2;" x1="971.8325" x2="971.8325" y1="960.4596" y2="990.4596"/><line style="stroke:#2F4F4F;stroke-width:2;" x1="971.8325" x2="1033.4873" y1="990.4596" y2="990.4596"/><line style="stroke:#2F4F4F;stroke-width:2;" x1="1033.4873" x2="1033.4873" y1="990.4596" y2="1030.8038"/><line style="stroke:#2F4F4F;stroke-width:2;" x1="1033.4873" x2="1105.9363" y1="1030.8038" y2="1030.8038"/><line style="stroke:#2F4F4F;stroke-width:2;" x1="1105.9363" x2="1105.9363" y1="1030.8038" y2="1116.8038"/><polygon fill="#2F4F4F" points="1105.9363,1116.8038,1109.9363,1107.8038,1105.9363,1111.8038,1101.9363,1107.8038,1105.9363,1116.8038" style="stroke:#2F4F4F;stroke-width:2;"/><text fill="#000000" font-family="sans-serif" font-size="12" lengthAdjust="spacing" textLength="56.8684" x="972.6189" y="1015.2877">generates</text><line style="stroke:#2F4F4F;stroke-width:2;" x1="1099.812" x2="1099.812" y1="960.4596" y2="990.4596"/><line style="stroke:#2F4F4F;stroke-width:2;" x1="1099.812" x2="1158.5001" y1="990.4596" y2="990.4596"/><line style="stroke:#2F4F4F;stroke-width:2;" x1="1158.5001" x2="1158.5001" y1="990.4596" y2="1030.8038"/><line style="stroke:#2F4F4F;stroke-width:2;" x1="1158.5001" x2="1332.4966" y1="1030.8038" y2="1030.8038"/><line style="stroke:#2F4F4F;stroke-width:2;" x1="1332.4966" x2="1332.4966" y1="1030.8038" y2="1116.8038"/><polygon fill="#2F4F4F" points="1332.4966,1116.8038,1336.4966,1107.8038,1332.4966,1111.8038,1328.4966,1107.8038,1332.4966,1116.8038" style="stroke:#2F4F4F;stroke-width:2;"/><text fill="#000000" font-family="sans-serif" font-size="12" lengthAdjust="spacing" textLength="108.0128" x="1046.4873" y="1015.2877">wires source guard</text><g class="legend" data-source-line="77"><rect fill="none" height="311.0023" rx="7.5" ry="7.5" style="stroke:#000000;stroke-width:1;" width="345.2702" x="1173.1504" y="1206.0075"/><line style="stroke:#000000;stroke-width:1;" x1="1173.1504" x2="1312.2389" y1="1219.8605" y2="1219.8605"/><line style="stroke:#000000;stroke-width:1;" x1="1173.1504" x2="1312.2389" y1="1221.8605" y2="1221.8605"/><text fill="#000000" font-family="sans-serif" font-size="13" lengthAdjust="spacing" textLength="60.333" x="1315.6189" y="1224.4045">Data Flow</text><line style="stroke:#000000;stroke-width:1;" x1="1379.332" x2="1518.4206" y1="1219.8605" y2="1219.8605"/><line style="stroke:#000000;stroke-width:1;" x1="1379.332" x2="1518.4206" y1="1221.8605" y2="1221.8605"/><text fill="#000000" font-family="sans-serif" font-size="13" lengthAdjust="spacing" textLength="142.8571" x="1178.1504" y="1242.6105">/mnt/4tb-m2/git/**/.git</text><text fill="#000000" font-family="sans-serif" font-size="13" lengthAdjust="spacing" textLength="85.0214" x="1184.9104" y="1260.3166">&#8594; sessions.sh</text><text fill="#000000" font-family="sans-serif" font-size="13" lengthAdjust="spacing" textLength="185.0435" x="1184.9104" y="1278.0226">&#8594; tmux sessions (idempotent)</text><text fill="#000000" font-family="sans-serif" font-size="13" lengthAdjust="spacing" textLength="133.2774" x="1184.9104" y="1295.7286">&#8594; /.terminility_aliases</text><text fill="#000000" font-family="sans-serif" font-size="13" lengthAdjust="spacing" textLength="152.4004" x="1184.9104" y="1313.4346">&#8594; /.bash_aliases / /.zshrc</text><text fill="#000000" font-family="sans-serif" font-size="13" lengthAdjust="spacing" textLength="207.8195" x="1184.9104" y="1331.1406">&#8594; aliases active in every new shell</text><text fill="#000000" font-family="sans-serif" font-size="13" lengthAdjust="spacing" textLength="3.38" x="1178.1504" y="1348.8466">&#160;</text><line style="stroke:#000000;stroke-width:1;" x1="1173.1504" x2="1293.0249" y1="1361.5087" y2="1361.5087"/><line style="stroke:#000000;stroke-width:1;" x1="1173.1504" x2="1293.0249" y1="1363.5087" y2="1363.5087"/><text fill="#000000" font-family="sans-serif" font-size="13" lengthAdjust="spacing" textLength="98.7611" x="1296.4049" y="1366.0527">Key Entry Points</text><line style="stroke:#000000;stroke-width:1;" x1="1398.546" x2="1518.4206" y1="1361.5087" y2="1361.5087"/><line style="stroke:#000000;stroke-width:1;" x1="1398.546" x2="1518.4206" y1="1363.5087" y2="1363.5087"/><text fill="#000000" font-family="sans-serif" font-size="13" lengthAdjust="spacing" textLength="196.0662" x="1178.1504" y="1384.2587">bash install.sh          &#8212; full install</text><text fill="#000000" font-family="sans-serif" font-size="13" lengthAdjust="spacing" textLength="292.2533" x="1178.1504" y="1401.9647">bash sessions.sh         &#8212; rescan + refresh aliases</text><text fill="#000000" font-family="sans-serif" font-size="13" lengthAdjust="spacing" textLength="262.0802" x="1178.1504" y="1419.6707">source /.terminility_aliases  &#8212; activate now</text><text fill="#000000" font-family="sans-serif" font-size="13" lengthAdjust="spacing" textLength="254.3842" x="1178.1504" y="1437.3767">&lt;alias&gt;                  &#8212; attach to repo session</text><text fill="#000000" font-family="sans-serif" font-size="13" lengthAdjust="spacing" textLength="3.38" x="1178.1504" y="1455.0827">&#160;</text><line style="stroke:#000000;stroke-width:1;" x1="1173.1504" x2="1271.4969" y1="1467.7448" y2="1467.7448"/><line style="stroke:#000000;stroke-width:1;" x1="1173.1504" x2="1271.4969" y1="1469.7448" y2="1469.7448"/><text fill="#000000" font-family="sans-serif" font-size="13" lengthAdjust="spacing" textLength="141.8171" x="1274.8769" y="1472.2888">Environment Overrides</text><line style="stroke:#000000;stroke-width:1;" x1="1420.074" x2="1518.4206" y1="1467.7448" y2="1467.7448"/><line style="stroke:#000000;stroke-width:1;" x1="1420.074" x2="1518.4206" y1="1469.7448" y2="1469.7448"/><text fill="#000000" font-family="sans-serif" font-size="13" lengthAdjust="spacing" textLength="287.4432" x="1178.1504" y="1490.4948">TERMINILITY_GIT_BASE     &#8212; override scan root</text><text fill="#000000" font-family="sans-serif" font-size="13" lengthAdjust="spacing" textLength="335.2702" x="1178.1504" y="1508.2008">TERMINILITY_ALIAS_FILE   &#8212; override alias output path</text></g><?plantuml-src ZLXjRzj64lxENp6NVZYfCSMB6nU1cXfGPSaLgjY1fHGjOC1OaIjfONANs5tQLWvtk4_t0mxt2_jBRlQDNCbISJOGIvpPsNbvvfbXDDCb1KrbnJWhcTx17Qs5Obh87OnalcMQvhgH57fZmRLagmP5y5FPq5eohlj9ITSQj039DbiD1PEepmHF_b9Biga8b6Gd6WsqV4mIzSXuJIIfO4NonuqK3I_6eaI3tqpjJwIXjgGGpunlO4rAHID9oJZLkvg2a7eh8i58Il7ixPrFt-FleN2vPVaZfqh1-Q5eYk4js5SAxsAHDlbfHUSV8b6D8P0DNUWTPj14JVYcfAyLEiCVJWYjXPKeYqZU6ZpkrvxuXbGKWs2aZ3Ikw9eqfLxI5pqgsOPNb6imnOfqvdH3UT7Ty5sIUB_WpPpig8I5nkzlW2YOZtwVt3ry7jrCvbYj2_CBVq-WymJUlEl3Z2jDof8O280rSSzJOExfG6tDju8QJAcG0gW8npyIUgJMMS7N6GhmMRQIz3dxkgjhAlkH5GMwQbxE82y5LZ9hwe9egc3v-PDHCi1IqDH0NvZI1Zx_p0Rcm20NV6qqPCEjDcmfAKh4Ghap-FNMeIwR3Nvs5pw9HpIjK0dZKTx_PyIu0b8op8eIZSmfR1eY2zH7EtZTYgYjp24pdx-QZow13xERnN8qn_HTNKm-NBrFzhDttWTiiJNRDF8WVQtx07_y-p_mAgBpY-_JtCB-BMZPKFVb32hHA7e65tzxX2qc0rlw3FEZQCfuGL_WdOjHDqop9mggnlxFE7c25SenSmhDILeAKi0ZtK6lbdJDNjwwOfW4-bGDhOEfebonLOaNsg-OeqQQyFntT1RBqJILEKsGHL95y5RwH95ftbq04j2PUuudqLTiRuwPboW7h8pKFedZsvlfxFf43h_hmy8L2pvPL5dKjuayAAJA2KBXUhPy-6cqc42lS2qpXApYEdklLsbrdcsOxiCQSpl0JuRVbCEmn9mf7pbPqs0Rk6d6NcOhbPvXLacEA2q40ju-ijdB9RMW3Gu1AsXL2utU8XfxsA6rQX5iJs1o6-al36bXoe2P6v2lwDgapDf5WpvNYybYCRkzEP6iztqOMH2t-NcMp7XbyDLDX0UBT7pSauOkAAAJ5a2qg5YE3RC3IlAjSSJwYJtfMwCsXNFnEOG0fyzfI5CwWbJ1HvEjIqXp-5WJlRsyvm2zT3H4yzfOnRIxLFs0EaE70uGiHb7Zn152z_Vf1KXH73GbjgJQKcpikp66qEMvxtCqciz6YpP3_uWOSE7CJ5bfWjSIdzF27LlSVhaRJ_wS3MFIcpReG60OWMCL8Ovv5D9QcqRCC9fyc8xt3UsXrend2rmi1FPdIAVDai0YllNPzvLgR_1GM1o_8gAJfQbKlaT4Bf_UaEc_uqOAaQlidkVTdf2IQ8D8Ls5f65J5FJ8CsU0CKfcfvPxYe6wgqjzsTJlkN8wBSzSWdTYnfzcQc77ImoTnZUw-t2ndduuLQOsZ5hFtPfz72rgNOeVGTi4x6qiVxtGw-NuyVdqsynoOwRh2s0qhshaKJfi7_yVXFS94EqSLMWP51ITeHsAuxlFyo_NC5FdabV4j0JoMYDS6vi7EOlJhv9ILrynmpoDUiEWpne8jss2dh9bHsH9CDp3HDz-ppY-anBYdiSlRAYyVK2dOZX4oUK5NEIbn9waRxKAR_BRyywOzOFxissypm_iO8PA_3AinGuymRmLJZ_Uy5mR86GXaPSaAWbCGdXX1qdxgj_UYcbrppyS7VRFOAKshmtNedkCwX2d1XGZ_TIiHVZ1B4VvnQn5URYUcswX2IcoGlrmVl-oQwP-R5VGCCD-62OuiQX4MWVdmoHv2ZmbRT7O1_zowW7NvgnipK4knaGvuIRSIfRZhy_IodUz9E-WxYQUmf9jhdSo2p5pYITkCMdTVHUeQ9sJIaUnWODzL1eFBRYTB8eRSauTBFV7joRohU6kBDMQnPgylpVKg2TL8xS4qkXE6-ojjufDsLDDjkx1NjYJ0AZeHKZFqGwAmkuj5RbS3uvxq14e2WSRL2FO2_mt1iUCf9UDMyF64Ig2cAEXk0O_A_Vfgr_fnsICTnrJ3RfF2bHTQe9fzBGapFZuMI6aO1gNr-xKUSilGB_mn0oNuscjUdTnRBtROZp_25T44fgLunY_uv0IJeCHjyT5KRv_vvSv74YyhhSfn1ex59oYrLGaYhBbP-t6Ak1qSjpEtAIKkdbzmvv_WIDt1Pu53MxcmZFLuuMf__lZNVs4ThJb1DufpJnTJYW2rhnXh_Bo5BXIVwHDhg3rjdSUg0HVFUEAZ5Lx2gn-hwtP9ytyKTddovEEYdF0d9eLxExvrz4rzgCl9tQVPpMm-M_x-qBua1AEUwgbjCxkA7fomM7gOpkQJmnDkH8f68rM0MNiJH9B3K_8_?></g></svg>