<?plantuml 1.2026.2?><svg xmlns="http://www.w3.org/2000/svg" xmlns:xlink="http://www.w3.org/1999/xlink" contentStyleType="text/css" data-diagram-type="DESCRIPTION" height="1535px" preserveAspectRatio="none" style="width:615px;height:1535px;background:#FFFFFF;" version="1.1" viewBox="0 0 615 1535" width="615px" zoomAndPan="magnify"><title>terminility Shell Script Flow</title><defs/><g><g class="title" data-source-line="1"><text fill="#000000" font-family="Monospace" font-size="14" font-weight="bold" lengthAdjust="spacing" textLength="188.6843" x="206.3864" y="24.9659">terminility&#160;Shell&#160;Script&#160;Flow</text></g><!--entity shell_install_sh--><g class="entity" data-qualified-name="shell_install_sh" data-source-line="7" id="ent0002"><rect fill="#DBEAFE" height="39.0679" rx="2.5" ry="2.5" style="stroke:#181818;stroke-width:0.5;" width="327.0748" x="15.18" y="387.4825"/><text fill="#000000" font-family="Monospace" font-size="14" lengthAdjust="spacing" textLength="307.0748" x="25.18" y="412.4484">install.sh\n0&#160;local&#160;shell&#160;edges\n9&#160;external&#160;tools</text></g><!--entity shell_sessions_sh--><g class="entity" data-qualified-name="shell_sessions_sh" data-source-line="8" id="ent0003"><rect fill="#DBEAFE" height="39.0679" rx="2.5" ry="2.5" style="stroke:#181818;stroke-width:0.5;" width="343.4268" x="7" y="723.4825"/><text fill="#000000" font-family="Monospace" font-size="14" lengthAdjust="spacing" textLength="323.4268" x="17" y="748.4484">sessions.sh\n0&#160;local&#160;shell&#160;edges\n9&#160;external&#160;tools</text></g><!--entity shell_setup_sh--><g class="entity" data-qualified-name="shell_setup_sh" data-source-line="9" id="ent0004"><rect fill="#DBEAFE" height="39.0679" rx="2.5" ry="2.5" style="stroke:#181818;stroke-width:0.5;" width="332.8988" x="12.26" y="1101.4825"/><text fill="#000000" font-family="Monospace" font-size="14" lengthAdjust="spacing" textLength="312.8988" x="22.26" y="1126.4484">setup.sh\n0&#160;local&#160;shell&#160;edges\n10&#160;external&#160;tools</text></g><!--entity tool_apt_get--><g class="entity" data-qualified-name="tool_apt_get" data-source-line="10" id="ent0005"><path d="M478.4103,223.9504 C481.9283,217.6256 488.8857,217.4298 493.0659,223.1443 C496.7591,215.824 502.7403,215.0498 508.2176,221.1265 C513.649,214.2217 521.577,214.4659 524.4212,223.7207 C528.0393,217.1775 535.2387,215.6895 539.7622,222.6955 C550.5369,223.7941 554.5552,229.352 548.551,239.3207 C553.4788,248.9597 549.3756,256.5488 538.2482,256.6334 C536.0607,264.3582 529.8299,265.7546 524.2892,260.1432 C522.033,268.4023 516.7174,270.2516 509.4666,266.1164 C501.7916,271.9757 495.4358,271.1715 492.3236,261.1813 C485.3479,267.7756 478.6848,264.3435 476.9316,255.8525 C470.0024,250.9244 468.405,246.3163 476.3013,240.7687 C469.6073,234.7006 470.5843,228.1977 478.4103,223.9504" fill="#FEF3C7" style="stroke:#181818;stroke-width:0.5;"/><text fill="#000000" font-family="Monospace" font-size="14" lengthAdjust="spacing" textLength="47.5858" x="483.65" y="244.4484">apt-get</text></g><!--entity tool_cat--><g class="entity" data-qualified-name="tool_cat" data-source-line="11" id="ent0006"><path d="M491.5382,1483.4966 C495.4219,1473.3866 502.2892,1473.7915 509.0521,1480.4979 C516.5359,1473.8055 520.8946,1476.6651 524.5038,1484.5929 C533.1192,1487.7457 533.6073,1493.2379 528.3019,1499.8549 C534.2494,1506.012 533.8712,1513.9091 524.4211,1516.4698 C522.0983,1526.2855 514.8167,1527.2848 507.4582,1522.2042 C499.6432,1528.296 494.3919,1525.571 491.9827,1516.6368 C481.2225,1515.3872 479.8103,1509.9412 484.4337,1501.1789 C478.724,1493.1081 480.2707,1484.7461 491.5382,1483.4966" fill="#FEF3C7" style="stroke:#181818;stroke-width:0.5;"/><text fill="#000000" font-family="Monospace" font-size="14" lengthAdjust="spacing" textLength="19.6279" x="497.62" y="1504.4484">cat</text></g><!--entity tool_chmod--><g class="entity" data-qualified-name="tool_chmod" data-source-line="12" id="ent0007"><path d="M479.3923,1147.0224 C483.638,1140.1175 489.6793,1140.4641 494.2488,1146.6551 C498.5893,1139.9156 503.4593,1140.5001 508.1334,1146.2854 C513.7884,1139.3344 519.3301,1138.993 524.5019,1146.8206 C530.0256,1139.7308 535.1356,1141.0605 539.3249,1148.2097 C549.1794,1149.5792 551.6228,1154.5464 548.0006,1163.5418 C552.0146,1172.3159 548.6123,1180.7049 537.5844,1179.9021 C534.6204,1188.1765 529.0232,1187.9785 523.3591,1182.7459 C520.0586,1189.9394 515.5126,1192.7333 509.067,1185.9655 C503.6125,1193.4872 496.7975,1193.4818 493.0351,1184.3377 C486.9148,1190.4104 480.7666,1188.9386 478.9193,1180.2512 C471.0988,1177.6401 470.1656,1170.5405 475.626,1165.0518 C469.37,1158.9317 470.5911,1149.9971 479.3923,1147.0224" fill="#FEF3C7" style="stroke:#181818;stroke-width:0.5;"/><text fill="#000000" font-family="Monospace" font-size="14" lengthAdjust="spacing" textLength="45.5418" x="484.67" y="1168.4484">chmod</text></g><!--entity tool_cp--><g class="entity" data-qualified-name="tool_cp" data-source-line="13" id="ent0008"><path d="M493.1322,307.4269 C496.5114,298.8274 503.3968,298.4877 508.8415,305.3249 C513.8242,298.8103 520.538,300.4268 522.7924,308.0224 C531.0003,311.8446 531.6538,318.052 524.5457,323.5982 C531.2878,329.8345 531.6958,336.3753 522.5402,340.753 C521.6366,349.3012 516.8132,352.4554 508.6271,349.7837 C498.475,355.2566 493.6323,350.8285 493.1454,340.3834 C483.2819,336.7289 483.6894,329.56 490.5654,323.3674 C484.9739,317.3969 483.8332,310.9998 493.1322,307.4269" fill="#FEF3C7" style="stroke:#181818;stroke-width:0.5;"/><text fill="#000000" font-family="Monospace" font-size="14" lengthAdjust="spacing" textLength="15.3299" x="499.77" y="328.4484">cp</text></g><!--entity tool_curl--><g class="entity" data-qualified-name="tool_curl" data-source-line="14" id="ent0009"><path d="M488.6432,1231.1698 C493.6053,1221.6086 503.1539,1220.8701 508.8662,1230.3741 C515.794,1222.517 521.5874,1222.5415 526.8454,1232.0982 C537.401,1232.7479 539.6517,1239.3418 534.8355,1247.8091 C539.6133,1256.6386 536.2104,1261.6032 527.2039,1263.8918 C521.9399,1274.0189 516.142,1274.7205 508.3829,1266.4434 C501.6321,1274.1853 493.1994,1275.0186 488.9321,1263.8844 C479.9282,1262.5765 477.2061,1255.6184 483.449,1248.7768 C476.129,1241.5457 479.8946,1233.6606 488.6432,1231.1698" fill="#FEF3C7" style="stroke:#181818;stroke-width:0.5;"/><text fill="#000000" font-family="Monospace" font-size="14" lengthAdjust="spacing" textLength="24.7659" x="495.06" y="1252.4484">curl</text></g><!--entity tool_declare--><g class="entity" data-qualified-name="tool_declare" data-source-line="15" id="ent0010"><path d="M478.3833,727.005 C482.143,720.5271 487.4565,719.1268 492.3829,725.7591 C497.9668,718.6231 502.5029,719.4681 507.49,726.4 C512.7377,716.8277 518.4873,717.1502 524.5103,725.6708 C529.1604,719.4145 537.1882,718.3979 540.415,727.1765 C551.9479,727.0381 554.1394,736.1023 549.2228,744.3838 C554.6296,753.044 549.5628,759.4039 540.4055,759.6553 C536.7033,768.4816 529.6228,769.9925 523.4467,762.1761 C520.8159,770.0748 514.0573,772.5911 508.0582,765.6749 C503.1666,772.8035 495.8812,772.0477 492.8192,763.8552 C486.4365,771.1121 479.6036,768.7926 476.3703,760.5194 C465.9041,759.1399 463.5947,752.5194 468.8505,743.9882 C463.8583,735.2795 468.2089,727.2005 478.3833,727.005" fill="#FEF3C7" style="stroke:#181818;stroke-width:0.5;"/><text fill="#000000" font-family="Monospace" font-size="14" lengthAdjust="spacing" textLength="48.3698" x="483.25" y="748.4484">declare</text></g><!--entity tool_die--><g class="entity" data-qualified-name="tool_die" data-source-line="16" id="ent0011"><path d="M491.6712,810.5512 C495.9148,803.0738 503.2243,801.6303 508.5781,809.3131 C515.8704,801.3827 521.8536,803.3135 526.0265,812.494 C535.3979,813.746 539.4579,818.6387 534.623,827.8458 C540.7138,837.5725 535.0404,843.9966 525.1521,844.7942 C522.3592,854.5983 516.7911,856.9559 508.5263,850.332 C500.3086,857.2677 492.6543,853.3819 490.7646,843.6063 C482.952,839.3276 480.52,834.7054 488.0287,827.7785 C480.9608,820.5605 481.8457,814.1973 491.6712,810.5512" fill="#FEF3C7" style="stroke:#181818;stroke-width:0.5;"/><text fill="#000000" font-family="Monospace" font-size="14" lengthAdjust="spacing" textLength="20.1179" x="497.38" y="832.4484">die</text></g><!--entity tool_git--><g class="entity" data-qualified-name="tool_git" data-source-line="17" id="ent0012"><path d="M493.6162,55.1176 C497.8991,48.9069 502.1458,46.6837 507.6025,53.8944 C513.5898,46.0679 519.6277,49.1364 523.4229,56.2203 C532.6857,57.5946 536.448,63.0121 530.9794,71.6166 C538.0215,79.7184 534.9348,86.5051 524.7543,88.1042 C524.4198,98.818 516.526,101.2514 508.7038,95.328 C500.3835,100.2827 493.6047,99.0284 491.9317,88.2443 C483.3802,86.0062 480.4212,79.1856 486.3253,71.9683 C480.9014,62.8887 483.9903,57.6854 493.6162,55.1176" fill="#FEF3C7" style="stroke:#181818;stroke-width:0.5;"/><text fill="#000000" font-family="Monospace" font-size="14" lengthAdjust="spacing" textLength="17.2759" x="498.8" y="76.4484">git</text></g><!--entity tool_grep--><g class="entity" data-qualified-name="tool_grep" data-source-line="18" id="ent0013"><path d="M486.3192,139.4792 C488.996,135.0707 493.5181,133.9299 496.6797,138.9462 C499.9103,131.9706 503.8601,131.056 509.4239,136.5644 C512.5621,131.8002 517.8102,132.9693 520.0812,137.5531 C524.4609,133.5889 528.3213,134.2713 530.6598,139.8225 C540.5774,142.5933 540.4725,148.9698 534.9752,155.8827 C541.7946,163.7615 538.9541,168.961 530.4145,172.6663 C528.2551,178.8178 524.698,180.6368 519.1364,176.338 C517.3557,181.2198 512.5578,183.2674 508.5985,178.7912 C502.6988,182.3602 498.7093,181.6474 496.3292,174.6892 C492.396,179.253 487.2525,177.4414 485.6888,172.1349 C475.974,170.0133 473.3877,162.2751 480.738,155.1727 C474.9933,148.2456 477.4503,141.2092 486.3192,139.4792" fill="#FEF3C7" style="stroke:#181818;stroke-width:0.5;"/><text fill="#000000" font-family="Monospace" font-size="14" lengthAdjust="spacing" textLength="30.8979" x="491.99" y="160.4484">grep</text></g><!--entity tool_info--><g class="entity" data-qualified-name="tool_info" data-source-line="19" id="ent0014"><path d="M489.3242,895.8059 C493.2728,886.573 502.4972,884.9056 508.0951,894.1284 C515.2142,884.9059 522.993,885.6031 527.8112,896.395 C538.1044,897.7236 538.807,904.1301 534.6061,911.8366 C540.7852,919.8717 538.7372,927.0871 528.345,929.1186 C527.1563,940.124 517.9236,943.4393 509.5854,936.6598 C499.1172,943.8216 492.5543,940.1197 489.2664,928.7758 C480.7849,925.8444 480.1864,917.6946 486.9438,912.5781 C478.8435,907.0694 480.6334,898.9315 489.3242,895.8059" fill="#FEF3C7" style="stroke:#181818;stroke-width:0.5;"/><text fill="#000000" font-family="Monospace" font-size="14" lengthAdjust="spacing" textLength="25.5499" x="494.66" y="916.4484">info</text></g><!--entity tool_java--><g class="entity" data-qualified-name="tool_java" data-source-line="20" id="ent0015"><path d="M489.2572,1314.8605 C494.0878,1304.6848 500.8395,1306.0333 507.6171,1312.7436 C515.5484,1302.9753 524.7905,1306.3551 529.526,1316.2961 C537.7556,1319.8398 538.8739,1325.6248 532.3192,1331.8274 C538.6294,1338.5211 537.4898,1345.2665 529.268,1349.443 C526.8581,1361.6652 517.5283,1363.4682 508.4496,1356.7877 C498.4209,1363.8218 489.9138,1358.8539 487.8483,1347.7453 C478.9534,1343.3388 479.4123,1335.2752 488.1388,1331.1777 C481.7631,1325.9618 481.4105,1319.1016 489.2572,1314.8605" fill="#FEF3C7" style="stroke:#181818;stroke-width:0.5;"/><text fill="#000000" font-family="Monospace" font-size="14" lengthAdjust="spacing" textLength="26.4319" x="494.22" y="1336.4484">java</text></g><!--entity tool_mapfile--><g class="entity" data-qualified-name="tool_mapfile" data-source-line="21" id="ent0016"><path d="M476.7043,559.6411 C481.3622,550.7293 488.9585,551.0924 493.5399,559.7145 C497.4845,552.4746 502.8131,553.1428 507.4489,558.9795 C513.2468,551.0582 519.6712,552.0705 525.0871,559.4207 C529.6448,551.3891 536.1539,551.994 540.1684,559.9336 C551.0573,560.4524 552.9631,566.4234 548.9196,575.3944 C554.5003,585.104 551.88,591.7732 540.0456,592.3897 C537.7213,600.8744 529.9127,601.1302 524.6181,595.6774 C521.4465,605.9246 515.4959,607.0652 507.8594,599.9995 C501.5313,606.1226 496.8087,605.4033 492.6405,597.6334 C484.9691,602.8017 479.5329,602.2935 476.2942,592.7187 C466.5967,589.6231 464.1798,583.8837 471.8429,576.1297 C466.2515,569.296 466.5664,561.8373 476.7043,559.6411" fill="#FEF3C7" style="stroke:#181818;stroke-width:0.5;"/><text fill="#000000" font-family="Monospace" font-size="14" lengthAdjust="spacing" textLength="49.4898" x="482.69" y="580.4484">mapfile</text></g><!--entity tool_mkdir--><g class="entity" data-qualified-name="tool_mkdir" data-source-line="22" id="ent0017"><path d="M482.4613,1063.0399 C486.2859,1057.2038 491.6133,1057.2027 494.9387,1063.5511 C498.4658,1056.6877 504.0326,1056.9652 508.7647,1062.1707 C512.7026,1056.1377 516.9504,1056.6618 521.2456,1061.7705 C525.5927,1056.4284 530.8454,1055.9859 533.9507,1063.043 C546.5544,1063.2626 549.0908,1070.4519 544.6945,1080.8998 C549.2829,1089.6531 543.7885,1096.0836 534.8793,1096.1489 C531.9407,1102.4123 528.0679,1104.6659 522.2234,1099.3156 C519.3757,1106.0019 513.1846,1107.6461 507.8639,1102.256 C502.4332,1106.7739 498.5474,1104.6221 496.475,1098.6202 C490.7931,1105.8423 484.3804,1103.8643 481.3283,1095.9829 C471.9784,1093.92 467.6033,1089.4244 473.4615,1079.9154 C468.0052,1069.4811 472.2696,1065.129 482.4613,1063.0399" fill="#FEF3C7" style="stroke:#181818;stroke-width:0.5;"/><text fill="#000000" font-family="Monospace" font-size="14" lengthAdjust="spacing" textLength="38.5699" x="488.15" y="1084.4484">mkdir</text></g><!--entity tool_mv--><g class="entity" data-qualified-name="tool_mv" data-source-line="23" id="ent0018"><path d="M491.6312,642.5512 C495.8867,635.0561 503.2145,633.6103 508.5801,641.3131 C515.886,633.3611 521.884,635.2939 526.0705,644.494 C535.4419,645.746 539.5019,650.6387 534.667,659.8458 C540.7578,669.5725 535.0844,675.9966 525.1961,676.7942 C522.3895,686.6185 516.8069,688.9772 508.5283,682.332 C500.299,689.2884 492.6259,685.4006 490.7246,675.6063 C482.912,671.3276 480.48,666.7054 487.9887,659.7785 C480.9208,652.5605 481.8057,646.1973 491.6312,642.5512" fill="#FEF3C7" style="stroke:#181818;stroke-width:0.5;"/><text fill="#000000" font-family="Monospace" font-size="14" lengthAdjust="spacing" textLength="20.2019" x="497.34" y="664.4484">mv</text></g><!--entity tool_repo_architecture_drawio--><g class="entity" data-qualified-name="tool_repo_architecture_drawio" data-source-line="24" id="ent0019"><path d="M418.9962,1399.4426 C422.4512,1392.1182 428.7736,1392.6217 432.9078,1398.7396 C436.9942,1392.0632 442.7483,1392.9805 445.8487,1399.6926 C448.8074,1393.3143 455.1595,1392.3313 458.9321,1398.8681 C463.0047,1393.4829 466.7137,1394.0892 470.5308,1399.1517 C473.6164,1393.058 479.0402,1392.3816 483.7282,1397.2167 C488.9499,1391.5048 493.4296,1391.4532 497.0714,1398.8277 C500.1965,1391.6008 505.2043,1391.9548 509.7817,1397.3674 C513.8021,1390.9878 518.9603,1392.1975 522.0167,1398.3115 C525.875,1393.4159 530.8428,1392.4623 533.8443,1399.1837 C538.383,1393.3313 542.9253,1392.4551 547.8322,1398.76 C551.4623,1393.806 555.03,1393.5442 558.9151,1398.474 C562.6173,1393.7343 568.5346,1394.0304 571.0261,1399.8611 C574.8145,1394.0753 579.907,1393.8265 584.0064,1399.509 C587.3289,1393.2554 593.7387,1392.7569 597.4319,1399.1144 C605.9258,1403.4779 608.457,1410.4575 599.6271,1416.9529 C607.9163,1421.6572 607.1679,1428.8089 598.7825,1432.614 C595.4906,1438.8755 588.8187,1439.3143 584.8235,1433.4218 C581.6444,1439.7651 577.6975,1439.8044 572.7168,1435.4631 C568.6689,1441.0724 563.6505,1441.4654 559.4169,1435.6799 C555.9807,1441.7065 552.1549,1441.33 547.8027,1436.6759 C544.4799,1443.6838 539.2127,1445.6222 533.3292,1439.4983 C529.54,1446.6677 525.1007,1446.9443 520.3775,1440.3791 C516.1333,1446.9475 511.9824,1447.0178 507.6071,1440.5072 C503.8281,1445.5191 499.3325,1446.5905 495.9581,1440.0976 C491.3656,1445.9322 485.8148,1444.9891 483.4731,1437.9198 C479.103,1444.5245 473.0191,1443.663 469.3935,1437.1224 C464.4699,1441.905 460.0349,1441.1145 456.6822,1435.2473 C452.8651,1440.8114 447.9304,1439.5499 445.4589,1433.9006 C441.4793,1439.7749 436.5143,1440.3063 432.1474,1434.336 C428.6523,1439.6701 422.203,1439.5734 419.1194,1433.8512 C408.5369,1428.9595 408.9607,1421.6899 417.6735,1415.2948 C410.4418,1409.6498 410.1558,1403.7465 418.9962,1399.4426" fill="#FEF3C7" style="stroke:#181818;stroke-width:0.5;"/><text fill="#000000" font-family="Monospace" font-size="14" lengthAdjust="spacing" textLength="164.0234" x="425.43" y="1420.4484">repo-architecture.drawio</text></g><!--entity tool_success--><g class="entity" data-qualified-name="tool_success" data-source-line="25" id="ent0020"><path d="M476.7773,978.6957 C481.7188,969.7224 487.6047,971.0606 492.9149,978.3294 C496.8727,969.4707 504.7065,971.0949 508.9372,978.053 C514.435,969.7782 521.2938,970.3105 525.1502,979.5707 C529.7551,973.5514 536.8412,973.6221 540.7533,980.4146 C549.955,981.0808 554.9613,987.7883 549.5233,996.4575 C556.057,1006.8666 551.4306,1013.2801 539.9349,1013.6115 C535.6578,1021.559 528.1186,1020.8055 523.7497,1013.7103 C520.3492,1020.2822 513.6557,1021.9514 508.667,1015.5579 C503.5218,1023.197 496.8977,1021.844 493.194,1014.1073 C488.3254,1023.4009 479.9683,1021.7309 475.8329,1013.3856 C465.2524,1009.6733 465.5713,1001.6397 473.2921,995.3492 C467.3362,988.0587 468.8502,983.0808 476.7773,978.6957" fill="#FEF3C7" style="stroke:#181818;stroke-width:0.5;"/><text fill="#000000" font-family="Monospace" font-size="14" lengthAdjust="spacing" textLength="50.1058" x="482.39" y="1000.4484">success</text></g><!--entity tool_tmux--><g class="entity" data-qualified-name="tool_tmux" data-source-line="26" id="ent0021"><path d="M483.9612,392.0978 C485.9785,385.6119 492.0145,385.0913 496.1398,389.8057 C500.0049,383.1897 504.3254,383.0441 508.7474,389.2585 C513.1511,383.7727 516.9955,383.9895 520.5134,390.1532 C524.7537,384.4033 530.5392,384.4474 533.3893,391.5463 C541.3822,395.4078 542.1031,401.9093 535.5801,407.7352 C542.0922,413.8528 541.211,421.6634 532.5617,425.1538 C530.8397,431.3837 525.5885,433.8869 520.2425,429.2696 C519.2512,435.5185 513.9475,436.6263 509.5989,432.8252 C503.0595,438.3031 497.6508,436.4256 496.1036,427.9849 C490.3136,433.8759 485.5173,432.4878 483.3937,424.6024 C472.7735,422.7274 471.2882,416.6103 477.2849,408.4506 C471.3682,400.1246 475.1606,394.4153 483.9612,392.0978" fill="#FEF3C7" style="stroke:#181818;stroke-width:0.5;"/><text fill="#000000" font-family="Monospace" font-size="14" lengthAdjust="spacing" textLength="34.2019" x="490.34" y="412.4484">tmux</text></g><!--entity tool_warn--><g class="entity" data-qualified-name="tool_warn" data-source-line="27" id="ent0022"><path d="M484.0382,474.8431 C488.2007,468.9861 493.0107,468.8252 496.8412,475.1908 C499.9376,469.0235 505.3893,468.1019 509.462,474.1849 C512.2844,469.6444 517.3894,468.4518 520.3798,474.0032 C524.4146,468.5587 529.6196,469.0177 532.6604,475.0654 C543.5288,477.1888 543.0795,486.5955 537.0324,492.8721 C543.4848,499.595 541.0468,505.6864 532.5284,507.9319 C530.6811,513.5189 525.37,515.0666 521.0405,510.8367 C518.0095,517.1684 513.4026,517.9854 508.7943,512.4667 C504.7416,518.0283 498.3905,518.0658 495.6265,511.111 C490.8581,515.0461 486.17,513.5282 484.005,507.9355 C473.6863,507.5154 470.911,498.7537 475.9857,491.0311 C470.2028,483.0775 473.3048,474.5809 484.0382,474.8431" fill="#FEF3C7" style="stroke:#181818;stroke-width:0.5;"/><text fill="#000000" font-family="Monospace" font-size="14" lengthAdjust="spacing" textLength="33.2919" x="490.79" y="496.4484">warn</text></g><g class="entity" data-qualified-name="shellGraphSummary" data-source-line="57" id="ent0051"><path d="M81.8,289.4625 L81.8,352.5806 L275.6351,352.5806 L275.6351,299.4625 L265.6351,289.4625 L81.8,289.4625" fill="#FEFFDD" style="stroke:#181818;stroke-width:0.5;"/><path d="M265.6351,289.4625 L265.6351,299.4625 L275.6351,299.4625 L265.6351,289.4625" fill="#FEFFDD" style="stroke:#181818;stroke-width:1;"/><text fill="#000000" font-family="Monospace" font-size="13" lengthAdjust="spacing" textLength="141.5311" x="87.8" y="308.3595">Scanned&#160;3&#160;shell&#160;scripts.</text><text fill="#000000" font-family="Monospace" font-size="13" lengthAdjust="spacing" textLength="172.8351" x="87.8" y="326.0655">Detected&#160;0&#160;local&#160;shell&#160;edges.</text><text fill="#000000" font-family="Monospace" font-size="13" lengthAdjust="spacing" textLength="163.8911" x="87.8" y="343.7716">Detected&#160;18&#160;external&#160;tools.</text></g><!--link shell_install_sh to tool_apt_get--><g class="link" data-entity-1="ent0002" data-entity-2="ent0005" data-link-type="dependency" data-source-line="28" id="lnk23"><path d="M315.45,387.0825 C315.45,342.5825 315.45,239.0225 315.45,239.0225 C315.45,239.0225 406.49,239.0225 462.59,239.0225" fill="none" id="shell_install_sh-to-tool_apt_get" style="stroke:#181818;stroke-width:1;"/><polygon fill="#181818" points="468.59,239.0225,459.59,235.0225,463.59,239.0225,459.59,243.0225,468.59,239.0225" style="stroke:#181818;stroke-width:1;"/></g><!--link shell_install_sh to tool_cp--><g class="link" data-entity-1="ent0002" data-entity-2="ent0008" data-link-type="dependency" data-source-line="29" id="lnk24"><path d="M328.45,387.1125 C328.45,362.2725 328.45,323.0225 328.45,323.0225 C328.45,323.0225 430.06,323.0225 478.41,323.0225" fill="none" id="shell_install_sh-to-tool_cp" style="stroke:#181818;stroke-width:1;"/><polygon fill="#181818" points="484.41,323.0225,475.41,319.0225,479.41,323.0225,475.41,327.0225,484.41,323.0225" style="stroke:#181818;stroke-width:1;"/></g><!--link shell_install_sh to tool_die--><g class="link" data-entity-1="ent0002" data-entity-2="ent0011" data-link-type="dependency" data-source-line="30" id="lnk25"><path d="M342.5,407.0225 C364.93,407.0225 380.45,407.0225 380.45,407.0225 C380.45,407.0225 380.45,814.7525 380.45,814.7525 C380.45,814.7525 438.99,814.7525 476.05,814.7525" fill="none" id="shell_install_sh-to-tool_die" style="stroke:#181818;stroke-width:1;"/><polygon fill="#181818" points="482.05,814.7525,473.05,810.7525,477.05,814.7525,473.05,818.7525,482.05,814.7525" style="stroke:#181818;stroke-width:1;"/></g><!--link shell_install_sh to tool_git--><g class="link" data-entity-1="ent0002" data-entity-2="ent0012" data-link-type="dependency" data-source-line="31" id="lnk26"><path d="M289.45,387.0025 C289.45,314.6725 289.45,71.0225 289.45,71.0225 C289.45,71.0225 421.2,71.0225 477.69,71.0225" fill="none" id="shell_install_sh-to-tool_git" style="stroke:#181818;stroke-width:1;"/><polygon fill="#181818" points="483.69,71.0225,474.69,67.0225,478.69,71.0225,474.69,75.0225,483.69,71.0225" style="stroke:#181818;stroke-width:1;"/></g><!--link shell_install_sh to tool_grep--><g class="link" data-entity-1="ent0002" data-entity-2="ent0013" data-link-type="dependency" data-source-line="32" id="lnk27"><path d="M302.45,387.2425 C302.45,327.8425 302.45,155.0225 302.45,155.0225 C302.45,155.0225 413.56,155.0225 470.75,155.0225" fill="none" id="shell_install_sh-to-tool_grep" style="stroke:#181818;stroke-width:1;"/><polygon fill="#181818" points="476.75,155.0225,467.75,151.0225,471.75,155.0225,467.75,159.0225,476.75,155.0225" style="stroke:#181818;stroke-width:1;"/></g><!--link shell_install_sh to tool_info--><g class="link" data-entity-1="ent0002" data-entity-2="ent0014" data-link-type="dependency" data-source-line="33" id="lnk28"><path d="M342.57,413.5325 C359.38,413.5325 370.45,413.5325 370.45,413.5325 C370.45,413.5325 370.45,898.7525 370.45,898.7525 C370.45,898.7525 433.31,898.7525 473.39,898.7525" fill="none" id="shell_install_sh-to-tool_info" style="stroke:#181818;stroke-width:1;"/><polygon fill="#181818" points="479.39,898.7525,470.39,894.7525,474.39,898.7525,470.39,902.7525,479.39,898.7525" style="stroke:#181818;stroke-width:1;"/></g><!--link shell_install_sh to tool_success--><g class="link" data-entity-1="ent0002" data-entity-2="ent0020" data-link-type="dependency" data-source-line="34" id="lnk29"><path d="M342.69,420.0425 C353.66,420.0425 360.45,420.0425 360.45,420.0425 C360.45,420.0425 360.45,982.7525 360.45,982.7525 C360.45,982.7525 417.75,982.7525 461.27,982.7525" fill="none" id="shell_install_sh-to-tool_success" style="stroke:#181818;stroke-width:1;"/><polygon fill="#181818" points="467.27,982.7525,458.27,978.7525,462.27,982.7525,458.27,986.7525,467.27,982.7525" style="stroke:#181818;stroke-width:1;"/></g><!--link shell_install_sh to tool_tmux--><g class="link" data-entity-1="ent0002" data-entity-2="ent0021" data-link-type="dependency" data-source-line="35" id="lnk30"><path d="M342.59,393.9925 C392.93,393.9925 437.33,393.9925 468.9,393.9925" fill="none" id="shell_install_sh-to-tool_tmux" style="stroke:#181818;stroke-width:1;"/><polygon fill="#181818" points="474.9,393.9925,465.9,389.9925,469.9,393.9925,465.9,397.9925,474.9,393.9925" style="stroke:#181818;stroke-width:1;"/></g><!--link shell_install_sh to tool_warn--><g class="link" data-entity-1="ent0002" data-entity-2="ent0022" data-link-type="dependency" data-source-line="36" id="lnk31"><path d="M178.45,427.0025 C178.45,448.2225 178.45,478.7525 178.45,478.7525 C178.45,478.7525 386.51,478.7525 469.29,478.7525" fill="none" id="shell_install_sh-to-tool_warn" style="stroke:#181818;stroke-width:1;"/><polygon fill="#181818" points="475.29,478.7525,466.29,474.7525,470.29,478.7525,466.29,482.7525,475.29,478.7525" style="stroke:#181818;stroke-width:1;"/></g><!--link shell_sessions_sh to tool_declare--><g class="link" data-entity-1="ent0003" data-entity-2="ent0010" data-link-type="dependency" data-source-line="37" id="lnk32"><path d="M350.78,736.5025 C394.74,736.5025 431.97,736.5025 461.84,736.5025" fill="none" id="shell_sessions_sh-to-tool_declare" style="stroke:#181818;stroke-width:1;"/><polygon fill="#181818" points="467.84,736.5025,458.84,732.5025,462.84,736.5025,458.84,740.5025,467.84,736.5025" style="stroke:#181818;stroke-width:1;"/></g><!--link shell_sessions_sh to tool_die--><g class="link" data-entity-1="ent0003" data-entity-2="ent0011" data-link-type="dependency" data-source-line="38" id="lnk33"><path d="M303.45,762.9225 C303.45,787.7625 303.45,827.0225 303.45,827.0225 C303.45,827.0225 421.33,827.0225 476.02,827.0225" fill="none" id="shell_sessions_sh-to-tool_die" style="stroke:#181818;stroke-width:1;"/><polygon fill="#181818" points="482.02,827.0225,473.02,823.0225,477.02,827.0225,473.02,831.0225,482.02,827.0225" style="stroke:#181818;stroke-width:1;"/></g><!--link shell_sessions_sh to tool_info--><g class="link" data-entity-1="ent0003" data-entity-2="ent0014" data-link-type="dependency" data-source-line="39" id="lnk34"><path d="M220.45,762.9525 C220.45,807.4525 220.45,911.0225 220.45,911.0225 C220.45,911.0225 401.18,911.0225 473.4,911.0225" fill="none" id="shell_sessions_sh-to-tool_info" style="stroke:#181818;stroke-width:1;"/><polygon fill="#181818" points="479.4,911.0225,470.4,907.0225,474.4,911.0225,470.4,915.0225,479.4,911.0225" style="stroke:#181818;stroke-width:1;"/></g><!--link shell_sessions_sh to tool_mapfile--><g class="link" data-entity-1="ent0003" data-entity-2="ent0016" data-link-type="dependency" data-source-line="40" id="lnk35"><path d="M346.45,723.0825 C346.45,678.5825 346.45,575.0225 346.45,575.0225 C346.45,575.0225 413.55,575.0225 461.23,575.0225" fill="none" id="shell_sessions_sh-to-tool_mapfile" style="stroke:#181818;stroke-width:1;"/><polygon fill="#181818" points="467.23,575.0225,458.23,571.0225,462.23,575.0225,458.23,579.0225,467.23,575.0225" style="stroke:#181818;stroke-width:1;"/></g><!--link shell_sessions_sh to tool_mkdir--><g class="link" data-entity-1="ent0003" data-entity-2="ent0017" data-link-type="dependency" data-source-line="41" id="lnk36"><path d="M53.45,762.9725 C53.45,835.0825 53.45,1077.9825 53.45,1077.9825 C53.45,1077.9825 361,1077.9825 466.94,1077.9825" fill="none" id="shell_sessions_sh-to-tool_mkdir" style="stroke:#181818;stroke-width:1;"/><polygon fill="#181818" points="472.94,1077.9825,463.94,1073.9825,467.94,1077.9825,463.94,1081.9825,472.94,1077.9825" style="stroke:#181818;stroke-width:1;"/></g><!--link shell_sessions_sh to tool_mv--><g class="link" data-entity-1="ent0003" data-entity-2="ent0018" data-link-type="dependency" data-source-line="42" id="lnk37"><path d="M348.45,723.1125 C348.45,698.2725 348.45,659.0225 348.45,659.0225 C348.45,659.0225 430.95,659.0225 475.89,659.0225" fill="none" id="shell_sessions_sh-to-tool_mv" style="stroke:#181818;stroke-width:1;"/><polygon fill="#181818" points="481.89,659.0225,472.89,655.0225,476.89,659.0225,472.89,663.0225,481.89,659.0225" style="stroke:#181818;stroke-width:1;"/></g><!--link shell_sessions_sh to tool_success--><g class="link" data-entity-1="ent0003" data-entity-2="ent0020" data-link-type="dependency" data-source-line="43" id="lnk38"><path d="M137.45,762.7925 C137.45,822.2025 137.45,995.0225 137.45,995.0225 C137.45,995.0225 365.25,995.0225 461.14,995.0225" fill="none" id="shell_sessions_sh-to-tool_success" style="stroke:#181818;stroke-width:1;"/><polygon fill="#181818" points="467.14,995.0225,458.14,991.0225,462.14,995.0225,458.14,999.0225,467.14,995.0225" style="stroke:#181818;stroke-width:1;"/></g><!--link shell_sessions_sh to tool_tmux--><g class="link" data-entity-1="ent0003" data-entity-2="ent0021" data-link-type="dependency" data-source-line="44" id="lnk39"><path d="M350.62,749.5325 C374.16,749.5325 390.45,749.5325 390.45,749.5325 C390.45,749.5325 390.45,400.5025 390.45,400.5025 C390.45,400.5025 434.23,400.5025 468.85,400.5025" fill="none" id="shell_sessions_sh-to-tool_tmux" style="stroke:#181818;stroke-width:1;"/><polygon fill="#181818" points="474.85,400.5025,465.85,396.5025,469.85,400.5025,465.85,404.5025,474.85,400.5025" style="stroke:#181818;stroke-width:1;"/></g><!--link shell_sessions_sh to tool_warn--><g class="link" data-entity-1="ent0003" data-entity-2="ent0022" data-link-type="dependency" data-source-line="45" id="lnk40"><path d="M344.45,723.2425 C344.45,663.8425 344.45,491.0225 344.45,491.0225 C344.45,491.0225 422.19,491.0225 469.63,491.0225" fill="none" id="shell_sessions_sh-to-tool_warn" style="stroke:#181818;stroke-width:1;"/><polygon fill="#181818" points="475.63,491.0225,466.63,487.0225,470.63,491.0225,466.63,495.0225,475.63,491.0225" style="stroke:#181818;stroke-width:1;"/></g><!--link shell_setup_sh to tool_cat--><g class="link" data-entity-1="ent0004" data-entity-2="ent0006" data-link-type="dependency" data-source-line="46" id="lnk41"><path d="M95.45,1140.8125 C95.45,1218.5825 95.45,1499.0225 95.45,1499.0225 C95.45,1499.0225 386.84,1499.0225 476.29,1499.0225" fill="none" id="shell_setup_sh-to-tool_cat" style="stroke:#181818;stroke-width:1;"/><polygon fill="#181818" points="482.29,1499.0225,473.29,1495.0225,477.29,1499.0225,473.29,1503.0225,482.29,1499.0225" style="stroke:#181818;stroke-width:1;"/></g><!--link shell_setup_sh to tool_chmod--><g class="link" data-entity-1="ent0004" data-entity-2="ent0007" data-link-type="dependency" data-source-line="47" id="lnk42"><path d="M345.49,1124.5125 C422.2,1124.5125 496.45,1124.5125 496.45,1124.5125 C496.45,1124.5125 496.45,1124.8625 496.45,1132.4125" fill="none" id="shell_setup_sh-to-tool_chmod" style="stroke:#181818;stroke-width:1;"/><polygon fill="#181818" points="496.45,1138.4125,500.45,1129.4125,496.45,1133.4125,492.45,1129.4125,496.45,1138.4125" style="stroke:#181818;stroke-width:1;"/></g><!--link shell_setup_sh to tool_curl--><g class="link" data-entity-1="ent0004" data-entity-2="ent0009" data-link-type="dependency" data-source-line="48" id="lnk43"><path d="M261.45,1140.9825 C261.45,1176.5125 261.45,1247.0225 261.45,1247.0225 C261.45,1247.0225 409.37,1247.0225 473.7,1247.0225" fill="none" id="shell_setup_sh-to-tool_curl" style="stroke:#181818;stroke-width:1;"/><polygon fill="#181818" points="479.7,1247.0225,470.7,1243.0225,474.7,1247.0225,470.7,1251.0225,479.7,1247.0225" style="stroke:#181818;stroke-width:1;"/></g><!--link shell_setup_sh to tool_die--><g class="link" data-entity-1="ent0004" data-entity-2="ent0011" data-link-type="dependency" data-source-line="49" id="lnk44"><path d="M95.45,1101.2125 C95.45,1037.0825 95.45,839.2825 95.45,839.2825 C95.45,839.2825 386.15,839.2825 475.98,839.2825" fill="none" id="shell_setup_sh-to-tool_die" style="stroke:#181818;stroke-width:1;"/><polygon fill="#181818" points="481.98,839.2825,472.98,835.2825,476.98,839.2825,472.98,843.2825,481.98,839.2825" style="stroke:#181818;stroke-width:1;"/></g><!--link shell_setup_sh to tool_info--><g class="link" data-entity-1="ent0004" data-entity-2="ent0014" data-link-type="dependency" data-source-line="50" id="lnk45"><path d="M178.45,1101.3325 C178.45,1051.3225 178.45,923.2825 178.45,923.2825 C178.45,923.2825 393.83,923.2825 473.39,923.2825" fill="none" id="shell_setup_sh-to-tool_info" style="stroke:#181818;stroke-width:1;"/><polygon fill="#181818" points="479.39,923.2825,470.39,919.2825,474.39,923.2825,470.39,927.2825,479.39,923.2825" style="stroke:#181818;stroke-width:1;"/></g><!--link shell_setup_sh to tool_java--><g class="link" data-entity-1="ent0004" data-entity-2="ent0015" data-link-type="dependency" data-source-line="51" id="lnk46"><path d="M178.45,1140.7725 C178.45,1193.0525 178.45,1331.0225 178.45,1331.0225 C178.45,1331.0225 392.78,1331.0225 472.82,1331.0225" fill="none" id="shell_setup_sh-to-tool_java" style="stroke:#181818;stroke-width:1;"/><polygon fill="#181818" points="478.82,1331.0225,469.82,1327.0225,473.82,1331.0225,469.82,1335.0225,478.82,1331.0225" style="stroke:#181818;stroke-width:1;"/></g><!--link shell_setup_sh to tool_mkdir--><g class="link" data-entity-1="ent0004" data-entity-2="ent0017" data-link-type="dependency" data-source-line="52" id="lnk47"><path d="M345.6,1117.5225 C431.51,1117.5225 518.45,1117.5225 518.45,1117.5225 C518.45,1117.5225 518.45,1117.1725 518.45,1109.6225" fill="none" id="shell_setup_sh-to-tool_mkdir" style="stroke:#181818;stroke-width:1;"/><polygon fill="#181818" points="518.45,1103.6225,514.45,1112.6225,518.45,1108.6225,522.45,1112.6225,518.45,1103.6225" style="stroke:#181818;stroke-width:1;"/></g><!--link shell_setup_sh to tool_repo_architecture_drawio--><g class="link" data-entity-1="ent0004" data-entity-2="ent0019" data-link-type="dependency" data-source-line="53" id="lnk48"><path d="M345.41,1131.5025 C395.99,1131.5025 438.45,1131.5025 438.45,1131.5025 C438.45,1131.5025 438.45,1315.3725 438.45,1384.3525" fill="none" id="shell_setup_sh-to-tool_repo_architecture_drawio" style="stroke:#181818;stroke-width:1;"/><polygon fill="#181818" points="438.45,1390.3525,442.45,1381.3525,438.45,1385.3525,434.45,1381.3525,438.45,1390.3525" style="stroke:#181818;stroke-width:1;"/></g><!--link shell_setup_sh to tool_success--><g class="link" data-entity-1="ent0004" data-entity-2="ent0020" data-link-type="dependency" data-source-line="54" id="lnk49"><path d="M261.45,1101.2125 C261.45,1068.6225 261.45,1007.2825 261.45,1007.2825 C261.45,1007.2825 391.31,1007.2825 461.09,1007.2825" fill="none" id="shell_setup_sh-to-tool_success" style="stroke:#181818;stroke-width:1;"/><polygon fill="#181818" points="467.09,1007.2825,458.09,1003.2825,462.09,1007.2825,458.09,1011.2825,467.09,1007.2825" style="stroke:#181818;stroke-width:1;"/></g><!--link shell_setup_sh to tool_warn--><g class="link" data-entity-1="ent0004" data-entity-2="ent0022" data-link-type="dependency" data-source-line="55" id="lnk50"><path d="M345.64,1110.5425 C377.14,1110.5425 400.45,1110.5425 400.45,1110.5425 C400.45,1110.5425 400.45,503.2825 400.45,503.2825 C400.45,503.2825 437.82,503.2825 469.34,503.2825" fill="none" id="shell_setup_sh-to-tool_warn" style="stroke:#181818;stroke-width:1;"/><polygon fill="#181818" points="475.34,503.2825,466.34,499.2825,470.34,503.2825,466.34,507.2825,475.34,503.2825" style="stroke:#181818;stroke-width:1;"/></g><?plantuml-src dPMnRjim441tVGNXp3OIP6Yx56WRgrExQ0qW7AYpn8OY2V9antzVqbOiYh8uP3o-nnFlS299a4H6Q7kXX1HqPbM7KhAAMs68bLAV2ea7OgIP5Mr7h14MEGcj2lScb04BFNCTDFeaLCiE81r6fC43399AhUWlzCZ-QAMT0HuxNFT6ArHKqTaV9gG7rSfOaK8XdGqoRQdJnKrX6w4SWPGxrxs-gaScDGVfpnDgmAP5vrU_CNpt5IeFI6lfDWpSLQd7tRNhsCFBp_sFSX_dTkYSBzHzCld7zjNiD9XSwgV7N6w_EKxCfHuQjW53snRfOeOzjL-e_G9xAFVbywyl7nw7oF71WdUzRY8ZX0l7H89PqC7AYFieDHha4YnEqhYmy4JiY0LlHLIB3nRSOdJI4AM6K0Sz6I5AZNzmXCa8KMhqO0v2HYST5nRUc_-38Yk42-SO2SUK-WBq5Ypl1Fbf6Ypk6Wid4LKGZ3eswgkHPd83vtv8futZGkfHFxnFKeXIumHMJKQ8RiRYJzjklyzcCsDmau5-53BK3qAE-XPbS1Y131xRb352Zp8uDAXOtX9JQTS_8Qk8B8ugkCl7wSmgOJIpmZ57vqswgqHTkijdRHell6asWDPPkA_MgR-CLc7SrvJDcfh2S2cimdalKxhslwvkI7kRyalZb2QylHY_BPYk6leUxBceE2Y53NiUNnntUUtThdZ1S01Fxhn84NtwchnCkm9Lmy87_mC0?></g></svg>