<?plantuml 1.2026.2?><svg xmlns="http://www.w3.org/2000/svg" xmlns:xlink="http://www.w3.org/1999/xlink" contentStyleType="text/css" data-diagram-type="DESCRIPTION" height="2825px" preserveAspectRatio="none" style="width:514px;height:2825px;background:#FFFFFF;" version="1.1" viewBox="0 0 514 2825" width="514px" zoomAndPan="magnify"><title>terminility Shell Script Flow</title><defs/><g><g class="title" data-source-line="1"><text fill="#000000" font-family="Monospace" font-size="14" font-weight="bold" lengthAdjust="spacing" textLength="188.6843" x="155.8164" y="24.9659">terminility&#160;Shell&#160;Script&#160;Flow</text></g><!--entity shell_install_sh--><g class="entity" data-qualified-name="shell_install_sh" data-source-line="7" id="ent0002"><rect fill="#DBEAFE" height="77.2038" rx="2.5" ry="2.5" style="stroke:#181818;stroke-width:0.5;" width="139.3915" x="58.45" y="2286.0179"/><text fill="#000000" font-family="Monospace" font-size="14" lengthAdjust="spacing" textLength="58.2118" x="68.45" y="2310.9839">install.sh</text><text fill="#000000" font-family="Monospace" font-size="14" lengthAdjust="spacing" textLength="119.3915" x="68.45" y="2330.0518">0&#160;local&#160;shell&#160;edges</text><text fill="#000000" font-family="Monospace" font-size="14" lengthAdjust="spacing" textLength="109.7596" x="68.45" y="2349.1197">12&#160;external&#160;tools</text></g><!--entity shell_scripts_run_tachometer_profile_sh--><g class="entity" data-qualified-name="shell_scripts_run_tachometer_profile_sh" data-source-line="8" id="ent0003"><rect fill="#DBEAFE" height="77.2038" rx="2.5" ry="2.5" style="stroke:#181818;stroke-width:0.5;" width="242.2912" x="7" y="144.0179"/><text fill="#000000" font-family="Monospace" font-size="14" lengthAdjust="spacing" textLength="222.2912" x="17" y="168.9839">scripts/run_tachometer_profile.sh</text><text fill="#000000" font-family="Monospace" font-size="14" lengthAdjust="spacing" textLength="119.3915" x="17" y="188.0518">0&#160;local&#160;shell&#160;edges</text><text fill="#000000" font-family="Monospace" font-size="14" lengthAdjust="spacing" textLength="101.7516" x="17" y="207.1197">3&#160;external&#160;tools</text></g><!--entity shell_sessions_sh--><g class="entity" data-qualified-name="shell_sessions_sh" data-source-line="9" id="ent0004"><rect fill="#DBEAFE" height="77.2038" rx="2.5" ry="2.5" style="stroke:#181818;stroke-width:0.5;" width="139.3915" x="58.45" y="1068.0179"/><text fill="#000000" font-family="Monospace" font-size="14" lengthAdjust="spacing" textLength="74.5637" x="68.45" y="1092.9839">sessions.sh</text><text fill="#000000" font-family="Monospace" font-size="14" lengthAdjust="spacing" textLength="119.3915" x="68.45" y="1112.0518">0&#160;local&#160;shell&#160;edges</text><text fill="#000000" font-family="Monospace" font-size="14" lengthAdjust="spacing" textLength="109.7596" x="68.45" y="1131.1197">19&#160;external&#160;tools</text></g><!--entity shell_setup_sh--><g class="entity" data-qualified-name="shell_setup_sh" data-source-line="10" id="ent0005"><rect fill="#DBEAFE" height="77.2038" rx="2.5" ry="2.5" style="stroke:#181818;stroke-width:0.5;" width="139.3915" x="58.45" y="1698.0179"/><text fill="#000000" font-family="Monospace" font-size="14" lengthAdjust="spacing" textLength="56.0278" x="68.45" y="1722.9839">setup.sh</text><text fill="#000000" font-family="Monospace" font-size="14" lengthAdjust="spacing" textLength="119.3915" x="68.45" y="1742.0518">0&#160;local&#160;shell&#160;edges</text><text fill="#000000" font-family="Monospace" font-size="14" lengthAdjust="spacing" textLength="109.7596" x="68.45" y="1761.1197">10&#160;external&#160;tools</text></g><!--entity tool_bashrc--><g class="entity" data-qualified-name="tool_bashrc" data-source-line="11" id="ent0006"><path d="M377.3933,838.6104 C381.1304,832.1645 386.4156,830.7691 391.3194,837.3645 C396.8777,830.2643 401.3916,831.1062 406.353,838.0054 C411.5763,828.4734 417.3012,828.7934 423.2998,837.2762 C427.9314,831.0506 435.9228,830.0421 439.131,838.7819 C450.6639,838.6436 452.8554,847.7078 447.9388,855.9892 C453.3456,864.6495 448.2788,871.0093 439.1215,871.2607 C435.4405,880.0519 428.391,881.5609 422.2362,873.7815 C419.6255,881.647 412.9002,884.1589 406.9212,877.2803 C402.0489,884.3722 394.7985,883.6159 391.7557,875.4606 C385.3941,882.6808 378.5925,880.3653 375.3803,872.1248 C364.9141,870.7453 362.6047,864.1248 367.8605,855.5936 C362.8683,846.885 367.2189,838.8059 377.3933,838.6104" fill="#FEF3C7" style="stroke:#181818;stroke-width:0.5;"/><text fill="#000000" font-family="Monospace" font-size="14" lengthAdjust="spacing" textLength="48.0758" x="382.26" y="860.0539">.bashrc</text></g><!--entity tool_kshrc--><g class="entity" data-qualified-name="tool_kshrc" data-source-line="12" id="ent0007"><path d="M380.7363,922.3185 C384.8838,917.1117 389.8232,915.9089 393.4833,922.8308 C397.7675,914.3575 402.9183,915.6924 408.4356,921.5437 C411.9438,916.9065 416.7776,916.3389 419.7493,922.126 C425.1779,915.1573 429.7119,915.3475 434.4231,922.8532 C444.5848,922.7441 449.0309,930.8167 443.0612,939.221 C447.6787,948.1014 443.3616,954.1733 434.0738,955.2638 C431.5195,963.2511 425.7703,964.1493 420.4695,957.8855 C416.6517,965.9016 411.7544,965.9124 406.3309,959.4539 C401.9274,965.3094 397.4223,964.693 394.3124,958.1953 C390.3852,963.133 384.0554,962.3967 381.3319,956.7228 C370.3609,954.5738 369.5295,948.8363 374.2176,940.0182 C366.8976,930.5074 369.0158,924.8169 380.7363,922.3185" fill="#FEF3C7" style="stroke:#181818;stroke-width:0.5;"/><text fill="#000000" font-family="Monospace" font-size="14" lengthAdjust="spacing" textLength="39.0878" x="386.76" y="944.0539">.kshrc</text></g><!--entity tool_mkshrc--><g class="entity" data-qualified-name="tool_mkshrc" data-source-line="13" id="ent0008"><path d="M373.6994,1006.6801 C377.2722,1000.7209 381.7703,1001.4656 384.9916,1007.0247 C388.1343,1002.0248 391.67,1001.1594 395.6738,1006.0992 C398.7084,1000.3083 404.0678,999.5259 408.3523,1004.647 C411.9413,1001.0037 414.9664,1000.9574 417.4238,1005.8496 C421.4835,1000.8951 425.5554,1000.5777 428.7851,1006.7008 C432.5195,1001.5308 436.7662,1000.7834 440.5751,1006.621 C448.5339,1011.0836 448.4641,1017.3877 442.2776,1023.2946 C448.6365,1029.8689 449.0576,1036.5293 439.6225,1040.6934 C438.167,1046.6809 433.5166,1046.8835 429.5464,1043.3564 C426.8683,1048.8137 423.5709,1049.8417 418.9333,1045.4727 C417.1822,1051.4036 414.4376,1054.1602 408.3949,1049.9184 C402.8124,1053.6882 397.5826,1053.4882 396.0954,1045.5983 C392.1714,1049.8034 388.1585,1048.3111 386.0524,1043.5598 C380.6664,1049.3925 376.498,1047.7441 373.8762,1040.9039 C364.9923,1036.0788 365.2683,1029.9296 373.575,1024.7832 C364.951,1018.7335 365.5802,1012.6148 373.6994,1006.6801" fill="#FEF3C7" style="stroke:#181818;stroke-width:0.5;"/><text fill="#000000" font-family="Monospace" font-size="14" lengthAdjust="spacing" textLength="52.1778" x="380.21" y="1028.0539">.mkshrc</text></g><!--entity tool_zshrc--><g class="entity" data-qualified-name="tool_zshrc" data-source-line="14" id="ent0009"><path d="M381.5213,1090.6453 C385.3188,1084.8545 390.6059,1084.8551 393.9042,1091.1565 C397.4028,1084.3371 402.9321,1084.6091 407.6357,1089.7761 C411.5423,1083.7878 415.7581,1084.3069 420.0221,1089.3759 C424.3411,1084.0764 429.5555,1083.641 432.6327,1090.6484 C445.2363,1090.868 447.7728,1098.0573 443.3765,1108.5053 C447.9649,1117.2585 442.4705,1123.689 433.5612,1123.7543 C430.6543,1129.9789 426.8128,1132.2234 420.9999,1126.921 C418.1788,1133.5688 412.0289,1135.2106 406.7349,1129.8614 C401.3342,1134.3322 397.4829,1132.1873 395.4405,1126.2257 C389.7854,1133.398 383.4136,1131.4252 380.3883,1123.5884 C371.0384,1121.5254 366.6633,1117.0298 372.5215,1107.5208 C367.0652,1097.0865 371.3296,1092.7344 381.5213,1090.6453" fill="#FEF3C7" style="stroke:#181818;stroke-width:0.5;"/><text fill="#000000" font-family="Monospace" font-size="14" lengthAdjust="spacing" textLength="38.1918" x="387.21" y="1112.0539">.zshrc</text></g><!--entity tool_apt_get--><g class="entity" data-qualified-name="tool_apt_get" data-source-line="15" id="ent0010"><path d="M377.2703,2351.5558 C380.7883,2345.231 387.7457,2345.0353 391.9259,2350.7497 C395.6191,2343.4294 401.6003,2342.6552 407.0776,2348.7319 C412.509,2341.8271 420.437,2342.0714 423.2812,2351.3261 C426.8993,2344.7829 434.0987,2343.2949 438.6222,2350.3009 C449.3969,2351.3995 453.4152,2356.9574 447.411,2366.9261 C452.3388,2376.5651 448.2356,2384.1542 437.1082,2384.2388 C434.9207,2391.9637 428.6899,2393.36 423.1492,2387.7486 C420.893,2396.0077 415.5774,2397.857 408.3266,2393.7219 C400.6516,2399.5811 394.2958,2398.777 391.1836,2388.7867 C384.2079,2395.381 377.5448,2391.9489 375.7916,2383.4579 C368.8624,2378.5298 367.265,2373.9217 375.1613,2368.3741 C368.4673,2362.306 369.4443,2355.8031 377.2703,2351.5558" fill="#FEF3C7" style="stroke:#181818;stroke-width:0.5;"/><text fill="#000000" font-family="Monospace" font-size="14" lengthAdjust="spacing" textLength="47.5858" x="382.51" y="2372.0539">apt-get</text></g><!--entity tool_backend_check--><g class="entity" data-qualified-name="tool_backend_check" data-source-line="16" id="ent0011"><path d="M350.9062,1174.7978 C354.9089,1170.1867 358.1401,1170.8476 361.212,1175.8007 C364.11,1169.1841 368.3838,1169.7773 373.0038,1173.9121 C376.494,1167.6995 381.1959,1169.1965 384.4359,1174.1678 C388.0076,1168.3258 391.8161,1167.7941 396.5201,1172.9203 C400.2673,1167.5088 403.5392,1167.0864 407.322,1172.886 C410.8686,1168.7302 415.5897,1168.6842 418.236,1173.9309 C421.985,1168.2079 427.2945,1167.0743 431.0227,1173.9519 C434.3289,1169.0553 437.9674,1169.2271 441.013,1174.2153 C444.6776,1169.2071 450.1036,1167.7955 453.5002,1174.5009 C456.5452,1169.6657 462.0403,1168.5923 465.1846,1174.3918 C474.4094,1178.2793 478.5551,1183.6283 470.5654,1192.6023 C475.6833,1200.0347 473.3286,1206.7221 463.813,1207.5391 C460.7324,1213.3722 457.1669,1214.3155 452.6883,1208.9246 C450.0433,1214.0549 444.9801,1215.2242 441.6007,1209.688 C437.8579,1214.916 432.9183,1216.0002 429.444,1209.4116 C426.8037,1214.4296 422.5439,1216.57 418.3513,1211.0448 C415.9211,1215.9435 411.2259,1215.917 408.006,1211.9682 C402.8934,1218.358 399.0422,1217.5935 395.2217,1210.7225 C391.287,1215.1844 387.651,1214.9065 384.9931,1209.411 C382.0445,1214.9833 375.8974,1215.2 372.3513,1210.1201 C367.6504,1215.5208 363.3092,1214.2302 361.1614,1207.7212 C358.3653,1213.4152 353.9398,1212.4118 350.7736,1208.1057 C341.9164,1205.9928 338.4342,1198.6076 345.76,1191.5839 C339.1011,1183.9749 341.8093,1177.5765 350.9062,1174.7978" fill="#FEF3C7" style="stroke:#181818;stroke-width:0.5;"/><text fill="#000000" font-family="Monospace" font-size="14" lengthAdjust="spacing" textLength="99.4976" x="356.55" y="1196.0539">backend_check</text></g><!--entity tool_backend_start_server--><g class="entity" data-qualified-name="tool_backend_start_server" data-source-line="17" id="ent0012"><path d="M330.2461,1258.384 C334.8191,1253.3914 339.5506,1252.4596 343.1457,1259.4377 C346.2962,1252.4726 351.3832,1253.4081 355.585,1258.3383 C359.0202,1251.5083 365.1148,1251.9815 369.1171,1257.7281 C373.7247,1252.4667 378.4382,1253.4776 381.8655,1259.1094 C384.8764,1252.0805 388.8412,1252.2468 393.9458,1256.9541 C398.0174,1251.415 403.7215,1249.6128 407.6198,1257.1355 C411.1766,1251.1022 416.8144,1253.0132 419.4862,1258.0814 C423.5318,1250.5533 428.2745,1251.8456 433.1981,1257.1427 C437.7761,1251.2884 442.1411,1252.9678 445.5611,1258.41 C448.7909,1253.2216 455.0875,1251.8761 458.4373,1258.2767 C462.1738,1252.6281 468.6397,1252.8041 472.0431,1258.6705 C475.2621,1252.4929 480.6744,1253.5244 484.1119,1258.4326 C492.7102,1262.9158 492.5476,1268.8199 486.4492,1275.3353 C493.8862,1281.1411 492.4267,1289.4104 483.3829,1292.2241 C481.2069,1296.7174 477.6881,1296.8962 474.2667,1293.7007 C471.2159,1299.6748 466.5009,1299.0776 462.9245,1294.2529 C458.9963,1299.8927 454.6611,1299.4577 451.7144,1293.3188 C448.0731,1298.4323 444.1966,1299.3639 440.2779,1293.6107 C437.7752,1299.8328 432.7223,1299.1569 429.0145,1294.9069 C426.0797,1300.2487 422.6568,1301.2308 418.2213,1296.5177 C414.7575,1302.3416 409.7396,1301.569 406.6288,1296.1535 C403.3784,1299.8943 399.3772,1299.1688 397.2805,1294.8201 C393.4987,1300.659 388.248,1301.1642 384.7511,1294.5338 C381.9094,1298.8086 377.5448,1298.8892 374.7585,1294.4702 C371.4187,1299.789 367.2178,1299.0872 363.8759,1294.4725 C360.0021,1299.4384 355.5024,1299.1267 352.628,1293.4193 C348.743,1298.7099 344.9111,1298.4872 341.8238,1292.6452 C338.4162,1298.1125 333.724,1297.3794 331.256,1291.7503 C321.5415,1291.0784 317.2598,1285.1024 322.9456,1276.2001 C317.7023,1267.3943 320.6757,1261.1196 330.2461,1258.384" fill="#FEF3C7" style="stroke:#181818;stroke-width:0.5;"/><text fill="#000000" font-family="Monospace" font-size="14" lengthAdjust="spacing" textLength="139.8735" x="336.37" y="1280.0539">backend_start_server</text></g><!--entity tool_cat--><g class="entity" data-qualified-name="tool_cat" data-source-line="18" id="ent0013"><path d="M390.4082,1595.102 C394.2919,1584.992 401.1592,1585.3969 407.9221,1592.1033 C415.4059,1585.411 419.7646,1588.2705 423.3738,1596.1983 C431.9892,1599.3511 432.4773,1604.8433 427.1719,1611.4603 C433.1194,1617.6174 432.7412,1625.5145 423.2911,1628.0752 C420.9683,1637.8909 413.6867,1638.8902 406.3282,1633.8096 C398.5132,1639.9014 393.2619,1637.1764 390.8527,1628.2422 C380.0925,1626.9926 378.6803,1621.5466 383.3037,1612.7843 C377.594,1604.7136 379.1407,1596.3515 390.4082,1595.102" fill="#FEF3C7" style="stroke:#181818;stroke-width:0.5;"/><text fill="#000000" font-family="Monospace" font-size="14" lengthAdjust="spacing" textLength="19.6279" x="396.49" y="1616.0539">cat</text></g><!--entity tool_chmod--><g class="entity" data-qualified-name="tool_chmod" data-source-line="19" id="ent0014"><path d="M378.2523,1678.6278 C382.498,1671.7229 388.5393,1672.0695 393.1088,1678.2605 C397.4493,1671.521 402.3193,1672.1055 406.9934,1677.8908 C412.6484,1670.9398 418.1901,1670.5984 423.3619,1678.426 C428.8856,1671.3362 433.9956,1672.6659 438.1849,1679.8151 C448.0394,1681.1847 450.4828,1686.1518 446.8606,1695.1472 C450.8746,1703.9213 447.4723,1712.3103 436.4444,1711.5075 C433.4804,1719.7819 427.8832,1719.5839 422.2191,1714.3513 C418.9186,1721.5448 414.3726,1724.3387 407.927,1717.5709 C402.4725,1725.0926 395.6575,1725.0872 391.8951,1715.9431 C385.7748,1722.0158 379.6266,1720.544 377.7793,1711.8566 C369.9588,1709.2455 369.0256,1702.146 374.486,1696.6572 C368.23,1690.5371 369.4511,1681.6025 378.2523,1678.6278" fill="#FEF3C7" style="stroke:#181818;stroke-width:0.5;"/><text fill="#000000" font-family="Monospace" font-size="14" lengthAdjust="spacing" textLength="45.5418" x="383.53" y="1700.0539">chmod</text></g><!--entity tool_cp--><g class="entity" data-qualified-name="tool_cp" data-source-line="20" id="ent0015"><path d="M392.0022,2435.0323 C395.3814,2426.4328 402.2668,2426.0931 407.7115,2432.9303 C412.6942,2426.4157 419.408,2428.0322 421.6624,2435.6278 C429.8703,2439.45 430.5238,2445.6574 423.4157,2451.2036 C430.1578,2457.44 430.5658,2463.9807 421.4102,2468.3585 C420.5066,2476.9066 415.6832,2480.0609 407.4971,2477.3891 C397.345,2482.862 392.5023,2478.434 392.0154,2467.9888 C382.1519,2464.3344 382.5594,2457.1654 389.4354,2450.9728 C383.8439,2445.0023 382.7032,2438.6052 392.0022,2435.0323" fill="#FEF3C7" style="stroke:#181818;stroke-width:0.5;"/><text fill="#000000" font-family="Monospace" font-size="14" lengthAdjust="spacing" textLength="15.3299" x="398.64" y="2456.0539">cp</text></g><!--entity tool_curl--><g class="entity" data-qualified-name="tool_curl" data-source-line="21" id="ent0016"><path d="M387.5032,1762.7753 C392.4653,1753.214 402.0139,1752.4755 407.7262,1761.9796 C414.654,1754.1224 420.4474,1754.1469 425.7054,1763.7036 C436.261,1764.3533 438.5117,1770.9472 433.6955,1779.4145 C438.4733,1788.244 435.0704,1793.2086 426.0639,1795.4972 C420.7999,1805.6244 415.002,1806.3259 407.2429,1798.0488 C400.4921,1805.7907 392.0594,1806.624 387.7921,1795.4898 C378.7882,1794.1819 376.0661,1787.2238 382.309,1780.3823 C374.989,1773.1511 378.7546,1765.266 387.5032,1762.7753" fill="#FEF3C7" style="stroke:#181818;stroke-width:0.5;"/><text fill="#000000" font-family="Monospace" font-size="14" lengthAdjust="spacing" textLength="24.7659" x="393.92" y="1784.0539">curl</text></g><!--entity tool_declare--><g class="entity" data-qualified-name="tool_declare" data-source-line="22" id="ent0017"><path d="M377.2533,334.6104 C381.013,328.1325 386.3265,326.7322 391.2529,333.3645 C396.8368,326.2285 401.3729,327.0736 406.36,334.0054 C411.6077,324.4331 417.3573,324.7556 423.3803,333.2762 C428.0304,327.0199 436.0582,326.0033 439.285,334.7819 C450.8179,334.6436 453.0094,343.7078 448.0928,351.9892 C453.4996,360.6495 448.4328,367.0093 439.2755,367.2607 C435.5733,376.087 428.4928,377.5979 422.3167,369.7815 C419.6859,377.6802 412.9273,380.1965 406.9282,373.2803 C402.0366,380.4089 394.7512,379.6531 391.6892,371.4606 C385.3065,378.7175 378.4736,376.398 375.2403,368.1248 C364.7741,366.7453 362.4647,360.1248 367.7205,351.5936 C362.7283,342.885 367.0789,334.8059 377.2533,334.6104" fill="#FEF3C7" style="stroke:#181818;stroke-width:0.5;"/><text fill="#000000" font-family="Monospace" font-size="14" lengthAdjust="spacing" textLength="48.3698" x="382.12" y="356.0539">declare</text></g><!--entity tool_die--><g class="entity" data-qualified-name="tool_die" data-source-line="23" id="ent0018"><path d="M390.5312,2098.1566 C394.7748,2090.6793 402.0843,2089.2357 407.4381,2096.9186 C414.7304,2088.9881 420.7136,2090.9189 424.8865,2100.0994 C434.2579,2101.3515 438.3179,2106.2441 433.483,2115.4512 C439.5738,2125.1779 433.9004,2131.602 424.0121,2132.3996 C421.2192,2142.2037 415.6511,2144.5613 407.3863,2137.9374 C399.1686,2144.8731 391.5143,2140.9873 389.6246,2131.2117 C381.812,2126.933 379.38,2122.3108 386.8887,2115.3839 C379.8208,2108.1659 380.7057,2101.8028 390.5312,2098.1566" fill="#FEF3C7" style="stroke:#181818;stroke-width:0.5;"/><text fill="#000000" font-family="Monospace" font-size="14" lengthAdjust="spacing" textLength="20.1179" x="396.24" y="2120.0539">die</text></g><!--entity tool_git--><g class="entity" data-qualified-name="tool_git" data-source-line="24" id="ent0019"><path d="M392.4762,2518.723 C396.7591,2512.5123 401.0058,2510.2891 406.4625,2517.4998 C412.4498,2509.6733 418.4877,2512.7418 422.2829,2519.8257 C431.5457,2521.2 435.308,2526.6175 429.8394,2535.222 C436.8815,2543.3238 433.7948,2550.1105 423.6143,2551.7096 C423.2798,2562.4234 415.386,2564.8568 407.5638,2558.9334 C399.2435,2563.8881 392.4647,2562.6338 390.7917,2551.8497 C382.2402,2549.6116 379.2812,2542.791 385.1853,2535.5737 C379.7614,2526.4941 382.8503,2521.2909 392.4762,2518.723" fill="#FEF3C7" style="stroke:#181818;stroke-width:0.5;"/><text fill="#000000" font-family="Monospace" font-size="14" lengthAdjust="spacing" textLength="17.2759" x="397.66" y="2540.0539">git</text></g><!--entity tool_grep--><g class="entity" data-qualified-name="tool_grep" data-source-line="25" id="ent0020"><path d="M385.1792,2183.0846 C387.856,2178.6761 392.3781,2177.5353 395.5397,2182.5516 C398.7703,2175.576 402.7201,2174.6614 408.2839,2180.1698 C411.4221,2175.4056 416.6702,2176.5747 418.9412,2181.1585 C423.3209,2177.1943 427.1813,2177.8767 429.5198,2183.4279 C439.4374,2186.1987 439.3325,2192.5752 433.8352,2199.4881 C440.6546,2207.3669 437.8141,2212.5664 429.2745,2216.2717 C427.1151,2222.4232 423.558,2224.2422 417.9964,2219.9434 C416.2157,2224.8253 411.4178,2226.8728 407.4585,2222.3966 C401.5588,2225.9656 397.5693,2225.2529 395.1892,2218.2946 C391.256,2222.8584 386.1125,2221.0468 384.5488,2215.7403 C374.834,2213.6187 372.2477,2205.8805 379.598,2198.7781 C373.8533,2191.851 376.3103,2184.8146 385.1792,2183.0846" fill="#FEF3C7" style="stroke:#181818;stroke-width:0.5;"/><text fill="#000000" font-family="Monospace" font-size="14" lengthAdjust="spacing" textLength="30.8979" x="390.85" y="2204.0539">grep</text></g><!--entity tool_info--><g class="entity" data-qualified-name="tool_info" data-source-line="26" id="ent0021"><path d="M388.1942,2267.4113 C392.1428,2258.1784 401.3672,2256.511 406.9651,2265.7338 C414.0842,2256.5113 421.863,2257.2085 426.6812,2268.0004 C436.9744,2269.329 437.677,2275.7355 433.4761,2283.442 C439.6552,2291.4771 437.6072,2298.6925 427.215,2300.724 C426.0263,2311.7294 416.7936,2315.0447 408.4554,2308.2653 C397.9872,2315.427 391.4243,2311.7251 388.1364,2300.3812 C379.6549,2297.4498 379.0564,2289.3 385.8138,2284.1835 C377.7135,2278.6748 379.5034,2270.5369 388.1942,2267.4113" fill="#FEF3C7" style="stroke:#181818;stroke-width:0.5;"/><text fill="#000000" font-family="Monospace" font-size="14" lengthAdjust="spacing" textLength="25.5499" x="393.53" y="2288.0539">info</text></g><!--entity tool_install_backend--><g class="entity" data-qualified-name="tool_install_backend" data-source-line="27" id="ent0022"><path d="M349.3502,2602.4885 C352.4044,2596.294 358.1791,2597.2105 361.5238,2602.1715 C364.987,2596.9491 369.9927,2596.4207 373.9607,2601.566 C376.8734,2596.9496 381.6715,2597.2485 384.3152,2601.8676 C388.5496,2596.8358 392.7546,2597.376 396.3836,2602.5813 C399.2645,2598.1777 403.3549,2597.6938 406.3691,2602.4356 C409.2731,2595.8 414.7383,2595.7019 418.4826,2601.6251 C422.2429,2597.0298 426.325,2596.1184 430.0127,2601.7072 C433.3354,2597.0404 438.6464,2596.6439 441.3744,2602.358 C445.7446,2596.8135 449.6662,2597.9445 452.5653,2603.802 C455.867,2597.4896 461.1272,2598.3608 464.8739,2603.3159 C472.379,2607.5901 472.6253,2613.9005 466.1193,2619.2685 C472.5715,2624.4146 473.0284,2632.6268 464.002,2635.7892 C461.2866,2640.7602 456.0793,2640.8002 452.8164,2636.4459 C449.7876,2642.0234 445.5347,2640.9122 442.2668,2636.7037 C440.0146,2642.5512 433.9908,2643.7942 429.7022,2639.1401 C427.0579,2645.5156 422.0405,2645.8001 418.3661,2640.1078 C415.482,2645.2655 411.7364,2644.7053 408.4682,2640.5144 C403.667,2645.685 399.5413,2646.6938 395.6906,2639.5297 C392.0508,2645.0272 388.2072,2644.218 385.2579,2638.8657 C381.153,2643.9268 374.5725,2644.1408 372.4878,2636.7875 C370.0428,2642.6651 364.6304,2642.6187 361.3922,2637.5948 C357.6178,2642.2563 351.4574,2642.8259 349.0264,2636.1319 C338.8231,2632.9678 337.6152,2627.0634 343.5302,2618.7908 C337.8303,2612.1346 340.5986,2603.9854 349.3502,2602.4885" fill="#FEF3C7" style="stroke:#181818;stroke-width:0.5;"/><text fill="#000000" font-family="Monospace" font-size="14" lengthAdjust="spacing" textLength="101.1356" x="355.74" y="2624.0539">install_backend</text></g><!--entity tool_install_plugins--><g class="entity" data-qualified-name="tool_install_plugins" data-source-line="28" id="ent0023"><path d="M353.5103,2686.9023 C356.7231,2680.6377 362.9385,2680.6547 366.5211,2686.5053 C370.3632,2680.3124 376.4703,2680.5355 379.5414,2687.2812 C383.5766,2679.5707 388.3072,2679.7494 393.4268,2686.2193 C398.0372,2678.8078 403.9087,2678.9629 408.2619,2686.4751 C411.8834,2680.7845 417.2887,2681.6635 420.3999,2687.035 C424.698,2679.5906 430.6704,2679.8383 435.3843,2686.5963 C438.574,2680.4396 442.8438,2680.1954 446.8657,2685.7828 C452.5828,2678.8018 457.4517,2680.6024 461.7686,2687.3075 C472.8106,2686.1502 477.5359,2694.0881 471.4333,2703.2949 C475.7399,2712.6181 472.4974,2718.6181 462.3011,2720.0246 C457.6185,2726.3587 451.5955,2726.2624 447.0912,2719.8124 C444.1873,2725.6929 437.9645,2726.4562 433.7958,2721.3418 C429.7037,2728.2968 424.879,2727.4367 420.5087,2721.6315 C416.3233,2727.3384 410.785,2728.4134 406.6373,2721.5897 C402.2176,2727.3684 397.841,2727.1113 393.8333,2721.1407 C391.1006,2728.0202 384.8147,2728.117 381.1474,2722.057 C376.7834,2728.1583 369.5261,2728.3006 366.1153,2720.9887 C361.8641,2727.5562 355.9292,2726.1814 353.0774,2719.601 C345.2923,2715.9496 346.2735,2709.2279 352.145,2704.7208 C344.8003,2698.5531 343.683,2691.7542 353.5103,2686.9023" fill="#FEF3C7" style="stroke:#181818;stroke-width:0.5;"/><text fill="#000000" font-family="Monospace" font-size="14" lengthAdjust="spacing" textLength="93.7716" x="359.42" y="2708.0539">install_plugins</text></g><!--entity tool_java--><g class="entity" data-qualified-name="tool_java" data-source-line="29" id="ent0024"><path d="M388.1272,1426.466 C392.9578,1416.2902 399.7095,1417.6387 406.4871,1424.3491 C414.4184,1414.5807 423.6605,1417.9605 428.396,1427.9015 C436.6256,1431.4452 437.7439,1437.2303 431.1892,1443.4328 C437.4994,1450.1265 436.3598,1456.8719 428.138,1461.0484 C425.7281,1473.2706 416.3983,1475.0736 407.3196,1468.3931 C397.2909,1475.4272 388.7838,1470.4593 386.7183,1459.3507 C377.8234,1454.9442 378.2823,1446.8806 387.0088,1442.7831 C380.6331,1437.5672 380.2805,1430.707 388.1272,1426.466" fill="#FEF3C7" style="stroke:#181818;stroke-width:0.5;"/><text fill="#000000" font-family="Monospace" font-size="14" lengthAdjust="spacing" textLength="26.4319" x="393.09" y="1448.0539">java</text></g><!--entity tool_mapfile--><g class="entity" data-qualified-name="tool_mapfile" data-source-line="30" id="ent0025"><path d="M375.5743,419.2465 C380.2322,410.3347 387.8285,410.6978 392.4099,419.3199 C396.3545,412.08 401.6831,412.7483 406.3189,418.5849 C412.1168,410.6636 418.5412,411.6759 423.9571,419.0261 C428.5148,410.9945 435.0239,411.5995 439.0384,419.539 C449.9273,420.0579 451.8331,426.0288 447.7896,434.9998 C453.3703,444.7094 450.75,451.3787 438.9156,451.9951 C436.5913,460.4798 428.7827,460.7356 423.4881,455.2829 C420.3165,465.53 414.3659,466.6706 406.7294,459.6049 C400.4013,465.728 395.6787,465.0088 391.5105,457.2388 C383.8391,462.4072 378.4029,461.899 375.1642,452.3242 C365.4667,449.2285 363.0498,443.4891 370.7129,435.7351 C365.1215,428.9014 365.4364,421.4427 375.5743,419.2465" fill="#FEF3C7" style="stroke:#181818;stroke-width:0.5;"/><text fill="#000000" font-family="Monospace" font-size="14" lengthAdjust="spacing" textLength="49.4898" x="381.56" y="440.0539">mapfile</text></g><!--entity tool_mkdir--><g class="entity" data-qualified-name="tool_mkdir" data-source-line="31" id="ent0026"><path d="M381.3313,1342.6453 C385.1559,1336.8092 390.4833,1336.8081 393.8087,1343.1565 C397.3358,1336.2931 402.9026,1336.5706 407.6347,1341.7761 C411.5726,1335.7431 415.8204,1336.2672 420.1156,1341.3759 C424.4627,1336.0338 429.7154,1335.5913 432.8207,1342.6484 C445.4244,1342.868 447.9608,1350.0573 443.5645,1360.5053 C448.1529,1369.2585 442.6585,1375.689 433.7493,1375.7543 C430.8107,1382.0177 426.9379,1384.2713 421.0934,1378.921 C418.2457,1385.6074 412.0546,1387.2515 406.7339,1381.8614 C401.3032,1386.3793 397.4174,1384.2275 395.345,1378.2257 C389.6631,1385.4477 383.2504,1383.4697 380.1983,1375.5884 C370.8484,1373.5254 366.4733,1369.0298 372.3315,1359.5208 C366.8752,1349.0865 371.1396,1344.7344 381.3313,1342.6453" fill="#FEF3C7" style="stroke:#181818;stroke-width:0.5;"/><text fill="#000000" font-family="Monospace" font-size="14" lengthAdjust="spacing" textLength="38.5699" x="387.02" y="1364.0539">mkdir</text></g><!--entity tool_mv--><g class="entity" data-qualified-name="tool_mv" data-source-line="32" id="ent0027"><path d="M390.4912,502.1566 C394.7467,494.6615 402.0745,493.2158 407.4401,500.9186 C414.746,492.9665 420.744,494.8993 424.9305,504.0994 C434.3019,505.3515 438.3619,510.2441 433.527,519.4512 C439.6178,529.1779 433.9444,535.602 424.0561,536.3996 C421.2495,546.2239 415.6669,548.5826 407.3883,541.9374 C399.159,548.8938 391.4859,545.006 389.5846,535.2117 C381.772,530.933 379.34,526.3108 386.8487,519.3839 C379.7808,512.1659 380.6657,505.8028 390.4912,502.1566" fill="#FEF3C7" style="stroke:#181818;stroke-width:0.5;"/><text fill="#000000" font-family="Monospace" font-size="14" lengthAdjust="spacing" textLength="20.2019" x="396.2" y="524.0539">mv</text></g><!--entity tool_print_quickref--><g class="entity" data-qualified-name="tool_print_quickref" data-source-line="33" id="ent0028"><path d="M355.3963,2771.2116 C359.315,2765.312 363.5441,2763.8764 368.6178,2769.9346 C371.5718,2764.8365 377.4583,2763.4256 380.8716,2769.4274 C384.6808,2764.2286 390.6781,2764.4449 393.5131,2770.5198 C396.8362,2762.1077 403.0734,2761.2819 408.2426,2768.8144 C412.9763,2763.1889 416.9612,2763.2585 421.0756,2769.485 C425.3785,2763.3296 431.8004,2763.8995 434.7391,2770.9016 C438.4446,2765.4297 442.9059,2764.766 447.3555,2770.0269 C451.2365,2764.8146 457.1755,2764.8488 460.4832,2770.7067 C469.2578,2775.4709 469.4575,2783.6743 460.7461,2788.6941 C467.9361,2792.7338 468.0007,2800.1716 460.235,2803.702 C458.4434,2809.8864 452.4101,2812.6529 447.5682,2806.9532 C443.9284,2813.377 437.9148,2814.5141 433.8633,2807.369 C431.5123,2813.8839 425.2908,2815.514 420.7586,2809.6845 C417.7488,2817.573 411.3297,2818.5632 406.4707,2811.4452 C402.3803,2816.559 396.6039,2815.0222 394.1959,2809.5031 C389.8424,2815.1468 384.7171,2813.9102 381.8749,2807.9046 C376.9921,2814.4839 371.974,2813.757 368.7169,2806.3727 C363.9768,2813.3347 357.627,2812.9473 354.0435,2805.2176 C342.7765,2804.4453 339.6746,2797.1414 346.0002,2788.1018 C341.7069,2779.6712 343.7825,2770.7931 355.3963,2771.2116" fill="#FEF3C7" style="stroke:#181818;stroke-width:0.5;"/><text fill="#000000" font-family="Monospace" font-size="14" lengthAdjust="spacing" textLength="91.4896" x="360.56" y="2792.0539">print_quickref</text></g><!--entity tool_repo_architecture_drawio--><g class="entity" data-qualified-name="tool_repo_architecture_drawio" data-source-line="34" id="ent0029"><path d="M317.8562,1511.048 C321.3112,1503.7236 327.6336,1504.2271 331.7678,1510.345 C335.8542,1503.6687 341.6083,1504.586 344.7087,1511.298 C347.6674,1504.9197 354.0195,1503.9367 357.7921,1510.4735 C361.8647,1505.0883 365.5737,1505.6946 369.3908,1510.7571 C372.4764,1504.6634 377.9002,1503.987 382.5882,1508.8221 C387.8099,1503.1102 392.2896,1503.0586 395.9314,1510.4331 C399.0565,1503.2062 404.0643,1503.5602 408.6417,1508.9728 C412.6621,1502.5932 417.8203,1503.8029 420.8767,1509.9169 C424.735,1505.0213 429.7028,1504.0677 432.7043,1510.7891 C437.243,1504.9367 441.7853,1504.0605 446.6922,1510.3654 C450.3223,1505.4114 453.89,1505.1496 457.7751,1510.0795 C461.4773,1505.3397 467.3946,1505.6358 469.8861,1511.4665 C473.6745,1505.6807 478.767,1505.4319 482.8664,1511.1144 C486.1889,1504.8608 492.5987,1504.3624 496.2919,1510.7198 C504.7858,1515.0833 507.317,1522.0629 498.4871,1528.5583 C506.7763,1533.2626 506.0279,1540.4143 497.6425,1544.2194 C494.3506,1550.4809 487.6787,1550.9197 483.6835,1545.0272 C480.5044,1551.3705 476.5575,1551.4098 471.5768,1547.0685 C467.5289,1552.6779 462.5105,1553.0708 458.2769,1547.2853 C454.8407,1553.3119 451.0149,1552.9355 446.6627,1548.2813 C443.3399,1555.2893 438.0727,1557.2276 432.1892,1551.1037 C428.4,1558.2731 423.9607,1558.5497 419.2375,1551.9845 C414.9933,1558.5529 410.8424,1558.6232 406.4671,1552.1126 C402.6881,1557.1245 398.1925,1558.1959 394.8181,1551.703 C390.2256,1557.5376 384.6748,1556.5945 382.3331,1549.5252 C377.963,1556.1299 371.8791,1555.2684 368.2535,1548.7278 C363.3299,1553.5105 358.8949,1552.7199 355.5422,1546.8527 C351.7251,1552.4168 346.7904,1551.1553 344.3189,1545.506 C340.3393,1551.3803 335.3743,1551.9117 331.0074,1545.9414 C327.5123,1551.2755 321.063,1551.1788 317.9794,1545.4566 C307.3969,1540.565 307.8207,1533.2953 316.5335,1526.9002 C309.3018,1521.2553 309.0158,1515.3519 317.8562,1511.048" fill="#FEF3C7" style="stroke:#181818;stroke-width:0.5;"/><text fill="#000000" font-family="Monospace" font-size="14" lengthAdjust="spacing" textLength="164.0234" x="324.29" y="1532.0539">repo-architecture.drawio</text></g><!--entity tool_run--><g class="entity" data-qualified-name="tool_run" data-source-line="35" id="ent0030"><path d="M387.9702,83.7206 C392.8418,74.5793 401.1448,72.9796 408.2051,81.1643 C414.0687,73.4004 422.3935,75.1383 425.7927,83.8025 C435.3823,84.5113 441.0716,89.2644 435.5844,99.4237 C440.8185,108.8702 437.3165,114.29 426.943,115.1728 C426.7046,127.8975 420.3731,132.8921 408.3797,126.7209 C397.473,131.7536 390.3106,130.2676 389.6102,116.5203 C379.9493,115.6856 376.1611,107.594 381.5139,99.5827 C376.4585,91.4557 378.8747,86.0877 387.9702,83.7206" fill="#FEF3C7" style="stroke:#181818;stroke-width:0.5;"/><text fill="#000000" font-family="Monospace" font-size="14" lengthAdjust="spacing" textLength="23.0859" x="394.76" y="104.0539">run</text></g><!--entity tool_screen--><g class="entity" data-qualified-name="tool_screen" data-source-line="36" id="ent0031"><path d="M377.7483,586.9372 C381.3839,579.2304 387.7938,579.09 392.6283,585.6902 C397.6641,579.5785 403.1867,579.5473 407.7591,586.2378 C412.0738,579.7058 418.8136,580.0484 422.6965,586.7261 C426.5403,579.9093 431.5995,581.3478 435.5826,586.5771 C445.9848,587.646 451.3103,591.9379 446.4961,603.0735 C452.0333,613.8946 447.5256,618.3059 436.851,619.7513 C433.4066,628.3655 428.4053,629.1851 421.8906,622.8171 C419.4679,631.3745 414.2836,632.6701 407.3312,627.6879 C401.7042,633.0377 395.6165,630.361 393.7718,623.491 C387.8722,629.9292 382.066,629.7144 378.4067,621.1904 C368.684,619.1714 365.1983,611.8169 370.1344,603.0962 C365.5454,595.5517 367.8823,587.6706 377.7483,586.9372" fill="#FEF3C7" style="stroke:#181818;stroke-width:0.5;"/><text fill="#000000" font-family="Monospace" font-size="14" lengthAdjust="spacing" textLength="43.6518" x="384.48" y="608.0539">screen</text></g><!--entity tool_session_create--><g class="entity" data-qualified-name="tool_session_create" data-source-line="37" id="ent0032"><path d="M352.7212,670.8849 C356.3651,665.8128 361.2221,666.3424 363.9133,671.889 C367.3069,667.0642 371.2772,665.6395 374.9942,671.5553 C377.3353,665.0214 381.6933,663.9958 386.3694,669.3143 C390.2277,663.8459 394.5729,664.4096 397.1782,670.4873 C398.9886,664.3022 404.2934,663.7451 408.0923,668.5043 C411.7518,664.6735 415.8991,664.6189 418.097,670.0784 C421.9909,664.229 427.0884,665.2564 429.8946,671.1694 C432.8262,665.4095 437.3372,665.957 440.8842,670.514 C444.4936,665.9542 447.7343,666.1039 450.5858,671.27 C454.7296,664.9779 459.1534,665.5802 463.3963,671.1631 C472.8927,673.0597 475.1666,679.9084 469.0061,687.2611 C475.4773,694.4439 472.3215,702.8119 463.0691,704.6157 C460.654,710.6904 455.161,711.4715 450.777,706.8861 C447.5616,711.609 443.4701,711.5771 440.2042,706.9431 C437.3361,711.9758 433.7894,713.023 429.6093,708.3798 C427.2797,713.5712 422.2015,714.8061 418.5569,709.8059 C415.8785,715.1007 410.8475,716.1088 407.1406,710.9265 C403.705,716.477 399.6001,715.297 396.574,710.508 C392.7004,714.4634 388.515,715.0684 385.9729,709.0875 C381.7497,714.382 378.3906,713.2717 375.3858,707.8803 C370.7694,712.7393 364.4923,711.9326 362.4454,705.0487 C358.0193,710.1543 354.2655,709.4839 351.4419,703.4638 C341.0568,702.944 339.4429,695.4114 344.5837,688.0041 C338.2663,678.7574 343.186,672.5961 352.7212,670.8849" fill="#FEF3C7" style="stroke:#181818;stroke-width:0.5;"/><text fill="#000000" font-family="Monospace" font-size="14" lengthAdjust="spacing" textLength="96.1656" x="358.22" y="692.0539">session_create</text></g><!--entity tool_session_kill--><g class="entity" data-qualified-name="tool_session_kill" data-source-line="38" id="ent0033"><path d="M363.8262,754.5582 C369.0212,746.9368 374.2594,748.5106 378.6877,755.3463 C382.3049,748.194 388.0134,748.4284 392.0949,754.8889 C396.9297,747.4244 401.6971,746.1543 407.9029,753.4173 C411.9643,746.0486 419.0653,746.3145 422.6899,753.8507 C427.2751,746.9902 434.1676,747.2672 437.384,755.2093 C441.0211,749.3937 447.7224,748.8311 450.8857,755.7131 C460.2534,755.7838 464.3634,763.6006 459.2733,771.4012 C465.2179,780.0143 461.5453,786.0168 451.9504,787.6089 C448.1678,795.4616 440.5768,795.3694 435.6579,788.9018 C432.3508,797.0202 427.0683,796.511 421.8088,790.8665 C419.0162,798.2486 412.1315,797.7355 408.0716,792.2159 C403.2418,797.7936 398.2709,798.773 393.9328,791.6679 C388.3742,797.3368 382.0518,796.6457 378.9543,788.9165 C374.7637,796.6376 368.2726,796.6777 364.3976,788.6253 C353.8376,787.7699 351.9051,778.4676 357.3471,771.1545 C352.0333,763.9706 353.0992,755.4798 363.8262,754.5582" fill="#FEF3C7" style="stroke:#181818;stroke-width:0.5;"/><text fill="#000000" font-family="Monospace" font-size="14" lengthAdjust="spacing" textLength="73.2757" x="369.66" y="776.0539">session_kill</text></g><!--entity tool_success--><g class="entity" data-qualified-name="tool_success" data-source-line="39" id="ent0034"><path d="M375.6373,1846.3011 C380.5788,1837.3278 386.4647,1838.666 391.7749,1845.9348 C395.7327,1837.0761 403.5665,1838.7003 407.7972,1845.6584 C413.295,1837.3836 420.1538,1837.9159 424.0102,1847.1761 C428.6151,1841.1568 435.7012,1841.2275 439.6133,1848.02 C448.815,1848.6862 453.8213,1855.3937 448.3833,1864.0629 C454.917,1874.472 450.2906,1880.8856 438.7949,1881.217 C434.5178,1889.1644 426.9786,1888.4109 422.6097,1881.3157 C419.2092,1887.8876 412.5157,1889.5568 407.527,1883.1634 C402.3818,1890.8024 395.7577,1889.4494 392.054,1881.7128 C387.1854,1891.0063 378.8283,1889.3363 374.6929,1880.991 C364.1124,1877.2787 364.4313,1869.2451 372.1521,1862.9546 C366.1962,1855.6641 367.7102,1850.6862 375.6373,1846.3011" fill="#FEF3C7" style="stroke:#181818;stroke-width:0.5;"/><text fill="#000000" font-family="Monospace" font-size="14" lengthAdjust="spacing" textLength="50.1058" x="381.25" y="1868.0539">success</text></g><!--entity tool_summarize--><g class="entity" data-qualified-name="tool_summarize" data-source-line="40" id="ent0035"><path d="M363.8362,166.5582 C369.0305,158.938 374.2679,160.5117 378.6954,167.3463 C382.3119,160.1952 388.0194,160.4295 392.1002,166.8889 C396.9342,159.4254 401.7009,158.1554 407.9059,165.4173 C411.9667,158.0497 419.0665,158.3157 422.6906,165.8507 C427.2751,158.9913 434.1665,159.2684 437.3824,167.2093 C441.0189,161.3947 447.719,160.8323 450.8817,167.7131 C460.2494,167.7838 464.3594,175.6006 459.2693,183.4012 C465.2139,192.0143 461.5413,198.0168 451.9464,199.6089 C448.1644,207.4605 440.5745,207.3684 435.6562,200.9018 C432.3499,209.0189 427.0683,208.5099 421.8095,202.8665 C419.0174,210.2474 412.1339,209.7345 408.0746,204.2159 C403.2456,209.7927 398.2755,210.7718 393.9381,203.6679 C388.3802,209.3358 382.0588,208.6447 378.9619,200.9165 C374.772,208.6363 368.2819,208.6764 364.4076,200.6253 C353.8476,199.7699 351.9151,190.4676 357.3571,183.1545 C352.0433,175.9706 353.1092,167.4798 363.8362,166.5582" fill="#FEF3C7" style="stroke:#181818;stroke-width:0.5;"/><text fill="#000000" font-family="Monospace" font-size="14" lengthAdjust="spacing" textLength="73.2617" x="369.67" y="188.0539">summarize</text></g><!--entity tool_tachometer--><g class="entity" data-qualified-name="tool_tachometer" data-source-line="41" id="ent0036"><path d="M362.6472,250.5407 C365.4207,245.4674 369.976,245.8275 372.7074,250.5838 C376.7884,244.3592 382.1357,245.7847 385.5926,251.2706 C388.9105,245.7844 392.1663,245.3578 395.9078,250.8735 C398.7986,243.9695 403.3521,243.9311 408.0858,248.9988 C411.9008,243.7614 416.2924,245.8605 418.5733,250.6099 C421.7061,245.4805 425.7349,245.266 429.256,250.1974 C433.0974,244.356 438.0007,245.4784 441.0676,251.0023 C444.136,245.2988 448.7769,246.5977 451.7523,251.0997 C459.9808,254.911 460.6621,261.9247 453.4996,267.3871 C461.52,272.3506 461.001,278.0323 453.6684,283.1601 C450.4861,288.562 446.1987,289.3027 442.2712,283.9498 C439.6129,290.6154 434.5521,290.8738 430.038,285.9002 C426.0725,291.2838 422.7546,290.5477 419.0371,285.6352 C416.6291,291.3225 411.3653,291.4648 408.3616,286.2166 C404.9525,290.9532 399.855,291.3701 396.7393,285.8832 C392.7147,289.6621 388.0051,289.9421 385.8726,283.809 C382.873,290.8278 376.7363,290.0666 372.6972,284.9363 C369.1531,289.4139 363.527,289.0496 361.1747,283.5587 C352.3679,282.4097 349.4125,274.1643 354.2887,267.2411 C349.5721,257.8382 350.9916,251.7494 362.6472,250.5407" fill="#FEF3C7" style="stroke:#181818;stroke-width:0.5;"/><text fill="#000000" font-family="Monospace" font-size="14" lengthAdjust="spacing" textLength="76.4677" x="368.07" y="272.0539">tachometer</text></g><!--entity tool_tmux--><g class="entity" data-qualified-name="tool_tmux" data-source-line="42" id="ent0037"><path d="M382.8212,2015.7032 C384.8385,2009.2173 390.8745,2008.6968 394.9998,2013.4111 C398.8649,2006.7951 403.1854,2006.6495 407.6074,2012.8639 C412.0111,2007.3781 415.8555,2007.5949 419.3734,2013.7586 C423.6137,2008.0087 429.3992,2008.0529 432.2493,2015.1517 C440.2422,2019.0133 440.9631,2025.5147 434.4401,2031.3406 C440.9522,2037.4582 440.071,2045.2689 431.4217,2048.7592 C429.6997,2054.9891 424.4485,2057.4923 419.1025,2052.875 C418.1112,2059.124 412.8075,2060.2317 408.4589,2056.4306 C401.9195,2061.9085 396.5108,2060.031 394.9636,2051.5903 C389.1736,2057.4814 384.3773,2056.0932 382.2537,2048.2078 C371.6335,2046.3328 370.1482,2040.2157 376.1449,2032.056 C370.2282,2023.73 374.0206,2018.0207 382.8212,2015.7032" fill="#FEF3C7" style="stroke:#181818;stroke-width:0.5;"/><text fill="#000000" font-family="Monospace" font-size="14" lengthAdjust="spacing" textLength="34.2019" x="389.2" y="2036.0539">tmux</text></g><!--entity tool_warn--><g class="entity" data-qualified-name="tool_warn" data-source-line="43" id="ent0038"><path d="M382.9082,1930.4485 C387.0707,1924.5915 391.8807,1924.4306 395.7112,1930.7962 C398.8076,1924.6289 404.2593,1923.7074 408.332,1929.7904 C411.1544,1925.2498 416.2594,1924.0572 419.2498,1929.6086 C423.2846,1924.1641 428.4896,1924.6231 431.5304,1930.6708 C442.3988,1932.7942 441.9495,1942.2009 435.9024,1948.4775 C442.3548,1955.2004 439.9168,1961.2918 431.3984,1963.5374 C429.5511,1969.1243 424.24,1970.672 419.9105,1966.4421 C416.8795,1972.7738 412.2726,1973.5908 407.6643,1968.0721 C403.6116,1973.6337 397.2605,1973.6712 394.4965,1966.7164 C389.7281,1970.6515 385.04,1969.1336 382.875,1963.5409 C372.5563,1963.1208 369.781,1954.3591 374.8557,1946.6366 C369.0728,1938.683 372.1748,1930.1863 382.9082,1930.4485" fill="#FEF3C7" style="stroke:#181818;stroke-width:0.5;"/><text fill="#000000" font-family="Monospace" font-size="14" lengthAdjust="spacing" textLength="33.2919" x="389.66" y="1952.0539">warn</text></g><g class="entity" data-qualified-name="shellGraphSummary" data-source-line="89" id="ent0083"><path d="M31.23,46.0679 L31.23,109.186 L225.0651,109.186 L225.0651,56.0679 L215.0651,46.0679 L31.23,46.0679" fill="#FEFFDD" style="stroke:#181818;stroke-width:0.5;"/><path d="M215.0651,46.0679 L215.0651,56.0679 L225.0651,56.0679 L215.0651,46.0679" fill="#FEFFDD" style="stroke:#181818;stroke-width:1;"/><text fill="#000000" font-family="Monospace" font-size="13" lengthAdjust="spacing" textLength="141.5311" x="37.23" y="64.9649">Scanned&#160;4&#160;shell&#160;scripts.</text><text fill="#000000" font-family="Monospace" font-size="13" lengthAdjust="spacing" textLength="172.8351" x="37.23" y="82.6709">Detected&#160;0&#160;local&#160;shell&#160;edges.</text><text fill="#000000" font-family="Monospace" font-size="13" lengthAdjust="spacing" textLength="163.8911" x="37.23" y="100.377">Detected&#160;33&#160;external&#160;tools.</text></g><!--link shell_install_sh to tool_apt_get--><g class="link" data-entity-1="ent0002" data-entity-2="ent0010" data-link-type="dependency" data-source-line="44" id="lnk39"><path d="M198.34,2349.1379 C251.77,2349.1379 317.35,2349.1379 361.08,2349.1379" fill="none" id="shell_install_sh-to-tool_apt_get" style="stroke:#181818;stroke-width:1;"/><polygon fill="#181818" points="367.08,2349.1379,358.08,2345.1379,362.08,2349.1379,358.08,2353.1379,367.08,2349.1379" style="stroke:#181818;stroke-width:1;"/></g><!--link shell_install_sh to tool_cp--><g class="link" data-entity-1="ent0002" data-entity-2="ent0015" data-link-type="dependency" data-source-line="45" id="lnk40"><path d="M170.31,2363.4579 C170.31,2400.4779 170.31,2450.6279 170.31,2450.6279 C170.31,2450.6279 317.86,2450.6279 377.25,2450.6279" fill="none" id="shell_install_sh-to-tool_cp" style="stroke:#181818;stroke-width:1;"/><polygon fill="#181818" points="383.25,2450.6279,374.25,2446.6279,378.25,2450.6279,374.25,2454.6279,383.25,2450.6279" style="stroke:#181818;stroke-width:1;"/></g><!--link shell_install_sh to tool_die--><g class="link" data-entity-1="ent0002" data-entity-2="ent0018" data-link-type="dependency" data-source-line="46" id="lnk41"><path d="M167.31,2285.5579 C167.31,2227.9279 167.31,2126.8879 167.31,2126.8879 C167.31,2126.8879 313.82,2126.8879 375.18,2126.8879" fill="none" id="shell_install_sh-to-tool_die" style="stroke:#181818;stroke-width:1;"/><polygon fill="#181818" points="381.18,2126.8879,372.18,2122.8879,376.18,2126.8879,372.18,2130.8879,381.18,2126.8879" style="stroke:#181818;stroke-width:1;"/></g><!--link shell_install_sh to tool_git--><g class="link" data-entity-1="ent0002" data-entity-2="ent0019" data-link-type="dependency" data-source-line="47" id="lnk42"><path d="M142.31,2363.6279 C142.31,2424.3579 142.31,2534.6279 142.31,2534.6279 C142.31,2534.6279 311.43,2534.6279 376.41,2534.6279" fill="none" id="shell_install_sh-to-tool_git" style="stroke:#181818;stroke-width:1;"/><polygon fill="#181818" points="382.41,2534.6279,373.41,2530.6279,377.41,2534.6279,373.41,2538.6279,382.41,2534.6279" style="stroke:#181818;stroke-width:1;"/></g><!--link shell_install_sh to tool_grep--><g class="link" data-entity-1="ent0002" data-entity-2="ent0020" data-link-type="dependency" data-source-line="48" id="lnk43"><path d="M182.31,2285.7179 C182.31,2251.3979 182.31,2206.7979 182.31,2206.7979 C182.31,2206.7979 308.28,2206.7979 369.63,2206.7979" fill="none" id="shell_install_sh-to-tool_grep" style="stroke:#181818;stroke-width:1;"/><polygon fill="#181818" points="375.63,2206.7979,366.63,2202.7979,370.63,2206.7979,366.63,2210.7979,375.63,2206.7979" style="stroke:#181818;stroke-width:1;"/></g><!--link shell_install_sh to tool_info--><g class="link" data-entity-1="ent0002" data-entity-2="ent0021" data-link-type="dependency" data-source-line="49" id="lnk44"><path d="M198.34,2296.5879 C256.6,2296.5879 330.43,2296.5879 372.21,2296.5879" fill="none" id="shell_install_sh-to-tool_info" style="stroke:#181818;stroke-width:1;"/><polygon fill="#181818" points="378.21,2296.5879,369.21,2292.5879,373.21,2296.5879,369.21,2300.5879,378.21,2296.5879" style="stroke:#181818;stroke-width:1;"/></g><!--link shell_install_sh to tool_install_backend--><g class="link" data-entity-1="ent0002" data-entity-2="ent0022" data-link-type="dependency" data-source-line="50" id="lnk45"><path d="M198.16,2356.1779 C264.26,2356.1779 353.31,2356.1779 353.31,2356.1779 C353.31,2356.1779 353.31,2522.5979 353.31,2587.9379" fill="none" id="shell_install_sh-to-tool_install_backend" style="stroke:#181818;stroke-width:1;"/><polygon fill="#181818" points="353.31,2593.9379,357.31,2584.9379,353.31,2588.9379,349.31,2584.9379,353.31,2593.9379" style="stroke:#181818;stroke-width:1;"/></g><!--link shell_install_sh to tool_install_plugins--><g class="link" data-entity-1="ent0002" data-entity-2="ent0023" data-link-type="dependency" data-source-line="51" id="lnk46"><path d="M114.31,2363.6479 C114.31,2460.2279 114.31,2702.6279 114.31,2702.6279 C114.31,2702.6279 252.27,2702.6279 338.02,2702.6279" fill="none" id="shell_install_sh-to-tool_install_plugins" style="stroke:#181818;stroke-width:1;"/><polygon fill="#181818" points="344.02,2702.6279,335.02,2698.6279,339.02,2702.6279,335.02,2706.6279,344.02,2702.6279" style="stroke:#181818;stroke-width:1;"/></g><!--link shell_install_sh to tool_print_quickref--><g class="link" data-entity-1="ent0002" data-entity-2="ent0028" data-link-type="dependency" data-source-line="52" id="lnk47"><path d="M86.31,2363.6179 C86.31,2474.9979 86.31,2786.6279 86.31,2786.6279 C86.31,2786.6279 246.52,2786.6279 339.36,2786.6279" fill="none" id="shell_install_sh-to-tool_print_quickref" style="stroke:#181818;stroke-width:1;"/><polygon fill="#181818" points="345.36,2786.6279,336.36,2782.6279,340.36,2786.6279,336.36,2790.6279,345.36,2786.6279" style="stroke:#181818;stroke-width:1;"/></g><!--link shell_install_sh to tool_success--><g class="link" data-entity-1="ent0002" data-entity-2="ent0034" data-link-type="dependency" data-source-line="53" id="lnk48"><path d="M89.31,2285.5379 C89.31,2175.4579 89.31,1870.7979 89.31,1870.7979 C89.31,1870.7979 274.38,1870.7979 359.83,1870.7979" fill="none" id="shell_install_sh-to-tool_success" style="stroke:#181818;stroke-width:1;"/><polygon fill="#181818" points="365.83,1870.7979,356.83,1866.7979,360.83,1870.7979,356.83,1874.7979,365.83,1870.7979" style="stroke:#181818;stroke-width:1;"/></g><!--link shell_install_sh to tool_tmux--><g class="link" data-entity-1="ent0002" data-entity-2="ent0037" data-link-type="dependency" data-source-line="54" id="lnk49"><path d="M136.31,2285.7779 C136.31,2207.6279 136.31,2038.7979 136.31,2038.7979 C136.31,2038.7979 295.93,2038.7979 367.74,2038.7979" fill="none" id="shell_install_sh-to-tool_tmux" style="stroke:#181818;stroke-width:1;"/><polygon fill="#181818" points="373.74,2038.7979,364.74,2034.7979,368.74,2038.7979,364.74,2042.7979,373.74,2038.7979" style="stroke:#181818;stroke-width:1;"/></g><!--link shell_install_sh to tool_warn--><g class="link" data-entity-1="ent0002" data-entity-2="ent0038" data-link-type="dependency" data-source-line="55" id="lnk50"><path d="M120.31,2285.8279 C120.31,2191.7079 120.31,1958.8879 120.31,1958.8879 C120.31,1958.8879 293.7,1958.8879 368.33,1958.8879" fill="none" id="shell_install_sh-to-tool_warn" style="stroke:#181818;stroke-width:1;"/><polygon fill="#181818" points="374.33,1958.8879,365.33,1954.8879,369.33,1958.8879,365.33,1962.8879,374.33,1958.8879" style="stroke:#181818;stroke-width:1;"/></g><!--link shell_scripts_run_tachometer_profile_sh to tool_run--><g class="link" data-entity-1="ent0003" data-entity-2="ent0030" data-link-type="dependency" data-source-line="56" id="lnk51"><path d="M237.31,143.5879 C237.31,129.1179 237.31,116.1679 237.31,116.1679 C237.31,116.1679 325.88,116.1679 373.53,116.1679" fill="none" id="shell_scripts_run_tachometer_profile_sh-to-tool_run" style="stroke:#181818;stroke-width:1;"/><polygon fill="#181818" points="379.53,116.1679,370.53,112.1679,374.53,116.1679,370.53,120.1679,379.53,116.1679" style="stroke:#181818;stroke-width:1;"/></g><!--link shell_scripts_run_tachometer_profile_sh to tool_summarize--><g class="link" data-entity-1="ent0003" data-entity-2="ent0035" data-link-type="dependency" data-source-line="57" id="lnk52"><path d="M249.74,182.6279 C286.44,182.6279 318.78,182.6279 348.34,182.6279" fill="none" id="shell_scripts_run_tachometer_profile_sh-to-tool_summarize" style="stroke:#181818;stroke-width:1;"/><polygon fill="#181818" points="354.34,182.6279,345.34,178.6279,349.34,182.6279,345.34,186.6279,354.34,182.6279" style="stroke:#181818;stroke-width:1;"/></g><!--link shell_scripts_run_tachometer_profile_sh to tool_tachometer--><g class="link" data-entity-1="ent0003" data-entity-2="ent0036" data-link-type="dependency" data-source-line="58" id="lnk53"><path d="M240.31,221.6779 C240.31,243.6079 240.31,266.6279 240.31,266.6279 C240.31,266.6279 298.35,266.6279 346.87,266.6279" fill="none" id="shell_scripts_run_tachometer_profile_sh-to-tool_tachometer" style="stroke:#181818;stroke-width:1;"/><polygon fill="#181818" points="352.87,266.6279,343.87,262.6279,347.87,266.6279,343.87,270.6279,352.87,266.6279" style="stroke:#181818;stroke-width:1;"/></g><!--link shell_sessions_sh to tool_bashrc--><g class="link" data-entity-1="ent0004" data-entity-2="ent0006" data-link-type="dependency" data-source-line="59" id="lnk54"><path d="M158.31,1067.5279 C158.31,996.7479 158.31,854.6279 158.31,854.6279 C158.31,854.6279 291.08,854.6279 361.01,854.6279" fill="none" id="shell_sessions_sh-to-tool_bashrc" style="stroke:#181818;stroke-width:1;"/><polygon fill="#181818" points="367.01,854.6279,358.01,850.6279,362.01,854.6279,358.01,858.6279,367.01,854.6279" style="stroke:#181818;stroke-width:1;"/></g><!--link shell_sessions_sh to tool_kshrc--><g class="link" data-entity-1="ent0004" data-entity-2="ent0007" data-link-type="dependency" data-source-line="60" id="lnk55"><path d="M178.31,1067.6579 C178.31,1018.0279 178.31,938.6279 178.31,938.6279 C178.31,938.6279 301.9,938.6279 365.68,938.6279" fill="none" id="shell_sessions_sh-to-tool_kshrc" style="stroke:#181818;stroke-width:1;"/><polygon fill="#181818" points="371.68,938.6279,362.68,934.6279,366.68,938.6279,362.68,942.6279,371.68,938.6279" style="stroke:#181818;stroke-width:1;"/></g><!--link shell_sessions_sh to tool_mkshrc--><g class="link" data-entity-1="ent0004" data-entity-2="ent0008" data-link-type="dependency" data-source-line="61" id="lnk56"><path d="M198.34,1078.5779 C280.74,1078.5779 406.31,1078.5779 406.31,1078.5779 C406.31,1078.5779 406.31,1068.5479 406.31,1053.6479" fill="none" id="shell_sessions_sh-to-tool_mkshrc" style="stroke:#181818;stroke-width:1;"/><polygon fill="#181818" points="406.31,1047.6479,402.31,1056.6479,406.31,1052.6479,410.31,1056.6479,406.31,1047.6479" style="stroke:#181818;stroke-width:1;"/></g><!--link shell_sessions_sh to tool_zshrc--><g class="link" data-entity-1="ent0004" data-entity-2="ent0009" data-link-type="dependency" data-source-line="62" id="lnk57"><path d="M198.34,1094.3579 C253.86,1094.3579 322.98,1094.3579 366.08,1094.3579" fill="none" id="shell_sessions_sh-to-tool_zshrc" style="stroke:#181818;stroke-width:1;"/><polygon fill="#181818" points="372.08,1094.3579,363.08,1090.3579,367.08,1094.3579,363.08,1098.3579,372.08,1094.3579" style="stroke:#181818;stroke-width:1;"/></g><!--link shell_sessions_sh to tool_backend_check--><g class="link" data-entity-1="ent0004" data-entity-2="ent0011" data-link-type="dependency" data-source-line="63" id="lnk58"><path d="M198.15,1133.1679 C263.59,1133.1679 351.31,1133.1679 351.31,1133.1679 C351.31,1133.1679 351.31,1144.3479 351.31,1159.9279" fill="none" id="shell_sessions_sh-to-tool_backend_check" style="stroke:#181818;stroke-width:1;"/><polygon fill="#181818" points="351.31,1165.9279,355.31,1156.9279,351.31,1160.9279,347.31,1156.9279,351.31,1165.9279" style="stroke:#181818;stroke-width:1;"/></g><!--link shell_sessions_sh to tool_backend_start_server--><g class="link" data-entity-1="ent0004" data-entity-2="ent0012" data-link-type="dependency" data-source-line="64" id="lnk59"><path d="M198.06,1135.1779 C256.83,1135.1779 331.31,1135.1779 331.31,1135.1779 C331.31,1135.1779 331.31,1203.5879 331.31,1243.6979" fill="none" id="shell_sessions_sh-to-tool_backend_start_server" style="stroke:#181818;stroke-width:1;"/><polygon fill="#181818" points="331.31,1249.6979,335.31,1240.6979,331.31,1244.6979,327.31,1240.6979,331.31,1249.6979" style="stroke:#181818;stroke-width:1;"/></g><!--link shell_sessions_sh to tool_declare--><g class="link" data-entity-1="ent0004" data-entity-2="ent0017" data-link-type="dependency" data-source-line="65" id="lnk60"><path d="M78.31,1067.5679 C78.31,912.7579 78.31,350.6279 78.31,350.6279 C78.31,350.6279 273.5,350.6279 360.74,350.6279" fill="none" id="shell_sessions_sh-to-tool_declare" style="stroke:#181818;stroke-width:1;"/><polygon fill="#181818" points="366.74,350.6279,357.74,346.6279,361.74,350.6279,357.74,354.6279,366.74,350.6279" style="stroke:#181818;stroke-width:1;"/></g><!--link shell_sessions_sh to tool_die--><g class="link" data-entity-1="ent0004" data-entity-2="ent0018" data-link-type="dependency" data-source-line="66" id="lnk61"><path d="M198.24,1143.2179 C203.21,1143.2179 206.31,1143.2179 206.31,1143.2179 C206.31,1143.2179 206.31,2102.3579 206.31,2102.3579 C206.31,2102.3579 321.16,2102.3579 374.97,2102.3579" fill="none" id="shell_sessions_sh-to-tool_die" style="stroke:#181818;stroke-width:1;"/><polygon fill="#181818" points="380.97,2102.3579,371.97,2098.3579,375.97,2102.3579,371.97,2106.3579,380.97,2102.3579" style="stroke:#181818;stroke-width:1;"/></g><!--link shell_sessions_sh to tool_grep--><g class="link" data-entity-1="ent0004" data-entity-2="ent0020" data-link-type="dependency" data-source-line="67" id="lnk62"><path d="M197.9,1106.6279 C241.46,1106.6279 289.31,1106.6279 289.31,1106.6279 C289.31,1106.6279 289.31,2190.4479 289.31,2190.4479 C289.31,2190.4479 334.9,2190.4479 369.57,2190.4479" fill="none" id="shell_sessions_sh-to-tool_grep" style="stroke:#181818;stroke-width:1;"/><polygon fill="#181818" points="375.57,2190.4479,366.57,2186.4479,370.57,2190.4479,366.57,2194.4479,375.57,2190.4479" style="stroke:#181818;stroke-width:1;"/></g><!--link shell_sessions_sh to tool_info--><g class="link" data-entity-1="ent0004" data-entity-2="ent0021" data-link-type="dependency" data-source-line="68" id="lnk63"><path d="M198.32,1118.8879 C233.75,1118.8879 269.31,1118.8879 269.31,1118.8879 C269.31,1118.8879 269.31,2267.3979 269.31,2267.3979 C269.31,2267.3979 332.17,2267.3979 372.25,2267.3979" fill="none" id="shell_sessions_sh-to-tool_info" style="stroke:#181818;stroke-width:1;"/><polygon fill="#181818" points="378.25,2267.3979,369.25,2263.3979,373.25,2267.3979,369.25,2271.3979,378.25,2267.3979" style="stroke:#181818;stroke-width:1;"/></g><!--link shell_sessions_sh to tool_mapfile--><g class="link" data-entity-1="ent0004" data-entity-2="ent0025" data-link-type="dependency" data-source-line="69" id="lnk64"><path d="M98.31,1067.5879 C98.31,924.1679 98.31,434.6279 98.31,434.6279 C98.31,434.6279 277.02,434.6279 360.35,434.6279" fill="none" id="shell_sessions_sh-to-tool_mapfile" style="stroke:#181818;stroke-width:1;"/><polygon fill="#181818" points="366.35,434.6279,357.35,430.6279,361.35,434.6279,357.35,438.6279,366.35,434.6279" style="stroke:#181818;stroke-width:1;"/></g><!--link shell_sessions_sh to tool_mkdir--><g class="link" data-entity-1="ent0004" data-entity-2="ent0026" data-link-type="dependency" data-source-line="70" id="lnk65"><path d="M142.31,1145.5279 C142.31,1214.3679 142.31,1350.4479 142.31,1350.4479 C142.31,1350.4479 293.84,1350.4479 365.52,1350.4479" fill="none" id="shell_sessions_sh-to-tool_mkdir" style="stroke:#181818;stroke-width:1;"/><polygon fill="#181818" points="371.52,1350.4479,362.52,1346.4479,366.52,1350.4479,362.52,1354.4479,371.52,1350.4479" style="stroke:#181818;stroke-width:1;"/></g><!--link shell_sessions_sh to tool_mv--><g class="link" data-entity-1="ent0004" data-entity-2="ent0027" data-link-type="dependency" data-source-line="71" id="lnk66"><path d="M118.31,1067.5879 C118.31,936.2579 118.31,518.6279 118.31,518.6279 C118.31,518.6279 304.26,518.6279 374.75,518.6279" fill="none" id="shell_sessions_sh-to-tool_mv" style="stroke:#181818;stroke-width:1;"/><polygon fill="#181818" points="380.75,518.6279,371.75,514.6279,375.75,518.6279,371.75,522.6279,380.75,518.6279" style="stroke:#181818;stroke-width:1;"/></g><!--link shell_sessions_sh to tool_screen--><g class="link" data-entity-1="ent0004" data-entity-2="ent0031" data-link-type="dependency" data-source-line="72" id="lnk67"><path d="M138.31,1067.9079 C138.31,949.8979 138.31,602.6279 138.31,602.6279 C138.31,602.6279 289.4,602.6279 363.04,602.6279" fill="none" id="shell_sessions_sh-to-tool_screen" style="stroke:#181818;stroke-width:1;"/><polygon fill="#181818" points="369.04,602.6279,360.04,598.6279,364.04,602.6279,360.04,606.6279,369.04,602.6279" style="stroke:#181818;stroke-width:1;"/></g><!--link shell_sessions_sh to tool_session_create--><g class="link" data-entity-1="ent0004" data-entity-2="ent0032" data-link-type="dependency" data-source-line="73" id="lnk68"><path d="M198.09,1071.5379 C262.24,1071.5379 347.31,1071.5379 347.31,1071.5379 C347.31,1071.5379 347.31,802.8779 347.31,717.5779" fill="none" id="shell_sessions_sh-to-tool_session_create" style="stroke:#181818;stroke-width:1;"/><polygon fill="#181818" points="347.31,711.5779,343.31,720.5779,347.31,716.5779,351.31,720.5779,347.31,711.5779" style="stroke:#181818;stroke-width:1;"/></g><!--link shell_sessions_sh to tool_session_kill--><g class="link" data-entity-1="ent0004" data-entity-2="ent0033" data-link-type="dependency" data-source-line="74" id="lnk69"><path d="M198.12,1075.0579 C266.48,1075.0579 360.31,1075.0579 360.31,1075.0579 C360.31,1075.0579 360.31,874.2479 360.31,801.5379" fill="none" id="shell_sessions_sh-to-tool_session_kill" style="stroke:#181818;stroke-width:1;"/><polygon fill="#181818" points="360.31,795.5379,356.31,804.5379,360.31,800.5379,364.31,804.5379,360.31,795.5379" style="stroke:#181818;stroke-width:1;"/></g><!--link shell_sessions_sh to tool_success--><g class="link" data-entity-1="ent0004" data-entity-2="ent0034" data-link-type="dependency" data-source-line="75" id="lnk70"><path d="M198.21,1137.1879 C217.05,1137.1879 232.31,1137.1879 232.31,1137.1879 C232.31,1137.1879 232.31,1854.4479 232.31,1854.4479 C232.31,1854.4479 308.55,1854.4479 359.95,1854.4479" fill="none" id="shell_sessions_sh-to-tool_success" style="stroke:#181818;stroke-width:1;"/><polygon fill="#181818" points="365.95,1854.4479,356.95,1850.4479,360.95,1854.4479,356.95,1858.4479,365.95,1854.4479" style="stroke:#181818;stroke-width:1;"/></g><!--link shell_sessions_sh to tool_tmux--><g class="link" data-entity-1="ent0004" data-entity-2="ent0037" data-link-type="dependency" data-source-line="76" id="lnk71"><path d="M198.09,1141.2079 C208.23,1141.2079 215.31,1141.2079 215.31,1141.2079 C215.31,1141.2079 215.31,2022.4479 215.31,2022.4479 C215.31,2022.4479 313.41,2022.4479 367.9,2022.4479" fill="none" id="shell_sessions_sh-to-tool_tmux" style="stroke:#181818;stroke-width:1;"/><polygon fill="#181818" points="373.9,2022.4479,364.9,2018.4479,368.9,2022.4479,364.9,2026.4479,373.9,2022.4479" style="stroke:#181818;stroke-width:1;"/></g><!--link shell_sessions_sh to tool_warn--><g class="link" data-entity-1="ent0004" data-entity-2="ent0038" data-link-type="dependency" data-source-line="77" id="lnk72"><path d="M198.31,1139.1979 C212.57,1139.1979 223.31,1139.1979 223.31,1139.1979 C223.31,1139.1979 223.31,1934.3579 223.31,1934.3579 C223.31,1934.3579 316,1934.3579 368.43,1934.3579" fill="none" id="shell_sessions_sh-to-tool_warn" style="stroke:#181818;stroke-width:1;"/><polygon fill="#181818" points="374.43,1934.3579,365.43,1930.3579,369.43,1934.3579,365.43,1938.3579,374.43,1934.3579" style="stroke:#181818;stroke-width:1;"/></g><!--link shell_setup_sh to tool_cat--><g class="link" data-entity-1="ent0005" data-entity-2="ent0013" data-link-type="dependency" data-source-line="78" id="lnk73"><path d="M170.31,1697.7879 C170.31,1660.7679 170.31,1610.6279 170.31,1610.6279 C170.31,1610.6279 314.17,1610.6279 375.05,1610.6279" fill="none" id="shell_setup_sh-to-tool_cat" style="stroke:#181818;stroke-width:1;"/><polygon fill="#181818" points="381.05,1610.6279,372.05,1606.6279,376.05,1610.6279,372.05,1614.6279,381.05,1610.6279" style="stroke:#181818;stroke-width:1;"/></g><!--link shell_setup_sh to tool_chmod--><g class="link" data-entity-1="ent0005" data-entity-2="ent0014" data-link-type="dependency" data-source-line="79" id="lnk74"><path d="M198.34,1712.1079 C252.25,1712.1079 318.65,1712.1079 362.25,1712.1079" fill="none" id="shell_setup_sh-to-tool_chmod" style="stroke:#181818;stroke-width:1;"/><polygon fill="#181818" points="368.25,1712.1079,359.25,1708.1079,363.25,1712.1079,359.25,1716.1079,368.25,1712.1079" style="stroke:#181818;stroke-width:1;"/></g><!--link shell_setup_sh to tool_curl--><g class="link" data-entity-1="ent0005" data-entity-2="ent0016" data-link-type="dependency" data-source-line="80" id="lnk75"><path d="M198.34,1761.1379 C256.76,1761.1379 330.88,1761.1379 372.56,1761.1379" fill="none" id="shell_setup_sh-to-tool_curl" style="stroke:#181818;stroke-width:1;"/><polygon fill="#181818" points="378.56,1761.1379,369.56,1757.1379,373.56,1761.1379,369.56,1765.1379,378.56,1761.1379" style="stroke:#181818;stroke-width:1;"/></g><!--link shell_setup_sh to tool_die--><g class="link" data-entity-1="ent0005" data-entity-2="ent0018" data-link-type="dependency" data-source-line="81" id="lnk76"><path d="M105.31,1775.6479 C105.31,1872.2279 105.31,2114.6279 105.31,2114.6279 C105.31,2114.6279 302.34,2114.6279 374.9,2114.6279" fill="none" id="shell_setup_sh-to-tool_die" style="stroke:#181818;stroke-width:1;"/><polygon fill="#181818" points="380.9,2114.6279,371.9,2110.6279,375.9,2114.6279,371.9,2118.6279,380.9,2114.6279" style="stroke:#181818;stroke-width:1;"/></g><!--link shell_setup_sh to tool_info--><g class="link" data-entity-1="ent0005" data-entity-2="ent0021" data-link-type="dependency" data-source-line="82" id="lnk77"><path d="M74.31,1775.4679 C74.31,1899.2979 74.31,2276.7079 74.31,2276.7079 C74.31,2276.7079 292.25,2276.7079 372.28,2276.7079" fill="none" id="shell_setup_sh-to-tool_info" style="stroke:#181818;stroke-width:1;"/><polygon fill="#181818" points="378.28,2276.7079,369.28,2272.7079,373.28,2276.7079,369.28,2280.7079,378.28,2276.7079" style="stroke:#181818;stroke-width:1;"/></g><!--link shell_setup_sh to tool_java--><g class="link" data-entity-1="ent0005" data-entity-2="ent0024" data-link-type="dependency" data-source-line="83" id="lnk78"><path d="M114.31,1697.5879 C114.31,1617.6079 114.31,1442.6279 114.31,1442.6279 C114.31,1442.6279 298.3,1442.6279 371.77,1442.6279" fill="none" id="shell_setup_sh-to-tool_java" style="stroke:#181818;stroke-width:1;"/><polygon fill="#181818" points="377.77,1442.6279,368.77,1438.6279,372.77,1442.6279,368.77,1446.6279,377.77,1442.6279" style="stroke:#181818;stroke-width:1;"/></g><!--link shell_setup_sh to tool_mkdir--><g class="link" data-entity-1="ent0005" data-entity-2="ent0026" data-link-type="dependency" data-source-line="84" id="lnk79"><path d="M86.31,1697.7479 C86.31,1602.7979 86.31,1366.7979 86.31,1366.7979 C86.31,1366.7979 283.01,1366.7979 365.75,1366.7979" fill="none" id="shell_setup_sh-to-tool_mkdir" style="stroke:#181818;stroke-width:1;"/><polygon fill="#181818" points="371.75,1366.7979,362.75,1362.7979,366.75,1366.7979,362.75,1370.7979,371.75,1366.7979" style="stroke:#181818;stroke-width:1;"/></g><!--link shell_setup_sh to tool_repo_architecture_drawio--><g class="link" data-entity-1="ent0005" data-entity-2="ent0029" data-link-type="dependency" data-source-line="85" id="lnk80"><path d="M198.22,1705.0679 C254.89,1705.0679 325.31,1705.0679 325.31,1705.0679 C325.31,1705.0679 325.31,1606.4679 325.31,1557.4379" fill="none" id="shell_setup_sh-to-tool_repo_architecture_drawio" style="stroke:#181818;stroke-width:1;"/><polygon fill="#181818" points="325.31,1551.4379,321.31,1560.4379,325.31,1556.4379,329.31,1560.4379,325.31,1551.4379" style="stroke:#181818;stroke-width:1;"/></g><!--link shell_setup_sh to tool_success--><g class="link" data-entity-1="ent0005" data-entity-2="ent0034" data-link-type="dependency" data-source-line="86" id="lnk81"><path d="M198.07,1768.1779 C270.54,1768.1779 373.31,1768.1779 373.31,1768.1779 C373.31,1768.1779 373.31,1803.8279 373.31,1831.8079" fill="none" id="shell_setup_sh-to-tool_success" style="stroke:#181818;stroke-width:1;"/><polygon fill="#181818" points="373.31,1837.8079,377.31,1828.8079,373.31,1832.8079,369.31,1828.8079,373.31,1837.8079" style="stroke:#181818;stroke-width:1;"/></g><!--link shell_setup_sh to tool_warn--><g class="link" data-entity-1="ent0005" data-entity-2="ent0038" data-link-type="dependency" data-source-line="87" id="lnk82"><path d="M151.31,1775.6279 C151.31,1836.3579 151.31,1946.6279 151.31,1946.6279 C151.31,1946.6279 299.78,1946.6279 368.27,1946.6279" fill="none" id="shell_setup_sh-to-tool_warn" style="stroke:#181818;stroke-width:1;"/><polygon fill="#181818" points="374.27,1946.6279,365.27,1942.6279,369.27,1946.6279,365.27,1950.6279,374.27,1946.6279" style="stroke:#181818;stroke-width:1;"/></g><?plantuml-src bPV1SjiW48RlUWecETjDcyvqUkbCsyGzjHTVCwCX24jK25H0Tkodxs8frWeaujoy_DyYMDXTx8IJd3Xk6g645Ev8jXMNacoP4QqZ6waFcUGxHvmcHfIL8uKmd3cXLMPheLfgQ4DiHGjz4AeaEoejHqh1TxIJRgEL-qCRJdvhfMrB6MQORbgjk79RTuJ5-EcfAYL6f53S7LjEj76LpYu8kH7AEYhbsbPFwev8pQY4vVWjyABazabz_4Ju2snGWU2qblQ6KDiZ-U2SsuhSFlnu_Bvvn5FRSmpi1zEft55MwOR3F7bhz4v8llp5--KF3bFcyrCkhODR2_6sYJr-JNnoy5wSt7LjOkQxrCpWYgTbKdS5kLa_KriPTYQzJzxRv7RpkBd_-UM2rLEgdeMQW6hciTEKEir1j7MhahkHWe4S1aBkcRAQgo9d5MSrtWKQNlA1-sGSHCRikObTiHhEm2XQ6HYHNZMwG8Gt8wP5G1kfdP581oia2iuaDNo4Xe684vWHaLuAj1Sm8jrmj59lXOHGEpqIteg9FdU7s69u8YpvjR8huNViDmYXtr-wfoFihP1eQEkp6DtLVY3YQgYX-4Q36J5x1En3jJL2kVnV9rXj-6uaf-EX5uHPhwXXbN2G_vtXwyBGWq1nzaIEYRmdefawXPmw5UfGvZX7I6z7L5-PSX2fGs6RZYzvrKBAsCUFHXuTOo0Zk1-8kQQXHfpmKbw7GdOitYCyZaLqqxqW3goGE523ukMj2n6rgjNgswH-9GZM9aH8t8GAQPjIuQeaP9-mINcIebUGGr8coEdTJu33wIS8Vq09sPzETcq_ltW1ydwdo_rxl-ieP_53u4BrhJb5r6y1pPl4wIrWqbgl0N4ZJV53_qeY8YcZYpwhevi-7vs-1wG320qW2UnJQbzSayIae5v3-ZAQv2OvD8kW99hLSHQzFYJ7kaNTikPVFiigF6iMHNpMeJOvo53qxNvHd9vVg2xrr4M7CBQXVWwSqj0PNr_Ylmnjg-svL1opBQDAyO9y7XxoGybOPm_SBm2KcOS-Kk_3lo_hpB-Y_0V_0m00?></g></svg>
