<?plantuml 1.2026.2?><svg xmlns="http://www.w3.org/2000/svg" xmlns:xlink="http://www.w3.org/1999/xlink" contentStyleType="text/css" data-diagram-type="DESCRIPTION" height="1535px" preserveAspectRatio="none" style="width:464px;height:1535px;background:#FFFFFF;" version="1.1" viewBox="0 0 464 1535" width="464px" zoomAndPan="magnify"><title>terminility Shell Script Flow</title><defs/><g><g class="title" data-source-line="1"><text fill="#000000" font-family="Monospace" font-size="14" font-weight="bold" lengthAdjust="spacing" textLength="188.6843" x="131.0914" y="24.9659">terminility&#160;Shell&#160;Script&#160;Flow</text></g><!--entity shell_install_sh--><g class="entity" data-qualified-name="shell_install_sh" data-source-line="7" id="ent0002"><rect fill="#DBEAFE" height="77.2038" rx="2.5" ry="2.5" style="stroke:#181818;stroke-width:0.5;" width="139.3915" x="33.22" y="368.4125"/><text fill="#000000" font-family="Monospace" font-size="14" lengthAdjust="spacing" textLength="58.2118" x="43.22" y="393.3784">install.sh</text><text fill="#000000" font-family="Monospace" font-size="14" lengthAdjust="spacing" textLength="119.3915" x="43.22" y="412.4464">0&#160;local&#160;shell&#160;edges</text><text fill="#000000" font-family="Monospace" font-size="14" lengthAdjust="spacing" textLength="101.7516" x="43.22" y="431.5143">9&#160;external&#160;tools</text></g><!--entity shell_sessions_sh--><g class="entity" data-qualified-name="shell_sessions_sh" data-source-line="8" id="ent0003"><rect fill="#DBEAFE" height="77.2038" rx="2.5" ry="2.5" style="stroke:#181818;stroke-width:0.5;" width="139.3915" x="33.22" y="704.4125"/><text fill="#000000" font-family="Monospace" font-size="14" lengthAdjust="spacing" textLength="74.5637" x="43.22" y="729.3784">sessions.sh</text><text fill="#000000" font-family="Monospace" font-size="14" lengthAdjust="spacing" textLength="119.3915" x="43.22" y="748.4464">0&#160;local&#160;shell&#160;edges</text><text fill="#000000" font-family="Monospace" font-size="14" lengthAdjust="spacing" textLength="101.7516" x="43.22" y="767.5143">9&#160;external&#160;tools</text></g><!--entity shell_setup_sh--><g class="entity" data-qualified-name="shell_setup_sh" data-source-line="9" id="ent0004"><rect fill="#DBEAFE" height="77.2038" rx="2.5" ry="2.5" style="stroke:#181818;stroke-width:0.5;" width="139.3915" x="33.22" y="1082.4125"/><text fill="#000000" font-family="Monospace" font-size="14" lengthAdjust="spacing" textLength="56.0278" x="43.22" y="1107.3784">setup.sh</text><text fill="#000000" font-family="Monospace" font-size="14" lengthAdjust="spacing" textLength="119.3915" x="43.22" y="1126.4464">0&#160;local&#160;shell&#160;edges</text><text fill="#000000" font-family="Monospace" font-size="14" lengthAdjust="spacing" textLength="109.7596" x="43.22" y="1145.5143">10&#160;external&#160;tools</text></g><!--entity tool_apt_get--><g class="entity" data-qualified-name="tool_apt_get" data-source-line="10" id="ent0005"><path d="M327.8103,223.9504 C331.3283,217.6256 338.2857,217.4298 342.4659,223.1443 C346.1591,215.824 352.1403,215.0498 357.6176,221.1265 C363.049,214.2217 370.977,214.4659 373.8212,223.7207 C377.4393,217.1775 384.6387,215.6895 389.1622,222.6955 C399.9369,223.7941 403.9552,229.352 397.951,239.3207 C402.8788,248.9597 398.7756,256.5488 387.6482,256.6334 C385.4607,264.3582 379.2299,265.7546 373.6892,260.1432 C371.433,268.4023 366.1174,270.2516 358.8666,266.1164 C351.1916,271.9757 344.8358,271.1715 341.7236,261.1813 C334.7479,267.7756 328.0848,264.3435 326.3316,255.8525 C319.4024,250.9244 317.805,246.3163 325.7013,240.7687 C319.0073,234.7006 319.9843,228.1977 327.8103,223.9504" fill="#FEF3C7" style="stroke:#181818;stroke-width:0.5;"/><text fill="#000000" font-family="Monospace" font-size="14" lengthAdjust="spacing" textLength="47.5858" x="333.05" y="244.4484">apt-get</text></g><!--entity tool_cat--><g class="entity" data-qualified-name="tool_cat" data-source-line="11" id="ent0006"><path d="M340.9482,1483.4966 C344.8319,1473.3866 351.6992,1473.7915 358.4621,1480.4979 C365.9459,1473.8055 370.3046,1476.6651 373.9138,1484.5929 C382.5292,1487.7457 383.0173,1493.2379 377.7119,1499.8549 C383.6594,1506.012 383.2812,1513.9091 373.8311,1516.4698 C371.5083,1526.2855 364.2267,1527.2848 356.8682,1522.2042 C349.0532,1528.296 343.8019,1525.571 341.3927,1516.6368 C330.6325,1515.3872 329.2203,1509.9412 333.8437,1501.1789 C328.134,1493.1081 329.6807,1484.7461 340.9482,1483.4966" fill="#FEF3C7" style="stroke:#181818;stroke-width:0.5;"/><text fill="#000000" font-family="Monospace" font-size="14" lengthAdjust="spacing" textLength="19.6279" x="347.03" y="1504.4484">cat</text></g><!--entity tool_chmod--><g class="entity" data-qualified-name="tool_chmod" data-source-line="12" id="ent0007"><path d="M328.8023,1147.0224 C333.048,1140.1175 339.0893,1140.4641 343.6588,1146.6551 C347.9993,1139.9156 352.8693,1140.5001 357.5434,1146.2854 C363.1984,1139.3344 368.7401,1138.993 373.9119,1146.8206 C379.4356,1139.7308 384.5456,1141.0605 388.7349,1148.2097 C398.5894,1149.5792 401.0328,1154.5464 397.4106,1163.5418 C401.4246,1172.3159 398.0223,1180.7049 386.9944,1179.9021 C384.0304,1188.1765 378.4332,1187.9785 372.7691,1182.7459 C369.4686,1189.9394 364.9226,1192.7333 358.477,1185.9655 C353.0225,1193.4872 346.2075,1193.4818 342.4451,1184.3377 C336.3248,1190.4104 330.1766,1188.9386 328.3293,1180.2512 C320.5088,1177.6401 319.5756,1170.5405 325.036,1165.0518 C318.78,1158.9317 320.0011,1149.9971 328.8023,1147.0224" fill="#FEF3C7" style="stroke:#181818;stroke-width:0.5;"/><text fill="#000000" font-family="Monospace" font-size="14" lengthAdjust="spacing" textLength="45.5418" x="334.08" y="1168.4484">chmod</text></g><!--entity tool_cp--><g class="entity" data-qualified-name="tool_cp" data-source-line="13" id="ent0008"><path d="M342.5422,307.4269 C345.9214,298.8274 352.8068,298.4877 358.2515,305.3249 C363.2342,298.8103 369.948,300.4268 372.2024,308.0224 C380.4103,311.8446 381.0638,318.052 373.9557,323.5982 C380.6978,329.8345 381.1058,336.3753 371.9502,340.753 C371.0466,349.3012 366.2232,352.4554 358.0371,349.7837 C347.885,355.2566 343.0423,350.8285 342.5554,340.3834 C332.6919,336.7289 333.0994,329.56 339.9754,323.3674 C334.3839,317.3969 333.2432,310.9998 342.5422,307.4269" fill="#FEF3C7" style="stroke:#181818;stroke-width:0.5;"/><text fill="#000000" font-family="Monospace" font-size="14" lengthAdjust="spacing" textLength="15.3299" x="349.18" y="328.4484">cp</text></g><!--entity tool_curl--><g class="entity" data-qualified-name="tool_curl" data-source-line="14" id="ent0009"><path d="M338.0432,1231.1698 C343.0053,1221.6086 352.5539,1220.8701 358.2662,1230.3741 C365.194,1222.517 370.9874,1222.5415 376.2454,1232.0982 C386.801,1232.7479 389.0517,1239.3418 384.2355,1247.8091 C389.0133,1256.6386 385.6104,1261.6032 376.6039,1263.8918 C371.3399,1274.0189 365.542,1274.7205 357.7829,1266.4434 C351.0321,1274.1853 342.5994,1275.0186 338.3321,1263.8844 C329.3282,1262.5765 326.6061,1255.6184 332.849,1248.7768 C325.529,1241.5457 329.2946,1233.6606 338.0432,1231.1698" fill="#FEF3C7" style="stroke:#181818;stroke-width:0.5;"/><text fill="#000000" font-family="Monospace" font-size="14" lengthAdjust="spacing" textLength="24.7659" x="344.46" y="1252.4484">curl</text></g><!--entity tool_declare--><g class="entity" data-qualified-name="tool_declare" data-source-line="15" id="ent0010"><path d="M327.7933,727.005 C331.553,720.5271 336.8665,719.1268 341.7929,725.7591 C347.3768,718.6231 351.9129,719.4681 356.9,726.4 C362.1477,716.8277 367.8973,717.1502 373.9203,725.6708 C378.5704,719.4145 386.5982,718.3979 389.825,727.1765 C401.3579,727.0381 403.5494,736.1023 398.6328,744.3838 C404.0396,753.044 398.9728,759.4039 389.8155,759.6553 C386.1133,768.4816 379.0328,769.9925 372.8567,762.1761 C370.2259,770.0748 363.4673,772.5911 357.4682,765.6749 C352.5766,772.8035 345.2912,772.0477 342.2292,763.8552 C335.8465,771.1121 329.0136,768.7926 325.7803,760.5194 C315.3141,759.1399 313.0047,752.5194 318.2605,743.9882 C313.2683,735.2795 317.6189,727.2005 327.7933,727.005" fill="#FEF3C7" style="stroke:#181818;stroke-width:0.5;"/><text fill="#000000" font-family="Monospace" font-size="14" lengthAdjust="spacing" textLength="48.3698" x="332.66" y="748.4484">declare</text></g><!--entity tool_die--><g class="entity" data-qualified-name="tool_die" data-source-line="16" id="ent0011"><path d="M341.0812,810.5512 C345.3248,803.0738 352.6343,801.6303 357.9881,809.3131 C365.2804,801.3827 371.2636,803.3135 375.4365,812.494 C384.8079,813.746 388.8679,818.6387 384.033,827.8458 C390.1238,837.5725 384.4504,843.9966 374.5621,844.7942 C371.7692,854.5983 366.2011,856.9559 357.9363,850.332 C349.7186,857.2677 342.0643,853.3819 340.1746,843.6063 C332.362,839.3276 329.93,834.7054 337.4387,827.7785 C330.3708,820.5605 331.2557,814.1973 341.0812,810.5512" fill="#FEF3C7" style="stroke:#181818;stroke-width:0.5;"/><text fill="#000000" font-family="Monospace" font-size="14" lengthAdjust="spacing" textLength="20.1179" x="346.79" y="832.4484">die</text></g><!--entity tool_git--><g class="entity" data-qualified-name="tool_git" data-source-line="17" id="ent0012"><path d="M343.0262,55.1176 C347.3091,48.9069 351.5558,46.6837 357.0125,53.8944 C362.9998,46.0679 369.0377,49.1364 372.8329,56.2203 C382.0957,57.5946 385.858,63.0121 380.3894,71.6166 C387.4315,79.7184 384.3448,86.5051 374.1643,88.1042 C373.8298,98.818 365.936,101.2514 358.1138,95.328 C349.7935,100.2827 343.0147,99.0284 341.3417,88.2443 C332.7902,86.0062 329.8312,79.1856 335.7353,71.9683 C330.3114,62.8887 333.4003,57.6854 343.0262,55.1176" fill="#FEF3C7" style="stroke:#181818;stroke-width:0.5;"/><text fill="#000000" font-family="Monospace" font-size="14" lengthAdjust="spacing" textLength="17.2759" x="348.21" y="76.4484">git</text></g><!--entity tool_grep--><g class="entity" data-qualified-name="tool_grep" data-source-line="18" id="ent0013"><path d="M335.7292,139.4792 C338.406,135.0707 342.9281,133.9299 346.0897,138.9462 C349.3203,131.9706 353.2701,131.056 358.8339,136.5644 C361.9721,131.8002 367.2202,132.9693 369.4912,137.5531 C373.8709,133.5889 377.7313,134.2713 380.0698,139.8225 C389.9874,142.5933 389.8825,148.9698 384.3852,155.8827 C391.2046,163.7615 388.3641,168.961 379.8245,172.6663 C377.6651,178.8178 374.108,180.6368 368.5464,176.338 C366.7657,181.2198 361.9678,183.2674 358.0085,178.7912 C352.1088,182.3602 348.1193,181.6474 345.7392,174.6892 C341.806,179.253 336.6625,177.4414 335.0988,172.1349 C325.384,170.0133 322.7977,162.2751 330.148,155.1727 C324.4033,148.2456 326.8603,141.2092 335.7292,139.4792" fill="#FEF3C7" style="stroke:#181818;stroke-width:0.5;"/><text fill="#000000" font-family="Monospace" font-size="14" lengthAdjust="spacing" textLength="30.8979" x="341.4" y="160.4484">grep</text></g><!--entity tool_info--><g class="entity" data-qualified-name="tool_info" data-source-line="19" id="ent0014"><path d="M338.7342,895.8059 C342.6828,886.573 351.9072,884.9056 357.5051,894.1284 C364.6242,884.9059 372.403,885.6031 377.2212,896.395 C387.5144,897.7236 388.217,904.1301 384.0161,911.8366 C390.1952,919.8717 388.1472,927.0871 377.755,929.1186 C376.5663,940.124 367.3336,943.4393 358.9954,936.6598 C348.5272,943.8216 341.9643,940.1197 338.6764,928.7758 C330.1949,925.8444 329.5964,917.6946 336.3538,912.5781 C328.2535,907.0694 330.0434,898.9315 338.7342,895.8059" fill="#FEF3C7" style="stroke:#181818;stroke-width:0.5;"/><text fill="#000000" font-family="Monospace" font-size="14" lengthAdjust="spacing" textLength="25.5499" x="344.07" y="916.4484">info</text></g><!--entity tool_java--><g class="entity" data-qualified-name="tool_java" data-source-line="20" id="ent0015"><path d="M338.6672,1314.8605 C343.4978,1304.6848 350.2495,1306.0333 357.0271,1312.7436 C364.9584,1302.9753 374.2005,1306.3551 378.936,1316.2961 C387.1656,1319.8398 388.2839,1325.6248 381.7292,1331.8274 C388.0394,1338.5211 386.8998,1345.2665 378.678,1349.443 C376.2681,1361.6652 366.9383,1363.4682 357.8596,1356.7877 C347.8309,1363.8218 339.3238,1358.8539 337.2583,1347.7453 C328.3634,1343.3388 328.8223,1335.2752 337.5488,1331.1777 C331.1731,1325.9618 330.8205,1319.1016 338.6672,1314.8605" fill="#FEF3C7" style="stroke:#181818;stroke-width:0.5;"/><text fill="#000000" font-family="Monospace" font-size="14" lengthAdjust="spacing" textLength="26.4319" x="343.63" y="1336.4484">java</text></g><!--entity tool_mapfile--><g class="entity" data-qualified-name="tool_mapfile" data-source-line="21" id="ent0016"><path d="M326.1143,559.6411 C330.7722,550.7293 338.3685,551.0924 342.9499,559.7145 C346.8945,552.4746 352.2231,553.1428 356.8589,558.9795 C362.6568,551.0582 369.0812,552.0705 374.4971,559.4207 C379.0548,551.3891 385.5639,551.994 389.5784,559.9336 C400.4673,560.4524 402.3731,566.4234 398.3296,575.3944 C403.9103,585.104 401.29,591.7732 389.4556,592.3897 C387.1313,600.8744 379.3227,601.1302 374.0281,595.6774 C370.8565,605.9246 364.9059,607.0652 357.2694,599.9995 C350.9413,606.1226 346.2187,605.4033 342.0505,597.6334 C334.3791,602.8017 328.9429,602.2935 325.7042,592.7187 C316.0067,589.6231 313.5898,583.8837 321.2529,576.1297 C315.6615,569.296 315.9764,561.8373 326.1143,559.6411" fill="#FEF3C7" style="stroke:#181818;stroke-width:0.5;"/><text fill="#000000" font-family="Monospace" font-size="14" lengthAdjust="spacing" textLength="49.4898" x="332.1" y="580.4484">mapfile</text></g><!--entity tool_mkdir--><g class="entity" data-qualified-name="tool_mkdir" data-source-line="22" id="ent0017"><path d="M331.8713,1063.0399 C335.6959,1057.2038 341.0233,1057.2027 344.3487,1063.5511 C347.8758,1056.6877 353.4426,1056.9652 358.1747,1062.1707 C362.1126,1056.1377 366.3604,1056.6618 370.6556,1061.7705 C375.0027,1056.4284 380.2554,1055.9859 383.3607,1063.043 C395.9644,1063.2626 398.5008,1070.4519 394.1045,1080.8998 C398.6929,1089.6531 393.1985,1096.0836 384.2893,1096.1489 C381.3507,1102.4123 377.4779,1104.6659 371.6334,1099.3156 C368.7857,1106.0019 362.5946,1107.6461 357.2739,1102.256 C351.8432,1106.7739 347.9574,1104.6221 345.885,1098.6202 C340.2031,1105.8423 333.7904,1103.8643 330.7383,1095.9829 C321.3884,1093.92 317.0133,1089.4244 322.8715,1079.9154 C317.4152,1069.4811 321.6796,1065.129 331.8713,1063.0399" fill="#FEF3C7" style="stroke:#181818;stroke-width:0.5;"/><text fill="#000000" font-family="Monospace" font-size="14" lengthAdjust="spacing" textLength="38.5699" x="337.56" y="1084.4484">mkdir</text></g><!--entity tool_mv--><g class="entity" data-qualified-name="tool_mv" data-source-line="23" id="ent0018"><path d="M341.0412,642.5512 C345.2967,635.0561 352.6245,633.6103 357.9901,641.3131 C365.296,633.3611 371.294,635.2939 375.4805,644.494 C384.8519,645.746 388.9119,650.6387 384.077,659.8458 C390.1678,669.5725 384.4944,675.9966 374.6061,676.7942 C371.7995,686.6185 366.2169,688.9772 357.9383,682.332 C349.709,689.2884 342.0359,685.4006 340.1346,675.6063 C332.322,671.3276 329.89,666.7054 337.3987,659.7785 C330.3308,652.5605 331.2157,646.1973 341.0412,642.5512" fill="#FEF3C7" style="stroke:#181818;stroke-width:0.5;"/><text fill="#000000" font-family="Monospace" font-size="14" lengthAdjust="spacing" textLength="20.2019" x="346.75" y="664.4484">mv</text></g><!--entity tool_repo_architecture_drawio--><g class="entity" data-qualified-name="tool_repo_architecture_drawio" data-source-line="24" id="ent0019"><path d="M268.4062,1399.4426 C271.8612,1392.1182 278.1836,1392.6217 282.3178,1398.7396 C286.4042,1392.0632 292.1583,1392.9805 295.2587,1399.6926 C298.2174,1393.3143 304.5695,1392.3313 308.3421,1398.8681 C312.4147,1393.4829 316.1237,1394.0892 319.9408,1399.1517 C323.0264,1393.058 328.4502,1392.3816 333.1382,1397.2167 C338.3599,1391.5048 342.8396,1391.4532 346.4814,1398.8277 C349.6065,1391.6008 354.6143,1391.9548 359.1917,1397.3674 C363.2121,1390.9878 368.3703,1392.1975 371.4267,1398.3115 C375.285,1393.4159 380.2528,1392.4623 383.2543,1399.1837 C387.793,1393.3313 392.3353,1392.4551 397.2422,1398.76 C400.8723,1393.806 404.44,1393.5442 408.3251,1398.474 C412.0273,1393.7343 417.9446,1394.0304 420.4361,1399.8611 C424.2245,1394.0753 429.317,1393.8265 433.4164,1399.509 C436.7389,1393.2554 443.1487,1392.7569 446.8419,1399.1144 C455.3358,1403.4779 457.867,1410.4575 449.0371,1416.9529 C457.3263,1421.6572 456.5779,1428.8089 448.1925,1432.614 C444.9006,1438.8755 438.2287,1439.3143 434.2335,1433.4218 C431.0544,1439.7651 427.1075,1439.8044 422.1268,1435.4631 C418.0789,1441.0724 413.0605,1441.4654 408.8269,1435.6799 C405.3907,1441.7065 401.5649,1441.33 397.2127,1436.6759 C393.8899,1443.6838 388.6227,1445.6222 382.7392,1439.4983 C378.95,1446.6677 374.5107,1446.9443 369.7875,1440.3791 C365.5433,1446.9475 361.3924,1447.0178 357.0171,1440.5072 C353.2381,1445.5191 348.7425,1446.5905 345.3681,1440.0976 C340.7756,1445.9322 335.2248,1444.9891 332.8831,1437.9198 C328.513,1444.5245 322.4291,1443.663 318.8035,1437.1224 C313.8799,1441.905 309.4449,1441.1145 306.0922,1435.2473 C302.2751,1440.8114 297.3404,1439.5499 294.8689,1433.9006 C290.8893,1439.7749 285.9243,1440.3063 281.5574,1434.336 C278.0623,1439.6701 271.613,1439.5734 268.5294,1433.8512 C257.9469,1428.9595 258.3707,1421.6899 267.0835,1415.2948 C259.8518,1409.6498 259.5658,1403.7465 268.4062,1399.4426" fill="#FEF3C7" style="stroke:#181818;stroke-width:0.5;"/><text fill="#000000" font-family="Monospace" font-size="14" lengthAdjust="spacing" textLength="164.0234" x="274.84" y="1420.4484">repo-architecture.drawio</text></g><!--entity tool_success--><g class="entity" data-qualified-name="tool_success" data-source-line="25" id="ent0020"><path d="M326.1773,978.6957 C331.1188,969.7224 337.0047,971.0606 342.3149,978.3294 C346.2727,969.4707 354.1065,971.0949 358.3372,978.053 C363.835,969.7782 370.6938,970.3105 374.5502,979.5707 C379.1551,973.5514 386.2412,973.6221 390.1533,980.4146 C399.355,981.0808 404.3613,987.7883 398.9233,996.4575 C405.457,1006.8666 400.8306,1013.2801 389.3349,1013.6115 C385.0578,1021.559 377.5186,1020.8055 373.1497,1013.7103 C369.7492,1020.2822 363.0557,1021.9514 358.067,1015.5579 C352.9218,1023.197 346.2977,1021.844 342.594,1014.1073 C337.7254,1023.4009 329.3683,1021.7309 325.2329,1013.3856 C314.6524,1009.6733 314.9713,1001.6397 322.6921,995.3492 C316.7362,988.0587 318.2502,983.0808 326.1773,978.6957" fill="#FEF3C7" style="stroke:#181818;stroke-width:0.5;"/><text fill="#000000" font-family="Monospace" font-size="14" lengthAdjust="spacing" textLength="50.1058" x="331.79" y="1000.4484">success</text></g><!--entity tool_tmux--><g class="entity" data-qualified-name="tool_tmux" data-source-line="26" id="ent0021"><path d="M333.3712,392.0978 C335.3885,385.6119 341.4245,385.0913 345.5498,389.8057 C349.4149,383.1897 353.7354,383.0441 358.1574,389.2585 C362.5611,383.7727 366.4055,383.9895 369.9234,390.1532 C374.1637,384.4033 379.9492,384.4474 382.7993,391.5463 C390.7922,395.4078 391.5131,401.9093 384.9901,407.7352 C391.5022,413.8528 390.621,421.6634 381.9717,425.1538 C380.2497,431.3837 374.9985,433.8869 369.6525,429.2696 C368.6612,435.5185 363.3575,436.6263 359.0089,432.8252 C352.4695,438.3031 347.0608,436.4256 345.5136,427.9849 C339.7236,433.8759 334.9273,432.4878 332.8037,424.6024 C322.1835,422.7274 320.6982,416.6103 326.6949,408.4506 C320.7782,400.1246 324.5706,394.4153 333.3712,392.0978" fill="#FEF3C7" style="stroke:#181818;stroke-width:0.5;"/><text fill="#000000" font-family="Monospace" font-size="14" lengthAdjust="spacing" textLength="34.2019" x="339.75" y="412.4484">tmux</text></g><!--entity tool_warn--><g class="entity" data-qualified-name="tool_warn" data-source-line="27" id="ent0022"><path d="M333.4482,474.8431 C337.6107,468.9861 342.4207,468.8252 346.2512,475.1908 C349.3476,469.0235 354.7993,468.1019 358.872,474.1849 C361.6944,469.6444 366.7994,468.4518 369.7898,474.0032 C373.8246,468.5587 379.0296,469.0177 382.0704,475.0654 C392.9388,477.1888 392.4895,486.5955 386.4424,492.8721 C392.8948,499.595 390.4568,505.6864 381.9384,507.9319 C380.0911,513.5189 374.78,515.0666 370.4505,510.8367 C367.4195,517.1684 362.8126,517.9854 358.2043,512.4667 C354.1516,518.0283 347.8005,518.0658 345.0365,511.111 C340.2681,515.0461 335.58,513.5282 333.415,507.9355 C323.0963,507.5154 320.321,498.7537 325.3957,491.0311 C319.6128,483.0775 322.7148,474.5809 333.4482,474.8431" fill="#FEF3C7" style="stroke:#181818;stroke-width:0.5;"/><text fill="#000000" font-family="Monospace" font-size="14" lengthAdjust="spacing" textLength="33.2919" x="340.2" y="496.4484">warn</text></g><g class="entity" data-qualified-name="shellGraphSummary" data-source-line="57" id="ent0051"><path d="M6,270.4625 L6,333.5806 L199.8351,333.5806 L199.8351,280.4625 L189.8351,270.4625 L6,270.4625" fill="#FEFFDD" style="stroke:#181818;stroke-width:0.5;"/><path d="M189.8351,270.4625 L189.8351,280.4625 L199.8351,280.4625 L189.8351,270.4625" fill="#FEFFDD" style="stroke:#181818;stroke-width:1;"/><text fill="#000000" font-family="Monospace" font-size="13" lengthAdjust="spacing" textLength="141.5311" x="12" y="289.3595">Scanned&#160;3&#160;shell&#160;scripts.</text><text fill="#000000" font-family="Monospace" font-size="13" lengthAdjust="spacing" textLength="172.8351" x="12" y="307.0655">Detected&#160;0&#160;local&#160;shell&#160;edges.</text><text fill="#000000" font-family="Monospace" font-size="13" lengthAdjust="spacing" textLength="163.8911" x="12" y="324.7716">Detected&#160;18&#160;external&#160;tools.</text></g><!--link shell_install_sh to tool_apt_get--><g class="link" data-entity-1="ent0002" data-entity-2="ent0005" data-link-type="dependency" data-source-line="28" id="lnk23"><path d="M172.86,376.8525 C239.54,376.8525 329.86,376.8525 329.86,376.8525 C329.86,376.8525 329.86,309.7025 329.86,269.9825" fill="none" id="shell_install_sh-to-tool_apt_get" style="stroke:#181818;stroke-width:1;"/><polygon fill="#181818" points="329.86,263.9825,325.86,272.9825,329.86,268.9825,333.86,272.9825,329.86,263.9825" style="stroke:#181818;stroke-width:1;"/></g><!--link shell_install_sh to tool_cp--><g class="link" data-entity-1="ent0002" data-entity-2="ent0008" data-link-type="dependency" data-source-line="29" id="lnk24"><path d="M172.98,379.6725 C248.15,379.6725 356.86,379.6725 356.86,379.6725 C356.86,379.6725 356.86,369.2125 356.86,354.0325" fill="none" id="shell_install_sh-to-tool_cp" style="stroke:#181818;stroke-width:1;"/><polygon fill="#181818" points="356.86,348.0325,352.86,357.0325,356.86,353.0325,360.86,357.0325,356.86,348.0325" style="stroke:#181818;stroke-width:1;"/></g><!--link shell_install_sh to tool_die--><g class="link" data-entity-1="ent0002" data-entity-2="ent0011" data-link-type="dependency" data-source-line="30" id="lnk25"><path d="M173.1,437.1825 C182.43,437.1825 188.86,437.1825 188.86,437.1825 C188.86,437.1825 188.86,818.8425 188.86,818.8425 C188.86,818.8425 278.34,818.8425 325.33,818.8425" fill="none" id="shell_install_sh-to-tool_die" style="stroke:#181818;stroke-width:1;"/><polygon fill="#181818" points="331.33,818.8425,322.33,814.8425,326.33,818.8425,322.33,822.8425,331.33,818.8425" style="stroke:#181818;stroke-width:1;"/></g><!--link shell_install_sh to tool_git--><g class="link" data-entity-1="ent0002" data-entity-2="ent0012" data-link-type="dependency" data-source-line="31" id="lnk26"><path d="M173.07,371.2325 C202.43,371.2325 229.86,371.2325 229.86,371.2325 C229.86,371.2325 229.86,71.0225 229.86,71.0225 C229.86,71.0225 290.18,71.0225 326.96,71.0225" fill="none" id="shell_install_sh-to-tool_git" style="stroke:#181818;stroke-width:1;"/><polygon fill="#181818" points="332.96,71.0225,323.96,67.0225,327.96,71.0225,323.96,75.0225,332.96,71.0225" style="stroke:#181818;stroke-width:1;"/></g><!--link shell_install_sh to tool_grep--><g class="link" data-entity-1="ent0002" data-entity-2="ent0013" data-link-type="dependency" data-source-line="32" id="lnk27"><path d="M173.06,374.0425 C208.82,374.0425 244.86,374.0425 244.86,374.0425 C244.86,374.0425 244.86,155.0225 244.86,155.0225 C244.86,155.0225 286.8,155.0225 319.95,155.0225" fill="none" id="shell_install_sh-to-tool_grep" style="stroke:#181818;stroke-width:1;"/><polygon fill="#181818" points="325.95,155.0225,316.95,151.0225,320.95,155.0225,316.95,159.0225,325.95,155.0225" style="stroke:#181818;stroke-width:1;"/></g><!--link shell_install_sh to tool_info--><g class="link" data-entity-1="ent0002" data-entity-2="ent0014" data-link-type="dependency" data-source-line="33" id="lnk28"><path d="M172.94,439.9925 C179.56,439.9925 183.86,439.9925 183.86,439.9925 C183.86,439.9925 183.86,898.7525 183.86,898.7525 C183.86,898.7525 273.65,898.7525 322.67,898.7525" fill="none" id="shell_install_sh-to-tool_info" style="stroke:#181818;stroke-width:1;"/><polygon fill="#181818" points="328.67,898.7525,319.67,894.7525,323.67,898.7525,319.67,902.7525,328.67,898.7525" style="stroke:#181818;stroke-width:1;"/></g><!--link shell_install_sh to tool_success--><g class="link" data-entity-1="ent0002" data-entity-2="ent0020" data-link-type="dependency" data-source-line="34" id="lnk29"><path d="M172.94,442.8025 C176.03,442.8025 177.86,442.8025 177.86,442.8025 C177.86,442.8025 177.86,986.8425 177.86,986.8425 C177.86,986.8425 257.91,986.8425 310.68,986.8425" fill="none" id="shell_install_sh-to-tool_success" style="stroke:#181818;stroke-width:1;"/><polygon fill="#181818" points="316.68,986.8425,307.68,982.8425,311.68,986.8425,307.68,990.8425,316.68,986.8425" style="stroke:#181818;stroke-width:1;"/></g><!--link shell_install_sh to tool_tmux--><g class="link" data-entity-1="ent0002" data-entity-2="ent0021" data-link-type="dependency" data-source-line="35" id="lnk30"><path d="M172.98,398.8425 C222.45,398.8425 280.45,398.8425 318.43,398.8425" fill="none" id="shell_install_sh-to-tool_tmux" style="stroke:#181818;stroke-width:1;"/><polygon fill="#181818" points="324.43,398.8425,315.43,394.8425,319.43,398.8425,315.43,402.8425,324.43,398.8425" style="stroke:#181818;stroke-width:1;"/></g><!--link shell_install_sh to tool_warn--><g class="link" data-entity-1="ent0002" data-entity-2="ent0022" data-link-type="dependency" data-source-line="36" id="lnk31"><path d="M172.98,434.3625 C248.15,434.3625 356.86,434.3625 356.86,434.3625 C356.86,434.3625 356.86,444.8325 356.86,460.0025" fill="none" id="shell_install_sh-to-tool_warn" style="stroke:#181818;stroke-width:1;"/><polygon fill="#181818" points="356.86,466.0025,360.86,457.0025,356.86,461.0025,352.86,457.0025,356.86,466.0025" style="stroke:#181818;stroke-width:1;"/></g><!--link shell_sessions_sh to tool_declare--><g class="link" data-entity-1="ent0003" data-entity-2="ent0010" data-link-type="dependency" data-source-line="37" id="lnk32"><path d="M172.98,743.0225 C219.51,743.0225 272.91,743.0225 311.4,743.0225" fill="none" id="shell_sessions_sh-to-tool_declare" style="stroke:#181818;stroke-width:1;"/><polygon fill="#181818" points="317.4,743.0225,308.4,739.0225,312.4,743.0225,308.4,747.0225,317.4,743.0225" style="stroke:#181818;stroke-width:1;"/></g><!--link shell_sessions_sh to tool_die--><g class="link" data-entity-1="ent0003" data-entity-2="ent0011" data-link-type="dependency" data-source-line="38" id="lnk33"><path d="M172.98,772.2425 C248.15,772.2425 356.86,772.2425 356.86,772.2425 C356.86,772.2425 356.86,781.7025 356.86,796.1925" fill="none" id="shell_sessions_sh-to-tool_die" style="stroke:#181818;stroke-width:1;"/><polygon fill="#181818" points="356.86,802.1925,360.86,793.1925,356.86,797.1925,352.86,793.1925,356.86,802.1925" style="stroke:#181818;stroke-width:1;"/></g><!--link shell_sessions_sh to tool_info--><g class="link" data-entity-1="ent0003" data-entity-2="ent0014" data-link-type="dependency" data-source-line="39" id="lnk34"><path d="M125.86,781.9825 C125.86,831.6125 125.86,911.0225 125.86,911.0225 C125.86,911.0225 261.55,911.0225 322.98,911.0225" fill="none" id="shell_sessions_sh-to-tool_info" style="stroke:#181818;stroke-width:1;"/><polygon fill="#181818" points="328.98,911.0225,319.98,907.0225,323.98,911.0225,319.98,915.0225,328.98,911.0225" style="stroke:#181818;stroke-width:1;"/></g><!--link shell_sessions_sh to tool_mapfile--><g class="link" data-entity-1="ent0003" data-entity-2="ent0016" data-link-type="dependency" data-source-line="40" id="lnk35"><path d="M172.84,707.9325 C237.89,707.9325 324.86,707.9325 324.86,707.9325 C324.86,707.9325 324.86,644.5225 324.86,606.0225" fill="none" id="shell_sessions_sh-to-tool_mapfile" style="stroke:#181818;stroke-width:1;"/><polygon fill="#181818" points="324.86,600.0225,320.86,609.0225,324.86,605.0225,328.86,609.0225,324.86,600.0225" style="stroke:#181818;stroke-width:1;"/></g><!--link shell_sessions_sh to tool_mkdir--><g class="link" data-entity-1="ent0003" data-entity-2="ent0017" data-link-type="dependency" data-source-line="41" id="lnk36"><path d="M56.86,781.9525 C56.86,868.3325 56.86,1068.4525 56.86,1068.4525 C56.86,1068.4525 237.18,1068.4525 316.14,1068.4525" fill="none" id="shell_sessions_sh-to-tool_mkdir" style="stroke:#181818;stroke-width:1;"/><polygon fill="#181818" points="322.14,1068.4525,313.14,1064.4525,317.14,1068.4525,313.14,1072.4525,322.14,1068.4525" style="stroke:#181818;stroke-width:1;"/></g><!--link shell_sessions_sh to tool_mv--><g class="link" data-entity-1="ent0003" data-entity-2="ent0018" data-link-type="dependency" data-source-line="42" id="lnk37"><path d="M172.98,711.4525 C248.15,711.4525 356.86,711.4525 356.86,711.4525 C356.86,711.4525 356.86,703.5125 356.86,690.0025" fill="none" id="shell_sessions_sh-to-tool_mv" style="stroke:#181818;stroke-width:1;"/><polygon fill="#181818" points="356.86,684.0025,352.86,693.0025,356.86,689.0025,360.86,693.0025,356.86,684.0025" style="stroke:#181818;stroke-width:1;"/></g><!--link shell_sessions_sh to tool_success--><g class="link" data-entity-1="ent0003" data-entity-2="ent0020" data-link-type="dependency" data-source-line="43" id="lnk38"><path d="M172.82,776.9325 C237.55,776.9325 323.86,776.9325 323.86,776.9325 C323.86,776.9325 323.86,906.7125 323.86,964.0025" fill="none" id="shell_sessions_sh-to-tool_success" style="stroke:#181818;stroke-width:1;"/><polygon fill="#181818" points="323.86,970.0025,327.86,961.0025,323.86,965.0025,319.86,961.0025,323.86,970.0025" style="stroke:#181818;stroke-width:1;"/></g><!--link shell_sessions_sh to tool_tmux--><g class="link" data-entity-1="ent0003" data-entity-2="ent0021" data-link-type="dependency" data-source-line="44" id="lnk39"><path d="M173.07,714.9725 C185.65,714.9725 194.86,714.9725 194.86,714.9725 C194.86,714.9725 194.86,415.1925 194.86,415.1925 C194.86,415.1925 271.18,415.1925 318.46,415.1925" fill="none" id="shell_sessions_sh-to-tool_tmux" style="stroke:#181818;stroke-width:1;"/><polygon fill="#181818" points="324.46,415.1925,315.46,411.1925,319.46,415.1925,315.46,419.1925,324.46,415.1925" style="stroke:#181818;stroke-width:1;"/></g><!--link shell_sessions_sh to tool_warn--><g class="link" data-entity-1="ent0003" data-entity-2="ent0022" data-link-type="dependency" data-source-line="45" id="lnk40"><path d="M102.86,704.0625 C102.86,631.4825 102.86,482.8425 102.86,482.8425 C102.86,482.8425 250.72,482.8425 318.94,482.8425" fill="none" id="shell_sessions_sh-to-tool_warn" style="stroke:#181818;stroke-width:1;"/><polygon fill="#181818" points="324.94,482.8425,315.94,478.8425,319.94,482.8425,315.94,486.8425,324.94,482.8425" style="stroke:#181818;stroke-width:1;"/></g><!--link shell_setup_sh to tool_cat--><g class="link" data-entity-1="ent0004" data-entity-2="ent0006" data-link-type="dependency" data-source-line="46" id="lnk41"><path d="M67.86,1160.0425 C67.86,1256.6225 67.86,1499.0225 67.86,1499.0225 C67.86,1499.0225 255.4,1499.0225 325.71,1499.0225" fill="none" id="shell_setup_sh-to-tool_cat" style="stroke:#181818;stroke-width:1;"/><polygon fill="#181818" points="331.71,1499.0225,322.71,1495.0225,326.71,1499.0225,322.71,1503.0225,331.71,1499.0225" style="stroke:#181818;stroke-width:1;"/></g><!--link shell_setup_sh to tool_chmod--><g class="link" data-entity-1="ent0004" data-entity-2="ent0007" data-link-type="dependency" data-source-line="47" id="lnk42"><path d="M172.98,1145.5325 C220.1,1145.5325 274.41,1145.5325 312.85,1145.5325" fill="none" id="shell_setup_sh-to-tool_chmod" style="stroke:#181818;stroke-width:1;"/><polygon fill="#181818" points="318.85,1145.5325,309.85,1141.5325,313.85,1145.5325,309.85,1149.5325,318.85,1145.5325" style="stroke:#181818;stroke-width:1;"/></g><!--link shell_setup_sh to tool_curl--><g class="link" data-entity-1="ent0004" data-entity-2="ent0009" data-link-type="dependency" data-source-line="48" id="lnk43"><path d="M137.86,1159.8525 C137.86,1196.8725 137.86,1247.0225 137.86,1247.0225 C137.86,1247.0225 264.19,1247.0225 323.11,1247.0225" fill="none" id="shell_setup_sh-to-tool_curl" style="stroke:#181818;stroke-width:1;"/><polygon fill="#181818" points="329.11,1247.0225,320.11,1243.0225,324.11,1247.0225,320.11,1251.0225,329.11,1247.0225" style="stroke:#181818;stroke-width:1;"/></g><!--link shell_setup_sh to tool_die--><g class="link" data-entity-1="ent0004" data-entity-2="ent0011" data-link-type="dependency" data-source-line="49" id="lnk44"><path d="M79.86,1082.1725 C79.86,1004.0225 79.86,835.1925 79.86,835.1925 C79.86,835.1925 257.59,835.1925 325.78,835.1925" fill="none" id="shell_setup_sh-to-tool_die" style="stroke:#181818;stroke-width:1;"/><polygon fill="#181818" points="331.78,835.1925,322.78,831.1925,326.78,835.1925,322.78,839.1925,331.78,835.1925" style="stroke:#181818;stroke-width:1;"/></g><!--link shell_setup_sh to tool_info--><g class="link" data-entity-1="ent0004" data-entity-2="ent0014" data-link-type="dependency" data-source-line="50" id="lnk45"><path d="M102.86,1081.9525 C102.86,1024.3225 102.86,923.2825 102.86,923.2825 C102.86,923.2825 256.57,923.2825 322.7,923.2825" fill="none" id="shell_setup_sh-to-tool_info" style="stroke:#181818;stroke-width:1;"/><polygon fill="#181818" points="328.7,923.2825,319.7,919.2825,323.7,923.2825,319.7,927.2825,328.7,923.2825" style="stroke:#181818;stroke-width:1;"/></g><!--link shell_setup_sh to tool_java--><g class="link" data-entity-1="ent0004" data-entity-2="ent0015" data-link-type="dependency" data-source-line="51" id="lnk46"><path d="M102.86,1160.0225 C102.86,1220.7525 102.86,1331.0225 102.86,1331.0225 C102.86,1331.0225 255.78,1331.0225 322.2,1331.0225" fill="none" id="shell_setup_sh-to-tool_java" style="stroke:#181818;stroke-width:1;"/><polygon fill="#181818" points="328.2,1331.0225,319.2,1327.0225,323.2,1331.0225,319.2,1335.0225,328.2,1331.0225" style="stroke:#181818;stroke-width:1;"/></g><!--link shell_setup_sh to tool_mkdir--><g class="link" data-entity-1="ent0004" data-entity-2="ent0017" data-link-type="dependency" data-source-line="52" id="lnk47"><path d="M172.98,1096.5025 C221.57,1096.5025 278.18,1096.5025 316.37,1096.5025" fill="none" id="shell_setup_sh-to-tool_mkdir" style="stroke:#181818;stroke-width:1;"/><polygon fill="#181818" points="322.37,1096.5025,313.37,1092.5025,317.37,1096.5025,313.37,1100.5025,322.37,1096.5025" style="stroke:#181818;stroke-width:1;"/></g><!--link shell_setup_sh to tool_repo_architecture_drawio--><g class="link" data-entity-1="ent0004" data-entity-2="ent0019" data-link-type="dependency" data-source-line="53" id="lnk48"><path d="M173.1,1152.5725 C225.42,1152.5725 287.86,1152.5725 287.86,1152.5725 C287.86,1152.5725 287.86,1318.9925 287.86,1384.3325" fill="none" id="shell_setup_sh-to-tool_repo_architecture_drawio" style="stroke:#181818;stroke-width:1;"/><polygon fill="#181818" points="287.86,1390.3325,291.86,1381.3325,287.86,1385.3325,283.86,1381.3325,287.86,1390.3325" style="stroke:#181818;stroke-width:1;"/></g><!--link shell_setup_sh to tool_success--><g class="link" data-entity-1="ent0004" data-entity-2="ent0020" data-link-type="dependency" data-source-line="54" id="lnk49"><path d="M149.86,1082.1125 C149.86,1047.7925 149.86,1003.1925 149.86,1003.1925 C149.86,1003.1925 250.21,1003.1925 310.45,1003.1925" fill="none" id="shell_setup_sh-to-tool_success" style="stroke:#181818;stroke-width:1;"/><polygon fill="#181818" points="316.45,1003.1925,307.45,999.1925,311.45,1003.1925,307.45,1007.1925,316.45,1003.1925" style="stroke:#181818;stroke-width:1;"/></g><!--link shell_setup_sh to tool_warn--><g class="link" data-entity-1="ent0004" data-entity-2="ent0022" data-link-type="dependency" data-source-line="55" id="lnk50"><path d="M172.86,1089.4625 C195.49,1089.4625 214.86,1089.4625 214.86,1089.4625 C214.86,1089.4625 214.86,499.1925 214.86,499.1925 C214.86,499.1925 277.12,499.1925 318.98,499.1925" fill="none" id="shell_setup_sh-to-tool_warn" style="stroke:#181818;stroke-width:1;"/><polygon fill="#181818" points="324.98,499.1925,315.98,495.1925,319.98,499.1925,315.98,503.1925,324.98,499.1925" style="stroke:#181818;stroke-width:1;"/></g><?plantuml-src dPMnRjim441tVGNXp3OIP6Yx56WRgrExQ0qW7AYpn8OY2V9antzVqbOiYh8uP3o-nnFlS299a4H6Q7kXX1HqPbM7KhAAMs68bLAV2ea7OgIP5Mr7h14MEGcj2lScb04BFNCTDFeaLCiE81r6fC43399AhUWlzCZ-QAMT0HuxNFT6ArHKqTaV9gG7rSfOaK8XdGqoRQdJnKrX6w4SWPGxrxsgHoOr1-cF4qh0faNtghunVFVrARzEMaktOU2kHZtkhLt77bv-xd-K-pYpG-TycUvJgJysh-QcmQmdVdhCPVPRuxHSwg5X6p2qRP4kPjXJ-uNQBx27Sby-__houN6871yiUDVh9Z92k71C99W57QoCk8zIeq4kmU8aZGiBJyIEMF1MHBNuOC4jHYSDKMe8TT2J4QBK-0T7c8mGfKOFvY1aTD9nOU6z-NydiaAuS8wHS4ofBq1lmV9Ea9-bmUAkiN0IKGN1g6EZlXff9ZTmxaTqsZWkf1xrm_iaXIWrJc3LP8JePYp-ikts-smsCmOt6UX78KFz8EIeRr46Xn78uB5D6IFqA8D3Wuhb7J6LTlqJieh8ugY2ktoSpgmIHZCh77DqtgIxIjIbktpMfl72csO3Q9s5-sgT-ije5SPzJTcigIaCby8gdFSofMl_w-g6jBSflpHEQSBRY_7RWkcgeU_1dekAWrBOiEVnmN6NTzxjYXSC1_3apeCKqQUloSkqAr0rB7pmFm00?></g></svg>
