<?plantuml 1.2026.2?><svg xmlns="http://www.w3.org/2000/svg" xmlns:xlink="http://www.w3.org/1999/xlink" contentStyleType="text/css" data-diagram-type="DESCRIPTION" height="1789px" preserveAspectRatio="none" style="width:478px;height:1789px;background:#FFFFFF;" version="1.1" viewBox="0 0 478 1789" width="478px" zoomAndPan="magnify"><title>terminility Tooling Integrations</title><defs/><g><g class="title" data-source-line="1"><text fill="#000000" font-family="Monospace" font-size="14" font-weight="bold" lengthAdjust="spacing" textLength="217.8182" x="123.3594" y="24.9659">terminility&#160;Tooling&#160;Integrations</text></g><!--entity source_github_workflows_ci_yml--><g class="entity" data-qualified-name="source_github_workflows_ci_yml" data-source-line="7" id="ent0002"><rect fill="#E0F2FE" height="58.1358" rx="2.5" ry="2.5" style="stroke:#181818;stroke-width:0.5;" width="182.6234" x="18.44" y="126.7079"/><text fill="#000000" font-family="Monospace" font-size="14" lengthAdjust="spacing" textLength="162.6234" x="28.44" y="151.6739">.github/workflows/ci.yml</text><text fill="#000000" font-family="Monospace" font-size="14" lengthAdjust="spacing" textLength="105.3356" x="28.44" y="170.7418">3&#160;detected&#160;tools</text></g><!--entity source_install_sh--><g class="entity" data-qualified-name="source_install_sh" data-source-line="8" id="ent0003"><rect fill="#E0F2FE" height="58.1358" rx="2.5" ry="2.5" style="stroke:#181818;stroke-width:0.5;" width="133.3436" x="43.08" y="588.7079"/><text fill="#000000" font-family="Monospace" font-size="14" lengthAdjust="spacing" textLength="58.2118" x="53.08" y="613.6739">install.sh</text><text fill="#000000" font-family="Monospace" font-size="14" lengthAdjust="spacing" textLength="113.3436" x="53.08" y="632.7418">10&#160;detected&#160;tools</text></g><!--entity source_sessions_sh--><g class="entity" data-qualified-name="source_sessions_sh" data-source-line="9" id="ent0004"><rect fill="#E0F2FE" height="58.1358" rx="2.5" ry="2.5" style="stroke:#181818;stroke-width:0.5;" width="125.3356" x="47.09" y="966.7079"/><text fill="#000000" font-family="Monospace" font-size="14" lengthAdjust="spacing" textLength="74.5637" x="57.09" y="991.6739">sessions.sh</text><text fill="#000000" font-family="Monospace" font-size="14" lengthAdjust="spacing" textLength="105.3356" x="57.09" y="1010.7418">9&#160;detected&#160;tools</text></g><!--entity source_setup_sh--><g class="entity" data-qualified-name="source_setup_sh" data-source-line="10" id="ent0005"><rect fill="#E0F2FE" height="58.1358" rx="2.5" ry="2.5" style="stroke:#181818;stroke-width:0.5;" width="133.3436" x="43.08" y="1344.7079"/><text fill="#000000" font-family="Monospace" font-size="14" lengthAdjust="spacing" textLength="56.0278" x="53.08" y="1369.6739">setup.sh</text><text fill="#000000" font-family="Monospace" font-size="14" lengthAdjust="spacing" textLength="113.3436" x="53.08" y="1388.7418">10&#160;detected&#160;tools</text></g><!--entity tool_actions_checkout--><g class="entity" data-qualified-name="tool_actions_checkout" data-source-line="11" id="ent0006"><path d="M309.0021,139.6036 C312.8539,133.4446 317.5965,133.5851 321.326,139.7262 C324.6317,132.9632 329.6334,134.2122 333.672,138.9387 C338.2923,131.7913 342.5529,131.9161 347.1939,138.919 C351.4687,132.6356 355.3013,133.6236 359.3973,139.1045 C362.7288,134.4186 367.9424,134.5722 370.7226,139.7382 C373.4208,134.0805 379.6873,133.5886 383.2645,138.7161 C387.3441,132.6788 392.6419,132.7384 397.015,138.3702 C402.1896,132.9347 406.9512,133.4348 409.8016,140.7085 C412.7726,134.5845 418.2529,134.6686 421.2915,140.6443 C425.2603,134.8108 429.6444,135.5678 433.6544,140.5974 C443.3357,143.007 444.6459,149.1667 439.6482,156.955 C445.0931,165.4122 443.628,170.5155 433.6847,173.3885 C431.4371,179.0599 426.0773,179.5312 422.9014,174.3073 C419.3144,180.8175 413.1523,181.4068 408.5611,175.4636 C405.8276,181.3661 401.8571,182.9815 396.6271,178.2708 C393.3462,184.7747 388.8501,184.5988 384.7701,179.0573 C382.2417,186.4965 375.7243,186.9634 371.716,180.4411 C366.8127,186.8389 361.3536,184.7632 358.8665,178.0695 C354.9306,184.8475 349.0089,184.6921 345.4381,177.7131 C340.9034,183.2315 336.2151,181.7529 333.5415,175.7855 C329.6643,180.903 324.3053,180.5251 321.7614,174.3898 C317.3005,179.8529 311.0786,180.5887 307.8171,173.0986 C300.7191,169.0471 299.3177,161.0642 307.8987,157.0927 C299.6564,151.0645 300.6035,144.5819 309.0021,139.6036" fill="#FEF3C7" style="stroke:#181818;stroke-width:0.5;"/><text fill="#000000" font-family="Monospace" font-size="14" lengthAdjust="spacing" textLength="111.9156" x="314.57" y="161.2039">actions/checkout</text></g><!--entity tool_apt_get--><g class="entity" data-qualified-name="tool_apt_get" data-source-line="12" id="ent0007"><path d="M341.4903,224.7058 C345.0083,218.381 351.9657,218.1853 356.1459,223.8997 C359.8391,216.5794 365.8203,215.8052 371.2976,221.8819 C376.729,214.9771 384.657,215.2214 387.5012,224.4761 C391.1193,217.9329 398.3187,216.4449 402.8422,223.4509 C413.6169,224.5495 417.6352,230.1074 411.631,240.0761 C416.5588,249.7151 412.4556,257.3042 401.3282,257.3888 C399.1407,265.1137 392.9099,266.51 387.3692,260.8986 C385.113,269.1577 379.7974,271.007 372.5466,266.8719 C364.8716,272.7311 358.5158,271.927 355.4036,261.9367 C348.4279,268.531 341.7648,265.0989 340.0116,256.6079 C333.0824,251.6798 331.485,247.0717 339.3813,241.5241 C332.6873,235.456 333.6643,228.9531 341.4903,224.7058" fill="#FEF3C7" style="stroke:#181818;stroke-width:0.5;"/><text fill="#000000" font-family="Monospace" font-size="14" lengthAdjust="spacing" textLength="47.5858" x="346.73" y="245.2039">apt-get</text></g><!--entity tool_bash--><g class="entity" data-qualified-name="tool_bash" data-source-line="13" id="ent0008"><path d="M348.6042,559.9078 C351.5681,554.3549 355.8215,553.8253 359.3358,559.3759 C361.6461,553.9809 366.7041,551.7148 371.1077,557.0874 C375.5765,552.7164 380.2164,552.7484 382.8995,559.0587 C387.1185,553.3854 392.898,554.9457 395.5482,560.7827 C404.8366,565.4607 405.1293,570.6808 397.7579,577.5538 C404.1269,583.3988 401.4455,590.4334 394.0251,592.9311 C392.3729,597.9555 388.3835,600.2145 383.897,596.0579 C380.5573,603.0135 375.776,603.6952 371.2785,597.1391 C366.8771,601.1764 363.2198,601.769 360.4781,595.4142 C356.2525,600.5957 352.4719,600.1362 349.7024,594.0247 C340.2451,591.8525 337.8553,584.017 343.3041,576.4255 C336.561,569.3761 339.9912,562.0299 348.6042,559.9078" fill="#FEF3C7" style="stroke:#181818;stroke-width:0.5;"/><text fill="#000000" font-family="Monospace" font-size="14" lengthAdjust="spacing" textLength="31.8219" x="354.61" y="581.2039">bash</text></g><!--entity tool_cat--><g class="entity" data-qualified-name="tool_cat" data-source-line="14" id="ent0009"><path d="M354.6282,1652.252 C358.5119,1642.142 365.3792,1642.5469 372.1421,1649.2533 C379.6259,1642.561 383.9846,1645.4205 387.5938,1653.3483 C396.2092,1656.5011 396.6973,1661.9933 391.3919,1668.6103 C397.3394,1674.7674 396.9612,1682.6645 387.5111,1685.2252 C385.1883,1695.0409 377.9067,1696.0402 370.5482,1690.9596 C362.7332,1697.0514 357.4819,1694.3264 355.0727,1685.3922 C344.3125,1684.1426 342.9003,1678.6966 347.5237,1669.9343 C341.814,1661.8636 343.3607,1653.5015 354.6282,1652.252" fill="#FEF3C7" style="stroke:#181818;stroke-width:0.5;"/><text fill="#000000" font-family="Monospace" font-size="14" lengthAdjust="spacing" textLength="19.6279" x="360.71" y="1673.2039">cat</text></g><!--entity tool_chmod--><g class="entity" data-qualified-name="tool_chmod" data-source-line="15" id="ent0010"><path d="M342.4723,1735.7778 C346.718,1728.8729 352.7593,1729.2195 357.3288,1735.4105 C361.6693,1728.671 366.5393,1729.2555 371.2134,1735.0408 C376.8684,1728.0898 382.4101,1727.7484 387.5819,1735.576 C393.1056,1728.4862 398.2156,1729.8159 402.4049,1736.9651 C412.2594,1738.3347 414.7028,1743.3018 411.0806,1752.2972 C415.0946,1761.0713 411.6923,1769.4603 400.6644,1768.6575 C397.7004,1776.9319 392.1032,1776.7339 386.4391,1771.5013 C383.1386,1778.6948 378.5926,1781.4887 372.147,1774.7209 C366.6925,1782.2426 359.8775,1782.2372 356.1151,1773.0931 C349.9948,1779.1658 343.8466,1777.694 341.9993,1769.0066 C334.1788,1766.3955 333.2456,1759.296 338.706,1753.8072 C332.45,1747.6871 333.6711,1738.7525 342.4723,1735.7778" fill="#FEF3C7" style="stroke:#181818;stroke-width:0.5;"/><text fill="#000000" font-family="Monospace" font-size="14" lengthAdjust="spacing" textLength="45.5418" x="347.75" y="1757.2039">chmod</text></g><!--entity tool_cp--><g class="entity" data-qualified-name="tool_cp" data-source-line="16" id="ent0011"><path d="M356.2222,308.1823 C359.6014,299.5828 366.4868,299.2431 371.9315,306.0803 C376.9142,299.5657 383.628,301.1822 385.8824,308.7778 C394.0903,312.6 394.7438,318.8074 387.6357,324.3536 C394.3778,330.59 394.7858,337.1307 385.6302,341.5085 C384.7266,350.0566 379.9032,353.2109 371.7171,350.5391 C361.565,356.012 356.7223,351.584 356.2354,341.1388 C346.3719,337.4844 346.7794,330.3154 353.6554,324.1228 C348.0639,318.1523 346.9232,311.7552 356.2222,308.1823" fill="#FEF3C7" style="stroke:#181818;stroke-width:0.5;"/><text fill="#000000" font-family="Monospace" font-size="14" lengthAdjust="spacing" textLength="15.3299" x="362.86" y="329.2039">cp</text></g><!--entity tool_curl--><g class="entity" data-qualified-name="tool_curl" data-source-line="17" id="ent0012"><path d="M351.7232,1399.9253 C356.6853,1390.364 366.2339,1389.6255 371.9462,1399.1296 C378.874,1391.2724 384.6674,1391.2969 389.9254,1400.8536 C400.481,1401.5033 402.7317,1408.0972 397.9155,1416.5645 C402.6933,1425.394 399.2904,1430.3586 390.2839,1432.6472 C385.0199,1442.7744 379.222,1443.4759 371.4629,1435.1988 C364.7121,1442.9407 356.2794,1443.774 352.0121,1432.6398 C343.0082,1431.3319 340.2861,1424.3738 346.529,1417.5323 C339.209,1410.3011 342.9746,1402.416 351.7232,1399.9253" fill="#FEF3C7" style="stroke:#181818;stroke-width:0.5;"/><text fill="#000000" font-family="Monospace" font-size="14" lengthAdjust="spacing" textLength="24.7659" x="358.14" y="1421.2039">curl</text></g><!--entity tool_declare--><g class="entity" data-qualified-name="tool_declare" data-source-line="18" id="ent0013"><path d="M341.4733,979.7604 C345.233,973.2825 350.5465,971.8822 355.4729,978.5145 C361.0568,971.3785 365.5929,972.2236 370.58,979.1554 C375.8277,969.5831 381.5773,969.9056 387.6003,978.4262 C392.2504,972.1699 400.2782,971.1533 403.505,979.9319 C415.0379,979.7936 417.2294,988.8578 412.3128,997.1392 C417.7196,1005.7995 412.6528,1012.1593 403.4955,1012.4107 C399.7933,1021.237 392.7128,1022.7479 386.5367,1014.9315 C383.9059,1022.8302 377.1473,1025.3465 371.1482,1018.4303 C366.2566,1025.5589 358.9712,1024.8031 355.9092,1016.6106 C349.5265,1023.8675 342.6936,1021.548 339.4603,1013.2748 C328.9941,1011.8953 326.6847,1005.2748 331.9405,996.7436 C326.9483,988.035 331.2989,979.9559 341.4733,979.7604" fill="#FEF3C7" style="stroke:#181818;stroke-width:0.5;"/><text fill="#000000" font-family="Monospace" font-size="14" lengthAdjust="spacing" textLength="48.3698" x="346.34" y="1001.2039">declare</text></g><!--entity tool_die--><g class="entity" data-qualified-name="tool_die" data-source-line="19" id="ent0014"><path d="M354.7512,1231.3066 C358.9948,1223.8293 366.3043,1222.3857 371.6581,1230.0686 C378.9504,1222.1381 384.9336,1224.0689 389.1065,1233.2494 C398.4779,1234.5015 402.5379,1239.3941 397.703,1248.6012 C403.7938,1258.3279 398.1204,1264.752 388.2321,1265.5496 C385.4392,1275.3537 379.8711,1277.7113 371.6063,1271.0874 C363.3886,1278.0231 355.7343,1274.1373 353.8446,1264.3617 C346.032,1260.083 343.6,1255.4608 351.1087,1248.5339 C344.0408,1241.3159 344.9257,1234.9528 354.7512,1231.3066" fill="#FEF3C7" style="stroke:#181818;stroke-width:0.5;"/><text fill="#000000" font-family="Monospace" font-size="14" lengthAdjust="spacing" textLength="20.1179" x="360.46" y="1253.2039">die</text></g><!--entity tool_git--><g class="entity" data-qualified-name="tool_git" data-source-line="20" id="ent0015"><path d="M356.6962,391.873 C360.9791,385.6623 365.2258,383.4391 370.6825,390.6498 C376.6698,382.8233 382.7077,385.8918 386.5029,392.9757 C395.7657,394.35 399.528,399.7675 394.0594,408.372 C401.1015,416.4738 398.0148,423.2605 387.8343,424.8596 C387.4998,435.5734 379.606,438.0068 371.7838,432.0834 C363.4635,437.0381 356.6847,435.7838 355.0117,424.9997 C346.4602,422.7616 343.5012,415.941 349.4053,408.7237 C343.9814,399.6441 347.0703,394.4409 356.6962,391.873" fill="#FEF3C7" style="stroke:#181818;stroke-width:0.5;"/><text fill="#000000" font-family="Monospace" font-size="14" lengthAdjust="spacing" textLength="17.2759" x="361.88" y="413.2039">git</text></g><!--entity tool_grep--><g class="entity" data-qualified-name="tool_grep" data-source-line="21" id="ent0016"><path d="M349.3992,476.2346 C352.076,471.8261 356.5981,470.6853 359.7597,475.7016 C362.9903,468.726 366.9401,467.8114 372.5039,473.3198 C375.6421,468.5556 380.8902,469.7247 383.1612,474.3085 C387.5409,470.3443 391.4013,471.0267 393.7398,476.5779 C403.6574,479.3487 403.5525,485.7252 398.0552,492.6381 C404.8746,500.5169 402.0341,505.7164 393.4945,509.4217 C391.3351,515.5732 387.778,517.3922 382.2164,513.0934 C380.4357,517.9753 375.6378,520.0228 371.6785,515.5466 C365.7788,519.1156 361.7893,518.4029 359.4092,511.4446 C355.476,516.0084 350.3325,514.1968 348.7688,508.8903 C339.054,506.7687 336.4677,499.0305 343.818,491.9281 C338.0733,485.001 340.5303,477.9646 349.3992,476.2346" fill="#FEF3C7" style="stroke:#181818;stroke-width:0.5;"/><text fill="#000000" font-family="Monospace" font-size="14" lengthAdjust="spacing" textLength="30.8979" x="355.07" y="497.2039">grep</text></g><!--entity tool_info--><g class="entity" data-qualified-name="tool_info" data-source-line="22" id="ent0017"><path d="M352.4142,728.5613 C356.3628,719.3284 365.5872,717.661 371.1851,726.8838 C378.3042,717.6613 386.083,718.3585 390.9012,729.1504 C401.1944,730.479 401.897,736.8855 397.6961,744.592 C403.8752,752.6271 401.8272,759.8425 391.435,761.874 C390.2463,772.8794 381.0136,776.1947 372.6754,769.4153 C362.2072,776.577 355.6443,772.8751 352.3564,761.5312 C343.8749,758.5998 343.2764,750.45 350.0338,745.3335 C341.9335,739.8248 343.7234,731.6869 352.4142,728.5613" fill="#FEF3C7" style="stroke:#181818;stroke-width:0.5;"/><text fill="#000000" font-family="Monospace" font-size="14" lengthAdjust="spacing" textLength="25.5499" x="357.75" y="749.2039">info</text></g><!--entity tool_java--><g class="entity" data-qualified-name="tool_java" data-source-line="23" id="ent0018"><path d="M352.3472,1483.616 C357.1778,1473.4402 363.9295,1474.7887 370.7071,1481.4991 C378.6384,1471.7307 387.8805,1475.1105 392.616,1485.0515 C400.8456,1488.5952 401.9639,1494.3803 395.4092,1500.5828 C401.7194,1507.2765 400.5798,1514.0219 392.358,1518.1984 C389.9481,1530.4206 380.6183,1532.2236 371.5396,1525.5431 C361.5109,1532.5772 353.0038,1527.6093 350.9383,1516.5007 C342.0434,1512.0942 342.5023,1504.0306 351.2288,1499.9331 C344.8531,1494.7172 344.5005,1487.857 352.3472,1483.616" fill="#FEF3C7" style="stroke:#181818;stroke-width:0.5;"/><text fill="#000000" font-family="Monospace" font-size="14" lengthAdjust="spacing" textLength="26.4319" x="357.31" y="1505.2039">java</text></g><!--entity tool_mapfile--><g class="entity" data-qualified-name="tool_mapfile" data-source-line="24" id="ent0019"><path d="M339.7943,1064.3965 C344.4522,1055.4847 352.0485,1055.8478 356.6299,1064.4699 C360.5745,1057.23 365.9031,1057.8983 370.5389,1063.7349 C376.3368,1055.8136 382.7612,1056.8259 388.1771,1064.1761 C392.7348,1056.1445 399.2439,1056.7495 403.2584,1064.689 C414.1473,1065.2079 416.0531,1071.1788 412.0096,1080.1498 C417.5903,1089.8594 414.97,1096.5287 403.1356,1097.1451 C400.8113,1105.6298 393.0027,1105.8856 387.7081,1100.4329 C384.5365,1110.68 378.5859,1111.8206 370.9494,1104.7549 C364.6213,1110.878 359.8987,1110.1588 355.7305,1102.3888 C348.0591,1107.5572 342.6229,1107.049 339.3842,1097.4742 C329.6867,1094.3785 327.2698,1088.6391 334.9329,1080.8851 C329.3415,1074.0514 329.6564,1066.5927 339.7943,1064.3965" fill="#FEF3C7" style="stroke:#181818;stroke-width:0.5;"/><text fill="#000000" font-family="Monospace" font-size="14" lengthAdjust="spacing" textLength="49.4898" x="345.78" y="1085.2039">mapfile</text></g><!--entity tool_mkdir--><g class="entity" data-qualified-name="tool_mkdir" data-source-line="25" id="ent0020"><path d="M345.5513,1315.7953 C349.3759,1309.9592 354.7033,1309.9581 358.0287,1316.3065 C361.5558,1309.4431 367.1226,1309.7206 371.8547,1314.9261 C375.7926,1308.8931 380.0404,1309.4172 384.3356,1314.5259 C388.6827,1309.1838 393.9354,1308.7413 397.0407,1315.7984 C409.6444,1316.018 412.1808,1323.2073 407.7845,1333.6553 C412.3729,1342.4085 406.8785,1348.839 397.9693,1348.9043 C395.0307,1355.1677 391.1579,1357.4213 385.3134,1352.071 C382.4657,1358.7574 376.2746,1360.4015 370.9539,1355.0114 C365.5232,1359.5293 361.6374,1357.3775 359.565,1351.3757 C353.8831,1358.5977 347.4704,1356.6197 344.4183,1348.7384 C335.0684,1346.6754 330.6933,1342.1798 336.5515,1332.6708 C331.0952,1322.2365 335.3596,1317.8844 345.5513,1315.7953" fill="#FEF3C7" style="stroke:#181818;stroke-width:0.5;"/><text fill="#000000" font-family="Monospace" font-size="14" lengthAdjust="spacing" textLength="38.5699" x="351.24" y="1337.2039">mkdir</text></g><!--entity tool_mv--><g class="entity" data-qualified-name="tool_mv" data-source-line="26" id="ent0021"><path d="M354.7112,1147.3066 C358.9667,1139.8115 366.2945,1138.3658 371.6601,1146.0686 C378.966,1138.1165 384.964,1140.0493 389.1505,1149.2494 C398.5219,1150.5015 402.5819,1155.3941 397.747,1164.6012 C403.8378,1174.3279 398.1644,1180.752 388.2761,1181.5496 C385.4695,1191.3739 379.8869,1193.7326 371.6083,1187.0874 C363.379,1194.0438 355.7059,1190.156 353.8046,1180.3617 C345.992,1176.083 343.56,1171.4608 351.0687,1164.5339 C344.0008,1157.3159 344.8857,1150.9528 354.7112,1147.3066" fill="#FEF3C7" style="stroke:#181818;stroke-width:0.5;"/><text fill="#000000" font-family="Monospace" font-size="14" lengthAdjust="spacing" textLength="20.2019" x="360.42" y="1169.2039">mv</text></g><!--entity tool_repo_architecture_drawio--><g class="entity" data-qualified-name="tool_repo_architecture_drawio" data-source-line="27" id="ent0022"><path d="M282.0762,1568.198 C285.5312,1560.8736 291.8536,1561.3771 295.9878,1567.495 C300.0742,1560.8187 305.8283,1561.736 308.9287,1568.448 C311.8874,1562.0697 318.2395,1561.0867 322.0121,1567.6235 C326.0847,1562.2383 329.7937,1562.8446 333.6108,1567.9071 C336.6964,1561.8134 342.1202,1561.137 346.8082,1565.9721 C352.0299,1560.2602 356.5096,1560.2086 360.1514,1567.5831 C363.2765,1560.3562 368.2843,1560.7102 372.8617,1566.1228 C376.8821,1559.7432 382.0403,1560.9529 385.0967,1567.0669 C388.955,1562.1713 393.9228,1561.2177 396.9243,1567.9391 C401.463,1562.0867 406.0053,1561.2105 410.9122,1567.5154 C414.5423,1562.5614 418.11,1562.2996 421.9951,1567.2295 C425.6973,1562.4897 431.6146,1562.7858 434.1061,1568.6165 C437.8945,1562.8307 442.987,1562.5819 447.0864,1568.2644 C450.4089,1562.0108 456.8187,1561.5124 460.5119,1567.8698 C469.0058,1572.2333 471.537,1579.2129 462.7071,1585.7083 C470.9963,1590.4126 470.2479,1597.5643 461.8625,1601.3694 C458.5706,1607.6309 451.8987,1608.0697 447.9035,1602.1772 C444.7244,1608.5205 440.7775,1608.5598 435.7968,1604.2185 C431.7489,1609.8279 426.7305,1610.2208 422.4969,1604.4353 C419.0607,1610.4619 415.2349,1610.0855 410.8827,1605.4313 C407.5599,1612.4393 402.2927,1614.3776 396.4092,1608.2537 C392.62,1615.4231 388.1807,1615.6997 383.4575,1609.1345 C379.2133,1615.7029 375.0624,1615.7732 370.6871,1609.2626 C366.9081,1614.2745 362.4125,1615.3459 359.0381,1608.853 C354.4456,1614.6876 348.8948,1613.7445 346.5531,1606.6752 C342.183,1613.2799 336.0991,1612.4184 332.4735,1605.8778 C327.5499,1610.6605 323.1149,1609.8699 319.7622,1604.0027 C315.9451,1609.5668 311.0104,1608.3053 308.5389,1602.656 C304.5593,1608.5303 299.5943,1609.0617 295.2274,1603.0914 C291.7323,1608.4255 285.283,1608.3288 282.1994,1602.6066 C271.6169,1597.715 272.0407,1590.4453 280.7535,1584.0502 C273.5218,1578.4053 273.2358,1572.5019 282.0762,1568.198" fill="#FEF3C7" style="stroke:#181818;stroke-width:0.5;"/><text fill="#000000" font-family="Monospace" font-size="14" lengthAdjust="spacing" textLength="164.0234" x="288.51" y="1589.2039">repo-architecture.drawio</text></g><!--entity tool_success--><g class="entity" data-qualified-name="tool_success" data-source-line="28" id="ent0023"><path d="M339.8573,811.4511 C344.7988,802.4778 350.6847,803.816 355.9949,811.0848 C359.9527,802.2261 367.7865,803.8503 372.0172,810.8084 C377.515,802.5336 384.3738,803.0659 388.2302,812.3261 C392.8351,806.3068 399.9212,806.3775 403.8333,813.17 C413.035,813.8362 418.0413,820.5437 412.6033,829.2129 C419.137,839.622 414.5106,846.0356 403.0149,846.367 C398.7378,854.3144 391.1986,853.5609 386.8297,846.4657 C383.4292,853.0376 376.7357,854.7068 371.747,848.3134 C366.6018,855.9524 359.9777,854.5994 356.274,846.8628 C351.4054,856.1563 343.0483,854.4863 338.9129,846.141 C328.3324,842.4287 328.6513,834.3951 336.3721,828.1046 C330.4162,820.8141 331.9302,815.8362 339.8573,811.4511" fill="#FEF3C7" style="stroke:#181818;stroke-width:0.5;"/><text fill="#000000" font-family="Monospace" font-size="14" lengthAdjust="spacing" textLength="50.1058" x="345.47" y="833.2039">success</text></g><!--entity tool_tmux--><g class="entity" data-qualified-name="tool_tmux" data-source-line="29" id="ent0024"><path d="M347.0412,644.8532 C349.0585,638.3673 355.0945,637.8468 359.2198,642.5611 C363.0849,635.9451 367.4054,635.7995 371.8274,642.0139 C376.2311,636.5281 380.0755,636.7449 383.5934,642.9086 C387.8337,637.1587 393.6192,637.2029 396.4693,644.3017 C404.4622,648.1633 405.1831,654.6647 398.6601,660.4906 C405.1722,666.6082 404.291,674.4189 395.6417,677.9092 C393.9197,684.1391 388.6685,686.6423 383.3225,682.025 C382.3312,688.274 377.0275,689.3817 372.6789,685.5806 C366.1395,691.0585 360.7308,689.181 359.1836,680.7403 C353.3936,686.6314 348.5973,685.2432 346.4737,677.3578 C335.8535,675.4828 334.3682,669.3657 340.3649,661.206 C334.4482,652.88 338.2406,647.1707 347.0412,644.8532" fill="#FEF3C7" style="stroke:#181818;stroke-width:0.5;"/><text fill="#000000" font-family="Monospace" font-size="14" lengthAdjust="spacing" textLength="34.2019" x="353.42" y="665.2039">tmux</text></g><!--entity tool_warn--><g class="entity" data-qualified-name="tool_warn" data-source-line="30" id="ent0025"><path d="M347.1282,895.5985 C351.2907,889.7415 356.1007,889.5806 359.9312,895.9462 C363.0276,889.7789 368.4793,888.8574 372.552,894.9404 C375.3744,890.3998 380.4794,889.2072 383.4698,894.7586 C387.5046,889.3141 392.7096,889.7731 395.7504,895.8208 C406.6188,897.9442 406.1695,907.3509 400.1224,913.6275 C406.5748,920.3504 404.1368,926.4418 395.6184,928.6874 C393.7711,934.2743 388.46,935.822 384.1305,931.5921 C381.0995,937.9238 376.4926,938.7408 371.8843,933.2221 C367.8316,938.7837 361.4805,938.8212 358.7165,931.8664 C353.9481,935.8015 349.26,934.2836 347.095,928.6909 C336.7763,928.2708 334.001,919.5091 339.0757,911.7866 C333.2928,903.833 336.3948,895.3363 347.1282,895.5985" fill="#FEF3C7" style="stroke:#181818;stroke-width:0.5;"/><text fill="#000000" font-family="Monospace" font-size="14" lengthAdjust="spacing" textLength="33.2919" x="353.88" y="917.2039">warn</text></g><!--entity tool_xargs--><g class="entity" data-qualified-name="tool_xargs" data-source-line="31" id="ent0026"><path d="M347.3973,56.1046 C350.6292,49.5937 356.1967,49.1248 359.8177,55.7362 C363.3927,50.4195 368.6562,50.1396 372.6095,55.2732 C375.3954,49.8466 380.3347,49.0181 383.5787,54.8259 C388.0449,49.3428 393.8381,49.9985 396.4665,56.7603 C407.7968,56.9242 412.6621,62.6854 407.248,73.5815 C410.2099,83.7938 407.6402,89.4805 396.0039,89.1481 C395.0084,96.1203 389.1747,96.3374 384.8935,92.5368 C383.5265,99.4671 378.2491,101.8544 372.5471,97.1284 C366.7266,102.2565 361.3857,100.3757 359.3112,93.1235 C354.124,97.883 349.7595,96.3378 347.3958,90.0721 C337.1493,88.9593 334.083,80.8738 341.15,73.3098 C333.8442,65.5178 337.7274,57.7325 347.3973,56.1046" fill="#FEF3C7" style="stroke:#181818;stroke-width:0.5;"/><text fill="#000000" font-family="Monospace" font-size="14" lengthAdjust="spacing" textLength="36.3579" x="352.34" y="77.2039">xargs</text></g><g class="entity" data-qualified-name="toolingGraphSummary" data-source-line="65" id="ent0059"><path d="M6,46.0679 L6,91.4799 L213.5112,91.4799 L213.5112,56.0679 L203.5112,46.0679 L6,46.0679" fill="#FEFFDD" style="stroke:#181818;stroke-width:0.5;"/><path d="M203.5112,46.0679 L203.5112,56.0679 L213.5112,56.0679 L203.5112,46.0679" fill="#FEFFDD" style="stroke:#181818;stroke-width:1;"/><text fill="#000000" font-family="Monospace" font-size="13" lengthAdjust="spacing" textLength="186.5112" x="12" y="64.9649">Scanned&#160;4&#160;tooling&#160;entrypoints.</text><text fill="#000000" font-family="Monospace" font-size="13" lengthAdjust="spacing" textLength="179.2182" x="12" y="82.6709">Detected&#160;21&#160;third-party&#160;tools.</text></g><!--link source_github_workflows_ci_yml to tool_actions_checkout--><g class="link" data-entity-1="ent0002" data-entity-2="ent0006" data-link-type="dependency" data-source-line="32" id="lnk27"><path d="M201.33,163.9479 C233.46,163.9479 263.07,163.9479 293.29,163.9479" fill="none" id="source_github_workflows_ci_yml-to-tool_actions_checkout" style="stroke:#181818;stroke-width:1;"/><polygon fill="#181818" points="299.29,163.9479,290.29,159.9479,294.29,163.9479,290.29,167.9479,299.29,163.9479" style="stroke:#181818;stroke-width:1;"/></g><!--link source_github_workflows_ci_yml to tool_apt_get--><g class="link" data-entity-1="ent0002" data-entity-2="ent0007" data-link-type="dependency" data-source-line="33" id="lnk28"><path d="M188.53,185.3079 C188.53,206.5979 188.53,231.5979 188.53,231.5979 C188.53,231.5979 272.01,231.5979 325.48,231.5979" fill="none" id="source_github_workflows_ci_yml-to-tool_apt_get" style="stroke:#181818;stroke-width:1;"/><polygon fill="#181818" points="331.48,231.5979,322.48,227.5979,326.48,231.5979,322.48,235.5979,331.48,231.5979" style="stroke:#181818;stroke-width:1;"/></g><!--link source_github_workflows_ci_yml to tool_xargs--><g class="link" data-entity-1="ent0002" data-entity-2="ent0026" data-link-type="dependency" data-source-line="34" id="lnk29"><path d="M201.43,147.5979 C234.36,147.5979 263.53,147.5979 263.53,147.5979 C263.53,147.5979 263.53,69.3579 263.53,69.3579 C263.53,69.3579 299.59,69.3579 330.96,69.3579" fill="none" id="source_github_workflows_ci_yml-to-tool_xargs" style="stroke:#181818;stroke-width:1;"/><polygon fill="#181818" points="336.96,69.3579,327.96,65.3579,331.96,69.3579,327.96,73.3579,336.96,69.3579" style="stroke:#181818;stroke-width:1;"/></g><!--link source_install_sh to tool_apt_get--><g class="link" data-entity-1="ent0003" data-entity-2="ent0007" data-link-type="dependency" data-source-line="35" id="lnk30"><path d="M69.53,588.4479 C69.53,500.9779 69.53,247.9479 69.53,247.9479 C69.53,247.9479 244.04,247.9479 325.48,247.9479" fill="none" id="source_install_sh-to-tool_apt_get" style="stroke:#181818;stroke-width:1;"/><polygon fill="#181818" points="331.48,247.9479,322.48,243.9479,326.48,247.9479,322.48,251.9479,331.48,247.9479" style="stroke:#181818;stroke-width:1;"/></g><!--link source_install_sh to tool_bash--><g class="link" data-entity-1="ent0003" data-entity-2="ent0008" data-link-type="dependency" data-source-line="36" id="lnk31"><path d="M176.91,594.5079 C229.12,594.5079 293.19,594.5079 333.13,594.5079" fill="none" id="source_install_sh-to-tool_bash" style="stroke:#181818;stroke-width:1;"/><polygon fill="#181818" points="339.13,594.5079,330.13,590.5079,334.13,594.5079,330.13,598.5079,339.13,594.5079" style="stroke:#181818;stroke-width:1;"/></g><!--link source_install_sh to tool_cp--><g class="link" data-entity-1="ent0003" data-entity-2="ent0011" data-link-type="dependency" data-source-line="37" id="lnk32"><path d="M96.53,588.2379 C96.53,513.6879 96.53,323.7779 96.53,323.7779 C96.53,323.7779 275.78,323.7779 341.63,323.7779" fill="none" id="source_install_sh-to-tool_cp" style="stroke:#181818;stroke-width:1;"/><polygon fill="#181818" points="347.63,323.7779,338.63,319.7779,342.63,323.7779,338.63,327.7779,347.63,323.7779" style="stroke:#181818;stroke-width:1;"/></g><!--link source_install_sh to tool_die--><g class="link" data-entity-1="ent0003" data-entity-2="ent0014" data-link-type="dependency" data-source-line="38" id="lnk33"><path d="M176.72,642.9779 C205.88,642.9779 233.53,642.9779 233.53,642.9779 C233.53,642.9779 233.53,1235.5079 233.53,1235.5079 C233.53,1235.5079 299.46,1235.5079 339.08,1235.5079" fill="none" id="source_install_sh-to-tool_die" style="stroke:#181818;stroke-width:1;"/><polygon fill="#181818" points="345.08,1235.5079,336.08,1231.5079,340.08,1235.5079,336.08,1239.5079,345.08,1235.5079" style="stroke:#181818;stroke-width:1;"/></g><!--link source_install_sh to tool_git--><g class="link" data-entity-1="ent0003" data-entity-2="ent0015" data-link-type="dependency" data-source-line="39" id="lnk34"><path d="M123.53,588.5779 C123.53,530.8679 123.53,407.7779 123.53,407.7779 C123.53,407.7779 278.24,407.7779 340.39,407.7779" fill="none" id="source_install_sh-to-tool_git" style="stroke:#181818;stroke-width:1;"/><polygon fill="#181818" points="346.39,407.7779,337.39,403.7779,341.39,407.7779,337.39,411.7779,346.39,407.7779" style="stroke:#181818;stroke-width:1;"/></g><!--link source_install_sh to tool_grep--><g class="link" data-entity-1="ent0003" data-entity-2="ent0016" data-link-type="dependency" data-source-line="40" id="lnk35"><path d="M149.53,588.2279 C149.53,550.9879 149.53,491.7779 149.53,491.7779 C149.53,491.7779 273.07,491.7779 333.8,491.7779" fill="none" id="source_install_sh-to-tool_grep" style="stroke:#181818;stroke-width:1;"/><polygon fill="#181818" points="339.8,491.7779,330.8,487.7779,334.8,491.7779,330.8,495.7779,339.8,491.7779" style="stroke:#181818;stroke-width:1;"/></g><!--link source_install_sh to tool_info--><g class="link" data-entity-1="ent0003" data-entity-2="ent0017" data-link-type="dependency" data-source-line="41" id="lnk36"><path d="M141.53,647.0679 C141.53,680.7579 141.53,731.5079 141.53,731.5079 C141.53,731.5079 275.3,731.5079 336.44,731.5079" fill="none" id="source_install_sh-to-tool_info" style="stroke:#181818;stroke-width:1;"/><polygon fill="#181818" points="342.44,731.5079,333.44,727.5079,337.44,731.5079,333.44,735.5079,342.44,731.5079" style="stroke:#181818;stroke-width:1;"/></g><!--link source_install_sh to tool_success--><g class="link" data-entity-1="ent0003" data-entity-2="ent0023" data-link-type="dependency" data-source-line="42" id="lnk37"><path d="M109.53,646.9479 C109.53,701.9479 109.53,815.5079 109.53,815.5079 C109.53,815.5079 250.72,815.5079 324.03,815.5079" fill="none" id="source_install_sh-to-tool_success" style="stroke:#181818;stroke-width:1;"/><polygon fill="#181818" points="330.03,815.5079,321.03,811.5079,325.03,815.5079,321.03,819.5079,330.03,815.5079" style="stroke:#181818;stroke-width:1;"/></g><!--link source_install_sh to tool_tmux--><g class="link" data-entity-1="ent0003" data-entity-2="ent0024" data-link-type="dependency" data-source-line="43" id="lnk38"><path d="M176.91,639.1079 C228.67,639.1079 291.97,639.1079 332.08,639.1079" fill="none" id="source_install_sh-to-tool_tmux" style="stroke:#181818;stroke-width:1;"/><polygon fill="#181818" points="338.08,639.1079,329.08,635.1079,333.08,639.1079,329.08,643.1079,338.08,639.1079" style="stroke:#181818;stroke-width:1;"/></g><!--link source_install_sh to tool_warn--><g class="link" data-entity-1="ent0003" data-entity-2="ent0025" data-link-type="dependency" data-source-line="44" id="lnk39"><path d="M78.53,647.1279 C78.53,719.2879 78.53,899.5079 78.53,899.5079 C78.53,899.5079 256.59,899.5079 332.44,899.5079" fill="none" id="source_install_sh-to-tool_warn" style="stroke:#181818;stroke-width:1;"/><polygon fill="#181818" points="338.44,899.5079,329.44,895.5079,333.44,899.5079,329.44,903.5079,338.44,899.5079" style="stroke:#181818;stroke-width:1;"/></g><!--link source_sessions_sh to tool_declare--><g class="link" data-entity-1="ent0004" data-entity-2="ent0013" data-link-type="dependency" data-source-line="45" id="lnk40"><path d="M172.88,995.7779 C222.17,995.7779 283.12,995.7779 325.06,995.7779" fill="none" id="source_sessions_sh-to-tool_declare" style="stroke:#181818;stroke-width:1;"/><polygon fill="#181818" points="331.06,995.7779,322.06,991.7779,326.06,995.7779,322.06,999.7779,331.06,995.7779" style="stroke:#181818;stroke-width:1;"/></g><!--link source_sessions_sh to tool_die--><g class="link" data-entity-1="ent0004" data-entity-2="ent0014" data-link-type="dependency" data-source-line="46" id="lnk41"><path d="M88.53,1025.1779 C88.53,1091.6479 88.53,1247.7779 88.53,1247.7779 C88.53,1247.7779 269.59,1247.7779 339,1247.7779" fill="none" id="source_sessions_sh-to-tool_die" style="stroke:#181818;stroke-width:1;"/><polygon fill="#181818" points="345,1247.7779,336,1243.7779,340,1247.7779,336,1251.7779,345,1247.7779" style="stroke:#181818;stroke-width:1;"/></g><!--link source_sessions_sh to tool_info--><g class="link" data-entity-1="ent0004" data-entity-2="ent0017" data-link-type="dependency" data-source-line="47" id="lnk42"><path d="M94.53,966.3779 C94.53,899.8979 94.53,743.7779 94.53,743.7779 C94.53,743.7779 265.94,743.7779 336.28,743.7779" fill="none" id="source_sessions_sh-to-tool_info" style="stroke:#181818;stroke-width:1;"/><polygon fill="#181818" points="342.28,743.7779,333.28,739.7779,337.28,743.7779,333.28,747.7779,342.28,743.7779" style="stroke:#181818;stroke-width:1;"/></g><!--link source_sessions_sh to tool_mapfile--><g class="link" data-entity-1="ent0004" data-entity-2="ent0019" data-link-type="dependency" data-source-line="48" id="lnk43"><path d="M151.53,1025.1579 C151.53,1049.3779 151.53,1079.7779 151.53,1079.7779 C151.53,1079.7779 261.14,1079.7779 324.36,1079.7779" fill="none" id="source_sessions_sh-to-tool_mapfile" style="stroke:#181818;stroke-width:1;"/><polygon fill="#181818" points="330.36,1079.7779,321.36,1075.7779,325.36,1079.7779,321.36,1083.7779,330.36,1079.7779" style="stroke:#181818;stroke-width:1;"/></g><!--link source_sessions_sh to tool_mkdir--><g class="link" data-entity-1="ent0004" data-entity-2="ent0020" data-link-type="dependency" data-source-line="49" id="lnk44"><path d="M67.53,1025.0779 C67.53,1105.8879 67.53,1325.9779 67.53,1325.9779 C67.53,1325.9779 250.18,1325.9779 329.77,1325.9779" fill="none" id="source_sessions_sh-to-tool_mkdir" style="stroke:#181818;stroke-width:1;"/><polygon fill="#181818" points="335.77,1325.9779,326.77,1321.9779,330.77,1325.9779,326.77,1329.9779,335.77,1325.9779" style="stroke:#181818;stroke-width:1;"/></g><!--link source_sessions_sh to tool_mv--><g class="link" data-entity-1="ent0004" data-entity-2="ent0021" data-link-type="dependency" data-source-line="50" id="lnk45"><path d="M109.53,1025.0379 C109.53,1073.1679 109.53,1163.7779 109.53,1163.7779 C109.53,1163.7779 273.35,1163.7779 339.02,1163.7779" fill="none" id="source_sessions_sh-to-tool_mv" style="stroke:#181818;stroke-width:1;"/><polygon fill="#181818" points="345.02,1163.7779,336.02,1159.7779,340.02,1163.7779,336.02,1167.7779,345.02,1163.7779" style="stroke:#181818;stroke-width:1;"/></g><!--link source_sessions_sh to tool_success--><g class="link" data-entity-1="ent0004" data-entity-2="ent0023" data-link-type="dependency" data-source-line="51" id="lnk46"><path d="M125.53,966.5079 C125.53,918.3779 125.53,827.7779 125.53,827.7779 C125.53,827.7779 254.48,827.7779 324.07,827.7779" fill="none" id="source_sessions_sh-to-tool_success" style="stroke:#181818;stroke-width:1;"/><polygon fill="#181818" points="330.07,827.7779,321.07,823.7779,325.07,827.7779,321.07,831.7779,330.07,827.7779" style="stroke:#181818;stroke-width:1;"/></g><!--link source_sessions_sh to tool_tmux--><g class="link" data-entity-1="ent0004" data-entity-2="ent0024" data-link-type="dependency" data-source-line="52" id="lnk47"><path d="M62.53,966.4679 C62.53,885.6579 62.53,665.5779 62.53,665.5779 C62.53,665.5779 253.07,665.5779 332.14,665.5779" fill="none" id="source_sessions_sh-to-tool_tmux" style="stroke:#181818;stroke-width:1;"/><polygon fill="#181818" points="338.14,665.5779,329.14,661.5779,333.14,665.5779,329.14,669.5779,338.14,665.5779" style="stroke:#181818;stroke-width:1;"/></g><!--link source_sessions_sh to tool_warn--><g class="link" data-entity-1="ent0004" data-entity-2="ent0025" data-link-type="dependency" data-source-line="53" id="lnk48"><path d="M156.53,966.3979 C156.53,942.1679 156.53,911.7779 156.53,911.7779 C156.53,911.7779 272.79,911.7779 332.49,911.7779" fill="none" id="source_sessions_sh-to-tool_warn" style="stroke:#181818;stroke-width:1;"/><polygon fill="#181818" points="338.49,911.7779,329.49,907.7779,333.49,911.7779,329.49,915.7779,338.49,911.7779" style="stroke:#181818;stroke-width:1;"/></g><!--link source_setup_sh to tool_cat--><g class="link" data-entity-1="ent0005" data-entity-2="ent0009" data-link-type="dependency" data-source-line="54" id="lnk49"><path d="M109.53,1403.3079 C109.53,1477.8679 109.53,1667.7779 109.53,1667.7779 C109.53,1667.7779 274.17,1667.7779 339.5,1667.7779" fill="none" id="source_setup_sh-to-tool_cat" style="stroke:#181818;stroke-width:1;"/><polygon fill="#181818" points="345.5,1667.7779,336.5,1663.7779,340.5,1667.7779,336.5,1671.7779,345.5,1667.7779" style="stroke:#181818;stroke-width:1;"/></g><!--link source_setup_sh to tool_chmod--><g class="link" data-entity-1="ent0005" data-entity-2="ent0010" data-link-type="dependency" data-source-line="55" id="lnk50"><path d="M76.53,1403.1179 C76.53,1491.9379 76.53,1751.7779 76.53,1751.7779 C76.53,1751.7779 246.84,1751.7779 326.39,1751.7779" fill="none" id="source_setup_sh-to-tool_chmod" style="stroke:#181818;stroke-width:1;"/><polygon fill="#181818" points="332.39,1751.7779,323.39,1747.7779,327.39,1751.7779,323.39,1755.7779,332.39,1751.7779" style="stroke:#181818;stroke-width:1;"/></g><!--link source_setup_sh to tool_curl--><g class="link" data-entity-1="ent0005" data-entity-2="ent0012" data-link-type="dependency" data-source-line="56" id="lnk51"><path d="M176.91,1395.1079 C230.78,1395.1079 297.66,1395.1079 336.85,1395.1079" fill="none" id="source_setup_sh-to-tool_curl" style="stroke:#181818;stroke-width:1;"/><polygon fill="#181818" points="342.85,1395.1079,333.85,1391.1079,337.85,1395.1079,333.85,1399.1079,342.85,1395.1079" style="stroke:#181818;stroke-width:1;"/></g><!--link source_setup_sh to tool_die--><g class="link" data-entity-1="ent0005" data-entity-2="ent0014" data-link-type="dependency" data-source-line="57" id="lnk52"><path d="M130.53,1344.4879 C130.53,1310.7879 130.53,1260.0379 130.53,1260.0379 C130.53,1260.0379 277.68,1260.0379 339.29,1260.0379" fill="none" id="source_setup_sh-to-tool_die" style="stroke:#181818;stroke-width:1;"/><polygon fill="#181818" points="345.29,1260.0379,336.29,1256.0379,340.29,1260.0379,336.29,1264.0379,345.29,1260.0379" style="stroke:#181818;stroke-width:1;"/></g><!--link source_setup_sh to tool_info--><g class="link" data-entity-1="ent0005" data-entity-2="ent0017" data-link-type="dependency" data-source-line="58" id="lnk53"><path d="M176.6,1347.0279 C201.37,1347.0279 223.53,1347.0279 223.53,1347.0279 C223.53,1347.0279 223.53,756.0379 223.53,756.0379 C223.53,756.0379 293.88,756.0379 336.53,756.0379" fill="none" id="source_setup_sh-to-tool_info" style="stroke:#181818;stroke-width:1;"/><polygon fill="#181818" points="342.53,756.0379,333.53,752.0379,337.53,756.0379,333.53,760.0379,342.53,756.0379" style="stroke:#181818;stroke-width:1;"/></g><!--link source_setup_sh to tool_java--><g class="link" data-entity-1="ent0005" data-entity-2="ent0018" data-link-type="dependency" data-source-line="59" id="lnk54"><path d="M143.53,1403.3179 C143.53,1440.5579 143.53,1499.7779 143.53,1499.7779 C143.53,1499.7779 275.39,1499.7779 336.23,1499.7779" fill="none" id="source_setup_sh-to-tool_java" style="stroke:#181818;stroke-width:1;"/><polygon fill="#181818" points="342.23,1499.7779,333.23,1495.7779,337.23,1499.7779,333.23,1503.7779,342.23,1499.7779" style="stroke:#181818;stroke-width:1;"/></g><!--link source_setup_sh to tool_mkdir--><g class="link" data-entity-1="ent0005" data-entity-2="ent0020" data-link-type="dependency" data-source-line="60" id="lnk55"><path d="M176.91,1353.9879 C227.76,1353.9879 289.55,1353.9879 329.95,1353.9879" fill="none" id="source_setup_sh-to-tool_mkdir" style="stroke:#181818;stroke-width:1;"/><polygon fill="#181818" points="335.95,1353.9879,326.95,1349.9879,330.95,1353.9879,326.95,1357.9879,335.95,1353.9879" style="stroke:#181818;stroke-width:1;"/></g><!--link source_setup_sh to tool_repo_architecture_drawio--><g class="link" data-entity-1="ent0005" data-entity-2="ent0022" data-link-type="dependency" data-source-line="61" id="lnk56"><path d="M176.84,1398.9779 C226.85,1398.9779 286.53,1398.9779 286.53,1398.9779 C286.53,1398.9779 286.53,1502.4079 286.53,1552.8479" fill="none" id="source_setup_sh-to-tool_repo_architecture_drawio" style="stroke:#181818;stroke-width:1;"/><polygon fill="#181818" points="286.53,1558.8479,290.53,1549.8479,286.53,1553.8479,282.53,1549.8479,286.53,1558.8479" style="stroke:#181818;stroke-width:1;"/></g><!--link source_setup_sh to tool_success--><g class="link" data-entity-1="ent0005" data-entity-2="ent0023" data-link-type="dependency" data-source-line="62" id="lnk57"><path d="M176.65,1349.3479 C210.09,1349.3479 243.53,1349.3479 243.53,1349.3479 C243.53,1349.3479 243.53,840.0379 243.53,840.0379 C243.53,840.0379 286.83,840.0379 323.99,840.0379" fill="none" id="source_setup_sh-to-tool_success" style="stroke:#181818;stroke-width:1;"/><polygon fill="#181818" points="329.99,840.0379,320.99,836.0379,324.99,840.0379,320.99,844.0379,329.99,840.0379" style="stroke:#181818;stroke-width:1;"/></g><!--link source_setup_sh to tool_warn--><g class="link" data-entity-1="ent0005" data-entity-2="ent0025" data-link-type="dependency" data-source-line="63" id="lnk58"><path d="M176.59,1351.6679 C214.14,1351.6679 253.53,1351.6679 253.53,1351.6679 C253.53,1351.6679 253.53,924.0379 253.53,924.0379 C253.53,924.0379 297.92,924.0379 332.56,924.0379" fill="none" id="source_setup_sh-to-tool_warn" style="stroke:#181818;stroke-width:1;"/><polygon fill="#181818" points="338.56,924.0379,329.56,920.0379,333.56,924.0379,329.56,928.0379,338.56,924.0379" style="stroke:#181818;stroke-width:1;"/></g><?plantuml-src ZPPDaziW38Rl_XLCzfpiLsSwlVIoJJezj9Vqk3CUBSOs3GO6v6JzxmkE4nDiitiKxoDPo4A070KZo4p39HSSE_9NAS5bHNv9P9K1v4hQJB0I2IfYU5KZARXXr0kPFN2fmK13R0s5Edd74eHbWLAm4bg1EoNn3pIC_5PIMGqqPAXgj99CuXuxbuyF3x8I8UAIOjXfHfJ1McLNXAms5SUwVRi_ANCeXJhPUyetNIDUvRFxE3gG5Ivv9UoAW2LMjOQo_EoKNvroodFdHEws3xkdtJRy09SMGOYDhL_buqCYvW3cjfuBOvcrlffzd6-9C1TmCGws-kDaUYmCGOLg2xA2_jUv8jMC7bIBlO_tpWSbloZaRhVTFRzylNfgN5SiTD2OkuMOUmDRZv2tOe924CKP4xrkL14GtfmmEW3qH6sD27HdnKJ1g033HcXOc70yPFX4TuqqwiwOw8O5cNeh9hWirKXuAoR-mH56mbinqO0kkGWo7HOctC6Tte3oveGv1i0nLjq6r1eChRdllDQmJM7Wn8CTU28FYVnCn95iIwbhzT5nM8WvRDht4V9MJ9p0o97mLaoyWwc2B_NcbVbW9ApNt-SFoESTpmVbqtoVNZQTAai1vn1_xb8wrIdLDNfATZj8ogu5KhhlyPG-D48AyMsGqdqJP3C3TTpX-RYd6PxMmttC0iCfJ3F-3AQ9OrAEgZNBXEMQ1MxhDLmTOxC09aG_dXEo6xxBwas9O_6slh7gv-2o6fKrbfU6rBB7fCmnq9TGAcINCUEUGpyDw7hVDWsOBjjJaDBTrLykAd5F7jDfnINQJVRZSfS_FHAikIdMxkdZdcJzrRx9c2o8Z_uV?></g></svg>
