<?plantuml 1.2026.2?><svg xmlns="http://www.w3.org/2000/svg" xmlns:xlink="http://www.w3.org/1999/xlink" contentStyleType="text/css" data-diagram-type="DESCRIPTION" height="1786px" preserveAspectRatio="none" style="width:573px;height:1786px;background:#FFFFFF;" version="1.1" viewBox="0 0 573 1786" width="573px" zoomAndPan="magnify"><title>terminility Tooling Integrations</title><defs/><g><g class="title" data-source-line="1"><text fill="#000000" font-family="Monospace" font-size="14" font-weight="bold" lengthAdjust="spacing" textLength="217.8182" x="171.0144" y="24.9659">terminility&#160;Tooling&#160;Integrations</text></g><!--entity source_github_workflows_ci_yml--><g class="entity" data-qualified-name="source_github_workflows_ci_yml" data-source-line="7" id="ent0002"><rect fill="#E0F2FE" height="39.0679" rx="2.5" ry="2.5" style="stroke:#181818;stroke-width:0.5;" width="301.8189" x="7" y="133.2878"/><text fill="#000000" font-family="Monospace" font-size="14" lengthAdjust="spacing" textLength="281.8189" x="17" y="158.2537">.github/workflows/ci.yml\n3&#160;detected&#160;tools</text></g><!--entity source_install_sh--><g class="entity" data-qualified-name="source_install_sh" data-source-line="8" id="ent0003"><rect fill="#E0F2FE" height="39.0679" rx="2.5" ry="2.5" style="stroke:#181818;stroke-width:0.5;" width="205.4153" x="55.2" y="595.2878"/><text fill="#000000" font-family="Monospace" font-size="14" lengthAdjust="spacing" textLength="185.4153" x="65.2" y="620.2537">install.sh\n10&#160;detected&#160;tools</text></g><!--entity source_sessions_sh--><g class="entity" data-qualified-name="source_sessions_sh" data-source-line="9" id="ent0004"><rect fill="#E0F2FE" height="39.0679" rx="2.5" ry="2.5" style="stroke:#181818;stroke-width:0.5;" width="213.7593" x="51.03" y="973.2878"/><text fill="#000000" font-family="Monospace" font-size="14" lengthAdjust="spacing" textLength="193.7593" x="61.03" y="998.2537">sessions.sh\n9&#160;detected&#160;tools</text></g><!--entity source_setup_sh--><g class="entity" data-qualified-name="source_setup_sh" data-source-line="10" id="ent0005"><rect fill="#E0F2FE" height="39.0679" rx="2.5" ry="2.5" style="stroke:#181818;stroke-width:0.5;" width="203.2313" x="56.29" y="1351.2878"/><text fill="#000000" font-family="Monospace" font-size="14" lengthAdjust="spacing" textLength="183.2313" x="66.29" y="1376.2537">setup.sh\n10&#160;detected&#160;tools</text></g><!--entity tool_actions_checkout--><g class="entity" data-qualified-name="tool_actions_checkout" data-source-line="11" id="ent0006"><path d="M404.3021,136.6535 C408.1539,130.4944 412.8965,130.635 416.626,136.776 C419.9317,130.0131 424.9334,131.262 428.972,135.9885 C433.5923,128.8411 437.8529,128.966 442.4939,135.9688 C446.7687,129.6854 450.6013,130.6734 454.6973,136.1543 C458.0288,131.4684 463.2424,131.6221 466.0226,136.7881 C468.7208,131.1304 474.9873,130.6385 478.5645,135.7659 C482.6441,129.7286 487.9419,129.7882 492.315,135.4201 C497.4896,129.9846 502.2512,130.4846 505.1016,137.7584 C508.0726,131.6343 513.5529,131.7184 516.5915,137.6941 C520.5603,131.8606 524.9444,132.6176 528.9544,137.6472 C538.6357,140.0568 539.9459,146.2166 534.9482,154.0049 C540.3931,162.462 538.928,167.5653 528.9847,170.4383 C526.7371,176.1097 521.3773,176.581 518.2014,171.3571 C514.6144,177.8674 508.4523,178.4567 503.8611,172.5135 C501.1276,178.4159 497.1571,180.0313 491.9271,175.3207 C488.6462,181.8246 484.1501,181.6486 480.0701,176.1072 C477.5417,183.5463 471.0243,184.0133 467.016,177.4909 C462.1127,183.8888 456.6536,181.813 454.1665,175.1193 C450.2306,181.8973 444.3089,181.7419 440.7381,174.7629 C436.2034,180.2813 431.5151,178.8027 428.8415,172.8353 C424.9643,177.9529 419.6053,177.5749 417.0614,171.4397 C412.6005,176.9027 406.3786,177.6385 403.1171,170.1485 C396.0191,166.097 394.6177,158.1141 403.1987,154.1425 C394.9564,148.1144 395.9035,141.6317 404.3021,136.6535" fill="#FEF3C7" style="stroke:#181818;stroke-width:0.5;"/><text fill="#000000" font-family="Monospace" font-size="14" lengthAdjust="spacing" textLength="111.9156" x="409.87" y="158.2537">actions/checkout</text></g><!--entity tool_apt_get--><g class="entity" data-qualified-name="tool_apt_get" data-source-line="12" id="ent0007"><path d="M436.8003,221.7556 C440.3183,215.4308 447.2757,215.2351 451.4559,220.9495 C455.1491,213.6292 461.1303,212.855 466.6076,218.9318 C472.039,212.0269 479.967,212.2712 482.8112,221.526 C486.4293,214.9828 493.6287,213.4948 498.1522,220.5008 C508.9269,221.5993 512.9452,227.1572 506.941,237.1259 C511.8688,246.7649 507.7656,254.3541 496.6382,254.4387 C494.4507,262.1635 488.2199,263.5598 482.6792,257.9485 C480.423,266.2075 475.1074,268.0568 467.8566,263.9217 C460.1816,269.781 453.8258,268.9768 450.7136,258.9865 C443.7379,265.5808 437.0748,262.1487 435.3216,253.6578 C428.3924,248.7297 426.795,244.1216 434.6913,238.574 C427.9973,232.5058 428.9743,226.003 436.8003,221.7556" fill="#FEF3C7" style="stroke:#181818;stroke-width:0.5;"/><text fill="#000000" font-family="Monospace" font-size="14" lengthAdjust="spacing" textLength="47.5858" x="442.04" y="242.2537">apt-get</text></g><!--entity tool_bash--><g class="entity" data-qualified-name="tool_bash" data-source-line="13" id="ent0008"><path d="M443.9142,556.9577 C446.8781,551.4048 451.1315,550.8752 454.6458,556.4258 C456.9561,551.0307 462.0141,548.7646 466.4177,554.1372 C470.8865,549.7662 475.5264,549.7982 478.2095,556.1085 C482.4285,550.4352 488.208,551.9955 490.8582,557.8326 C500.1466,562.5106 500.4393,567.7306 493.0679,574.6036 C499.4369,580.4487 496.7555,587.4832 489.3351,589.981 C487.6829,595.0054 483.6935,597.2643 479.207,593.1077 C475.8673,600.0634 471.086,600.7451 466.5885,594.189 C462.1871,598.2262 458.5298,598.8188 455.7881,592.4641 C451.5625,597.6455 447.7819,597.186 445.0124,591.0746 C435.5551,588.9023 433.1653,581.0668 438.6141,573.4754 C431.871,566.426 435.3012,559.0797 443.9142,556.9577" fill="#FEF3C7" style="stroke:#181818;stroke-width:0.5;"/><text fill="#000000" font-family="Monospace" font-size="14" lengthAdjust="spacing" textLength="31.8219" x="449.92" y="578.2537">bash</text></g><!--entity tool_cat--><g class="entity" data-qualified-name="tool_cat" data-source-line="14" id="ent0009"><path d="M449.9382,1649.3018 C453.8219,1639.1919 460.6892,1639.5968 467.4521,1646.3031 C474.9359,1639.6108 479.2946,1642.4703 482.9038,1650.3982 C491.5192,1653.5509 492.0073,1659.0431 486.7019,1665.6602 C492.6494,1671.8172 492.2712,1679.7144 482.8211,1682.275 C480.4983,1692.0907 473.2167,1693.09 465.8582,1688.0094 C458.0432,1694.1012 452.7919,1691.3762 450.3827,1682.442 C439.6225,1681.1925 438.2103,1675.7464 442.8337,1666.9841 C437.124,1658.9134 438.6707,1650.5513 449.9382,1649.3018" fill="#FEF3C7" style="stroke:#181818;stroke-width:0.5;"/><text fill="#000000" font-family="Monospace" font-size="14" lengthAdjust="spacing" textLength="19.6279" x="456.02" y="1670.2537">cat</text></g><!--entity tool_chmod--><g class="entity" data-qualified-name="tool_chmod" data-source-line="15" id="ent0010"><path d="M437.7823,1732.8277 C442.028,1725.9228 448.0693,1726.2693 452.6388,1732.4604 C456.9793,1725.7209 461.8493,1726.3054 466.5234,1732.0906 C472.1784,1725.1397 477.7201,1724.7982 482.8919,1732.6259 C488.4156,1725.536 493.5256,1726.8658 497.7149,1734.015 C507.5694,1735.3845 510.0128,1740.3517 506.3906,1749.3471 C510.4046,1758.1211 507.0023,1766.5102 495.9744,1765.7074 C493.0104,1773.9817 487.4132,1773.7838 481.7491,1768.5511 C478.4486,1775.7447 473.9026,1778.5385 467.457,1771.7707 C462.0025,1779.2924 455.1875,1779.287 451.4251,1770.143 C445.3048,1776.2156 439.1566,1774.7438 437.3093,1766.0564 C429.4888,1763.4453 428.5556,1756.3458 434.016,1750.8571 C427.76,1744.737 428.9811,1735.8024 437.7823,1732.8277" fill="#FEF3C7" style="stroke:#181818;stroke-width:0.5;"/><text fill="#000000" font-family="Monospace" font-size="14" lengthAdjust="spacing" textLength="45.5418" x="443.06" y="1754.2537">chmod</text></g><!--entity tool_cp--><g class="entity" data-qualified-name="tool_cp" data-source-line="16" id="ent0011"><path d="M451.5322,305.2322 C454.9114,296.6327 461.7968,296.2929 467.2415,303.1302 C472.2242,296.6156 478.938,298.232 481.1924,305.8276 C489.4003,309.6498 490.0538,315.8572 482.9457,321.4035 C489.6878,327.6398 490.0958,334.1805 480.9402,338.5583 C480.0366,347.1064 475.2132,350.2607 467.0271,347.5889 C456.875,353.0618 452.0323,348.6338 451.5454,338.1886 C441.6819,334.5342 442.0894,327.3652 448.9654,321.1727 C443.3739,315.2021 442.2332,308.805 451.5322,305.2322" fill="#FEF3C7" style="stroke:#181818;stroke-width:0.5;"/><text fill="#000000" font-family="Monospace" font-size="14" lengthAdjust="spacing" textLength="15.3299" x="458.17" y="326.2537">cp</text></g><!--entity tool_curl--><g class="entity" data-qualified-name="tool_curl" data-source-line="17" id="ent0012"><path d="M447.0332,1396.9751 C451.9953,1387.4138 461.5439,1386.6754 467.2562,1396.1794 C474.184,1388.3223 479.9774,1388.3467 485.2354,1397.9034 C495.791,1398.5532 498.0417,1405.147 493.2255,1413.6143 C498.0033,1422.4439 494.6004,1427.4084 485.5939,1429.6971 C480.3299,1439.8242 474.532,1440.5258 466.7729,1432.2486 C460.0221,1439.9905 451.5894,1440.8239 447.3221,1429.6896 C438.3182,1428.3817 435.5961,1421.4237 441.839,1414.5821 C434.519,1407.351 438.2846,1399.4659 447.0332,1396.9751" fill="#FEF3C7" style="stroke:#181818;stroke-width:0.5;"/><text fill="#000000" font-family="Monospace" font-size="14" lengthAdjust="spacing" textLength="24.7659" x="453.45" y="1418.2537">curl</text></g><!--entity tool_declare--><g class="entity" data-qualified-name="tool_declare" data-source-line="18" id="ent0013"><path d="M436.7833,976.8103 C440.543,970.3324 445.8565,968.9321 450.7829,975.5644 C456.3668,968.4283 460.9029,969.2734 465.89,976.2053 C471.1377,966.6329 476.8873,966.9554 482.9103,975.476 C487.5604,969.2198 495.5882,968.2031 498.815,976.9817 C510.3479,976.8434 512.5394,985.9076 507.6228,994.1891 C513.0296,1002.8493 507.9628,1009.2092 498.8055,1009.4606 C495.1033,1018.2868 488.0228,1019.7978 481.8467,1011.9814 C479.2159,1019.88 472.4573,1022.3963 466.4582,1015.4802 C461.5666,1022.6087 454.2812,1021.853 451.2192,1013.6604 C444.8365,1020.9173 438.0036,1018.5979 434.7703,1010.3247 C424.3041,1008.9452 421.9947,1002.3247 427.2505,993.7934 C422.2583,985.0848 426.6089,977.0058 436.7833,976.8103" fill="#FEF3C7" style="stroke:#181818;stroke-width:0.5;"/><text fill="#000000" font-family="Monospace" font-size="14" lengthAdjust="spacing" textLength="48.3698" x="441.65" y="998.2537">declare</text></g><!--entity tool_die--><g class="entity" data-qualified-name="tool_die" data-source-line="19" id="ent0014"><path d="M450.0612,1228.3565 C454.3048,1220.8791 461.6143,1219.4356 466.9681,1227.1184 C474.2604,1219.1879 480.2436,1221.1188 484.4165,1230.2992 C493.7879,1231.5513 497.8479,1236.4439 493.013,1245.651 C499.1038,1255.3778 493.4304,1261.8019 483.5421,1262.5994 C480.7492,1272.4035 475.1811,1274.7612 466.9163,1268.1373 C458.6986,1275.0729 451.0443,1271.1871 449.1546,1261.4115 C441.342,1257.1329 438.91,1252.5107 446.4187,1245.5837 C439.3508,1238.3657 440.2357,1232.0026 450.0612,1228.3565" fill="#FEF3C7" style="stroke:#181818;stroke-width:0.5;"/><text fill="#000000" font-family="Monospace" font-size="14" lengthAdjust="spacing" textLength="20.1179" x="455.77" y="1250.2537">die</text></g><!--entity tool_git--><g class="entity" data-qualified-name="tool_git" data-source-line="20" id="ent0015"><path d="M452.0062,388.9228 C456.2891,382.7121 460.5358,380.489 465.9925,387.6997 C471.9798,379.8732 478.0177,382.9416 481.8129,390.0255 C491.0757,391.3998 494.838,396.8174 489.3694,405.4218 C496.4115,413.5236 493.3248,420.3104 483.1443,421.9095 C482.8098,432.6232 474.916,435.0566 467.0938,429.1332 C458.7735,434.088 451.9947,432.8336 450.3217,422.0496 C441.7702,419.8115 438.8112,412.9909 444.7153,405.7735 C439.2914,396.694 442.3803,391.4907 452.0062,388.9228" fill="#FEF3C7" style="stroke:#181818;stroke-width:0.5;"/><text fill="#000000" font-family="Monospace" font-size="14" lengthAdjust="spacing" textLength="17.2759" x="457.19" y="410.2537">git</text></g><!--entity tool_grep--><g class="entity" data-qualified-name="tool_grep" data-source-line="21" id="ent0016"><path d="M444.7092,473.2844 C447.386,468.876 451.9081,467.7352 455.0697,472.7515 C458.3003,465.7759 462.2501,464.8613 467.8139,470.3696 C470.9521,465.6054 476.2002,466.7746 478.4712,471.3584 C482.8509,467.3941 486.7113,468.0766 489.0498,473.6277 C498.9674,476.3986 498.8625,482.7751 493.3652,489.6879 C500.1846,497.5668 497.3441,502.7662 488.8045,506.4715 C486.6451,512.623 483.088,514.442 477.5264,510.1432 C475.7457,515.0251 470.9478,517.0726 466.9885,512.5965 C461.0888,516.1655 457.0993,515.4527 454.7192,508.4944 C450.786,513.0582 445.6425,511.2467 444.0788,505.9401 C434.364,503.8186 431.7777,496.0803 439.128,488.9779 C433.3833,482.0508 435.8403,475.0144 444.7092,473.2844" fill="#FEF3C7" style="stroke:#181818;stroke-width:0.5;"/><text fill="#000000" font-family="Monospace" font-size="14" lengthAdjust="spacing" textLength="30.8979" x="450.38" y="494.2537">grep</text></g><!--entity tool_info--><g class="entity" data-qualified-name="tool_info" data-source-line="22" id="ent0017"><path d="M447.7242,725.6111 C451.6728,716.3782 460.8972,714.7109 466.4951,723.9336 C473.6142,714.7112 481.393,715.4083 486.2112,726.2003 C496.5044,727.5288 497.207,733.9354 493.0061,741.6418 C499.1852,749.677 497.1372,756.8923 486.745,758.9238 C485.5563,769.9292 476.3236,773.2446 467.9854,766.4651 C457.5172,773.6268 450.9543,769.925 447.6664,758.5811 C439.1849,755.6497 438.5864,747.4999 445.3438,742.3833 C437.2435,736.8746 439.0334,728.7367 447.7242,725.6111" fill="#FEF3C7" style="stroke:#181818;stroke-width:0.5;"/><text fill="#000000" font-family="Monospace" font-size="14" lengthAdjust="spacing" textLength="25.5499" x="453.06" y="746.2537">info</text></g><!--entity tool_java--><g class="entity" data-qualified-name="tool_java" data-source-line="23" id="ent0018"><path d="M447.6472,1480.6658 C452.4778,1470.4901 459.2295,1471.8386 466.0071,1478.5489 C473.9384,1468.7806 483.1805,1472.1604 487.916,1482.1013 C496.1456,1485.645 497.2639,1491.4301 490.7092,1497.6327 C497.0194,1504.3263 495.8798,1511.0717 487.658,1515.2482 C485.2481,1527.4705 475.9183,1529.2734 466.8396,1522.5929 C456.8109,1529.627 448.3038,1524.6591 446.2383,1513.5506 C437.3434,1509.1441 437.8023,1501.0804 446.5288,1496.9829 C440.1531,1491.7671 439.8005,1484.9069 447.6472,1480.6658" fill="#FEF3C7" style="stroke:#181818;stroke-width:0.5;"/><text fill="#000000" font-family="Monospace" font-size="14" lengthAdjust="spacing" textLength="26.4319" x="452.61" y="1502.2537">java</text></g><!--entity tool_mapfile--><g class="entity" data-qualified-name="tool_mapfile" data-source-line="24" id="ent0019"><path d="M435.1043,1061.4463 C439.7622,1052.5345 447.3585,1052.8977 451.9399,1061.5198 C455.8845,1054.2799 461.2131,1054.9481 465.8489,1060.7847 C471.6468,1052.8635 478.0712,1053.8758 483.4871,1061.2259 C488.0448,1053.1943 494.5539,1053.7993 498.5684,1061.7388 C509.4573,1062.2577 511.3631,1068.2287 507.3196,1077.1996 C512.9003,1086.9093 510.28,1093.5785 498.4456,1094.1949 C496.1213,1102.6797 488.3127,1102.9354 483.0181,1097.4827 C479.8465,1107.7298 473.8959,1108.8704 466.2594,1101.8047 C459.9313,1107.9278 455.2087,1107.2086 451.0405,1099.4387 C443.3691,1104.607 437.9329,1104.0988 434.6942,1094.524 C424.9967,1091.4284 422.5798,1085.6889 430.2429,1077.935 C424.6515,1071.1012 424.9664,1063.6426 435.1043,1061.4463" fill="#FEF3C7" style="stroke:#181818;stroke-width:0.5;"/><text fill="#000000" font-family="Monospace" font-size="14" lengthAdjust="spacing" textLength="49.4898" x="441.09" y="1082.2537">mapfile</text></g><!--entity tool_mkdir--><g class="entity" data-qualified-name="tool_mkdir" data-source-line="25" id="ent0020"><path d="M440.8613,1312.8451 C444.6859,1307.0091 450.0133,1307.008 453.3387,1313.3564 C456.8658,1306.4929 462.4326,1306.7705 467.1647,1311.976 C471.1026,1305.9429 475.3504,1306.467 479.6456,1311.5757 C483.9927,1306.2337 489.2454,1305.7912 492.3507,1312.8482 C504.9544,1313.0679 507.4908,1320.2572 503.0945,1330.7051 C507.6829,1339.4583 502.1885,1345.8889 493.2793,1345.9542 C490.3407,1352.2176 486.4679,1354.4711 480.6234,1349.1209 C477.7757,1355.8072 471.5846,1357.4514 466.2639,1352.0612 C460.8332,1356.5791 456.9474,1354.4273 454.875,1348.4255 C449.1931,1355.6475 442.7804,1353.6695 439.7283,1345.7882 C430.3784,1343.7253 426.0033,1339.2296 431.8615,1329.7207 C426.4052,1319.2864 430.6696,1314.9342 440.8613,1312.8451" fill="#FEF3C7" style="stroke:#181818;stroke-width:0.5;"/><text fill="#000000" font-family="Monospace" font-size="14" lengthAdjust="spacing" textLength="38.5699" x="446.55" y="1334.2537">mkdir</text></g><!--entity tool_mv--><g class="entity" data-qualified-name="tool_mv" data-source-line="26" id="ent0021"><path d="M450.0212,1144.3565 C454.2767,1136.8614 461.6045,1135.4156 466.9701,1143.1184 C474.276,1135.1664 480.274,1137.0991 484.4605,1146.2992 C493.8319,1147.5513 497.8919,1152.4439 493.057,1161.651 C499.1478,1171.3778 493.4744,1177.8019 483.5861,1178.5994 C480.7795,1188.4237 475.1969,1190.7825 466.9183,1184.1373 C458.689,1191.0937 451.0159,1187.2059 449.1146,1177.4115 C441.302,1173.1329 438.87,1168.5107 446.3787,1161.5837 C439.3108,1154.3657 440.1957,1148.0026 450.0212,1144.3565" fill="#FEF3C7" style="stroke:#181818;stroke-width:0.5;"/><text fill="#000000" font-family="Monospace" font-size="14" lengthAdjust="spacing" textLength="20.2019" x="455.73" y="1166.2537">mv</text></g><!--entity tool_repo_architecture_drawio--><g class="entity" data-qualified-name="tool_repo_architecture_drawio" data-source-line="27" id="ent0022"><path d="M377.3862,1565.2478 C380.8412,1557.9235 387.1636,1558.427 391.2978,1564.5449 C395.3842,1557.8685 401.1383,1558.7858 404.2387,1565.4978 C407.1974,1559.1195 413.5495,1558.1365 417.3221,1564.6733 C421.3947,1559.2882 425.1037,1559.8944 428.9208,1564.9569 C432.0064,1558.8632 437.4302,1558.1869 442.1182,1563.022 C447.3399,1557.31 451.8196,1557.2585 455.4614,1564.6329 C458.5865,1557.406 463.5943,1557.7601 468.1717,1563.1726 C472.1921,1556.7931 477.3503,1558.0028 480.4067,1564.1167 C484.265,1559.2212 489.2328,1558.2675 492.2343,1564.989 C496.773,1559.1365 501.3153,1558.2603 506.2222,1564.5652 C509.8523,1559.6112 513.42,1559.3495 517.3051,1564.2793 C521.0073,1559.5396 526.9246,1559.8356 529.4161,1565.6664 C533.2045,1559.8805 538.297,1559.6317 542.3964,1565.3143 C545.7189,1559.0606 552.1287,1558.5622 555.8219,1564.9196 C564.3158,1569.2831 566.847,1576.2628 558.0171,1582.7581 C566.3063,1587.4625 565.5579,1594.6142 557.1725,1598.4193 C553.8806,1604.6808 547.2087,1605.1195 543.2135,1599.2271 C540.0344,1605.5704 536.0875,1605.6096 531.1068,1601.2684 C527.0589,1606.8777 522.0405,1607.2707 517.8069,1601.4852 C514.3707,1607.5118 510.5449,1607.1353 506.1927,1602.4811 C502.8699,1609.4891 497.6027,1611.4275 491.7192,1605.3035 C487.93,1612.473 483.4907,1612.7495 478.7675,1606.1844 C474.5233,1612.7527 470.3724,1612.8231 465.9971,1606.3124 C462.2181,1611.3244 457.7225,1612.3958 454.3481,1605.9028 C449.7556,1611.7375 444.2048,1610.7944 441.8631,1603.725 C437.493,1610.3297 431.4091,1609.4682 427.7835,1602.9276 C422.8599,1607.7103 418.4249,1606.9197 415.0722,1601.0526 C411.2551,1606.6167 406.3204,1605.3552 403.8489,1599.7059 C399.8693,1605.5801 394.9043,1606.1115 390.5374,1600.1413 C387.0423,1605.4754 380.593,1605.3787 377.5094,1599.6564 C366.9269,1594.7648 367.3507,1587.4951 376.0635,1581.1 C368.8318,1575.4551 368.5458,1569.5518 377.3862,1565.2478" fill="#FEF3C7" style="stroke:#181818;stroke-width:0.5;"/><text fill="#000000" font-family="Monospace" font-size="14" lengthAdjust="spacing" textLength="164.0234" x="383.82" y="1586.2537">repo-architecture.drawio</text></g><!--entity tool_success--><g class="entity" data-qualified-name="tool_success" data-source-line="28" id="ent0023"><path d="M435.1673,808.501 C440.1088,799.5277 445.9947,800.8659 451.3049,808.1346 C455.2627,799.2759 463.0965,800.9001 467.3272,807.8582 C472.825,799.5834 479.6838,800.1157 483.5402,809.376 C488.1451,803.3566 495.2312,803.4274 499.1433,810.2198 C508.345,810.886 513.3513,817.5936 507.9133,826.2628 C514.447,836.6719 509.8206,843.0854 498.3249,843.4168 C494.0478,851.3642 486.5086,850.6107 482.1397,843.5156 C478.7392,850.0874 472.0457,851.7567 467.057,845.3632 C461.9118,853.0023 455.2877,851.6492 451.584,843.9126 C446.7154,853.2062 438.3583,851.5362 434.2229,843.1909 C423.6424,839.4785 423.9613,831.445 431.6821,825.1545 C425.7262,817.864 427.2402,812.8861 435.1673,808.501" fill="#FEF3C7" style="stroke:#181818;stroke-width:0.5;"/><text fill="#000000" font-family="Monospace" font-size="14" lengthAdjust="spacing" textLength="50.1058" x="440.78" y="830.2537">success</text></g><!--entity tool_tmux--><g class="entity" data-qualified-name="tool_tmux" data-source-line="29" id="ent0024"><path d="M442.3512,641.903 C444.3685,635.4172 450.4045,634.8966 454.5298,639.6109 C458.3949,632.9949 462.7154,632.8494 467.1374,639.0637 C471.5411,633.578 475.3855,633.7947 478.9034,639.9585 C483.1437,634.2085 488.9292,634.2527 491.7793,641.3516 C499.7722,645.2131 500.4931,651.7146 493.9701,657.5405 C500.4822,663.6581 499.601,671.4687 490.9517,674.9591 C489.2297,681.189 483.9785,683.6922 478.6325,679.0748 C477.6412,685.3238 472.3375,686.4315 467.9889,682.6305 C461.4495,688.1083 456.0408,686.2308 454.4936,677.7901 C448.7036,683.6812 443.9073,682.2931 441.7837,674.4077 C431.1635,672.5327 429.6782,666.4156 435.6749,658.2559 C429.7582,649.9299 433.5506,644.2205 442.3512,641.903" fill="#FEF3C7" style="stroke:#181818;stroke-width:0.5;"/><text fill="#000000" font-family="Monospace" font-size="14" lengthAdjust="spacing" textLength="34.2019" x="448.73" y="662.2537">tmux</text></g><!--entity tool_warn--><g class="entity" data-qualified-name="tool_warn" data-source-line="30" id="ent0025"><path d="M442.4282,892.6484 C446.5907,886.7913 451.4007,886.6304 455.2312,892.996 C458.3276,886.8288 463.7793,885.9072 467.852,891.9902 C470.6744,887.4496 475.7794,886.257 478.7698,891.8085 C482.8046,886.364 488.0096,886.823 491.0504,892.8706 C501.9188,894.9941 501.4695,904.4008 495.4224,910.6773 C501.8748,917.4002 499.4368,923.4916 490.9184,925.7372 C489.0711,931.3241 483.76,932.8719 479.4305,928.6419 C476.3995,934.9737 471.7926,935.7906 467.1843,930.272 C463.1316,935.8335 456.7805,935.871 454.0165,928.9162 C449.2481,932.8514 444.56,931.3335 442.395,925.7408 C432.0763,925.3207 429.301,916.559 434.3757,908.8364 C428.5928,900.8828 431.6948,892.3862 442.4282,892.6484" fill="#FEF3C7" style="stroke:#181818;stroke-width:0.5;"/><text fill="#000000" font-family="Monospace" font-size="14" lengthAdjust="spacing" textLength="33.2919" x="449.18" y="914.2537">warn</text></g><!--entity tool_xargs--><g class="entity" data-qualified-name="tool_xargs" data-source-line="31" id="ent0026"><path d="M442.7073,53.1544 C445.9392,46.6435 451.5067,46.1746 455.1277,52.7861 C458.7027,47.4693 463.9662,47.1895 467.9195,52.323 C470.7054,46.8964 475.6447,46.0679 478.8887,51.8757 C483.3549,46.3927 489.1481,47.0484 491.7765,53.8102 C503.1068,53.9741 507.9721,59.7352 502.558,70.6314 C505.5199,80.8437 502.9502,86.5303 491.3139,86.198 C490.3184,93.1701 484.4847,93.3873 480.2035,89.5867 C478.8365,96.517 473.5591,98.9043 467.8571,94.1782 C462.0366,99.3064 456.6957,97.4255 454.6212,90.1733 C449.434,94.9329 445.0695,93.3876 442.7058,87.122 C432.4593,86.0091 429.393,77.9236 436.46,70.3596 C429.1542,62.5677 433.0374,54.7824 442.7073,53.1544" fill="#FEF3C7" style="stroke:#181818;stroke-width:0.5;"/><text fill="#000000" font-family="Monospace" font-size="14" lengthAdjust="spacing" textLength="36.3579" x="447.65" y="74.2537">xargs</text></g><g class="entity" data-qualified-name="toolingGraphSummary" data-source-line="65" id="ent0059"><path d="M54.15,53.1178 L54.15,98.5298 L261.6612,98.5298 L261.6612,63.1178 L251.6612,53.1178 L54.15,53.1178" fill="#FEFFDD" style="stroke:#181818;stroke-width:0.5;"/><path d="M251.6612,53.1178 L251.6612,63.1178 L261.6612,63.1178 L251.6612,53.1178" fill="#FEFFDD" style="stroke:#181818;stroke-width:1;"/><text fill="#000000" font-family="Monospace" font-size="13" lengthAdjust="spacing" textLength="186.5112" x="60.15" y="72.0148">Scanned&#160;4&#160;tooling&#160;entrypoints.</text><text fill="#000000" font-family="Monospace" font-size="13" lengthAdjust="spacing" textLength="179.2182" x="60.15" y="89.7208">Detected&#160;21&#160;third-party&#160;tools.</text></g><!--link source_github_workflows_ci_yml to tool_actions_checkout--><g class="link" data-entity-1="ent0002" data-entity-2="ent0006" data-link-type="dependency" data-source-line="32" id="lnk27"><path d="M309.16,152.8278 C338.97,152.8278 362.92,152.8278 388.53,152.8278" fill="none" id="source_github_workflows_ci_yml-to-tool_actions_checkout" style="stroke:#181818;stroke-width:1;"/><polygon fill="#181818" points="394.53,152.8278,385.53,148.8278,389.53,152.8278,385.53,156.8278,394.53,152.8278" style="stroke:#181818;stroke-width:1;"/></g><!--link source_github_workflows_ci_yml to tool_apt_get--><g class="link" data-entity-1="ent0002" data-entity-2="ent0007" data-link-type="dependency" data-source-line="33" id="lnk28"><path d="M301.84,172.7478 C301.84,195.2078 301.84,228.6478 301.84,228.6478 C301.84,228.6478 372.04,228.6478 420.55,228.6478" fill="none" id="source_github_workflows_ci_yml-to-tool_apt_get" style="stroke:#181818;stroke-width:1;"/><polygon fill="#181818" points="426.55,228.6478,417.55,224.6478,421.55,228.6478,417.55,232.6478,426.55,228.6478" style="stroke:#181818;stroke-width:1;"/></g><!--link source_github_workflows_ci_yml to tool_xargs--><g class="link" data-entity-1="ent0002" data-entity-2="ent0026" data-link-type="dependency" data-source-line="34" id="lnk29"><path d="M284.84,133.1478 C284.84,109.5878 284.84,73.2378 284.84,73.2378 C284.84,73.2378 373.87,73.2378 426.21,73.2378" fill="none" id="source_github_workflows_ci_yml-to-tool_xargs" style="stroke:#181818;stroke-width:1;"/><polygon fill="#181818" points="432.21,73.2378,423.21,69.2378,427.21,73.2378,423.21,77.2378,432.21,73.2378" style="stroke:#181818;stroke-width:1;"/></g><!--link source_install_sh to tool_apt_get--><g class="link" data-entity-1="ent0003" data-entity-2="ent0007" data-link-type="dependency" data-source-line="35" id="lnk30"><path d="M95.84,594.9378 C95.84,518.1278 95.84,244.9978 95.84,244.9978 C95.84,244.9978 325.36,244.9978 420.59,244.9978" fill="none" id="source_install_sh-to-tool_apt_get" style="stroke:#181818;stroke-width:1;"/><polygon fill="#181818" points="426.59,244.9978,417.59,240.9978,421.59,244.9978,417.59,248.9978,426.59,244.9978" style="stroke:#181818;stroke-width:1;"/></g><!--link source_install_sh to tool_bash--><g class="link" data-entity-1="ent0003" data-entity-2="ent0008" data-link-type="dependency" data-source-line="36" id="lnk31"><path d="M260.86,606.0878 C346.97,606.0878 455.84,606.0878 455.84,606.0878 C455.84,606.0878 455.84,608.5078 455.84,603.6978" fill="none" id="source_install_sh-to-tool_bash" style="stroke:#181818;stroke-width:1;"/><polygon fill="#181818" points="455.84,597.6978,451.84,606.6978,455.84,602.6978,459.84,606.6978,455.84,597.6978" style="stroke:#181818;stroke-width:1;"/></g><!--link source_install_sh to tool_cp--><g class="link" data-entity-1="ent0003" data-entity-2="ent0011" data-link-type="dependency" data-source-line="37" id="lnk32"><path d="M137.84,595.0778 C137.84,529.1578 137.84,320.8278 137.84,320.8278 C137.84,320.8278 362.11,320.8278 436.77,320.8278" fill="none" id="source_install_sh-to-tool_cp" style="stroke:#181818;stroke-width:1;"/><polygon fill="#181818" points="442.77,320.8278,433.77,316.8278,437.77,320.8278,433.77,324.8278,442.77,320.8278" style="stroke:#181818;stroke-width:1;"/></g><!--link source_install_sh to tool_die--><g class="link" data-entity-1="ent0003" data-entity-2="ent0014" data-link-type="dependency" data-source-line="38" id="lnk33"><path d="M261.06,623.5578 C272.34,623.5578 279.84,623.5578 279.84,623.5578 C279.84,623.5578 279.84,1232.5578 279.84,1232.5578 C279.84,1232.5578 383.42,1232.5578 434.36,1232.5578" fill="none" id="source_install_sh-to-tool_die" style="stroke:#181818;stroke-width:1;"/><polygon fill="#181818" points="440.36,1232.5578,431.36,1228.5578,435.36,1232.5578,431.36,1236.5578,440.36,1232.5578" style="stroke:#181818;stroke-width:1;"/></g><!--link source_install_sh to tool_git--><g class="link" data-entity-1="ent0003" data-entity-2="ent0015" data-link-type="dependency" data-source-line="39" id="lnk34"><path d="M178.84,595.0678 C178.84,542.7878 178.84,404.8278 178.84,404.8278 C178.84,404.8278 366.88,404.8278 435.86,404.8278" fill="none" id="source_install_sh-to-tool_git" style="stroke:#181818;stroke-width:1;"/><polygon fill="#181818" points="441.86,404.8278,432.86,400.8278,436.86,404.8278,432.86,408.8278,441.86,404.8278" style="stroke:#181818;stroke-width:1;"/></g><!--link source_install_sh to tool_grep--><g class="link" data-entity-1="ent0003" data-entity-2="ent0016" data-link-type="dependency" data-source-line="40" id="lnk35"><path d="M219.84,594.8578 C219.84,559.3278 219.84,488.8278 219.84,488.8278 C219.84,488.8278 363.23,488.8278 429.17,488.8278" fill="none" id="source_install_sh-to-tool_grep" style="stroke:#181818;stroke-width:1;"/><polygon fill="#181818" points="435.17,488.8278,426.17,484.8278,430.17,488.8278,426.17,492.8278,435.17,488.8278" style="stroke:#181818;stroke-width:1;"/></g><!--link source_install_sh to tool_info--><g class="link" data-entity-1="ent0003" data-entity-2="ent0017" data-link-type="dependency" data-source-line="41" id="lnk36"><path d="M208.84,634.6378 C208.84,667.2178 208.84,728.5578 208.84,728.5578 C208.84,728.5578 365.23,728.5578 431.84,728.5578" fill="none" id="source_install_sh-to-tool_info" style="stroke:#181818;stroke-width:1;"/><polygon fill="#181818" points="437.84,728.5578,428.84,724.5578,432.84,728.5578,428.84,732.5578,437.84,728.5578" style="stroke:#181818;stroke-width:1;"/></g><!--link source_install_sh to tool_success--><g class="link" data-entity-1="ent0003" data-entity-2="ent0023" data-link-type="dependency" data-source-line="42" id="lnk37"><path d="M157.84,634.5078 C157.84,684.5178 157.84,812.5578 157.84,812.5578 C157.84,812.5578 336.08,812.5578 419.57,812.5578" fill="none" id="source_install_sh-to-tool_success" style="stroke:#181818;stroke-width:1;"/><polygon fill="#181818" points="425.57,812.5578,416.57,808.5578,420.57,812.5578,416.57,816.5578,425.57,812.5578" style="stroke:#181818;stroke-width:1;"/></g><!--link source_install_sh to tool_tmux--><g class="link" data-entity-1="ent0003" data-entity-2="ent0024" data-link-type="dependency" data-source-line="43" id="lnk38"><path d="M260.69,614.8278 C353.58,614.8278 475.84,614.8278 475.84,614.8278 C475.84,614.8278 475.84,616.8678 475.84,625.9078" fill="none" id="source_install_sh-to-tool_tmux" style="stroke:#181818;stroke-width:1;"/><polygon fill="#181818" points="475.84,631.9078,479.84,622.9078,475.84,626.9078,471.84,622.9078,475.84,631.9078" style="stroke:#181818;stroke-width:1;"/></g><!--link source_install_sh to tool_warn--><g class="link" data-entity-1="ent0003" data-entity-2="ent0025" data-link-type="dependency" data-source-line="44" id="lnk39"><path d="M106.84,634.6378 C106.84,698.7678 106.84,896.5578 106.84,896.5578 C106.84,896.5578 340.11,896.5578 427.97,896.5578" fill="none" id="source_install_sh-to-tool_warn" style="stroke:#181818;stroke-width:1;"/><polygon fill="#181818" points="433.97,896.5578,424.97,892.5578,428.97,896.5578,424.97,900.5578,433.97,896.5578" style="stroke:#181818;stroke-width:1;"/></g><!--link source_sessions_sh to tool_declare--><g class="link" data-entity-1="ent0004" data-entity-2="ent0013" data-link-type="dependency" data-source-line="45" id="lnk40"><path d="M265.17,992.8278 C320.89,992.8278 379.61,992.8278 420.15,992.8278" fill="none" id="source_sessions_sh-to-tool_declare" style="stroke:#181818;stroke-width:1;"/><polygon fill="#181818" points="426.15,992.8278,417.15,988.8278,421.15,992.8278,417.15,996.8278,426.15,992.8278" style="stroke:#181818;stroke-width:1;"/></g><!--link source_sessions_sh to tool_die--><g class="link" data-entity-1="ent0004" data-entity-2="ent0014" data-link-type="dependency" data-source-line="46" id="lnk41"><path d="M123.84,1012.5978 C123.84,1072.0078 123.84,1244.8278 123.84,1244.8278 C123.84,1244.8278 355.15,1244.8278 434.41,1244.8278" fill="none" id="source_sessions_sh-to-tool_die" style="stroke:#181818;stroke-width:1;"/><polygon fill="#181818" points="440.41,1244.8278,431.41,1240.8278,435.41,1244.8278,431.41,1248.8278,440.41,1244.8278" style="stroke:#181818;stroke-width:1;"/></g><!--link source_sessions_sh to tool_info--><g class="link" data-entity-1="ent0004" data-entity-2="ent0017" data-link-type="dependency" data-source-line="47" id="lnk42"><path d="M131.84,973.0478 C131.84,913.6478 131.84,740.8278 131.84,740.8278 C131.84,740.8278 351.12,740.8278 431.64,740.8278" fill="none" id="source_sessions_sh-to-tool_info" style="stroke:#181818;stroke-width:1;"/><polygon fill="#181818" points="437.64,740.8278,428.64,736.8278,432.64,740.8278,428.64,744.8278,437.64,740.8278" style="stroke:#181818;stroke-width:1;"/></g><!--link source_sessions_sh to tool_mapfile--><g class="link" data-entity-1="ent0004" data-entity-2="ent0019" data-link-type="dependency" data-source-line="48" id="lnk43"><path d="M225.84,1012.7278 C225.84,1037.5678 225.84,1076.8278 225.84,1076.8278 C225.84,1076.8278 351.34,1076.8278 419.66,1076.8278" fill="none" id="source_sessions_sh-to-tool_mapfile" style="stroke:#181818;stroke-width:1;"/><polygon fill="#181818" points="425.66,1076.8278,416.66,1072.8278,420.66,1076.8278,416.66,1080.8278,425.66,1076.8278" style="stroke:#181818;stroke-width:1;"/></g><!--link source_sessions_sh to tool_mkdir--><g class="link" data-entity-1="ent0004" data-entity-2="ent0020" data-link-type="dependency" data-source-line="49" id="lnk44"><path d="M89.84,1012.7778 C89.84,1084.8878 89.84,1327.7878 89.84,1327.7878 C89.84,1327.7878 332.05,1327.7878 425.13,1327.7878" fill="none" id="source_sessions_sh-to-tool_mkdir" style="stroke:#181818;stroke-width:1;"/><polygon fill="#181818" points="431.13,1327.7878,422.13,1323.7878,426.13,1327.7878,422.13,1331.7878,431.13,1327.7878" style="stroke:#181818;stroke-width:1;"/></g><!--link source_sessions_sh to tool_mv--><g class="link" data-entity-1="ent0004" data-entity-2="ent0021" data-link-type="dependency" data-source-line="50" id="lnk45"><path d="M157.84,1012.7578 C157.84,1057.2578 157.84,1160.8278 157.84,1160.8278 C157.84,1160.8278 360.57,1160.8278 434.36,1160.8278" fill="none" id="source_sessions_sh-to-tool_mv" style="stroke:#181818;stroke-width:1;"/><polygon fill="#181818" points="440.36,1160.8278,431.36,1156.8278,435.36,1160.8278,431.36,1164.8278,440.36,1160.8278" style="stroke:#181818;stroke-width:1;"/></g><!--link source_sessions_sh to tool_success--><g class="link" data-entity-1="ent0004" data-entity-2="ent0023" data-link-type="dependency" data-source-line="51" id="lnk46"><path d="M183.84,972.8878 C183.84,928.3878 183.84,824.8278 183.84,824.8278 C183.84,824.8278 341.46,824.8278 419.43,824.8278" fill="none" id="source_sessions_sh-to-tool_success" style="stroke:#181818;stroke-width:1;"/><polygon fill="#181818" points="425.43,824.8278,416.43,820.8278,420.43,824.8278,416.43,828.8278,425.43,824.8278" style="stroke:#181818;stroke-width:1;"/></g><!--link source_sessions_sh to tool_tmux--><g class="link" data-entity-1="ent0004" data-entity-2="ent0024" data-link-type="dependency" data-source-line="52" id="lnk47"><path d="M80.84,972.8778 C80.84,900.7578 80.84,657.8578 80.84,657.8578 C80.84,657.8578 334.52,657.8578 427.34,657.8578" fill="none" id="source_sessions_sh-to-tool_tmux" style="stroke:#181818;stroke-width:1;"/><polygon fill="#181818" points="433.34,657.8578,424.34,653.8578,428.34,657.8578,424.34,661.8578,433.34,657.8578" style="stroke:#181818;stroke-width:1;"/></g><!--link source_sessions_sh to tool_warn--><g class="link" data-entity-1="ent0004" data-entity-2="ent0025" data-link-type="dependency" data-source-line="53" id="lnk48"><path d="M234.84,972.9178 C234.84,948.0778 234.84,908.8278 234.84,908.8278 C234.84,908.8278 364.24,908.8278 427.71,908.8278" fill="none" id="source_sessions_sh-to-tool_warn" style="stroke:#181818;stroke-width:1;"/><polygon fill="#181818" points="433.71,908.8278,424.71,904.8278,428.71,908.8278,424.71,912.8278,433.71,908.8278" style="stroke:#181818;stroke-width:1;"/></g><!--link source_setup_sh to tool_cat--><g class="link" data-entity-1="ent0005" data-entity-2="ent0009" data-link-type="dependency" data-source-line="54" id="lnk49"><path d="M157.84,1390.5678 C157.84,1456.4878 157.84,1664.8278 157.84,1664.8278 C157.84,1664.8278 361.07,1664.8278 434.63,1664.8278" fill="none" id="source_setup_sh-to-tool_cat" style="stroke:#181818;stroke-width:1;"/><polygon fill="#181818" points="440.63,1664.8278,431.63,1660.8278,435.63,1664.8278,431.63,1668.8278,440.63,1664.8278" style="stroke:#181818;stroke-width:1;"/></g><!--link source_setup_sh to tool_chmod--><g class="link" data-entity-1="ent0005" data-entity-2="ent0010" data-link-type="dependency" data-source-line="55" id="lnk50"><path d="M106.84,1390.6178 C106.84,1468.3878 106.84,1748.8278 106.84,1748.8278 C106.84,1748.8278 329.36,1748.8278 421.75,1748.8278" fill="none" id="source_setup_sh-to-tool_chmod" style="stroke:#181818;stroke-width:1;"/><polygon fill="#181818" points="427.75,1748.8278,418.75,1744.8278,422.75,1748.8278,418.75,1752.8278,427.75,1748.8278" style="stroke:#181818;stroke-width:1;"/></g><!--link source_setup_sh to tool_curl--><g class="link" data-entity-1="ent0005" data-entity-2="ent0012" data-link-type="dependency" data-source-line="56" id="lnk51"><path d="M259.95,1378.3078 C346.55,1378.3078 456.84,1378.3078 456.84,1378.3078 C456.84,1378.3078 456.84,1376.5778 456.84,1382.1078" fill="none" id="source_setup_sh-to-tool_curl" style="stroke:#181818;stroke-width:1;"/><polygon fill="#181818" points="456.84,1388.1078,460.84,1379.1078,456.84,1383.1078,452.84,1379.1078,456.84,1388.1078" style="stroke:#181818;stroke-width:1;"/></g><!--link source_setup_sh to tool_die--><g class="link" data-entity-1="ent0005" data-entity-2="ent0014" data-link-type="dependency" data-source-line="57" id="lnk52"><path d="M191.84,1351.0178 C191.84,1318.4278 191.84,1257.0878 191.84,1257.0878 C191.84,1257.0878 366.72,1257.0878 434.55,1257.0878" fill="none" id="source_setup_sh-to-tool_die" style="stroke:#181818;stroke-width:1;"/><polygon fill="#181818" points="440.55,1257.0878,431.55,1253.0878,435.55,1257.0878,431.55,1261.0878,440.55,1257.0878" style="stroke:#181818;stroke-width:1;"/></g><!--link source_setup_sh to tool_info--><g class="link" data-entity-1="ent0005" data-entity-2="ent0017" data-link-type="dependency" data-source-line="58" id="lnk53"><path d="M259.65,1358.3478 C267.14,1358.3478 271.84,1358.3478 271.84,1358.3478 C271.84,1358.3478 271.84,753.0878 271.84,753.0878 C271.84,753.0878 377.82,753.0878 431.62,753.0878" fill="none" id="source_setup_sh-to-tool_info" style="stroke:#181818;stroke-width:1;"/><polygon fill="#181818" points="437.62,753.0878,428.62,749.0878,432.62,753.0878,428.62,757.0878,437.62,753.0878" style="stroke:#181818;stroke-width:1;"/></g><!--link source_setup_sh to tool_java--><g class="link" data-entity-1="ent0005" data-entity-2="ent0018" data-link-type="dependency" data-source-line="59" id="lnk54"><path d="M208.84,1390.7878 C208.84,1426.3178 208.84,1496.8278 208.84,1496.8278 C208.84,1496.8278 364.44,1496.8278 431.35,1496.8278" fill="none" id="source_setup_sh-to-tool_java" style="stroke:#181818;stroke-width:1;"/><polygon fill="#181818" points="437.35,1496.8278,428.35,1492.8278,432.35,1496.8278,428.35,1500.8278,437.35,1496.8278" style="stroke:#181818;stroke-width:1;"/></g><!--link source_setup_sh to tool_mkdir--><g class="link" data-entity-1="ent0005" data-entity-2="ent0020" data-link-type="dependency" data-source-line="60" id="lnk55"><path d="M259.93,1373.3178 C352.58,1373.3178 474.84,1373.3178 474.84,1373.3178 C474.84,1373.3178 474.84,1369.8678 474.84,1359.6778" fill="none" id="source_setup_sh-to-tool_mkdir" style="stroke:#181818;stroke-width:1;"/><polygon fill="#181818" points="474.84,1353.6778,470.84,1362.6778,474.84,1358.6778,478.84,1362.6778,474.84,1353.6778" style="stroke:#181818;stroke-width:1;"/></g><!--link source_setup_sh to tool_repo_architecture_drawio--><g class="link" data-entity-1="ent0005" data-entity-2="ent0022" data-link-type="dependency" data-source-line="61" id="lnk56"><path d="M259.72,1383.2978 C318.87,1383.2978 381.84,1383.2978 381.84,1383.2978 C381.84,1383.2978 381.84,1496.6578 381.84,1549.8078" fill="none" id="source_setup_sh-to-tool_repo_architecture_drawio" style="stroke:#181818;stroke-width:1;"/><polygon fill="#181818" points="381.84,1555.8078,385.84,1546.8078,381.84,1550.8078,377.84,1546.8078,381.84,1555.8078" style="stroke:#181818;stroke-width:1;"/></g><!--link source_setup_sh to tool_success--><g class="link" data-entity-1="ent0005" data-entity-2="ent0023" data-link-type="dependency" data-source-line="62" id="lnk57"><path d="M259.81,1363.3378 C275.63,1363.3378 286.84,1363.3378 286.84,1363.3378 C286.84,1363.3378 286.84,837.0878 286.84,837.0878 C286.84,837.0878 366.89,837.0878 419.66,837.0878" fill="none" id="source_setup_sh-to-tool_success" style="stroke:#181818;stroke-width:1;"/><polygon fill="#181818" points="425.66,837.0878,416.66,833.0878,420.66,837.0878,416.66,841.0878,425.66,837.0878" style="stroke:#181818;stroke-width:1;"/></g><!--link source_setup_sh to tool_warn--><g class="link" data-entity-1="ent0005" data-entity-2="ent0025" data-link-type="dependency" data-source-line="63" id="lnk58"><path d="M259.89,1368.3278 C279.38,1368.3278 293.84,1368.3278 293.84,1368.3278 C293.84,1368.3278 293.84,921.0878 293.84,921.0878 C293.84,921.0878 378.15,921.0878 427.88,921.0878" fill="none" id="source_setup_sh-to-tool_warn" style="stroke:#181818;stroke-width:1;"/><polygon fill="#181818" points="433.88,921.0878,424.88,917.0878,428.88,921.0878,424.88,925.0878,433.88,921.0878" style="stroke:#181818;stroke-width:1;"/></g><?plantuml-src ZPPDaziW38Rl_XNCxZdPhyvqUkcbJJezj9Vqk3CUBIOs3GO6v6JpxoiS9sQnGtCKxoDPo4A04fLWA5mhjLGIZ-oFCKhgcltKA6e7A8tsXH9RP6YOatM3h99Ey20KVYUr1GSjymrKvX0Sjw2yY9HARA5Jk3OQVqChs2-ZZRV0OuQRrXejD6xmIFc4yA1h5IEKbC2Z5SmuR4nnGTZTifROT6yF1-DsMsKE_e7BvR5Lhw_wXRwEH8gAiZVAtp7mp9lESL6UlCgBLybbILxiVlMuVbwluYz8xH6KMlg6OZuzPe8EPEcRkJXUU1_gUGhq9HFdJ5uDX9sz8PsUYsDmPRgAtK7_-wXGZU0xqs7l4xpBGIdF2hjVhzOltpvVF2qkQX4xM2nf8UNUm3SZ5AoKu1158MEYDwsf8YAO4yP6W9sedLEHJbPAL88hS6A4XeK99sD6JdJgfL4dOw8x4MKQh9IGUcj68bWfyHVsC1B1IeaMx5QgADDXOSBjw0H7L30dp3u2zgbA6p0BSBoHeVCw9vQLWuECTX28CYRA4v56yXtdrEkZux2GSjXsxoCKh9GuWDCZ4QoKU0TNHr_gpGlpdwcmM7oTFo2tEvuEoirydrundIlN0iuXuTpbT6vpAZLwJgOTP6LgWPmUUZod3usGGq8RvFJG1CNCH1rtU3hkUKRczNWViy1m2lDCE8DvOf-LashDCd6vPe6FzHgkZh5P03DY6CyPcORlTVL3YLFnOtrJDSp1wsfIrbI-DgIkUqpAd09z2RL1SHupz2JwuS0scwvjmHsB3GUjwQx-T5OPFNlSqHgfqI-Bx-Ux_Fc9OIDTjQ3d3ptB-gjzMGXTiH3z7m00?></g></svg>