<?plantuml 1.2026.2?><svg xmlns="http://www.w3.org/2000/svg" xmlns:xlink="http://www.w3.org/1999/xlink" contentStyleType="text/css" data-diagram-type="DESCRIPTION" height="3048px" preserveAspectRatio="none" style="width:514px;height:3048px;background:#FFFFFF;" version="1.1" viewBox="0 0 514 3048" width="514px" zoomAndPan="magnify"><title>terminility Tooling Integrations</title><defs/><g><g class="title" data-source-line="1"><text fill="#000000" font-family="Monospace" font-size="14" font-weight="bold" lengthAdjust="spacing" textLength="217.8182" x="141.2494" y="24.9659">terminility&#160;Tooling&#160;Integrations</text></g><!--entity source_github_workflows_ci_yml--><g class="entity" data-qualified-name="source_github_workflows_ci_yml" data-source-line="7" id="ent0002"><rect fill="#E0F2FE" height="58.1358" rx="2.5" ry="2.5" style="stroke:#181818;stroke-width:0.5;" width="182.6234" x="36.83" y="378.7079"/><text fill="#000000" font-family="Monospace" font-size="14" lengthAdjust="spacing" textLength="162.6234" x="46.83" y="403.6739">.github/workflows/ci.yml</text><text fill="#000000" font-family="Monospace" font-size="14" lengthAdjust="spacing" textLength="105.3356" x="46.83" y="422.7418">3&#160;detected&#160;tools</text></g><!--entity source_install_sh--><g class="entity" data-qualified-name="source_install_sh" data-source-line="8" id="ent0003"><rect fill="#E0F2FE" height="58.1358" rx="2.5" ry="2.5" style="stroke:#181818;stroke-width:0.5;" width="133.3436" x="61.47" y="966.7079"/><text fill="#000000" font-family="Monospace" font-size="14" lengthAdjust="spacing" textLength="58.2118" x="71.47" y="991.6739">install.sh</text><text fill="#000000" font-family="Monospace" font-size="14" lengthAdjust="spacing" textLength="113.3436" x="71.47" y="1010.7418">13&#160;detected&#160;tools</text></g><!--entity source_scripts_run_tachometer_profile_sh--><g class="entity" data-qualified-name="source_scripts_run_tachometer_profile_sh" data-source-line="9" id="ent0004"><rect fill="#E0F2FE" height="58.1358" rx="2.5" ry="2.5" style="stroke:#181818;stroke-width:0.5;" width="242.2912" x="7" y="126.7079"/><text fill="#000000" font-family="Monospace" font-size="14" lengthAdjust="spacing" textLength="222.2912" x="17" y="151.6739">scripts/run_tachometer_profile.sh</text><text fill="#000000" font-family="Monospace" font-size="14" lengthAdjust="spacing" textLength="105.3356" x="17" y="170.7418">3&#160;detected&#160;tools</text></g><!--entity source_sessions_sh--><g class="entity" data-qualified-name="source_sessions_sh" data-source-line="10" id="ent0005"><rect fill="#E0F2FE" height="58.1358" rx="2.5" ry="2.5" style="stroke:#181818;stroke-width:0.5;" width="133.3436" x="61.47" y="1806.7079"/><text fill="#000000" font-family="Monospace" font-size="14" lengthAdjust="spacing" textLength="74.5637" x="71.47" y="1831.6739">sessions.sh</text><text fill="#000000" font-family="Monospace" font-size="14" lengthAdjust="spacing" textLength="113.3436" x="71.47" y="1850.7418">19&#160;detected&#160;tools</text></g><!--entity source_setup_sh--><g class="entity" data-qualified-name="source_setup_sh" data-source-line="11" id="ent0006"><rect fill="#E0F2FE" height="58.1358" rx="2.5" ry="2.5" style="stroke:#181818;stroke-width:0.5;" width="133.3436" x="61.47" y="2604.7079"/><text fill="#000000" font-family="Monospace" font-size="14" lengthAdjust="spacing" textLength="56.0278" x="71.47" y="2629.6739">setup.sh</text><text fill="#000000" font-family="Monospace" font-size="14" lengthAdjust="spacing" textLength="113.3436" x="71.47" y="2648.7418">10&#160;detected&#160;tools</text></g><!--entity tool_bashrc--><g class="entity" data-qualified-name="tool_bashrc" data-source-line="12" id="ent0007"><path d="M377.3933,1483.7604 C381.1304,1477.3145 386.4156,1475.9191 391.3194,1482.5145 C396.8777,1475.4143 401.3916,1476.2562 406.353,1483.1554 C411.5763,1473.6234 417.3012,1473.9434 423.2998,1482.4262 C427.9314,1476.2006 435.9228,1475.1921 439.131,1483.9319 C450.6639,1483.7936 452.8554,1492.8578 447.9388,1501.1392 C453.3456,1509.7995 448.2788,1516.1593 439.1215,1516.4107 C435.4405,1525.2019 428.391,1526.7109 422.2362,1518.9315 C419.6255,1526.797 412.9002,1529.3089 406.9212,1522.4303 C402.0489,1529.5222 394.7985,1528.7659 391.7557,1520.6106 C385.3941,1527.8308 378.5925,1525.5153 375.3803,1517.2748 C364.9141,1515.8953 362.6047,1509.2748 367.8605,1500.7436 C362.8683,1492.035 367.2189,1483.9559 377.3933,1483.7604" fill="#FEF3C7" style="stroke:#181818;stroke-width:0.5;"/><text fill="#000000" font-family="Monospace" font-size="14" lengthAdjust="spacing" textLength="48.0758" x="382.26" y="1505.2039">.bashrc</text></g><!--entity tool_kshrc--><g class="entity" data-qualified-name="tool_kshrc" data-source-line="13" id="ent0008"><path d="M380.7363,1567.4685 C384.8838,1562.2617 389.8232,1561.0589 393.4833,1567.9808 C397.7675,1559.5075 402.9183,1560.8424 408.4356,1566.6937 C411.9438,1562.0565 416.7776,1561.4889 419.7493,1567.276 C425.1779,1560.3073 429.7119,1560.4975 434.4231,1568.0032 C444.5848,1567.8941 449.0309,1575.9667 443.0612,1584.371 C447.6787,1593.2514 443.3616,1599.3233 434.0738,1600.4138 C431.5195,1608.4011 425.7703,1609.2993 420.4695,1603.0355 C416.6517,1611.0516 411.7544,1611.0624 406.3309,1604.6039 C401.9274,1610.4594 397.4223,1609.843 394.3124,1603.3453 C390.3852,1608.283 384.0554,1607.5467 381.3319,1601.8728 C370.3609,1599.7238 369.5295,1593.9863 374.2176,1585.1682 C366.8976,1575.6574 369.0158,1569.9669 380.7363,1567.4685" fill="#FEF3C7" style="stroke:#181818;stroke-width:0.5;"/><text fill="#000000" font-family="Monospace" font-size="14" lengthAdjust="spacing" textLength="39.0878" x="386.76" y="1589.2039">.kshrc</text></g><!--entity tool_mkshrc--><g class="entity" data-qualified-name="tool_mkshrc" data-source-line="14" id="ent0009"><path d="M373.6994,1651.8301 C377.2722,1645.8709 381.7703,1646.6156 384.9916,1652.1747 C388.1343,1647.1748 391.67,1646.3094 395.6738,1651.2492 C398.7084,1645.4583 404.0678,1644.6759 408.3523,1649.797 C411.9413,1646.1537 414.9664,1646.1074 417.4238,1650.9996 C421.4835,1646.0451 425.5554,1645.7277 428.7851,1651.8508 C432.5195,1646.6808 436.7662,1645.9334 440.5751,1651.771 C448.5339,1656.2336 448.4641,1662.5377 442.2776,1668.4446 C448.6365,1675.0189 449.0576,1681.6793 439.6225,1685.8434 C438.167,1691.8309 433.5166,1692.0335 429.5464,1688.5064 C426.8683,1693.9637 423.5709,1694.9917 418.9333,1690.6227 C417.1822,1696.5536 414.4376,1699.3102 408.3949,1695.0684 C402.8124,1698.8382 397.5826,1698.6382 396.0954,1690.7483 C392.1714,1694.9534 388.1585,1693.4611 386.0524,1688.7098 C380.6664,1694.5425 376.498,1692.8941 373.8762,1686.0539 C364.9923,1681.2288 365.2683,1675.0796 373.575,1669.9332 C364.951,1663.8835 365.5802,1657.7648 373.6994,1651.8301" fill="#FEF3C7" style="stroke:#181818;stroke-width:0.5;"/><text fill="#000000" font-family="Monospace" font-size="14" lengthAdjust="spacing" textLength="52.1778" x="380.21" y="1673.2039">.mkshrc</text></g><!--entity tool_zshrc--><g class="entity" data-qualified-name="tool_zshrc" data-source-line="15" id="ent0010"><path d="M381.5213,1735.7953 C385.3188,1730.0045 390.6059,1730.0051 393.9042,1736.3065 C397.4028,1729.4871 402.9321,1729.7591 407.6357,1734.9261 C411.5423,1728.9378 415.7581,1729.4569 420.0221,1734.5259 C424.3411,1729.2264 429.5555,1728.791 432.6327,1735.7984 C445.2363,1736.018 447.7728,1743.2073 443.3765,1753.6553 C447.9649,1762.4085 442.4705,1768.839 433.5612,1768.9043 C430.6543,1775.1289 426.8128,1777.3734 420.9999,1772.071 C418.1788,1778.7188 412.0289,1780.3606 406.7349,1775.0114 C401.3342,1779.4822 397.4829,1777.3373 395.4405,1771.3757 C389.7854,1778.548 383.4136,1776.5752 380.3883,1768.7384 C371.0384,1766.6754 366.6633,1762.1798 372.5215,1752.6708 C367.0652,1742.2365 371.3296,1737.8844 381.5213,1735.7953" fill="#FEF3C7" style="stroke:#181818;stroke-width:0.5;"/><text fill="#000000" font-family="Monospace" font-size="14" lengthAdjust="spacing" textLength="38.1918" x="387.21" y="1757.2039">.zshrc</text></g><!--entity tool_actions_checkout--><g class="entity" data-qualified-name="tool_actions_checkout" data-source-line="16" id="ent0011"><path d="M344.7821,391.6036 C348.6339,385.4446 353.3765,385.5851 357.106,391.7262 C360.4117,384.9632 365.4134,386.2122 369.452,390.9387 C374.0723,383.7913 378.3329,383.9161 382.9739,390.919 C387.2487,384.6356 391.0813,385.6236 395.1773,391.1045 C398.5088,386.4186 403.7224,386.5722 406.5026,391.7382 C409.2008,386.0805 415.4673,385.5886 419.0445,390.7161 C423.1241,384.6788 428.4219,384.7384 432.795,390.3702 C437.9696,384.9347 442.7312,385.4348 445.5816,392.7085 C448.5526,386.5845 454.0329,386.6686 457.0715,392.6443 C461.0403,386.8108 465.4244,387.5678 469.4344,392.5974 C479.1157,395.007 480.4259,401.1667 475.4282,408.955 C480.8731,417.4122 479.408,422.5155 469.4647,425.3885 C467.2171,431.0599 461.8573,431.5312 458.6814,426.3073 C455.0944,432.8175 448.9323,433.4068 444.3411,427.4636 C441.6076,433.3661 437.6371,434.9815 432.4071,430.2708 C429.1262,436.7747 424.6301,436.5988 420.5501,431.0573 C418.0217,438.4965 411.5043,438.9634 407.496,432.4411 C402.5927,438.8389 397.1336,436.7632 394.6465,430.0695 C390.7106,436.8475 384.7889,436.6921 381.2181,429.7131 C376.6834,435.2315 371.9951,433.7529 369.3215,427.7855 C365.4443,432.903 360.0853,432.5251 357.5414,426.3898 C353.0805,431.8529 346.8586,432.5887 343.5971,425.0986 C336.4991,421.0471 335.0977,413.0642 343.6787,409.0927 C335.4364,403.0645 336.3835,396.5819 344.7821,391.6036" fill="#FEF3C7" style="stroke:#181818;stroke-width:0.5;"/><text fill="#000000" font-family="Monospace" font-size="14" lengthAdjust="spacing" textLength="111.9156" x="350.35" y="413.2039">actions/checkout</text></g><!--entity tool_apt_get--><g class="entity" data-qualified-name="tool_apt_get" data-source-line="17" id="ent0012"><path d="M377.2703,476.7058 C380.7883,470.381 387.7457,470.1853 391.9259,475.8997 C395.6191,468.5794 401.6003,467.8052 407.0776,473.8819 C412.509,466.9771 420.437,467.2214 423.2812,476.4761 C426.8993,469.9329 434.0987,468.4449 438.6222,475.4509 C449.3969,476.5495 453.4152,482.1074 447.411,492.0761 C452.3388,501.7151 448.2356,509.3042 437.1082,509.3888 C434.9207,517.1137 428.6899,518.51 423.1492,512.8986 C420.893,521.1577 415.5774,523.007 408.3266,518.8719 C400.6516,524.7311 394.2958,523.927 391.1836,513.9367 C384.2079,520.531 377.5448,517.0989 375.7916,508.6079 C368.8624,503.6798 367.265,499.0717 375.1613,493.5241 C368.4673,487.456 369.4443,480.9531 377.2703,476.7058" fill="#FEF3C7" style="stroke:#181818;stroke-width:0.5;"/><text fill="#000000" font-family="Monospace" font-size="14" lengthAdjust="spacing" textLength="47.5858" x="382.51" y="497.2039">apt-get</text></g><!--entity tool_backend_check--><g class="entity" data-qualified-name="tool_backend_check" data-source-line="18" id="ent0013"><path d="M350.9062,1819.9478 C354.9089,1815.3367 358.1401,1815.9976 361.212,1820.9507 C364.11,1814.3341 368.3838,1814.9273 373.0038,1819.0621 C376.494,1812.8495 381.1959,1814.3465 384.4359,1819.3178 C388.0076,1813.4758 391.8161,1812.9441 396.5201,1818.0703 C400.2673,1812.6588 403.5392,1812.2364 407.322,1818.036 C410.8686,1813.8802 415.5897,1813.8342 418.236,1819.0809 C421.985,1813.3579 427.2945,1812.2243 431.0227,1819.1019 C434.3289,1814.2053 437.9674,1814.3771 441.013,1819.3653 C444.6776,1814.3571 450.1036,1812.9455 453.5002,1819.6509 C456.5452,1814.8157 462.0403,1813.7423 465.1846,1819.5418 C474.4094,1823.4293 478.5551,1828.7783 470.5654,1837.7523 C475.6833,1845.1847 473.3286,1851.8721 463.813,1852.6891 C460.7324,1858.5222 457.1669,1859.4655 452.6883,1854.0746 C450.0433,1859.2049 444.9801,1860.3742 441.6007,1854.838 C437.8579,1860.066 432.9183,1861.1502 429.444,1854.5616 C426.8037,1859.5796 422.5439,1861.72 418.3513,1856.1948 C415.9211,1861.0935 411.2259,1861.067 408.006,1857.1182 C402.8934,1863.508 399.0422,1862.7435 395.2217,1855.8725 C391.287,1860.3344 387.651,1860.0565 384.9931,1854.561 C382.0445,1860.1333 375.8974,1860.35 372.3513,1855.2701 C367.6504,1860.6708 363.3092,1859.3802 361.1614,1852.8712 C358.3653,1858.5652 353.9398,1857.5618 350.7736,1853.2557 C341.9164,1851.1428 338.4342,1843.7576 345.76,1836.7339 C339.1011,1829.1249 341.8093,1822.7265 350.9062,1819.9478" fill="#FEF3C7" style="stroke:#181818;stroke-width:0.5;"/><text fill="#000000" font-family="Monospace" font-size="14" lengthAdjust="spacing" textLength="99.4976" x="356.55" y="1841.2039">backend_check</text></g><!--entity tool_backend_start_server--><g class="entity" data-qualified-name="tool_backend_start_server" data-source-line="19" id="ent0014"><path d="M330.2461,1903.534 C334.8191,1898.5414 339.5506,1897.6096 343.1457,1904.5877 C346.2962,1897.6226 351.3832,1898.5581 355.585,1903.4883 C359.0202,1896.6583 365.1148,1897.1315 369.1171,1902.8781 C373.7247,1897.6167 378.4382,1898.6276 381.8655,1904.2594 C384.8764,1897.2305 388.8412,1897.3968 393.9458,1902.1041 C398.0174,1896.565 403.7215,1894.7628 407.6198,1902.2855 C411.1766,1896.2522 416.8144,1898.1632 419.4862,1903.2314 C423.5318,1895.7033 428.2745,1896.9956 433.1981,1902.2927 C437.7761,1896.4384 442.1411,1898.1178 445.5611,1903.56 C448.7909,1898.3716 455.0875,1897.0261 458.4373,1903.4267 C462.1738,1897.7781 468.6397,1897.9541 472.0431,1903.8205 C475.2621,1897.6429 480.6744,1898.6744 484.1119,1903.5826 C492.7102,1908.0658 492.5476,1913.9699 486.4492,1920.4853 C493.8862,1926.2911 492.4267,1934.5604 483.3829,1937.3741 C481.2069,1941.8674 477.6881,1942.0462 474.2667,1938.8507 C471.2159,1944.8248 466.5009,1944.2276 462.9245,1939.4029 C458.9963,1945.0427 454.6611,1944.6077 451.7144,1938.4688 C448.0731,1943.5823 444.1966,1944.5139 440.2779,1938.7607 C437.7752,1944.9828 432.7223,1944.3069 429.0145,1940.0569 C426.0797,1945.3987 422.6568,1946.3808 418.2213,1941.6677 C414.7575,1947.4916 409.7396,1946.719 406.6288,1941.3035 C403.3784,1945.0443 399.3772,1944.3188 397.2805,1939.9701 C393.4987,1945.809 388.248,1946.3142 384.7511,1939.6838 C381.9094,1943.9586 377.5448,1944.0392 374.7585,1939.6202 C371.4187,1944.939 367.2178,1944.2372 363.8759,1939.6225 C360.0021,1944.5884 355.5024,1944.2767 352.628,1938.5693 C348.743,1943.8599 344.9111,1943.6372 341.8238,1937.7952 C338.4162,1943.2625 333.724,1942.5294 331.256,1936.9003 C321.5415,1936.2284 317.2598,1930.2524 322.9456,1921.3501 C317.7023,1912.5443 320.6757,1906.2696 330.2461,1903.534" fill="#FEF3C7" style="stroke:#181818;stroke-width:0.5;"/><text fill="#000000" font-family="Monospace" font-size="14" lengthAdjust="spacing" textLength="139.8735" x="336.37" y="1925.2039">backend_start_server</text></g><!--entity tool_bash--><g class="entity" data-qualified-name="tool_bash" data-source-line="20" id="ent0015"><path d="M384.3842,811.9078 C387.3481,806.3549 391.6015,805.8253 395.1158,811.3759 C397.4261,805.9809 402.4841,803.7148 406.8877,809.0874 C411.3565,804.7164 415.9964,804.7484 418.6795,811.0587 C422.8985,805.3854 428.678,806.9457 431.3282,812.7827 C440.6166,817.4607 440.9093,822.6808 433.5379,829.5538 C439.9069,835.3988 437.2255,842.4334 429.8051,844.9311 C428.1529,849.9555 424.1635,852.2145 419.677,848.0579 C416.3373,855.0135 411.556,855.6952 407.0585,849.1391 C402.6571,853.1764 398.9998,853.769 396.2581,847.4142 C392.0325,852.5957 388.2519,852.1362 385.4824,846.0247 C376.0251,843.8525 373.6353,836.017 379.0841,828.4255 C372.341,821.3761 375.7712,814.0299 384.3842,811.9078" fill="#FEF3C7" style="stroke:#181818;stroke-width:0.5;"/><text fill="#000000" font-family="Monospace" font-size="14" lengthAdjust="spacing" textLength="31.8219" x="390.39" y="833.2039">bash</text></g><!--entity tool_cat--><g class="entity" data-qualified-name="tool_cat" data-source-line="21" id="ent0016"><path d="M390.4082,2996.252 C394.2919,2986.142 401.1592,2986.5469 407.9221,2993.2533 C415.4059,2986.561 419.7646,2989.4205 423.3738,2997.3483 C431.9892,3000.5011 432.4773,3005.9933 427.1719,3012.6103 C433.1194,3018.7674 432.7412,3026.6645 423.2911,3029.2252 C420.9683,3039.0409 413.6867,3040.0402 406.3282,3034.9596 C398.5132,3041.0514 393.2619,3038.3264 390.8527,3029.3922 C380.0925,3028.1426 378.6803,3022.6966 383.3037,3013.9343 C377.594,3005.8636 379.1407,2997.5015 390.4082,2996.252" fill="#FEF3C7" style="stroke:#181818;stroke-width:0.5;"/><text fill="#000000" font-family="Monospace" font-size="14" lengthAdjust="spacing" textLength="19.6279" x="396.49" y="3017.2039">cat</text></g><!--entity tool_chmod--><g class="entity" data-qualified-name="tool_chmod" data-source-line="22" id="ent0017"><path d="M378.2523,2659.7778 C382.498,2652.8729 388.5393,2653.2195 393.1088,2659.4105 C397.4493,2652.671 402.3193,2653.2555 406.9934,2659.0408 C412.6484,2652.0898 418.1901,2651.7484 423.3619,2659.576 C428.8856,2652.4862 433.9956,2653.8159 438.1849,2660.9651 C448.0394,2662.3347 450.4828,2667.3018 446.8606,2676.2972 C450.8746,2685.0713 447.4723,2693.4603 436.4444,2692.6575 C433.4804,2700.9319 427.8832,2700.7339 422.2191,2695.5013 C418.9186,2702.6948 414.3726,2705.4887 407.927,2698.7209 C402.4725,2706.2426 395.6575,2706.2372 391.8951,2697.0931 C385.7748,2703.1658 379.6266,2701.694 377.7793,2693.0066 C369.9588,2690.3955 369.0256,2683.296 374.486,2677.8072 C368.23,2671.6871 369.4511,2662.7525 378.2523,2659.7778" fill="#FEF3C7" style="stroke:#181818;stroke-width:0.5;"/><text fill="#000000" font-family="Monospace" font-size="14" lengthAdjust="spacing" textLength="45.5418" x="383.53" y="2681.2039">chmod</text></g><!--entity tool_cp--><g class="entity" data-qualified-name="tool_cp" data-source-line="23" id="ent0018"><path d="M392.0022,896.1823 C395.3814,887.5828 402.2668,887.2431 407.7115,894.0803 C412.6942,887.5657 419.408,889.1822 421.6624,896.7778 C429.8703,900.6 430.5238,906.8074 423.4157,912.3536 C430.1578,918.59 430.5658,925.1307 421.4102,929.5085 C420.5066,938.0566 415.6832,941.2109 407.4971,938.5391 C397.345,944.012 392.5023,939.584 392.0154,929.1388 C382.1519,925.4844 382.5594,918.3154 389.4354,912.1228 C383.8439,906.1523 382.7032,899.7552 392.0022,896.1823" fill="#FEF3C7" style="stroke:#181818;stroke-width:0.5;"/><text fill="#000000" font-family="Monospace" font-size="14" lengthAdjust="spacing" textLength="15.3299" x="398.64" y="917.2039">cp</text></g><!--entity tool_curl--><g class="entity" data-qualified-name="tool_curl" data-source-line="24" id="ent0019"><path d="M387.5032,2743.9253 C392.4653,2734.364 402.0139,2733.6255 407.7262,2743.1296 C414.654,2735.2724 420.4474,2735.2969 425.7054,2744.8536 C436.261,2745.5033 438.5117,2752.0972 433.6955,2760.5645 C438.4733,2769.394 435.0704,2774.3586 426.0639,2776.6472 C420.7999,2786.7744 415.002,2787.4759 407.2429,2779.1988 C400.4921,2786.9407 392.0594,2787.774 387.7921,2776.6398 C378.7882,2775.3319 376.0661,2768.3738 382.309,2761.5323 C374.989,2754.3011 378.7546,2746.416 387.5032,2743.9253" fill="#FEF3C7" style="stroke:#181818;stroke-width:0.5;"/><text fill="#000000" font-family="Monospace" font-size="14" lengthAdjust="spacing" textLength="24.7659" x="393.92" y="2765.2039">curl</text></g><!--entity tool_declare--><g class="entity" data-qualified-name="tool_declare" data-source-line="25" id="ent0020"><path d="M377.2533,2323.7604 C381.013,2317.2825 386.3265,2315.8822 391.2529,2322.5145 C396.8368,2315.3785 401.3729,2316.2236 406.36,2323.1554 C411.6077,2313.5831 417.3573,2313.9056 423.3803,2322.4262 C428.0304,2316.1699 436.0582,2315.1533 439.285,2323.9319 C450.8179,2323.7936 453.0094,2332.8578 448.0928,2341.1392 C453.4996,2349.7995 448.4328,2356.1593 439.2755,2356.4107 C435.5733,2365.237 428.4928,2366.7479 422.3167,2358.9315 C419.6859,2366.8302 412.9273,2369.3465 406.9282,2362.4303 C402.0366,2369.5589 394.7512,2368.8031 391.6892,2360.6106 C385.3065,2367.8675 378.4736,2365.548 375.2403,2357.2748 C364.7741,2355.8953 362.4647,2349.2748 367.7205,2340.7436 C362.7283,2332.035 367.0789,2323.9559 377.2533,2323.7604" fill="#FEF3C7" style="stroke:#181818;stroke-width:0.5;"/><text fill="#000000" font-family="Monospace" font-size="14" lengthAdjust="spacing" textLength="48.3698" x="382.12" y="2345.2039">declare</text></g><!--entity tool_die--><g class="entity" data-qualified-name="tool_die" data-source-line="26" id="ent0021"><path d="M390.5312,1987.3066 C394.7748,1979.8293 402.0843,1978.3857 407.4381,1986.0686 C414.7304,1978.1381 420.7136,1980.0689 424.8865,1989.2494 C434.2579,1990.5015 438.3179,1995.3941 433.483,2004.6012 C439.5738,2014.3279 433.9004,2020.752 424.0121,2021.5496 C421.2192,2031.3537 415.6511,2033.7113 407.3863,2027.0874 C399.1686,2034.0231 391.5143,2030.1373 389.6246,2020.3617 C381.812,2016.083 379.38,2011.4608 386.8887,2004.5339 C379.8208,1997.3159 380.7057,1990.9528 390.5312,1987.3066" fill="#FEF3C7" style="stroke:#181818;stroke-width:0.5;"/><text fill="#000000" font-family="Monospace" font-size="14" lengthAdjust="spacing" textLength="20.1179" x="396.24" y="2009.2039">die</text></g><!--entity tool_git--><g class="entity" data-qualified-name="tool_git" data-source-line="27" id="ent0022"><path d="M392.4762,979.873 C396.7591,973.6623 401.0058,971.4391 406.4625,978.6498 C412.4498,970.8233 418.4877,973.8918 422.2829,980.9757 C431.5457,982.35 435.308,987.7675 429.8394,996.372 C436.8815,1004.4738 433.7948,1011.2605 423.6143,1012.8596 C423.2798,1023.5734 415.386,1026.0068 407.5638,1020.0834 C399.2435,1025.0381 392.4647,1023.7838 390.7917,1012.9997 C382.2402,1010.7616 379.2812,1003.941 385.1853,996.7237 C379.7614,987.6441 382.8503,982.4409 392.4762,979.873" fill="#FEF3C7" style="stroke:#181818;stroke-width:0.5;"/><text fill="#000000" font-family="Monospace" font-size="14" lengthAdjust="spacing" textLength="17.2759" x="397.66" y="1001.2039">git</text></g><!--entity tool_grep--><g class="entity" data-qualified-name="tool_grep" data-source-line="28" id="ent0023"><path d="M385.1792,1148.2346 C387.856,1143.8261 392.3781,1142.6853 395.5397,1147.7016 C398.7703,1140.726 402.7201,1139.8114 408.2839,1145.3198 C411.4221,1140.5556 416.6702,1141.7247 418.9412,1146.3085 C423.3209,1142.3443 427.1813,1143.0267 429.5198,1148.5779 C439.4374,1151.3487 439.3325,1157.7252 433.8352,1164.6381 C440.6546,1172.5169 437.8141,1177.7164 429.2745,1181.4217 C427.1151,1187.5732 423.558,1189.3922 417.9964,1185.0934 C416.2157,1189.9753 411.4178,1192.0228 407.4585,1187.5466 C401.5588,1191.1156 397.5693,1190.4029 395.1892,1183.4446 C391.256,1188.0084 386.1125,1186.1968 384.5488,1180.8903 C374.834,1178.7687 372.2477,1171.0305 379.598,1163.9281 C373.8533,1157.001 376.3103,1149.9646 385.1792,1148.2346" fill="#FEF3C7" style="stroke:#181818;stroke-width:0.5;"/><text fill="#000000" font-family="Monospace" font-size="14" lengthAdjust="spacing" textLength="30.8979" x="390.85" y="1169.2039">grep</text></g><!--entity tool_info--><g class="entity" data-qualified-name="tool_info" data-source-line="29" id="ent0024"><path d="M388.1942,2072.5613 C392.1428,2063.3284 401.3672,2061.661 406.9651,2070.8838 C414.0842,2061.6613 421.863,2062.3585 426.6812,2073.1504 C436.9744,2074.479 437.677,2080.8855 433.4761,2088.592 C439.6552,2096.6271 437.6072,2103.8425 427.215,2105.874 C426.0263,2116.8794 416.7936,2120.1947 408.4554,2113.4153 C397.9872,2120.577 391.4243,2116.8751 388.1364,2105.5312 C379.6549,2102.5998 379.0564,2094.45 385.8138,2089.3335 C377.7135,2083.8248 379.5034,2075.6869 388.1942,2072.5613" fill="#FEF3C7" style="stroke:#181818;stroke-width:0.5;"/><text fill="#000000" font-family="Monospace" font-size="14" lengthAdjust="spacing" textLength="25.5499" x="393.53" y="2093.2039">info</text></g><!--entity tool_install_backend--><g class="entity" data-qualified-name="tool_install_backend" data-source-line="30" id="ent0025"><path d="M349.3502,559.6385 C352.4044,553.444 358.1791,554.3605 361.5238,559.3215 C364.987,554.0991 369.9927,553.5707 373.9607,558.716 C376.8734,554.0996 381.6715,554.3985 384.3152,559.0176 C388.5496,553.9858 392.7546,554.526 396.3836,559.7313 C399.2645,555.3277 403.3549,554.8438 406.3691,559.5856 C409.2731,552.95 414.7383,552.8519 418.4826,558.7751 C422.2429,554.1798 426.325,553.2684 430.0127,558.8572 C433.3354,554.1904 438.6464,553.7939 441.3744,559.508 C445.7446,553.9635 449.6662,555.0945 452.5653,560.952 C455.867,554.6396 461.1272,555.5108 464.8739,560.4659 C472.379,564.7401 472.6253,571.0505 466.1193,576.4185 C472.5715,581.5646 473.0284,589.7768 464.002,592.9392 C461.2866,597.9102 456.0793,597.9502 452.8164,593.5959 C449.7876,599.1734 445.5347,598.0622 442.2668,593.8537 C440.0146,599.7012 433.9908,600.9442 429.7022,596.2901 C427.0579,602.6656 422.0405,602.9501 418.3661,597.2578 C415.482,602.4155 411.7364,601.8553 408.4682,597.6644 C403.667,602.835 399.5413,603.8438 395.6906,596.6797 C392.0508,602.1772 388.2072,601.368 385.2579,596.0157 C381.153,601.0768 374.5725,601.2908 372.4878,593.9375 C370.0428,599.8151 364.6304,599.7687 361.3922,594.7448 C357.6178,599.4063 351.4574,599.9759 349.0264,593.2819 C338.8231,590.1178 337.6152,584.2134 343.5302,575.9408 C337.8303,569.2846 340.5986,561.1354 349.3502,559.6385" fill="#FEF3C7" style="stroke:#181818;stroke-width:0.5;"/><text fill="#000000" font-family="Monospace" font-size="14" lengthAdjust="spacing" textLength="101.1356" x="355.74" y="581.2039">install_backend</text></g><!--entity tool_install_plugins--><g class="entity" data-qualified-name="tool_install_plugins" data-source-line="31" id="ent0026"><path d="M353.5103,644.0523 C356.7231,637.7877 362.9385,637.8047 366.5211,643.6553 C370.3632,637.4624 376.4703,637.6855 379.5414,644.4312 C383.5766,636.7207 388.3072,636.8994 393.4268,643.3693 C398.0372,635.9578 403.9087,636.1129 408.2619,643.6251 C411.8834,637.9345 417.2887,638.8135 420.3999,644.185 C424.698,636.7406 430.6704,636.9883 435.3843,643.7463 C438.574,637.5896 442.8438,637.3454 446.8657,642.9328 C452.5828,635.9518 457.4517,637.7524 461.7686,644.4575 C472.8106,643.3002 477.5359,651.2381 471.4333,660.4449 C475.7399,669.7681 472.4974,675.7681 462.3011,677.1746 C457.6185,683.5087 451.5955,683.4124 447.0912,676.9624 C444.1873,682.8429 437.9645,683.6062 433.7958,678.4918 C429.7037,685.4468 424.879,684.5867 420.5087,678.7815 C416.3233,684.4884 410.785,685.5634 406.6373,678.7397 C402.2176,684.5184 397.841,684.2613 393.8333,678.2907 C391.1006,685.1702 384.8147,685.267 381.1474,679.207 C376.7834,685.3083 369.5261,685.4506 366.1153,678.1387 C361.8641,684.7062 355.9292,683.3314 353.0774,676.751 C345.2923,673.0996 346.2735,666.3779 352.145,661.8708 C344.8003,655.7031 343.683,648.9042 353.5103,644.0523" fill="#FEF3C7" style="stroke:#181818;stroke-width:0.5;"/><text fill="#000000" font-family="Monospace" font-size="14" lengthAdjust="spacing" textLength="93.7716" x="359.42" y="665.2039">install_plugins</text></g><!--entity tool_java--><g class="entity" data-qualified-name="tool_java" data-source-line="32" id="ent0027"><path d="M388.1272,2827.616 C392.9578,2817.4402 399.7095,2818.7887 406.4871,2825.4991 C414.4184,2815.7307 423.6605,2819.1105 428.396,2829.0515 C436.6256,2832.5952 437.7439,2838.3803 431.1892,2844.5828 C437.4994,2851.2765 436.3598,2858.0219 428.138,2862.1984 C425.7281,2874.4206 416.3983,2876.2236 407.3196,2869.5431 C397.2909,2876.5772 388.7838,2871.6093 386.7183,2860.5007 C377.8234,2856.0942 378.2823,2848.0306 387.0088,2843.9331 C380.6331,2838.7172 380.2805,2831.857 388.1272,2827.616" fill="#FEF3C7" style="stroke:#181818;stroke-width:0.5;"/><text fill="#000000" font-family="Monospace" font-size="14" lengthAdjust="spacing" textLength="26.4319" x="393.09" y="2849.2039">java</text></g><!--entity tool_mapfile--><g class="entity" data-qualified-name="tool_mapfile" data-source-line="33" id="ent0028"><path d="M375.5743,2408.3965 C380.2322,2399.4847 387.8285,2399.8478 392.4099,2408.4699 C396.3545,2401.23 401.6831,2401.8983 406.3189,2407.7349 C412.1168,2399.8136 418.5412,2400.8259 423.9571,2408.1761 C428.5148,2400.1445 435.0239,2400.7495 439.0384,2408.689 C449.9273,2409.2079 451.8331,2415.1788 447.7896,2424.1498 C453.3703,2433.8594 450.75,2440.5287 438.9156,2441.1451 C436.5913,2449.6298 428.7827,2449.8856 423.4881,2444.4329 C420.3165,2454.68 414.3659,2455.8206 406.7294,2448.7549 C400.4013,2454.878 395.6787,2454.1588 391.5105,2446.3888 C383.8391,2451.5572 378.4029,2451.049 375.1642,2441.4742 C365.4667,2438.3785 363.0498,2432.6391 370.7129,2424.8851 C365.1215,2418.0514 365.4364,2410.5927 375.5743,2408.3965" fill="#FEF3C7" style="stroke:#181818;stroke-width:0.5;"/><text fill="#000000" font-family="Monospace" font-size="14" lengthAdjust="spacing" textLength="49.4898" x="381.56" y="2429.2039">mapfile</text></g><!--entity tool_mkdir--><g class="entity" data-qualified-name="tool_mkdir" data-source-line="34" id="ent0029"><path d="M381.3313,2575.7953 C385.1559,2569.9592 390.4833,2569.9581 393.8087,2576.3065 C397.3358,2569.4431 402.9026,2569.7206 407.6347,2574.9261 C411.5726,2568.8931 415.8204,2569.4172 420.1156,2574.5259 C424.4627,2569.1838 429.7154,2568.7413 432.8207,2575.7984 C445.4244,2576.018 447.9608,2583.2073 443.5645,2593.6553 C448.1529,2602.4085 442.6585,2608.839 433.7493,2608.9043 C430.8107,2615.1677 426.9379,2617.4213 421.0934,2612.071 C418.2457,2618.7574 412.0546,2620.4015 406.7339,2615.0114 C401.3032,2619.5293 397.4174,2617.3775 395.345,2611.3757 C389.6631,2618.5977 383.2504,2616.6197 380.1983,2608.7384 C370.8484,2606.6754 366.4733,2602.1798 372.3315,2592.6708 C366.8752,2582.2365 371.1396,2577.8844 381.3313,2575.7953" fill="#FEF3C7" style="stroke:#181818;stroke-width:0.5;"/><text fill="#000000" font-family="Monospace" font-size="14" lengthAdjust="spacing" textLength="38.5699" x="387.02" y="2597.2039">mkdir</text></g><!--entity tool_mv--><g class="entity" data-qualified-name="tool_mv" data-source-line="35" id="ent0030"><path d="M390.4912,2491.3066 C394.7467,2483.8115 402.0745,2482.3658 407.4401,2490.0686 C414.746,2482.1165 420.744,2484.0493 424.9305,2493.2494 C434.3019,2494.5015 438.3619,2499.3941 433.527,2508.6012 C439.6178,2518.3279 433.9444,2524.752 424.0561,2525.5496 C421.2495,2535.3739 415.6669,2537.7326 407.3883,2531.0874 C399.159,2538.0438 391.4859,2534.156 389.5846,2524.3617 C381.772,2520.083 379.34,2515.4608 386.8487,2508.5339 C379.7808,2501.3159 380.6657,2494.9528 390.4912,2491.3066" fill="#FEF3C7" style="stroke:#181818;stroke-width:0.5;"/><text fill="#000000" font-family="Monospace" font-size="14" lengthAdjust="spacing" textLength="20.2019" x="396.2" y="2513.2039">mv</text></g><!--entity tool_print_quickref--><g class="entity" data-qualified-name="tool_print_quickref" data-source-line="36" id="ent0031"><path d="M355.3963,728.3616 C359.315,722.462 363.5441,721.0264 368.6178,727.0846 C371.5718,721.9865 377.4583,720.5756 380.8716,726.5774 C384.6808,721.3786 390.6781,721.5949 393.5131,727.6698 C396.8362,719.2577 403.0734,718.4319 408.2426,725.9644 C412.9763,720.3389 416.9612,720.4085 421.0756,726.635 C425.3785,720.4796 431.8004,721.0495 434.7391,728.0516 C438.4446,722.5797 442.9059,721.916 447.3555,727.1769 C451.2365,721.9646 457.1755,721.9988 460.4832,727.8567 C469.2578,732.6209 469.4575,740.8243 460.7461,745.8441 C467.9361,749.8838 468.0007,757.3216 460.235,760.852 C458.4434,767.0364 452.4101,769.8029 447.5682,764.1032 C443.9284,770.527 437.9148,771.6641 433.8633,764.519 C431.5123,771.0339 425.2908,772.664 420.7586,766.8345 C417.7488,774.723 411.3297,775.7132 406.4707,768.5952 C402.3803,773.709 396.6039,772.1722 394.1959,766.6531 C389.8424,772.2968 384.7171,771.0602 381.8749,765.0546 C376.9921,771.6339 371.974,770.907 368.7169,763.5227 C363.9768,770.4847 357.627,770.0973 354.0435,762.3676 C342.7765,761.5953 339.6746,754.2914 346.0002,745.2518 C341.7069,736.8212 343.7825,727.9431 355.3963,728.3616" fill="#FEF3C7" style="stroke:#181818;stroke-width:0.5;"/><text fill="#000000" font-family="Monospace" font-size="14" lengthAdjust="spacing" textLength="91.4896" x="360.56" y="749.2039">print_quickref</text></g><!--entity tool_repo_architecture_drawio--><g class="entity" data-qualified-name="tool_repo_architecture_drawio" data-source-line="37" id="ent0032"><path d="M317.8562,2912.198 C321.3112,2904.8736 327.6336,2905.3771 331.7678,2911.495 C335.8542,2904.8187 341.6083,2905.736 344.7087,2912.448 C347.6674,2906.0697 354.0195,2905.0867 357.7921,2911.6235 C361.8647,2906.2383 365.5737,2906.8446 369.3908,2911.9071 C372.4764,2905.8134 377.9002,2905.137 382.5882,2909.9721 C387.8099,2904.2602 392.2896,2904.2086 395.9314,2911.5831 C399.0565,2904.3562 404.0643,2904.7102 408.6417,2910.1228 C412.6621,2903.7432 417.8203,2904.9529 420.8767,2911.0669 C424.735,2906.1713 429.7028,2905.2177 432.7043,2911.9391 C437.243,2906.0867 441.7853,2905.2105 446.6922,2911.5154 C450.3223,2906.5614 453.89,2906.2996 457.7751,2911.2295 C461.4773,2906.4897 467.3946,2906.7858 469.8861,2912.6165 C473.6745,2906.8307 478.767,2906.5819 482.8664,2912.2644 C486.1889,2906.0108 492.5987,2905.5124 496.2919,2911.8698 C504.7858,2916.2333 507.317,2923.2129 498.4871,2929.7083 C506.7763,2934.4126 506.0279,2941.5643 497.6425,2945.3694 C494.3506,2951.6309 487.6787,2952.0697 483.6835,2946.1772 C480.5044,2952.5205 476.5575,2952.5598 471.5768,2948.2185 C467.5289,2953.8279 462.5105,2954.2208 458.2769,2948.4353 C454.8407,2954.4619 451.0149,2954.0855 446.6627,2949.4313 C443.3399,2956.4393 438.0727,2958.3776 432.1892,2952.2537 C428.4,2959.4231 423.9607,2959.6997 419.2375,2953.1345 C414.9933,2959.7029 410.8424,2959.7732 406.4671,2953.2626 C402.6881,2958.2745 398.1925,2959.3459 394.8181,2952.853 C390.2256,2958.6876 384.6748,2957.7445 382.3331,2950.6752 C377.963,2957.2799 371.8791,2956.4184 368.2535,2949.8778 C363.3299,2954.6605 358.8949,2953.8699 355.5422,2948.0027 C351.7251,2953.5668 346.7904,2952.3053 344.3189,2946.656 C340.3393,2952.5303 335.3743,2953.0617 331.0074,2947.0914 C327.5123,2952.4255 321.063,2952.3288 317.9794,2946.6066 C307.3969,2941.715 307.8207,2934.4453 316.5335,2928.0502 C309.3018,2922.4053 309.0158,2916.5019 317.8562,2912.198" fill="#FEF3C7" style="stroke:#181818;stroke-width:0.5;"/><text fill="#000000" font-family="Monospace" font-size="14" lengthAdjust="spacing" textLength="164.0234" x="324.29" y="2933.2039">repo-architecture.drawio</text></g><!--entity tool_run--><g class="entity" data-qualified-name="tool_run" data-source-line="38" id="ent0033"><path d="M387.9702,56.8706 C392.8418,47.7293 401.1448,46.1296 408.2051,54.3143 C414.0687,46.5504 422.3935,48.2883 425.7927,56.9525 C435.3823,57.6613 441.0716,62.4144 435.5844,72.5737 C440.8185,82.0202 437.3165,87.44 426.943,88.3228 C426.7046,101.0475 420.3731,106.0421 408.3797,99.8709 C397.473,104.9036 390.3106,103.4176 389.6102,89.6703 C379.9493,88.8356 376.1611,80.744 381.5139,72.7327 C376.4585,64.6057 378.8747,59.2377 387.9702,56.8706" fill="#FEF3C7" style="stroke:#181818;stroke-width:0.5;"/><text fill="#000000" font-family="Monospace" font-size="14" lengthAdjust="spacing" textLength="23.0859" x="394.76" y="77.2039">run</text></g><!--entity tool_screen--><g class="entity" data-qualified-name="tool_screen" data-source-line="39" id="ent0034"><path d="M377.7483,1232.0872 C381.3839,1224.3804 387.7938,1224.24 392.6283,1230.8402 C397.6641,1224.7285 403.1867,1224.6973 407.7591,1231.3878 C412.0738,1224.8558 418.8136,1225.1984 422.6965,1231.8761 C426.5403,1225.0593 431.5995,1226.4978 435.5826,1231.7271 C445.9848,1232.796 451.3103,1237.0879 446.4961,1248.2235 C452.0333,1259.0446 447.5256,1263.4559 436.851,1264.9013 C433.4066,1273.5155 428.4053,1274.3351 421.8906,1267.9671 C419.4679,1276.5245 414.2836,1277.8201 407.3312,1272.8379 C401.7042,1278.1877 395.6165,1275.511 393.7718,1268.641 C387.8722,1275.0792 382.066,1274.8644 378.4067,1266.3404 C368.684,1264.3214 365.1983,1256.9669 370.1344,1248.2462 C365.5454,1240.7017 367.8823,1232.8206 377.7483,1232.0872" fill="#FEF3C7" style="stroke:#181818;stroke-width:0.5;"/><text fill="#000000" font-family="Monospace" font-size="14" lengthAdjust="spacing" textLength="43.6518" x="384.48" y="1253.2039">screen</text></g><!--entity tool_session_create--><g class="entity" data-qualified-name="tool_session_create" data-source-line="40" id="ent0035"><path d="M352.7212,1316.0349 C356.3651,1310.9628 361.2221,1311.4924 363.9133,1317.039 C367.3069,1312.2142 371.2772,1310.7895 374.9942,1316.7053 C377.3353,1310.1714 381.6933,1309.1458 386.3694,1314.4643 C390.2277,1308.9959 394.5729,1309.5596 397.1782,1315.6373 C398.9886,1309.4522 404.2934,1308.8951 408.0923,1313.6543 C411.7518,1309.8235 415.8991,1309.7689 418.097,1315.2284 C421.9909,1309.379 427.0884,1310.4064 429.8946,1316.3194 C432.8262,1310.5595 437.3372,1311.107 440.8842,1315.664 C444.4936,1311.1042 447.7343,1311.2539 450.5858,1316.42 C454.7296,1310.1279 459.1534,1310.7302 463.3963,1316.3131 C472.8927,1318.2097 475.1666,1325.0584 469.0061,1332.4111 C475.4773,1339.5939 472.3215,1347.9619 463.0691,1349.7657 C460.654,1355.8404 455.161,1356.6215 450.777,1352.0361 C447.5616,1356.759 443.4701,1356.7271 440.2042,1352.0931 C437.3361,1357.1258 433.7894,1358.173 429.6093,1353.5298 C427.2797,1358.7212 422.2015,1359.9561 418.5569,1354.9559 C415.8785,1360.2507 410.8475,1361.2588 407.1406,1356.0765 C403.705,1361.627 399.6001,1360.447 396.574,1355.658 C392.7004,1359.6134 388.515,1360.2184 385.9729,1354.2375 C381.7497,1359.532 378.3906,1358.4217 375.3858,1353.0303 C370.7694,1357.8893 364.4923,1357.0826 362.4454,1350.1987 C358.0193,1355.3043 354.2655,1354.6339 351.4419,1348.6138 C341.0568,1348.094 339.4429,1340.5614 344.5837,1333.1541 C338.2663,1323.9074 343.186,1317.7461 352.7212,1316.0349" fill="#FEF3C7" style="stroke:#181818;stroke-width:0.5;"/><text fill="#000000" font-family="Monospace" font-size="14" lengthAdjust="spacing" textLength="96.1656" x="358.22" y="1337.2039">session_create</text></g><!--entity tool_session_kill--><g class="entity" data-qualified-name="tool_session_kill" data-source-line="41" id="ent0036"><path d="M363.8262,1399.7082 C369.0212,1392.0868 374.2594,1393.6606 378.6877,1400.4963 C382.3049,1393.344 388.0134,1393.5784 392.0949,1400.0389 C396.9297,1392.5744 401.6971,1391.3043 407.9029,1398.5673 C411.9643,1391.1986 419.0653,1391.4645 422.6899,1399.0007 C427.2751,1392.1402 434.1676,1392.4172 437.384,1400.3593 C441.0211,1394.5437 447.7224,1393.9811 450.8857,1400.8631 C460.2534,1400.9338 464.3634,1408.7506 459.2733,1416.5512 C465.2179,1425.1643 461.5453,1431.1668 451.9504,1432.7589 C448.1678,1440.6116 440.5768,1440.5194 435.6579,1434.0518 C432.3508,1442.1702 427.0683,1441.661 421.8088,1436.0165 C419.0162,1443.3986 412.1315,1442.8855 408.0716,1437.3659 C403.2418,1442.9436 398.2709,1443.923 393.9328,1436.8179 C388.3742,1442.4868 382.0518,1441.7957 378.9543,1434.0665 C374.7637,1441.7876 368.2726,1441.8277 364.3976,1433.7753 C353.8376,1432.9199 351.9051,1423.6176 357.3471,1416.3045 C352.0333,1409.1206 353.0992,1400.6298 363.8262,1399.7082" fill="#FEF3C7" style="stroke:#181818;stroke-width:0.5;"/><text fill="#000000" font-family="Monospace" font-size="14" lengthAdjust="spacing" textLength="73.2757" x="369.66" y="1421.2039">session_kill</text></g><!--entity tool_success--><g class="entity" data-qualified-name="tool_success" data-source-line="42" id="ent0037"><path d="M375.6373,2155.4511 C380.5788,2146.4778 386.4647,2147.816 391.7749,2155.0848 C395.7327,2146.2261 403.5665,2147.8503 407.7972,2154.8084 C413.295,2146.5336 420.1538,2147.0659 424.0102,2156.3261 C428.6151,2150.3068 435.7012,2150.3775 439.6133,2157.17 C448.815,2157.8362 453.8213,2164.5437 448.3833,2173.2129 C454.917,2183.622 450.2906,2190.0356 438.7949,2190.367 C434.5178,2198.3144 426.9786,2197.5609 422.6097,2190.4657 C419.2092,2197.0376 412.5157,2198.7068 407.527,2192.3134 C402.3818,2199.9524 395.7577,2198.5994 392.054,2190.8628 C387.1854,2200.1563 378.8283,2198.4863 374.6929,2190.141 C364.1124,2186.4287 364.4313,2178.3951 372.1521,2172.1046 C366.1962,2164.8141 367.7102,2159.8362 375.6373,2155.4511" fill="#FEF3C7" style="stroke:#181818;stroke-width:0.5;"/><text fill="#000000" font-family="Monospace" font-size="14" lengthAdjust="spacing" textLength="50.1058" x="381.25" y="2177.2039">success</text></g><!--entity tool_summarize--><g class="entity" data-qualified-name="tool_summarize" data-source-line="43" id="ent0038"><path d="M363.8362,139.7082 C369.0305,132.088 374.2679,133.6617 378.6954,140.4963 C382.3119,133.3452 388.0194,133.5795 392.1002,140.0389 C396.9342,132.5754 401.7009,131.3054 407.9059,138.5673 C411.9667,131.1997 419.0665,131.4657 422.6906,139.0007 C427.2751,132.1413 434.1665,132.4184 437.3824,140.3593 C441.0189,134.5447 447.719,133.9823 450.8817,140.8631 C460.2494,140.9338 464.3594,148.7506 459.2693,156.5512 C465.2139,165.1643 461.5413,171.1668 451.9464,172.7589 C448.1644,180.6105 440.5745,180.5184 435.6562,174.0518 C432.3499,182.1689 427.0683,181.6599 421.8095,176.0165 C419.0174,183.3974 412.1339,182.8845 408.0746,177.3659 C403.2456,182.9427 398.2755,183.9218 393.9381,176.8179 C388.3802,182.4858 382.0588,181.7947 378.9619,174.0665 C374.772,181.7863 368.2819,181.8264 364.4076,173.7753 C353.8476,172.9199 351.9151,163.6176 357.3571,156.3045 C352.0433,149.1206 353.1092,140.6298 363.8362,139.7082" fill="#FEF3C7" style="stroke:#181818;stroke-width:0.5;"/><text fill="#000000" font-family="Monospace" font-size="14" lengthAdjust="spacing" textLength="73.2617" x="369.67" y="161.2039">summarize</text></g><!--entity tool_tachometer--><g class="entity" data-qualified-name="tool_tachometer" data-source-line="44" id="ent0039"><path d="M362.6472,223.6907 C365.4207,218.6174 369.976,218.9775 372.7074,223.7338 C376.7884,217.5092 382.1357,218.9347 385.5926,224.4206 C388.9105,218.9344 392.1663,218.5078 395.9078,224.0235 C398.7986,217.1195 403.3521,217.0811 408.0858,222.1488 C411.9008,216.9114 416.2924,219.0105 418.5733,223.7599 C421.7061,218.6305 425.7349,218.416 429.256,223.3474 C433.0974,217.506 438.0007,218.6284 441.0676,224.1523 C444.136,218.4488 448.7769,219.7477 451.7523,224.2497 C459.9808,228.061 460.6621,235.0747 453.4996,240.5371 C461.52,245.5006 461.001,251.1823 453.6684,256.3101 C450.4861,261.712 446.1987,262.4527 442.2712,257.0998 C439.6129,263.7654 434.5521,264.0238 430.038,259.0502 C426.0725,264.4338 422.7546,263.6977 419.0371,258.7852 C416.6291,264.4725 411.3653,264.6148 408.3616,259.3666 C404.9525,264.1032 399.855,264.5201 396.7393,259.0332 C392.7147,262.8121 388.0051,263.0921 385.8726,256.959 C382.873,263.9778 376.7363,263.2166 372.6972,258.0863 C369.1531,262.5639 363.527,262.1996 361.1747,256.7087 C352.3679,255.5597 349.4125,247.3143 354.2887,240.3911 C349.5721,230.9882 350.9916,224.8994 362.6472,223.6907" fill="#FEF3C7" style="stroke:#181818;stroke-width:0.5;"/><text fill="#000000" font-family="Monospace" font-size="14" lengthAdjust="spacing" textLength="76.4677" x="368.07" y="245.2039">tachometer</text></g><!--entity tool_tmux--><g class="entity" data-qualified-name="tool_tmux" data-source-line="45" id="ent0040"><path d="M382.8212,1064.8532 C384.8385,1058.3673 390.8745,1057.8468 394.9998,1062.5611 C398.8649,1055.9451 403.1854,1055.7995 407.6074,1062.0139 C412.0111,1056.5281 415.8555,1056.7449 419.3734,1062.9086 C423.6137,1057.1587 429.3992,1057.2029 432.2493,1064.3017 C440.2422,1068.1633 440.9631,1074.6647 434.4401,1080.4906 C440.9522,1086.6082 440.071,1094.4189 431.4217,1097.9092 C429.6997,1104.1391 424.4485,1106.6423 419.1025,1102.025 C418.1112,1108.274 412.8075,1109.3817 408.4589,1105.5806 C401.9195,1111.0585 396.5108,1109.181 394.9636,1100.7403 C389.1736,1106.6314 384.3773,1105.2432 382.2537,1097.3578 C371.6335,1095.4828 370.1482,1089.3657 376.1449,1081.206 C370.2282,1072.88 374.0206,1067.1707 382.8212,1064.8532" fill="#FEF3C7" style="stroke:#181818;stroke-width:0.5;"/><text fill="#000000" font-family="Monospace" font-size="14" lengthAdjust="spacing" textLength="34.2019" x="389.2" y="1085.2039">tmux</text></g><!--entity tool_warn--><g class="entity" data-qualified-name="tool_warn" data-source-line="46" id="ent0041"><path d="M382.9082,2239.5985 C387.0707,2233.7415 391.8807,2233.5806 395.7112,2239.9462 C398.8076,2233.7789 404.2593,2232.8574 408.332,2238.9404 C411.1544,2234.3998 416.2594,2233.2072 419.2498,2238.7586 C423.2846,2233.3141 428.4896,2233.7731 431.5304,2239.8208 C442.3988,2241.9442 441.9495,2251.3509 435.9024,2257.6275 C442.3548,2264.3504 439.9168,2270.4418 431.3984,2272.6874 C429.5511,2278.2743 424.24,2279.822 419.9105,2275.5921 C416.8795,2281.9238 412.2726,2282.7408 407.6643,2277.2221 C403.6116,2282.7837 397.2605,2282.8212 394.4965,2275.8664 C389.7281,2279.8015 385.04,2278.2836 382.875,2272.6909 C372.5563,2272.2708 369.781,2263.5091 374.8557,2255.7866 C369.0728,2247.833 372.1748,2239.3363 382.9082,2239.5985" fill="#FEF3C7" style="stroke:#181818;stroke-width:0.5;"/><text fill="#000000" font-family="Monospace" font-size="14" lengthAdjust="spacing" textLength="33.2919" x="389.66" y="2261.2039">warn</text></g><!--entity tool_xargs--><g class="entity" data-qualified-name="tool_xargs" data-source-line="47" id="ent0042"><path d="M383.1773,308.1046 C386.4092,301.5937 391.9767,301.1248 395.5977,307.7362 C399.1727,302.4195 404.4362,302.1396 408.3895,307.2732 C411.1754,301.8466 416.1147,301.0181 419.3587,306.8259 C423.8249,301.3428 429.6181,301.9985 432.2465,308.7603 C443.5768,308.9242 448.4421,314.6854 443.028,325.5815 C445.9899,335.7938 443.4202,341.4805 431.7839,341.1481 C430.7884,348.1203 424.9547,348.3374 420.6735,344.5368 C419.3065,351.4671 414.0291,353.8544 408.3271,349.1284 C402.5066,354.2565 397.1657,352.3757 395.0912,345.1235 C389.904,349.883 385.5395,348.3378 383.1758,342.0721 C372.9293,340.9593 369.863,332.8738 376.93,325.3098 C369.6242,317.5178 373.5074,309.7325 383.1773,308.1046" fill="#FEF3C7" style="stroke:#181818;stroke-width:0.5;"/><text fill="#000000" font-family="Monospace" font-size="14" lengthAdjust="spacing" textLength="36.3579" x="388.12" y="329.2039">xargs</text></g><g class="entity" data-qualified-name="toolingGraphSummary" data-source-line="97" id="ent0091"><path d="M24.39,46.0679 L24.39,91.4799 L231.9012,91.4799 L231.9012,56.0679 L221.9012,46.0679 L24.39,46.0679" fill="#FEFFDD" style="stroke:#181818;stroke-width:0.5;"/><path d="M221.9012,46.0679 L221.9012,56.0679 L231.9012,56.0679 L221.9012,46.0679" fill="#FEFFDD" style="stroke:#181818;stroke-width:1;"/><text fill="#000000" font-family="Monospace" font-size="13" lengthAdjust="spacing" textLength="186.5112" x="30.39" y="64.9649">Scanned&#160;5&#160;tooling&#160;entrypoints.</text><text fill="#000000" font-family="Monospace" font-size="13" lengthAdjust="spacing" textLength="179.2182" x="30.39" y="82.6709">Detected&#160;36&#160;third-party&#160;tools.</text></g><!--link source_github_workflows_ci_yml to tool_actions_checkout--><g class="link" data-entity-1="ent0002" data-entity-2="ent0011" data-link-type="dependency" data-source-line="48" id="lnk43"><path d="M219.61,407.7779 C257.14,407.7779 293.92,407.7779 329.06,407.7779" fill="none" id="source_github_workflows_ci_yml-to-tool_actions_checkout" style="stroke:#181818;stroke-width:1;"/><polygon fill="#181818" points="335.06,407.7779,326.06,403.7779,330.06,407.7779,326.06,411.7779,335.06,407.7779" style="stroke:#181818;stroke-width:1;"/></g><!--link source_github_workflows_ci_yml to tool_apt_get--><g class="link" data-entity-1="ent0002" data-entity-2="ent0012" data-link-type="dependency" data-source-line="49" id="lnk44"><path d="M215.31,437.3079 C215.31,458.5979 215.31,483.5979 215.31,483.5979 C215.31,483.5979 305.32,483.5979 361.19,483.5979" fill="none" id="source_github_workflows_ci_yml-to-tool_apt_get" style="stroke:#181818;stroke-width:1;"/><polygon fill="#181818" points="367.19,483.5979,358.19,479.5979,362.19,483.5979,358.19,487.5979,367.19,483.5979" style="stroke:#181818;stroke-width:1;"/></g><!--link source_github_workflows_ci_yml to tool_xargs--><g class="link" data-entity-1="ent0002" data-entity-2="ent0042" data-link-type="dependency" data-source-line="50" id="lnk45"><path d="M128.31,378.3979 C128.31,354.1679 128.31,323.7779 128.31,323.7779 C128.31,323.7779 292.83,323.7779 366.77,323.7779" fill="none" id="source_github_workflows_ci_yml-to-tool_xargs" style="stroke:#181818;stroke-width:1;"/><polygon fill="#181818" points="372.77,323.7779,363.77,319.7779,367.77,323.7779,363.77,327.7779,372.77,323.7779" style="stroke:#181818;stroke-width:1;"/></g><!--link source_install_sh to tool_apt_get--><g class="link" data-entity-1="ent0003" data-entity-2="ent0012" data-link-type="dependency" data-source-line="51" id="lnk46"><path d="M88.31,966.2379 C88.31,859.4979 88.31,499.9479 88.31,499.9479 C88.31,499.9479 276.4,499.9479 361.31,499.9479" fill="none" id="source_install_sh-to-tool_apt_get" style="stroke:#181818;stroke-width:1;"/><polygon fill="#181818" points="367.31,499.9479,358.31,495.9479,362.31,499.9479,358.31,503.9479,367.31,499.9479" style="stroke:#181818;stroke-width:1;"/></g><!--link source_install_sh to tool_bash--><g class="link" data-entity-1="ent0003" data-entity-2="ent0015" data-link-type="dependency" data-source-line="52" id="lnk47"><path d="M195.19,982.1479 C269.29,982.1479 378.31,982.1479 378.31,982.1479 C378.31,982.1479 378.31,902.2179 378.31,858.5779" fill="none" id="source_install_sh-to-tool_bash" style="stroke:#181818;stroke-width:1;"/><polygon fill="#181818" points="378.31,852.5779,374.31,861.5779,378.31,857.5779,382.31,861.5779,378.31,852.5779" style="stroke:#181818;stroke-width:1;"/></g><!--link source_install_sh to tool_cp--><g class="link" data-entity-1="ent0003" data-entity-2="ent0018" data-link-type="dependency" data-source-line="53" id="lnk48"><path d="M168.31,966.3979 C168.31,942.1679 168.31,911.7779 168.31,911.7779 C168.31,911.7779 317.92,911.7779 377.48,911.7779" fill="none" id="source_install_sh-to-tool_cp" style="stroke:#181818;stroke-width:1;"/><polygon fill="#181818" points="383.48,911.7779,374.48,907.7779,378.48,911.7779,374.48,915.7779,383.48,911.7779" style="stroke:#181818;stroke-width:1;"/></g><!--link source_install_sh to tool_die--><g class="link" data-entity-1="ent0003" data-entity-2="ent0021" data-link-type="dependency" data-source-line="54" id="lnk49"><path d="M195.28,998.4979 C204.74,998.4979 211.31,998.4979 211.31,998.4979 C211.31,998.4979 211.31,1991.5079 211.31,1991.5079 C211.31,1991.5079 321.96,1991.5079 374.81,1991.5079" fill="none" id="source_install_sh-to-tool_die" style="stroke:#181818;stroke-width:1;"/><polygon fill="#181818" points="380.81,1991.5079,371.81,1987.5079,375.81,1991.5079,371.81,1995.5079,380.81,1991.5079" style="stroke:#181818;stroke-width:1;"/></g><!--link source_install_sh to tool_git--><g class="link" data-entity-1="ent0003" data-entity-2="ent0022" data-link-type="dependency" data-source-line="55" id="lnk50"><path d="M195.13,987.5979 C255.57,987.5979 335.13,987.5979 376.31,987.5979" fill="none" id="source_install_sh-to-tool_git" style="stroke:#181818;stroke-width:1;"/><polygon fill="#181818" points="382.31,987.5979,373.31,983.5979,377.31,987.5979,373.31,991.5979,382.31,987.5979" style="stroke:#181818;stroke-width:1;"/></g><!--link source_install_sh to tool_grep--><g class="link" data-entity-1="ent0003" data-entity-2="ent0023" data-link-type="dependency" data-source-line="56" id="lnk51"><path d="M170.31,1025.0879 C170.31,1071.2279 170.31,1155.5979 170.31,1155.5979 C170.31,1155.5979 305.48,1155.5979 369.45,1155.5979" fill="none" id="source_install_sh-to-tool_grep" style="stroke:#181818;stroke-width:1;"/><polygon fill="#181818" points="375.45,1155.5979,366.45,1151.5979,370.45,1155.5979,366.45,1159.5979,375.45,1155.5979" style="stroke:#181818;stroke-width:1;"/></g><!--link source_install_sh to tool_info--><g class="link" data-entity-1="ent0003" data-entity-2="ent0024" data-link-type="dependency" data-source-line="57" id="lnk52"><path d="M195.29,1003.9479 C202.52,1003.9479 207.31,1003.9479 207.31,1003.9479 C207.31,1003.9479 207.31,2075.5079 207.31,2075.5079 C207.31,2075.5079 317.36,2075.5079 372.21,2075.5079" fill="none" id="source_install_sh-to-tool_info" style="stroke:#181818;stroke-width:1;"/><polygon fill="#181818" points="378.21,2075.5079,369.21,2071.5079,373.21,2075.5079,369.21,2079.5079,378.21,2075.5079" style="stroke:#181818;stroke-width:1;"/></g><!--link source_install_sh to tool_install_backend--><g class="link" data-entity-1="ent0003" data-entity-2="ent0025" data-link-type="dependency" data-source-line="58" id="lnk53"><path d="M114.31,966.2379 C114.31,870.6379 114.31,575.7779 114.31,575.7779 C114.31,575.7779 248.29,575.7779 334.41,575.7779" fill="none" id="source_install_sh-to-tool_install_backend" style="stroke:#181818;stroke-width:1;"/><polygon fill="#181818" points="340.41,575.7779,331.41,571.7779,335.41,575.7779,331.41,579.7779,340.41,575.7779" style="stroke:#181818;stroke-width:1;"/></g><!--link source_install_sh to tool_install_plugins--><g class="link" data-entity-1="ent0003" data-entity-2="ent0026" data-link-type="dependency" data-source-line="59" id="lnk54"><path d="M141.31,966.2479 C141.31,884.2579 141.31,659.7779 141.31,659.7779 C141.31,659.7779 259.85,659.7779 338.17,659.7779" fill="none" id="source_install_sh-to-tool_install_plugins" style="stroke:#181818;stroke-width:1;"/><polygon fill="#181818" points="344.17,659.7779,335.17,655.7779,339.17,659.7779,335.17,663.7779,344.17,659.7779" style="stroke:#181818;stroke-width:1;"/></g><!--link source_install_sh to tool_print_quickref--><g class="link" data-entity-1="ent0003" data-entity-2="ent0031" data-link-type="dependency" data-source-line="60" id="lnk55"><path d="M195.05,976.6879 C262.69,976.6879 357.31,976.6879 357.31,976.6879 C357.31,976.6879 357.31,834.7879 357.31,774.6979" fill="none" id="source_install_sh-to-tool_print_quickref" style="stroke:#181818;stroke-width:1;"/><polygon fill="#181818" points="357.31,768.6979,353.31,777.6979,357.31,773.6979,361.31,777.6979,357.31,768.6979" style="stroke:#181818;stroke-width:1;"/></g><!--link source_install_sh to tool_success--><g class="link" data-entity-1="ent0003" data-entity-2="ent0037" data-link-type="dependency" data-source-line="61" id="lnk56"><path d="M195.27,1009.4079 C200.21,1009.4079 203.31,1009.4079 203.31,1009.4079 C203.31,1009.4079 203.31,2159.5079 203.31,2159.5079 C203.31,2159.5079 301.04,2159.5079 360.2,2159.5079" fill="none" id="source_install_sh-to-tool_success" style="stroke:#181818;stroke-width:1;"/><polygon fill="#181818" points="366.2,2159.5079,357.2,2155.5079,361.2,2159.5079,357.2,2163.5079,366.2,2159.5079" style="stroke:#181818;stroke-width:1;"/></g><!--link source_install_sh to tool_tmux--><g class="link" data-entity-1="ent0003" data-entity-2="ent0040" data-link-type="dependency" data-source-line="62" id="lnk57"><path d="M195.06,993.0479 C269.77,993.0479 380.31,993.0479 380.31,993.0479 C380.31,993.0479 380.31,1023.5179 380.31,1049.1579" fill="none" id="source_install_sh-to-tool_tmux" style="stroke:#181818;stroke-width:1;"/><polygon fill="#181818" points="380.31,1055.1579,384.31,1046.1579,380.31,1050.1579,376.31,1046.1579,380.31,1055.1579" style="stroke:#181818;stroke-width:1;"/></g><!--link source_install_sh to tool_warn--><g class="link" data-entity-1="ent0003" data-entity-2="ent0041" data-link-type="dependency" data-source-line="63" id="lnk58"><path d="M195.08,1014.8579 C197.75,1014.8579 199.31,1014.8579 199.31,1014.8579 C199.31,1014.8579 199.31,2243.5079 199.31,2243.5079 C199.31,2243.5079 310.35,2243.5079 368.41,2243.5079" fill="none" id="source_install_sh-to-tool_warn" style="stroke:#181818;stroke-width:1;"/><polygon fill="#181818" points="374.41,2243.5079,365.41,2239.5079,369.41,2243.5079,365.41,2247.5079,374.41,2243.5079" style="stroke:#181818;stroke-width:1;"/></g><!--link source_scripts_run_tachometer_profile_sh to tool_run--><g class="link" data-entity-1="ent0004" data-entity-2="ent0033" data-link-type="dependency" data-source-line="64" id="lnk59"><path d="M240.31,126.5179 C240.31,101.4479 240.31,69.3579 240.31,69.3579 C240.31,69.3579 326.23,69.3579 373.26,69.3579" fill="none" id="source_scripts_run_tachometer_profile_sh-to-tool_run" style="stroke:#181818;stroke-width:1;"/><polygon fill="#181818" points="379.26,69.3579,370.26,65.3579,374.26,69.3579,370.26,73.3579,379.26,69.3579" style="stroke:#181818;stroke-width:1;"/></g><!--link source_scripts_run_tachometer_profile_sh to tool_summarize--><g class="link" data-entity-1="ent0004" data-entity-2="ent0038" data-link-type="dependency" data-source-line="65" id="lnk60"><path d="M249.74,155.7779 C286.44,155.7779 318.78,155.7779 348.34,155.7779" fill="none" id="source_scripts_run_tachometer_profile_sh-to-tool_summarize" style="stroke:#181818;stroke-width:1;"/><polygon fill="#181818" points="354.34,155.7779,345.34,151.7779,349.34,155.7779,345.34,159.7779,354.34,155.7779" style="stroke:#181818;stroke-width:1;"/></g><!--link source_scripts_run_tachometer_profile_sh to tool_tachometer--><g class="link" data-entity-1="ent0004" data-entity-2="ent0039" data-link-type="dependency" data-source-line="66" id="lnk61"><path d="M234.31,185.1579 C234.31,209.3779 234.31,239.7779 234.31,239.7779 C234.31,239.7779 296.34,239.7779 346.83,239.7779" fill="none" id="source_scripts_run_tachometer_profile_sh-to-tool_tachometer" style="stroke:#181818;stroke-width:1;"/><polygon fill="#181818" points="352.83,239.7779,343.83,235.7779,347.83,239.7779,343.83,243.7779,352.83,239.7779" style="stroke:#181818;stroke-width:1;"/></g><!--link source_sessions_sh to tool_bashrc--><g class="link" data-entity-1="ent0005" data-entity-2="ent0007" data-link-type="dependency" data-source-line="67" id="lnk62"><path d="M134.31,1806.2479 C134.31,1724.2579 134.31,1499.7779 134.31,1499.7779 C134.31,1499.7779 285.72,1499.7779 361.04,1499.7779" fill="none" id="source_sessions_sh-to-tool_bashrc" style="stroke:#181818;stroke-width:1;"/><polygon fill="#181818" points="367.04,1499.7779,358.04,1495.7779,362.04,1499.7779,358.04,1503.7779,367.04,1499.7779" style="stroke:#181818;stroke-width:1;"/></g><!--link source_sessions_sh to tool_kshrc--><g class="link" data-entity-1="ent0005" data-entity-2="ent0008" data-link-type="dependency" data-source-line="68" id="lnk63"><path d="M146.31,1806.3779 C146.31,1739.8979 146.31,1583.7779 146.31,1583.7779 C146.31,1583.7779 294.66,1583.7779 365.51,1583.7779" fill="none" id="source_sessions_sh-to-tool_kshrc" style="stroke:#181818;stroke-width:1;"/><polygon fill="#181818" points="371.51,1583.7779,362.51,1579.7779,366.51,1583.7779,362.51,1587.7779,371.51,1583.7779" style="stroke:#181818;stroke-width:1;"/></g><!--link source_sessions_sh to tool_mkshrc--><g class="link" data-entity-1="ent0005" data-entity-2="ent0009" data-link-type="dependency" data-source-line="69" id="lnk64"><path d="M158.31,1806.5079 C158.31,1758.3779 158.31,1667.7779 158.31,1667.7779 C158.31,1667.7779 288.2,1667.7779 358.8,1667.7779" fill="none" id="source_sessions_sh-to-tool_mkshrc" style="stroke:#181818;stroke-width:1;"/><polygon fill="#181818" points="364.8,1667.7779,355.8,1663.7779,359.8,1667.7779,355.8,1671.7779,364.8,1667.7779" style="stroke:#181818;stroke-width:1;"/></g><!--link source_sessions_sh to tool_zshrc--><g class="link" data-entity-1="ent0005" data-entity-2="ent0010" data-link-type="dependency" data-source-line="70" id="lnk65"><path d="M182.31,1806.3979 C182.31,1782.1679 182.31,1751.7779 182.31,1751.7779 C182.31,1751.7779 302.97,1751.7779 365.8,1751.7779" fill="none" id="source_sessions_sh-to-tool_zshrc" style="stroke:#181818;stroke-width:1;"/><polygon fill="#181818" points="371.8,1751.7779,362.8,1747.7779,366.8,1751.7779,362.8,1755.7779,371.8,1751.7779" style="stroke:#181818;stroke-width:1;"/></g><!--link source_sessions_sh to tool_backend_check--><g class="link" data-entity-1="ent0005" data-entity-2="ent0013" data-link-type="dependency" data-source-line="71" id="lnk66"><path d="M195.13,1827.5979 C239.49,1827.5979 291.39,1827.5979 335.34,1827.5979" fill="none" id="source_sessions_sh-to-tool_backend_check" style="stroke:#181818;stroke-width:1;"/><polygon fill="#181818" points="341.34,1827.5979,332.34,1823.5979,336.34,1827.5979,332.34,1831.5979,341.34,1827.5979" style="stroke:#181818;stroke-width:1;"/></g><!--link source_sessions_sh to tool_backend_start_server--><g class="link" data-entity-1="ent0005" data-entity-2="ent0014" data-link-type="dependency" data-source-line="72" id="lnk67"><path d="M195.08,1843.9479 C253.27,1843.9479 328.31,1843.9479 328.31,1843.9479 C328.31,1843.9479 328.31,1866.8379 328.31,1888.9479" fill="none" id="source_sessions_sh-to-tool_backend_start_server" style="stroke:#181818;stroke-width:1;"/><polygon fill="#181818" points="328.31,1894.9479,332.31,1885.9479,328.31,1889.9479,324.31,1885.9479,328.31,1894.9479" style="stroke:#181818;stroke-width:1;"/></g><!--link source_sessions_sh to tool_declare--><g class="link" data-entity-1="ent0005" data-entity-2="ent0020" data-link-type="dependency" data-source-line="73" id="lnk68"><path d="M123.31,1865.0479 C123.31,1972.6179 123.31,2339.7779 123.31,2339.7779 C123.31,2339.7779 282.77,2339.7779 360.66,2339.7779" fill="none" id="source_sessions_sh-to-tool_declare" style="stroke:#181818;stroke-width:1;"/><polygon fill="#181818" points="366.66,2339.7779,357.66,2335.7779,361.66,2339.7779,357.66,2343.7779,366.66,2339.7779" style="stroke:#181818;stroke-width:1;"/></g><!--link source_sessions_sh to tool_die--><g class="link" data-entity-1="ent0005" data-entity-2="ent0021" data-link-type="dependency" data-source-line="74" id="lnk69"><path d="M184.31,1865.0379 C184.31,1913.1679 184.31,2003.7779 184.31,2003.7779 C184.31,2003.7779 316.53,2003.7779 374.84,2003.7779" fill="none" id="source_sessions_sh-to-tool_die" style="stroke:#181818;stroke-width:1;"/><polygon fill="#181818" points="380.84,2003.7779,371.84,1999.7779,375.84,2003.7779,371.84,2007.7779,380.84,2003.7779" style="stroke:#181818;stroke-width:1;"/></g><!--link source_sessions_sh to tool_grep--><g class="link" data-entity-1="ent0005" data-entity-2="ent0023" data-link-type="dependency" data-source-line="75" id="lnk70"><path d="M85.31,1806.3979 C85.31,1677.9279 85.31,1171.9479 85.31,1171.9479 C85.31,1171.9479 289.18,1171.9479 369.53,1171.9479" fill="none" id="source_sessions_sh-to-tool_grep" style="stroke:#181818;stroke-width:1;"/><polygon fill="#181818" points="375.53,1171.9479,366.53,1167.9479,370.53,1171.9479,366.53,1175.9479,375.53,1171.9479" style="stroke:#181818;stroke-width:1;"/></g><!--link source_sessions_sh to tool_info--><g class="link" data-entity-1="ent0005" data-entity-2="ent0024" data-link-type="dependency" data-source-line="76" id="lnk71"><path d="M174.31,1865.1779 C174.31,1931.6479 174.31,2087.7779 174.31,2087.7779 C174.31,2087.7779 310.62,2087.7779 372.32,2087.7779" fill="none" id="source_sessions_sh-to-tool_info" style="stroke:#181818;stroke-width:1;"/><polygon fill="#181818" points="378.32,2087.7779,369.32,2083.7779,373.32,2087.7779,369.32,2091.7779,378.32,2087.7779" style="stroke:#181818;stroke-width:1;"/></g><!--link source_sessions_sh to tool_mapfile--><g class="link" data-entity-1="ent0005" data-entity-2="ent0028" data-link-type="dependency" data-source-line="77" id="lnk72"><path d="M102.31,1865.3379 C102.31,1984.5679 102.31,2423.7779 102.31,2423.7779 C102.31,2423.7779 277.7,2423.7779 360.25,2423.7779" fill="none" id="source_sessions_sh-to-tool_mapfile" style="stroke:#181818;stroke-width:1;"/><polygon fill="#181818" points="366.25,2423.7779,357.25,2419.7779,361.25,2423.7779,357.25,2427.7779,366.25,2423.7779" style="stroke:#181818;stroke-width:1;"/></g><!--link source_sessions_sh to tool_mkdir--><g class="link" data-entity-1="ent0005" data-entity-2="ent0029" data-link-type="dependency" data-source-line="78" id="lnk73"><path d="M71.31,1865.1779 C71.31,2003.8879 71.31,2585.9779 71.31,2585.9779 C71.31,2585.9779 280.13,2585.9779 365.71,2585.9779" fill="none" id="source_sessions_sh-to-tool_mkdir" style="stroke:#181818;stroke-width:1;"/><polygon fill="#181818" points="371.71,2585.9779,362.71,2581.9779,366.71,2585.9779,362.71,2589.9779,371.71,2585.9779" style="stroke:#181818;stroke-width:1;"/></g><!--link source_sessions_sh to tool_mv--><g class="link" data-entity-1="ent0005" data-entity-2="ent0030" data-link-type="dependency" data-source-line="79" id="lnk74"><path d="M82.31,1865.0779 C82.31,1994.4179 82.31,2507.7779 82.31,2507.7779 C82.31,2507.7779 298.5,2507.7779 374.88,2507.7779" fill="none" id="source_sessions_sh-to-tool_mv" style="stroke:#181818;stroke-width:1;"/><polygon fill="#181818" points="380.88,2507.7779,371.88,2503.7779,375.88,2507.7779,371.88,2511.7779,380.88,2507.7779" style="stroke:#181818;stroke-width:1;"/></g><!--link source_sessions_sh to tool_screen--><g class="link" data-entity-1="ent0005" data-entity-2="ent0034" data-link-type="dependency" data-source-line="80" id="lnk75"><path d="M98.31,1806.2079 C98.31,1686.9779 98.31,1247.7779 98.31,1247.7779 C98.31,1247.7779 281.24,1247.7779 363.15,1247.7779" fill="none" id="source_sessions_sh-to-tool_screen" style="stroke:#181818;stroke-width:1;"/><polygon fill="#181818" points="369.15,1247.7779,360.15,1243.7779,364.15,1247.7779,360.15,1251.7779,369.15,1247.7779" style="stroke:#181818;stroke-width:1;"/></g><!--link source_sessions_sh to tool_session_create--><g class="link" data-entity-1="ent0005" data-entity-2="ent0035" data-link-type="dependency" data-source-line="81" id="lnk76"><path d="M110.31,1806.4979 C110.31,1698.9279 110.31,1331.7779 110.31,1331.7779 C110.31,1331.7779 249.83,1331.7779 336.81,1331.7779" fill="none" id="source_sessions_sh-to-tool_session_create" style="stroke:#181818;stroke-width:1;"/><polygon fill="#181818" points="342.81,1331.7779,333.81,1327.7779,337.81,1331.7779,333.81,1335.7779,342.81,1331.7779" style="stroke:#181818;stroke-width:1;"/></g><!--link source_sessions_sh to tool_session_kill--><g class="link" data-entity-1="ent0005" data-entity-2="ent0036" data-link-type="dependency" data-source-line="82" id="lnk77"><path d="M122.31,1806.2379 C122.31,1710.6379 122.31,1415.7779 122.31,1415.7779 C122.31,1415.7779 266.23,1415.7779 348.22,1415.7779" fill="none" id="source_sessions_sh-to-tool_session_kill" style="stroke:#181818;stroke-width:1;"/><polygon fill="#181818" points="354.22,1415.7779,345.22,1411.7779,349.22,1415.7779,345.22,1419.7779,354.22,1415.7779" style="stroke:#181818;stroke-width:1;"/></g><!--link source_sessions_sh to tool_success--><g class="link" data-entity-1="ent0005" data-entity-2="ent0037" data-link-type="dependency" data-source-line="83" id="lnk78"><path d="M164.31,1865.2979 C164.31,1947.2879 164.31,2171.7779 164.31,2171.7779 C164.31,2171.7779 290.91,2171.7779 359.8,2171.7779" fill="none" id="source_sessions_sh-to-tool_success" style="stroke:#181818;stroke-width:1;"/><polygon fill="#181818" points="365.8,2171.7779,356.8,2167.7779,360.8,2171.7779,356.8,2175.7779,365.8,2171.7779" style="stroke:#181818;stroke-width:1;"/></g><!--link source_sessions_sh to tool_tmux--><g class="link" data-entity-1="ent0005" data-entity-2="ent0040" data-link-type="dependency" data-source-line="84" id="lnk79"><path d="M73.31,1806.5979 C73.31,1667.6679 73.31,1079.7779 73.31,1079.7779 C73.31,1079.7779 283.98,1079.7779 367.77,1079.7779" fill="none" id="source_sessions_sh-to-tool_tmux" style="stroke:#181818;stroke-width:1;"/><polygon fill="#181818" points="373.77,1079.7779,364.77,1075.7779,368.77,1079.7779,364.77,1083.7779,373.77,1079.7779" style="stroke:#181818;stroke-width:1;"/></g><!--link source_sessions_sh to tool_warn--><g class="link" data-entity-1="ent0005" data-entity-2="ent0041" data-link-type="dependency" data-source-line="85" id="lnk80"><path d="M143.31,1865.3079 C143.31,1960.9079 143.31,2255.7779 143.31,2255.7779 C143.31,2255.7779 298.23,2255.7779 368.32,2255.7779" fill="none" id="source_sessions_sh-to-tool_warn" style="stroke:#181818;stroke-width:1;"/><polygon fill="#181818" points="374.32,2255.7779,365.32,2251.7779,369.32,2255.7779,365.32,2259.7779,374.32,2255.7779" style="stroke:#181818;stroke-width:1;"/></g><!--link source_setup_sh to tool_cat--><g class="link" data-entity-1="ent0006" data-entity-2="ent0016" data-link-type="dependency" data-source-line="86" id="lnk81"><path d="M94.31,2663.1179 C94.31,2751.9379 94.31,3011.7779 94.31,3011.7779 C94.31,3011.7779 300.76,3011.7779 375.04,3011.7779" fill="none" id="source_setup_sh-to-tool_cat" style="stroke:#181818;stroke-width:1;"/><polygon fill="#181818" points="381.04,3011.7779,372.04,3007.7779,376.04,3011.7779,372.04,3015.7779,381.04,3011.7779" style="stroke:#181818;stroke-width:1;"/></g><!--link source_setup_sh to tool_chmod--><g class="link" data-entity-1="ent0006" data-entity-2="ent0017" data-link-type="dependency" data-source-line="87" id="lnk82"><path d="M195.13,2655.1079 C249.3,2655.1079 317.65,2655.1079 362.14,2655.1079" fill="none" id="source_setup_sh-to-tool_chmod" style="stroke:#181818;stroke-width:1;"/><polygon fill="#181818" points="368.14,2655.1079,359.14,2651.1079,363.14,2655.1079,359.14,2659.1079,368.14,2655.1079" style="stroke:#181818;stroke-width:1;"/></g><!--link source_setup_sh to tool_curl--><g class="link" data-entity-1="ent0006" data-entity-2="ent0019" data-link-type="dependency" data-source-line="88" id="lnk83"><path d="M161.31,2663.3179 C161.31,2700.5579 161.31,2759.7779 161.31,2759.7779 C161.31,2759.7779 308.61,2759.7779 372.68,2759.7779" fill="none" id="source_setup_sh-to-tool_curl" style="stroke:#181818;stroke-width:1;"/><polygon fill="#181818" points="378.68,2759.7779,369.68,2755.7779,373.68,2759.7779,369.68,2763.7779,378.68,2759.7779" style="stroke:#181818;stroke-width:1;"/></g><!--link source_setup_sh to tool_die--><g class="link" data-entity-1="ent0006" data-entity-2="ent0021" data-link-type="dependency" data-source-line="89" id="lnk84"><path d="M92.31,2604.3979 C92.31,2481.6279 92.31,2016.0379 92.31,2016.0379 C92.31,2016.0379 300.12,2016.0379 374.87,2016.0379" fill="none" id="source_setup_sh-to-tool_die" style="stroke:#181818;stroke-width:1;"/><polygon fill="#181818" points="380.87,2016.0379,371.87,2012.0379,375.87,2016.0379,371.87,2020.0379,380.87,2016.0379" style="stroke:#181818;stroke-width:1;"/></g><!--link source_setup_sh to tool_info--><g class="link" data-entity-1="ent0006" data-entity-2="ent0024" data-link-type="dependency" data-source-line="90" id="lnk85"><path d="M112.31,2604.3179 C112.31,2492.4279 112.31,2100.0379 112.31,2100.0379 C112.31,2100.0379 298.53,2100.0379 372.11,2100.0379" fill="none" id="source_setup_sh-to-tool_info" style="stroke:#181818;stroke-width:1;"/><polygon fill="#181818" points="378.11,2100.0379,369.11,2096.0379,373.11,2100.0379,369.11,2104.0379,378.11,2100.0379" style="stroke:#181818;stroke-width:1;"/></g><!--link source_setup_sh to tool_java--><g class="link" data-entity-1="ent0006" data-entity-2="ent0027" data-link-type="dependency" data-source-line="91" id="lnk86"><path d="M128.31,2662.9779 C128.31,2720.6779 128.31,2843.7779 128.31,2843.7779 C128.31,2843.7779 300.57,2843.7779 371.6,2843.7779" fill="none" id="source_setup_sh-to-tool_java" style="stroke:#181818;stroke-width:1;"/><polygon fill="#181818" points="377.6,2843.7779,368.6,2839.7779,372.6,2843.7779,368.6,2847.7779,377.6,2843.7779" style="stroke:#181818;stroke-width:1;"/></g><!--link source_setup_sh to tool_mkdir--><g class="link" data-entity-1="ent0006" data-entity-2="ent0029" data-link-type="dependency" data-source-line="92" id="lnk87"><path d="M195.13,2610.5079 C250.75,2610.5079 321.63,2610.5079 365.64,2610.5079" fill="none" id="source_setup_sh-to-tool_mkdir" style="stroke:#181818;stroke-width:1;"/><polygon fill="#181818" points="371.64,2610.5079,362.64,2606.5079,366.64,2610.5079,362.64,2614.5079,371.64,2610.5079" style="stroke:#181818;stroke-width:1;"/></g><!--link source_setup_sh to tool_repo_architecture_drawio--><g class="link" data-entity-1="ent0006" data-entity-2="ent0032" data-link-type="dependency" data-source-line="93" id="lnk88"><path d="M195.19,2658.9779 C248.9,2658.9779 315.31,2658.9779 315.31,2658.9779 C315.31,2658.9779 315.31,2830.4279 315.31,2896.9679" fill="none" id="source_setup_sh-to-tool_repo_architecture_drawio" style="stroke:#181818;stroke-width:1;"/><polygon fill="#181818" points="315.31,2902.9679,319.31,2893.9679,315.31,2897.9679,311.31,2893.9679,315.31,2902.9679" style="stroke:#181818;stroke-width:1;"/></g><!--link source_setup_sh to tool_success--><g class="link" data-entity-1="ent0006" data-entity-2="ent0037" data-link-type="dependency" data-source-line="94" id="lnk89"><path d="M133.31,2604.2679 C133.31,2504.2079 133.31,2184.0379 133.31,2184.0379 C133.31,2184.0379 284.09,2184.0379 360.02,2184.0379" fill="none" id="source_setup_sh-to-tool_success" style="stroke:#181818;stroke-width:1;"/><polygon fill="#181818" points="366.02,2184.0379,357.02,2180.0379,361.02,2184.0379,357.02,2188.0379,366.02,2184.0379" style="stroke:#181818;stroke-width:1;"/></g><!--link source_setup_sh to tool_warn--><g class="link" data-entity-1="ent0006" data-entity-2="ent0041" data-link-type="dependency" data-source-line="95" id="lnk90"><path d="M153.31,2604.4579 C153.31,2517.6779 153.31,2268.0379 153.31,2268.0379 C153.31,2268.0379 300.19,2268.0379 368.26,2268.0379" fill="none" id="source_setup_sh-to-tool_warn" style="stroke:#181818;stroke-width:1;"/><polygon fill="#181818" points="374.26,2268.0379,365.26,2264.0379,369.26,2268.0379,365.26,2272.0379,374.26,2268.0379" style="stroke:#181818;stroke-width:1;"/></g><?plantuml-src dPTDSziW48Rl-XMQvcmdRQRjzD9B6tTwQ2_fCJCQWh14XO02ikFy-YwMRAr0mfxSlBpFky9yBE2u4ontpBHSSi7T8V-ZbE2oodzAnof375VIPe9jNUvKRdXLkxpaXb4lPBRXKXD3sjpMf5HxRzmIOHbIIhObdN0R9TrlqhBybvBAQa8nGrMhbMJIFRe3zCUd9x8I685ECNVGB5V6rIex8_cxTSLTtJtVxfLfjaBjxItbwqChdkGzVDm1o4hel1BsNKviRbLdA2jwKt4s5PGNOCfl7kus7pOF-0DSMaU4MDlwIRvFvHp0mjPpQImrN3jxQpfPE49hrK8YKsYZjbomO_PKyi5UpDkNlicizJFOz_rBAlr0BYPodUwpt2Mp08PJKA6w4kRecTZQq2FgJKKVvpURXytzjyzdh9bIpIpK1bGxZxrEgTSvY1pNCQoOcj56TMx41wKuAP5JkrN5i46x0Xf2xfdGXicopuF_FsfUyi1gCWx6rEoOYQrOZJFOUZhO8K49wZi4aLwtgaI43oD68q17QcS4qY4AYP9HGGmReQ4XuZXcUAJ3NXvr22BTCDHJ7uK4brir4ZwAYNvl3wEFuOcmvDEYg-1tx1k4qFUNxCW8-oWaMgBzpaVxe6-8k0OADjuj44RC3W6xKDM6IrVywpXj3DkEvBGzTC4mgnKnjEQ-MdI6hKj3zXoDioSAJ1Gz4MNg939rCjIXD3A6a3wEgBx25I0IXuPjshxaQhWGiSUtHewEKf0Ht3V4NDiImrznLqvD8JiM_14UsoAwxLuG1r58x8b1u-MZa7WXfaB_uHYUcGjdw6hrTRw8Nc_iY-dL_B5xMNmCBoMSGtoLJEbKfrGeIoaP_a5IXgsGqdr5IkkJ8dGDEjIT53hTtoboME8fn2_3bEuNONRrNUTi0-GDhlD6UuDtbBEPkzDaEHcQH9gBH7iPURr8JEuQLv7uQf4q30Tsck5f7Q_zMG0l_lbHwW--2oC9nrwQs2Nb_b198vEJv2hK7o1fSBgpPXcyjMQ1oTuwNT77maPSGlGNluGCrxfbTJBreJYTrb3rDvvbDPZDK5wwM2mxec4EWUCGIWKNXE58XBVk3qDq_NWi9OViaH8fuKtqyQJcy9ur1wsWXjfrzltqPhh_bBkQct85xrfuRn-VKElCtnnzzly0?></g></svg>
