<?plantuml 1.2026.2?><svg xmlns="http://www.w3.org/2000/svg" xmlns:xlink="http://www.w3.org/1999/xlink" contentStyleType="text/css" data-diagram-type="DESCRIPTION" height="3130px" preserveAspectRatio="none" style="width:518px;height:3130px;background:#FFFFFF;" version="1.1" viewBox="0 0 518 3130" width="518px" zoomAndPan="magnify"><title>terminility Tooling Integrations</title><defs/><g><g class="title" data-source-line="1"><text fill="#000000" font-family="Monospace" font-size="14" font-weight="bold" lengthAdjust="spacing" textLength="217.8182" x="143.4994" y="24.9659">terminility&#160;Tooling&#160;Integrations</text></g><!--entity source_github_workflows_ci_yml--><g class="entity" data-qualified-name="source_github_workflows_ci_yml" data-source-line="7" id="ent0002"><rect fill="#E0F2FE" height="58.1358" rx="2.5" ry="2.5" style="stroke:#181818;stroke-width:0.5;" width="182.6234" x="39.08" y="378.7079"/><text fill="#000000" font-family="Monospace" font-size="14" lengthAdjust="spacing" textLength="162.6234" x="49.08" y="403.6739">.github/workflows/ci.yml</text><text fill="#000000" font-family="Monospace" font-size="14" lengthAdjust="spacing" textLength="105.3356" x="49.08" y="422.7418">3&#160;detected&#160;tools</text></g><!--entity source_github_workflows_secret_scan_yml--><g class="entity" data-qualified-name="source_github_workflows_secret_scan_yml" data-source-line="8" id="ent0003"><rect fill="#E0F2FE" height="58.1358" rx="2.5" ry="2.5" style="stroke:#181818;stroke-width:0.5;" width="246.7851" x="7" y="509.7079"/><text fill="#000000" font-family="Monospace" font-size="14" lengthAdjust="spacing" textLength="226.7851" x="17" y="534.6739">.github/workflows/secret-scan.yml</text><text fill="#000000" font-family="Monospace" font-size="14" lengthAdjust="spacing" textLength="105.3356" x="17" y="553.7418">2&#160;detected&#160;tools</text></g><!--entity source_install_sh--><g class="entity" data-qualified-name="source_install_sh" data-source-line="9" id="ent0004"><rect fill="#E0F2FE" height="58.1358" rx="2.5" ry="2.5" style="stroke:#181818;stroke-width:0.5;" width="133.3436" x="63.72" y="1050.7079"/><text fill="#000000" font-family="Monospace" font-size="14" lengthAdjust="spacing" textLength="58.2118" x="73.72" y="1075.6739">install.sh</text><text fill="#000000" font-family="Monospace" font-size="14" lengthAdjust="spacing" textLength="113.3436" x="73.72" y="1094.7418">13&#160;detected&#160;tools</text></g><!--entity source_scripts_run_tachometer_profile_sh--><g class="entity" data-qualified-name="source_scripts_run_tachometer_profile_sh" data-source-line="10" id="ent0005"><rect fill="#E0F2FE" height="58.1358" rx="2.5" ry="2.5" style="stroke:#181818;stroke-width:0.5;" width="242.2912" x="9.25" y="126.7079"/><text fill="#000000" font-family="Monospace" font-size="14" lengthAdjust="spacing" textLength="222.2912" x="19.25" y="151.6739">scripts/run_tachometer_profile.sh</text><text fill="#000000" font-family="Monospace" font-size="14" lengthAdjust="spacing" textLength="105.3356" x="19.25" y="170.7418">3&#160;detected&#160;tools</text></g><!--entity source_sessions_sh--><g class="entity" data-qualified-name="source_sessions_sh" data-source-line="11" id="ent0006"><rect fill="#E0F2FE" height="58.1358" rx="2.5" ry="2.5" style="stroke:#181818;stroke-width:0.5;" width="133.3436" x="63.72" y="1890.7079"/><text fill="#000000" font-family="Monospace" font-size="14" lengthAdjust="spacing" textLength="74.5637" x="73.72" y="1915.6739">sessions.sh</text><text fill="#000000" font-family="Monospace" font-size="14" lengthAdjust="spacing" textLength="113.3436" x="73.72" y="1934.7418">19&#160;detected&#160;tools</text></g><!--entity source_setup_sh--><g class="entity" data-qualified-name="source_setup_sh" data-source-line="12" id="ent0007"><rect fill="#E0F2FE" height="58.1358" rx="2.5" ry="2.5" style="stroke:#181818;stroke-width:0.5;" width="133.3436" x="63.72" y="2688.7079"/><text fill="#000000" font-family="Monospace" font-size="14" lengthAdjust="spacing" textLength="56.0278" x="73.72" y="2713.6739">setup.sh</text><text fill="#000000" font-family="Monospace" font-size="14" lengthAdjust="spacing" textLength="113.3436" x="73.72" y="2732.7418">10&#160;detected&#160;tools</text></g><!--entity tool_bashrc--><g class="entity" data-qualified-name="tool_bashrc" data-source-line="13" id="ent0008"><path d="M381.8933,1819.7604 C385.6304,1813.3145 390.9156,1811.9191 395.8194,1818.5145 C401.3777,1811.4143 405.8916,1812.2562 410.853,1819.1554 C416.0763,1809.6234 421.8012,1809.9434 427.7998,1818.4262 C432.4314,1812.2006 440.4228,1811.1921 443.631,1819.9319 C455.1639,1819.7936 457.3554,1828.8578 452.4388,1837.1392 C457.8456,1845.7995 452.7788,1852.1593 443.6215,1852.4107 C439.9405,1861.2019 432.891,1862.7109 426.7362,1854.9315 C424.1255,1862.797 417.4002,1865.3089 411.4212,1858.4303 C406.5489,1865.5222 399.2985,1864.7659 396.2557,1856.6106 C389.8941,1863.8308 383.0925,1861.5153 379.8803,1853.2748 C369.4141,1851.8953 367.1047,1845.2748 372.3605,1836.7436 C367.3683,1828.035 371.7189,1819.9559 381.8933,1819.7604" fill="#FEF3C7" style="stroke:#181818;stroke-width:0.5;"/><text fill="#000000" font-family="Monospace" font-size="14" lengthAdjust="spacing" textLength="48.0758" x="386.76" y="1841.2039">.bashrc</text></g><!--entity tool_kshrc--><g class="entity" data-qualified-name="tool_kshrc" data-source-line="14" id="ent0009"><path d="M385.2263,1903.4685 C389.3738,1898.2617 394.3132,1897.0589 397.9733,1903.9808 C402.2575,1895.5075 407.4083,1896.8424 412.9256,1902.6937 C416.4338,1898.0565 421.2676,1897.4889 424.2393,1903.276 C429.6679,1896.3073 434.2019,1896.4975 438.9131,1904.0032 C449.0748,1903.8941 453.5209,1911.9667 447.5512,1920.371 C452.1687,1929.2514 447.8516,1935.3233 438.5638,1936.4138 C436.0095,1944.4011 430.2603,1945.2993 424.9595,1939.0355 C421.1417,1947.0516 416.2444,1947.0624 410.8209,1940.6039 C406.4174,1946.4594 401.9123,1945.843 398.8024,1939.3453 C394.8752,1944.283 388.5454,1943.5467 385.8219,1937.8728 C374.8509,1935.7238 374.0195,1929.9863 378.7076,1921.1682 C371.3876,1911.6574 373.5058,1905.9669 385.2263,1903.4685" fill="#FEF3C7" style="stroke:#181818;stroke-width:0.5;"/><text fill="#000000" font-family="Monospace" font-size="14" lengthAdjust="spacing" textLength="39.0878" x="391.25" y="1925.2039">.kshrc</text></g><!--entity tool_mkshrc--><g class="entity" data-qualified-name="tool_mkshrc" data-source-line="15" id="ent0010"><path d="M378.1994,1987.8301 C381.7722,1981.8709 386.2703,1982.6156 389.4916,1988.1747 C392.6343,1983.1748 396.17,1982.3094 400.1738,1987.2492 C403.2084,1981.4583 408.5678,1980.6759 412.8523,1985.797 C416.4413,1982.1537 419.4664,1982.1074 421.9238,1986.9996 C425.9835,1982.0451 430.0554,1981.7277 433.2851,1987.8508 C437.0195,1982.6808 441.2662,1981.9334 445.0751,1987.771 C453.0339,1992.2336 452.9641,1998.5377 446.7776,2004.4446 C453.1365,2011.0189 453.5576,2017.6793 444.1225,2021.8434 C442.667,2027.8309 438.0166,2028.0335 434.0464,2024.5064 C431.3683,2029.9637 428.0709,2030.9917 423.4333,2026.6227 C421.6822,2032.5536 418.9376,2035.3102 412.8949,2031.0684 C407.3124,2034.8382 402.0826,2034.6382 400.5954,2026.7483 C396.6714,2030.9534 392.6585,2029.4611 390.5524,2024.7098 C385.1664,2030.5425 380.998,2028.8941 378.3762,2022.0539 C369.4923,2017.2288 369.7683,2011.0796 378.075,2005.9332 C369.451,1999.8835 370.0802,1993.7648 378.1994,1987.8301" fill="#FEF3C7" style="stroke:#181818;stroke-width:0.5;"/><text fill="#000000" font-family="Monospace" font-size="14" lengthAdjust="spacing" textLength="52.1778" x="384.71" y="2009.2039">.mkshrc</text></g><!--entity tool_zshrc--><g class="entity" data-qualified-name="tool_zshrc" data-source-line="16" id="ent0011"><path d="M386.0113,2071.7953 C389.8088,2066.0045 395.0959,2066.0051 398.3942,2072.3065 C401.8928,2065.4871 407.4221,2065.7591 412.1257,2070.9261 C416.0323,2064.9378 420.2481,2065.4569 424.5121,2070.5259 C428.8311,2065.2264 434.0455,2064.791 437.1227,2071.7984 C449.7263,2072.018 452.2628,2079.2073 447.8665,2089.6553 C452.4549,2098.4085 446.9605,2104.839 438.0512,2104.9043 C435.1443,2111.1289 431.3028,2113.3734 425.4899,2108.071 C422.6688,2114.7188 416.5189,2116.3606 411.2249,2111.0114 C405.8242,2115.4822 401.9729,2113.3373 399.9305,2107.3757 C394.2754,2114.548 387.9036,2112.5752 384.8783,2104.7384 C375.5284,2102.6754 371.1533,2098.1798 377.0115,2088.6708 C371.5552,2078.2365 375.8196,2073.8844 386.0113,2071.7953" fill="#FEF3C7" style="stroke:#181818;stroke-width:0.5;"/><text fill="#000000" font-family="Monospace" font-size="14" lengthAdjust="spacing" textLength="38.1918" x="391.7" y="2093.2039">.zshrc</text></g><!--entity tool_actions_checkout--><g class="entity" data-qualified-name="tool_actions_checkout" data-source-line="17" id="ent0012"><path d="M349.2721,391.6036 C353.1239,385.4446 357.8665,385.5851 361.596,391.7262 C364.9017,384.9632 369.9034,386.2122 373.942,390.9387 C378.5623,383.7913 382.8229,383.9161 387.4639,390.919 C391.7387,384.6356 395.5713,385.6236 399.6673,391.1045 C402.9988,386.4186 408.2124,386.5722 410.9926,391.7382 C413.6908,386.0805 419.9573,385.5886 423.5345,390.7161 C427.6141,384.6788 432.9119,384.7384 437.285,390.3702 C442.4596,384.9347 447.2212,385.4348 450.0716,392.7085 C453.0426,386.5845 458.5229,386.6686 461.5615,392.6443 C465.5303,386.8108 469.9144,387.5678 473.9244,392.5974 C483.6057,395.007 484.9159,401.1667 479.9182,408.955 C485.3631,417.4122 483.898,422.5155 473.9547,425.3885 C471.7071,431.0599 466.3473,431.5312 463.1714,426.3073 C459.5844,432.8175 453.4223,433.4068 448.8311,427.4636 C446.0976,433.3661 442.1271,434.9815 436.8971,430.2708 C433.6162,436.7747 429.1201,436.5988 425.0401,431.0573 C422.5117,438.4965 415.9943,438.9634 411.986,432.4411 C407.0827,438.8389 401.6236,436.7632 399.1365,430.0695 C395.2006,436.8475 389.2789,436.6921 385.7081,429.7131 C381.1734,435.2315 376.4851,433.7529 373.8115,427.7855 C369.9343,432.903 364.5753,432.5251 362.0314,426.3898 C357.5705,431.8529 351.3486,432.5887 348.0871,425.0986 C340.9891,421.0471 339.5877,413.0642 348.1687,409.0927 C339.9264,403.0645 340.8735,396.5819 349.2721,391.6036" fill="#FEF3C7" style="stroke:#181818;stroke-width:0.5;"/><text fill="#000000" font-family="Monospace" font-size="14" lengthAdjust="spacing" textLength="111.9156" x="354.84" y="413.2039">actions/checkout</text></g><!--entity tool_apt_get--><g class="entity" data-qualified-name="tool_apt_get" data-source-line="18" id="ent0013"><path d="M381.7603,476.7058 C385.2783,470.381 392.2357,470.1853 396.4159,475.8997 C400.1091,468.5794 406.0903,467.8052 411.5676,473.8819 C416.999,466.9771 424.927,467.2214 427.7712,476.4761 C431.3893,469.9329 438.5887,468.4449 443.1122,475.4509 C453.8869,476.5495 457.9052,482.1074 451.901,492.0761 C456.8288,501.7151 452.7256,509.3042 441.5982,509.3888 C439.4107,517.1137 433.1799,518.51 427.6392,512.8986 C425.383,521.1577 420.0674,523.007 412.8166,518.8719 C405.1416,524.7311 398.7858,523.927 395.6736,513.9367 C388.6979,520.531 382.0348,517.0989 380.2816,508.6079 C373.3524,503.6798 371.755,499.0717 379.6513,493.5241 C372.9573,487.456 373.9343,480.9531 381.7603,476.7058" fill="#FEF3C7" style="stroke:#181818;stroke-width:0.5;"/><text fill="#000000" font-family="Monospace" font-size="14" lengthAdjust="spacing" textLength="47.5858" x="387" y="497.2039">apt-get</text></g><!--entity tool_backend_check--><g class="entity" data-qualified-name="tool_backend_check" data-source-line="19" id="ent0014"><path d="M355.4062,2155.9478 C359.4089,2151.3367 362.6401,2151.9976 365.712,2156.9507 C368.61,2150.3341 372.8838,2150.9273 377.5038,2155.0621 C380.994,2148.8495 385.6959,2150.3465 388.9359,2155.3178 C392.5076,2149.4758 396.3161,2148.9441 401.0201,2154.0703 C404.7673,2148.6588 408.0392,2148.2364 411.822,2154.036 C415.3686,2149.8802 420.0897,2149.8342 422.736,2155.0809 C426.485,2149.3579 431.7945,2148.2243 435.5227,2155.1019 C438.8289,2150.2053 442.4674,2150.3771 445.513,2155.3653 C449.1776,2150.3571 454.6036,2148.9455 458.0002,2155.6509 C461.0452,2150.8157 466.5403,2149.7423 469.6846,2155.5418 C478.9094,2159.4293 483.0551,2164.7783 475.0654,2173.7523 C480.1833,2181.1847 477.8286,2187.8721 468.313,2188.6891 C465.2324,2194.5222 461.6669,2195.4655 457.1883,2190.0746 C454.5433,2195.2049 449.4801,2196.3742 446.1007,2190.838 C442.3579,2196.066 437.4183,2197.1502 433.944,2190.5616 C431.3037,2195.5796 427.0439,2197.72 422.8513,2192.1948 C420.4211,2197.0935 415.7259,2197.067 412.506,2193.1182 C407.3934,2199.508 403.5422,2198.7435 399.7217,2191.8725 C395.787,2196.3344 392.151,2196.0565 389.4931,2190.561 C386.5445,2196.1333 380.3974,2196.35 376.8513,2191.2701 C372.1504,2196.6708 367.8092,2195.3802 365.6614,2188.8712 C362.8653,2194.5652 358.4398,2193.5618 355.2736,2189.2557 C346.4164,2187.1428 342.9342,2179.7576 350.26,2172.7339 C343.6011,2165.1249 346.3093,2158.7265 355.4062,2155.9478" fill="#FEF3C7" style="stroke:#181818;stroke-width:0.5;"/><text fill="#000000" font-family="Monospace" font-size="14" lengthAdjust="spacing" textLength="99.4976" x="361.05" y="2177.2039">backend_check</text></g><!--entity tool_backend_start_server--><g class="entity" data-qualified-name="tool_backend_start_server" data-source-line="20" id="ent0015"><path d="M334.7361,2239.534 C339.3091,2234.5414 344.0406,2233.6096 347.6357,2240.5877 C350.7862,2233.6226 355.8732,2234.5581 360.075,2239.4883 C363.5102,2232.6583 369.6048,2233.1315 373.6071,2238.8781 C378.2147,2233.6167 382.9282,2234.6276 386.3555,2240.2594 C389.3664,2233.2305 393.3312,2233.3968 398.4358,2238.1041 C402.5074,2232.565 408.2115,2230.7628 412.1098,2238.2855 C415.6666,2232.2522 421.3044,2234.1632 423.9762,2239.2314 C428.0218,2231.7033 432.7645,2232.9956 437.6881,2238.2927 C442.2661,2232.4384 446.6311,2234.1178 450.0511,2239.56 C453.2809,2234.3716 459.5775,2233.0261 462.9273,2239.4267 C466.6638,2233.7781 473.1297,2233.9541 476.5331,2239.8205 C479.7521,2233.6429 485.1644,2234.6744 488.6019,2239.5826 C497.2002,2244.0658 497.0376,2249.9699 490.9392,2256.4853 C498.3762,2262.2911 496.9167,2270.5604 487.8729,2273.3741 C485.6969,2277.8674 482.1781,2278.0462 478.7567,2274.8507 C475.7059,2280.8248 470.9909,2280.2276 467.4145,2275.4029 C463.4863,2281.0427 459.1511,2280.6077 456.2044,2274.4688 C452.5631,2279.5823 448.6866,2280.5139 444.7679,2274.7607 C442.2652,2280.9828 437.2123,2280.3069 433.5045,2276.0569 C430.5697,2281.3987 427.1468,2282.3808 422.7113,2277.6677 C419.2475,2283.4916 414.2296,2282.719 411.1188,2277.3035 C407.8684,2281.0443 403.8672,2280.3188 401.7705,2275.9701 C397.9887,2281.809 392.738,2282.3142 389.2411,2275.6838 C386.3994,2279.9586 382.0348,2280.0392 379.2485,2275.6202 C375.9087,2280.939 371.7078,2280.2372 368.3659,2275.6225 C364.4921,2280.5884 359.9924,2280.2767 357.118,2274.5693 C353.233,2279.8599 349.4011,2279.6372 346.3138,2273.7952 C342.9062,2279.2625 338.214,2278.5294 335.746,2272.9003 C326.0315,2272.2284 321.7498,2266.2524 327.4356,2257.3501 C322.1923,2248.5443 325.1657,2242.2696 334.7361,2239.534" fill="#FEF3C7" style="stroke:#181818;stroke-width:0.5;"/><text fill="#000000" font-family="Monospace" font-size="14" lengthAdjust="spacing" textLength="139.8735" x="340.86" y="2261.2039">backend_start_server</text></g><!--entity tool_bash--><g class="entity" data-qualified-name="tool_bash" data-source-line="21" id="ent0016"><path d="M388.8842,643.9078 C391.8481,638.3549 396.1015,637.8253 399.6158,643.3759 C401.9261,637.9809 406.9841,635.7148 411.3877,641.0874 C415.8565,636.7164 420.4964,636.7484 423.1795,643.0587 C427.3985,637.3854 433.178,638.9457 435.8282,644.7827 C445.1166,649.4607 445.4093,654.6808 438.0379,661.5538 C444.4069,667.3988 441.7255,674.4334 434.3051,676.9311 C432.6529,681.9555 428.6635,684.2145 424.177,680.0579 C420.8373,687.0135 416.056,687.6952 411.5585,681.1391 C407.1571,685.1764 403.4998,685.769 400.7581,679.4142 C396.5325,684.5957 392.7519,684.1362 389.9824,678.0247 C380.5251,675.8525 378.1353,668.017 383.5841,660.4255 C376.841,653.3761 380.2712,646.0299 388.8842,643.9078" fill="#FEF3C7" style="stroke:#181818;stroke-width:0.5;"/><text fill="#000000" font-family="Monospace" font-size="14" lengthAdjust="spacing" textLength="31.8219" x="394.89" y="665.2039">bash</text></g><!--entity tool_cat--><g class="entity" data-qualified-name="tool_cat" data-source-line="22" id="ent0017"><path d="M394.8982,2912.252 C398.7819,2902.142 405.6492,2902.5469 412.4121,2909.2533 C419.8959,2902.561 424.2546,2905.4205 427.8638,2913.3483 C436.4792,2916.5011 436.9673,2921.9933 431.6619,2928.6103 C437.6094,2934.7674 437.2312,2942.6645 427.7811,2945.2252 C425.4583,2955.0409 418.1767,2956.0402 410.8182,2950.9596 C403.0032,2957.0514 397.7519,2954.3264 395.3427,2945.3922 C384.5825,2944.1426 383.1703,2938.6966 387.7937,2929.9343 C382.084,2921.8636 383.6307,2913.5015 394.8982,2912.252" fill="#FEF3C7" style="stroke:#181818;stroke-width:0.5;"/><text fill="#000000" font-family="Monospace" font-size="14" lengthAdjust="spacing" textLength="19.6279" x="400.98" y="2933.2039">cat</text></g><!--entity tool_chmod--><g class="entity" data-qualified-name="tool_chmod" data-source-line="23" id="ent0018"><path d="M382.7523,2995.7778 C386.998,2988.8729 393.0393,2989.2195 397.6088,2995.4105 C401.9493,2988.671 406.8193,2989.2555 411.4934,2995.0408 C417.1484,2988.0898 422.6901,2987.7484 427.8619,2995.576 C433.3856,2988.4862 438.4956,2989.8159 442.6849,2996.9651 C452.5394,2998.3347 454.9828,3003.3018 451.3606,3012.2972 C455.3746,3021.0713 451.9723,3029.4603 440.9444,3028.6575 C437.9804,3036.9319 432.3832,3036.7339 426.7191,3031.5013 C423.4186,3038.6948 418.8726,3041.4887 412.427,3034.7209 C406.9725,3042.2426 400.1575,3042.2372 396.3951,3033.0931 C390.2748,3039.1658 384.1266,3037.694 382.2793,3029.0066 C374.4588,3026.3955 373.5256,3019.296 378.986,3013.8072 C372.73,3007.6871 373.9511,2998.7525 382.7523,2995.7778" fill="#FEF3C7" style="stroke:#181818;stroke-width:0.5;"/><text fill="#000000" font-family="Monospace" font-size="14" lengthAdjust="spacing" textLength="45.5418" x="388.03" y="3017.2039">chmod</text></g><!--entity tool_cp--><g class="entity" data-qualified-name="tool_cp" data-source-line="24" id="ent0019"><path d="M396.4922,728.1823 C399.8714,719.5828 406.7568,719.2431 412.2015,726.0803 C417.1842,719.5657 423.898,721.1822 426.1524,728.7778 C434.3603,732.6 435.0138,738.8074 427.9057,744.3536 C434.6478,750.59 435.0558,757.1307 425.9002,761.5085 C424.9966,770.0566 420.1732,773.2109 411.9871,770.5391 C401.835,776.012 396.9923,771.584 396.5054,761.1388 C386.6419,757.4844 387.0494,750.3154 393.9254,744.1228 C388.3339,738.1523 387.1932,731.7552 396.4922,728.1823" fill="#FEF3C7" style="stroke:#181818;stroke-width:0.5;"/><text fill="#000000" font-family="Monospace" font-size="14" lengthAdjust="spacing" textLength="15.3299" x="403.13" y="749.2039">cp</text></g><!--entity tool_curl--><g class="entity" data-qualified-name="tool_curl" data-source-line="25" id="ent0020"><path d="M391.9932,3079.9253 C396.9553,3070.364 406.5039,3069.6255 412.2162,3079.1296 C419.144,3071.2724 424.9374,3071.2969 430.1954,3080.8536 C440.751,3081.5033 443.0017,3088.0972 438.1855,3096.5645 C442.9633,3105.394 439.5604,3110.3586 430.5539,3112.6472 C425.2899,3122.7744 419.492,3123.4759 411.7329,3115.1988 C404.9821,3122.9407 396.5494,3123.774 392.2821,3112.6398 C383.2782,3111.3319 380.5561,3104.3738 386.799,3097.5323 C379.479,3090.3011 383.2446,3082.416 391.9932,3079.9253" fill="#FEF3C7" style="stroke:#181818;stroke-width:0.5;"/><text fill="#000000" font-family="Monospace" font-size="14" lengthAdjust="spacing" textLength="24.7659" x="398.41" y="3101.2039">curl</text></g><!--entity tool_declare--><g class="entity" data-qualified-name="tool_declare" data-source-line="26" id="ent0021"><path d="M381.7433,1315.7604 C385.503,1309.2825 390.8165,1307.8822 395.7429,1314.5145 C401.3268,1307.3785 405.8629,1308.2236 410.85,1315.1554 C416.0977,1305.5831 421.8473,1305.9056 427.8703,1314.4262 C432.5204,1308.1699 440.5482,1307.1533 443.775,1315.9319 C455.3079,1315.7936 457.4994,1324.8578 452.5828,1333.1392 C457.9896,1341.7995 452.9228,1348.1593 443.7655,1348.4107 C440.0633,1357.237 432.9828,1358.7479 426.8067,1350.9315 C424.1759,1358.8302 417.4173,1361.3465 411.4182,1354.4303 C406.5266,1361.5589 399.2412,1360.8031 396.1792,1352.6106 C389.7965,1359.8675 382.9636,1357.548 379.7303,1349.2748 C369.2641,1347.8953 366.9547,1341.2748 372.2105,1332.7436 C367.2183,1324.035 371.5689,1315.9559 381.7433,1315.7604" fill="#FEF3C7" style="stroke:#181818;stroke-width:0.5;"/><text fill="#000000" font-family="Monospace" font-size="14" lengthAdjust="spacing" textLength="48.3698" x="386.61" y="1337.2039">declare</text></g><!--entity tool_die--><g class="entity" data-qualified-name="tool_die" data-source-line="27" id="ent0022"><path d="M395.0312,2323.3066 C399.2748,2315.8293 406.5843,2314.3857 411.9381,2322.0686 C419.2304,2314.1381 425.2136,2316.0689 429.3865,2325.2494 C438.7579,2326.5015 442.8179,2331.3941 437.983,2340.6012 C444.0738,2350.3279 438.4004,2356.752 428.5121,2357.5496 C425.7192,2367.3537 420.1511,2369.7113 411.8863,2363.0874 C403.6686,2370.0231 396.0143,2366.1373 394.1246,2356.3617 C386.312,2352.083 383.88,2347.4608 391.3887,2340.5339 C384.3208,2333.3159 385.2057,2326.9528 395.0312,2323.3066" fill="#FEF3C7" style="stroke:#181818;stroke-width:0.5;"/><text fill="#000000" font-family="Monospace" font-size="14" lengthAdjust="spacing" textLength="20.1179" x="400.74" y="2345.2039">die</text></g><!--entity tool_git--><g class="entity" data-qualified-name="tool_git" data-source-line="28" id="ent0023"><path d="M396.9762,811.873 C401.2591,805.6623 405.5058,803.4391 410.9625,810.6498 C416.9498,802.8233 422.9877,805.8918 426.7829,812.9757 C436.0457,814.35 439.808,819.7675 434.3394,828.372 C441.3815,836.4738 438.2948,843.2605 428.1143,844.8596 C427.7798,855.5734 419.886,858.0068 412.0638,852.0834 C403.7435,857.0381 396.9647,855.7838 395.2917,844.9997 C386.7402,842.7616 383.7812,835.941 389.6853,828.7237 C384.2614,819.6441 387.3503,814.4409 396.9762,811.873" fill="#FEF3C7" style="stroke:#181818;stroke-width:0.5;"/><text fill="#000000" font-family="Monospace" font-size="14" lengthAdjust="spacing" textLength="17.2759" x="402.16" y="833.2039">git</text></g><!--entity tool_gitleaks_gitleaks_action--><g class="entity" data-qualified-name="tool_gitleaks_gitleaks_action" data-source-line="29" id="ent0024"><path d="M327.9566,560.893 C332.097,553.5143 336.327,554.0066 341.5658,559.7541 C345.4775,554.2092 350.3095,554.4052 353.433,560.5539 C356.6892,554.6947 361.1725,554.979 364.5429,560.4418 C367.6946,555.0893 372.6398,553.4346 376.7206,559.4461 C379.4064,553.6664 385.2913,551.9679 389.0272,558.3866 C393.416,552.241 398.1379,554.4888 401.0786,559.897 C403.6446,555.0278 407.1911,554.0315 410.8922,558.733 C414.9249,551.4053 421.4127,553.4639 424.7578,559.4491 C427.208,555.0407 431.867,554.7365 434.6731,559.0442 C438.2261,553.319 442.4452,553.4517 446.3587,558.6588 C451.1045,553.5886 457.1364,553.3013 460.2767,560.4827 C463.275,555.3534 468.2592,554.0673 472.1706,559.4495 C475.3013,554.2607 478.9091,554.0943 482.3936,559.0946 C487.6206,553.34 491.5326,554.1017 494.6887,561.0923 C504.2789,561.8242 507.7436,568.5209 504.0193,577.0418 C509.9277,587.3892 505.1316,594.2098 493.743,594.1943 C490.184,598.7655 486.2713,598.1223 483.4472,593.3818 C480.9418,601.1453 475.9392,601.7071 470.6396,596.0479 C467.5135,601.1547 464.2917,601.0319 460.3766,596.927 C455.9134,602.3778 451.1266,604.0043 446.839,596.7401 C443.4187,602.7809 438.7614,602.7686 434.774,597.3365 C432.339,603.7211 428.9742,604.0873 424.2016,599.6122 C420.5175,605.4364 416.2373,606.0617 411.5091,600.8085 C406.7163,605.4504 402.5259,605.6466 399.0581,599.3062 C395.2928,603.9129 389.9924,603.9518 387.3912,598.0177 C383.9098,603.3919 379.621,602.4789 376.8238,597.3305 C373.0666,604.1314 367.7716,603.4254 364.2292,597.124 C359.8949,601.5215 355.3375,601.0186 352.5751,595.3111 C348.7041,600.9883 343.2776,598.6124 341.1268,593.4879 C338.211,599.9809 332.4537,600.2292 328.7263,594.2979 C319.0182,591.6607 317.4588,583.8995 323.7931,576.7519 C316.8384,570.4309 319.7418,563.2313 327.9566,560.893" fill="#FEF3C7" style="stroke:#181818;stroke-width:0.5;"/><text fill="#000000" font-family="Monospace" font-size="14" lengthAdjust="spacing" textLength="151.7174" x="334.94" y="581.2039">gitleaks/gitleaks-action</text></g><!--entity tool_grep--><g class="entity" data-qualified-name="tool_grep" data-source-line="30" id="ent0025"><path d="M389.6792,1148.2346 C392.356,1143.8261 396.8781,1142.6853 400.0397,1147.7016 C403.2703,1140.726 407.2201,1139.8114 412.7839,1145.3198 C415.9221,1140.5556 421.1702,1141.7247 423.4412,1146.3085 C427.8209,1142.3443 431.6813,1143.0267 434.0198,1148.5779 C443.9374,1151.3487 443.8325,1157.7252 438.3352,1164.6381 C445.1546,1172.5169 442.3141,1177.7164 433.7745,1181.4217 C431.6151,1187.5732 428.058,1189.3922 422.4964,1185.0934 C420.7157,1189.9753 415.9178,1192.0228 411.9585,1187.5466 C406.0588,1191.1156 402.0693,1190.4029 399.6892,1183.4446 C395.756,1188.0084 390.6125,1186.1968 389.0488,1180.8903 C379.334,1178.7687 376.7477,1171.0305 384.098,1163.9281 C378.3533,1157.001 380.8103,1149.9646 389.6792,1148.2346" fill="#FEF3C7" style="stroke:#181818;stroke-width:0.5;"/><text fill="#000000" font-family="Monospace" font-size="14" lengthAdjust="spacing" textLength="30.8979" x="395.35" y="1169.2039">grep</text></g><!--entity tool_info--><g class="entity" data-qualified-name="tool_info" data-source-line="31" id="ent0026"><path d="M392.6842,2408.5613 C396.6328,2399.3284 405.8572,2397.661 411.4551,2406.8838 C418.5742,2397.6613 426.353,2398.3585 431.1712,2409.1504 C441.4644,2410.479 442.167,2416.8855 437.9661,2424.592 C444.1452,2432.6271 442.0972,2439.8425 431.705,2441.874 C430.5163,2452.8794 421.2836,2456.1947 412.9454,2449.4153 C402.4772,2456.577 395.9143,2452.8751 392.6264,2441.5312 C384.1449,2438.5998 383.5464,2430.45 390.3038,2425.3335 C382.2035,2419.8248 383.9934,2411.6869 392.6842,2408.5613" fill="#FEF3C7" style="stroke:#181818;stroke-width:0.5;"/><text fill="#000000" font-family="Monospace" font-size="14" lengthAdjust="spacing" textLength="25.5499" x="398.02" y="2429.2039">info</text></g><!--entity tool_install_backend--><g class="entity" data-qualified-name="tool_install_backend" data-source-line="32" id="ent0027"><path d="M353.8402,895.6385 C356.8944,889.444 362.6691,890.3605 366.0138,895.3215 C369.477,890.0991 374.4827,889.5707 378.4507,894.716 C381.3634,890.0996 386.1615,890.3985 388.8052,895.0176 C393.0396,889.9858 397.2446,890.526 400.8736,895.7313 C403.7545,891.3277 407.8449,890.8438 410.8591,895.5856 C413.7631,888.95 419.2283,888.8519 422.9726,894.7751 C426.7329,890.1798 430.815,889.2684 434.5027,894.8572 C437.8254,890.1904 443.1364,889.7939 445.8644,895.508 C450.2346,889.9635 454.1562,891.0945 457.0553,896.952 C460.357,890.6396 465.6172,891.5108 469.3639,896.4659 C476.869,900.7401 477.1153,907.0505 470.6093,912.4185 C477.0615,917.5646 477.5184,925.7768 468.492,928.9392 C465.7766,933.9102 460.5693,933.9502 457.3064,929.5959 C454.2776,935.1734 450.0247,934.0622 446.7568,929.8537 C444.5046,935.7012 438.4808,936.9442 434.1922,932.2901 C431.5479,938.6656 426.5305,938.9501 422.8561,933.2578 C419.972,938.4155 416.2264,937.8553 412.9582,933.6644 C408.157,938.835 404.0313,939.8438 400.1806,932.6797 C396.5408,938.1772 392.6972,937.368 389.7479,932.0157 C385.643,937.0768 379.0625,937.2908 376.9778,929.9375 C374.5328,935.8151 369.1204,935.7687 365.8822,930.7448 C362.1078,935.4063 355.9474,935.9759 353.5164,929.2819 C343.3131,926.1178 342.1052,920.2134 348.0202,911.9408 C342.3203,905.2846 345.0886,897.1354 353.8402,895.6385" fill="#FEF3C7" style="stroke:#181818;stroke-width:0.5;"/><text fill="#000000" font-family="Monospace" font-size="14" lengthAdjust="spacing" textLength="101.1356" x="360.23" y="917.2039">install_backend</text></g><!--entity tool_install_plugins--><g class="entity" data-qualified-name="tool_install_plugins" data-source-line="33" id="ent0028"><path d="M358.0003,980.0523 C361.2131,973.7877 367.4285,973.8047 371.0111,979.6553 C374.8532,973.4624 380.9603,973.6855 384.0314,980.4312 C388.0666,972.7207 392.7972,972.8994 397.9168,979.3693 C402.5272,971.9578 408.3987,972.1129 412.7519,979.6251 C416.3734,973.9345 421.7787,974.8135 424.8899,980.185 C429.188,972.7406 435.1604,972.9883 439.8743,979.7463 C443.064,973.5896 447.3338,973.3454 451.3557,978.9328 C457.0728,971.9518 461.9417,973.7524 466.2586,980.4575 C477.3006,979.3002 482.0259,987.2381 475.9233,996.4449 C480.2299,1005.7681 476.9874,1011.7681 466.7911,1013.1746 C462.1085,1019.5087 456.0855,1019.4124 451.5812,1012.9624 C448.6773,1018.8429 442.4545,1019.6062 438.2858,1014.4918 C434.1937,1021.4468 429.369,1020.5867 424.9987,1014.7815 C420.8133,1020.4884 415.275,1021.5634 411.1273,1014.7397 C406.7076,1020.5184 402.331,1020.2613 398.3233,1014.2907 C395.5906,1021.1702 389.3047,1021.267 385.6374,1015.207 C381.2734,1021.3083 374.0161,1021.4506 370.6053,1014.1387 C366.3541,1020.7062 360.4192,1019.3314 357.5674,1012.751 C349.7823,1009.0996 350.7635,1002.3779 356.635,997.8708 C349.2903,991.7031 348.173,984.9042 358.0003,980.0523" fill="#FEF3C7" style="stroke:#181818;stroke-width:0.5;"/><text fill="#000000" font-family="Monospace" font-size="14" lengthAdjust="spacing" textLength="93.7716" x="363.91" y="1001.2039">install_plugins</text></g><!--entity tool_java--><g class="entity" data-qualified-name="tool_java" data-source-line="34" id="ent0029"><path d="M392.6172,2743.616 C397.4478,2733.4402 404.1995,2734.7887 410.9771,2741.4991 C418.9084,2731.7307 428.1505,2735.1105 432.886,2745.0515 C441.1156,2748.5952 442.2339,2754.3803 435.6792,2760.5828 C441.9894,2767.2765 440.8498,2774.0219 432.628,2778.1984 C430.2181,2790.4206 420.8883,2792.2236 411.8096,2785.5431 C401.7809,2792.5772 393.2738,2787.6093 391.2083,2776.5007 C382.3134,2772.0942 382.7723,2764.0306 391.4988,2759.9331 C385.1231,2754.7172 384.7705,2747.857 392.6172,2743.616" fill="#FEF3C7" style="stroke:#181818;stroke-width:0.5;"/><text fill="#000000" font-family="Monospace" font-size="14" lengthAdjust="spacing" textLength="26.4319" x="397.58" y="2765.2039">java</text></g><!--entity tool_mapfile--><g class="entity" data-qualified-name="tool_mapfile" data-source-line="35" id="ent0030"><path d="M380.0643,1400.3965 C384.7222,1391.4847 392.3185,1391.8478 396.8999,1400.4699 C400.8445,1393.23 406.1731,1393.8983 410.8089,1399.7349 C416.6068,1391.8136 423.0312,1392.8259 428.4471,1400.1761 C433.0048,1392.1445 439.5139,1392.7495 443.5284,1400.689 C454.4173,1401.2079 456.3231,1407.1788 452.2796,1416.1498 C457.8603,1425.8594 455.24,1432.5287 443.4056,1433.1451 C441.0813,1441.6298 433.2727,1441.8856 427.9781,1436.4329 C424.8065,1446.68 418.8559,1447.8206 411.2194,1440.7549 C404.8913,1446.878 400.1687,1446.1588 396.0005,1438.3888 C388.3291,1443.5572 382.8929,1443.049 379.6542,1433.4742 C369.9567,1430.3785 367.5398,1424.6391 375.2029,1416.8851 C369.6115,1410.0514 369.9264,1402.5927 380.0643,1400.3965" fill="#FEF3C7" style="stroke:#181818;stroke-width:0.5;"/><text fill="#000000" font-family="Monospace" font-size="14" lengthAdjust="spacing" textLength="49.4898" x="386.05" y="1421.2039">mapfile</text></g><!--entity tool_mkdir--><g class="entity" data-qualified-name="tool_mkdir" data-source-line="36" id="ent0031"><path d="M385.8213,2659.7953 C389.6459,2653.9592 394.9733,2653.9581 398.2987,2660.3065 C401.8258,2653.4431 407.3926,2653.7206 412.1247,2658.9261 C416.0626,2652.8931 420.3104,2653.4172 424.6056,2658.5259 C428.9527,2653.1838 434.2054,2652.7413 437.3107,2659.7984 C449.9144,2660.018 452.4508,2667.2073 448.0545,2677.6553 C452.6429,2686.4085 447.1485,2692.839 438.2393,2692.9043 C435.3007,2699.1677 431.4279,2701.4213 425.5834,2696.071 C422.7357,2702.7574 416.5446,2704.4015 411.2239,2699.0114 C405.7932,2703.5293 401.9074,2701.3775 399.835,2695.3757 C394.1531,2702.5977 387.7404,2700.6197 384.6883,2692.7384 C375.3384,2690.6754 370.9633,2686.1798 376.8215,2676.6708 C371.3652,2666.2365 375.6296,2661.8844 385.8213,2659.7953" fill="#FEF3C7" style="stroke:#181818;stroke-width:0.5;"/><text fill="#000000" font-family="Monospace" font-size="14" lengthAdjust="spacing" textLength="38.5699" x="391.51" y="2681.2039">mkdir</text></g><!--entity tool_mv--><g class="entity" data-qualified-name="tool_mv" data-source-line="37" id="ent0032"><path d="M394.9912,1483.3066 C399.2467,1475.8115 406.5745,1474.3658 411.9401,1482.0686 C419.246,1474.1165 425.244,1476.0493 429.4305,1485.2494 C438.8019,1486.5015 442.8619,1491.3941 438.027,1500.6012 C444.1178,1510.3279 438.4444,1516.752 428.5561,1517.5496 C425.7495,1527.3739 420.1669,1529.7326 411.8883,1523.0874 C403.659,1530.0438 395.9859,1526.156 394.0846,1516.3617 C386.272,1512.083 383.84,1507.4608 391.3487,1500.5339 C384.2808,1493.3159 385.1657,1486.9528 394.9912,1483.3066" fill="#FEF3C7" style="stroke:#181818;stroke-width:0.5;"/><text fill="#000000" font-family="Monospace" font-size="14" lengthAdjust="spacing" textLength="20.2019" x="400.7" y="1505.2039">mv</text></g><!--entity tool_print_quickref--><g class="entity" data-qualified-name="tool_print_quickref" data-source-line="38" id="ent0033"><path d="M359.8863,1064.3616 C363.805,1058.462 368.0341,1057.0264 373.1078,1063.0846 C376.0618,1057.9865 381.9483,1056.5756 385.3616,1062.5774 C389.1708,1057.3786 395.1681,1057.5949 398.0031,1063.6698 C401.3262,1055.2577 407.5634,1054.4319 412.7326,1061.9644 C417.4663,1056.3389 421.4512,1056.4085 425.5656,1062.635 C429.8685,1056.4796 436.2904,1057.0495 439.2291,1064.0516 C442.9346,1058.5797 447.3959,1057.916 451.8455,1063.1769 C455.7265,1057.9646 461.6655,1057.9988 464.9732,1063.8567 C473.7478,1068.6209 473.9475,1076.8243 465.2361,1081.8441 C472.4261,1085.8838 472.4907,1093.3216 464.725,1096.852 C462.9334,1103.0364 456.9001,1105.8029 452.0582,1100.1032 C448.4184,1106.527 442.4048,1107.6641 438.3533,1100.519 C436.0023,1107.0339 429.7808,1108.664 425.2486,1102.8345 C422.2388,1110.723 415.8197,1111.7132 410.9607,1104.5952 C406.8703,1109.709 401.0939,1108.1722 398.6859,1102.6531 C394.3324,1108.2968 389.2071,1107.0602 386.3649,1101.0546 C381.4821,1107.6339 376.464,1106.907 373.2069,1099.5227 C368.4668,1106.4847 362.117,1106.0973 358.5335,1098.3676 C347.2665,1097.5953 344.1646,1090.2914 350.4902,1081.2518 C346.1969,1072.8212 348.2725,1063.9431 359.8863,1064.3616" fill="#FEF3C7" style="stroke:#181818;stroke-width:0.5;"/><text fill="#000000" font-family="Monospace" font-size="14" lengthAdjust="spacing" textLength="91.4896" x="365.05" y="1085.2039">print_quickref</text></g><!--entity tool_repo_architecture_drawio--><g class="entity" data-qualified-name="tool_repo_architecture_drawio" data-source-line="39" id="ent0034"><path d="M322.3562,2828.198 C325.8112,2820.8736 332.1336,2821.3771 336.2678,2827.495 C340.3542,2820.8187 346.1083,2821.736 349.2087,2828.448 C352.1674,2822.0697 358.5195,2821.0867 362.2921,2827.6235 C366.3647,2822.2383 370.0737,2822.8446 373.8908,2827.9071 C376.9764,2821.8134 382.4002,2821.137 387.0882,2825.9721 C392.3099,2820.2602 396.7896,2820.2086 400.4314,2827.5831 C403.5565,2820.3562 408.5643,2820.7102 413.1417,2826.1228 C417.1621,2819.7432 422.3203,2820.9529 425.3767,2827.0669 C429.235,2822.1713 434.2028,2821.2177 437.2043,2827.9391 C441.743,2822.0867 446.2853,2821.2105 451.1922,2827.5154 C454.8223,2822.5614 458.39,2822.2996 462.2751,2827.2295 C465.9773,2822.4897 471.8946,2822.7858 474.3861,2828.6165 C478.1745,2822.8307 483.267,2822.5819 487.3664,2828.2644 C490.6889,2822.0108 497.0987,2821.5124 500.7919,2827.8698 C509.2858,2832.2333 511.817,2839.2129 502.9871,2845.7083 C511.2763,2850.4126 510.5279,2857.5643 502.1425,2861.3694 C498.8506,2867.6309 492.1787,2868.0697 488.1835,2862.1772 C485.0044,2868.5205 481.0575,2868.5598 476.0768,2864.2185 C472.0289,2869.8279 467.0105,2870.2208 462.7769,2864.4353 C459.3407,2870.4619 455.5149,2870.0855 451.1627,2865.4313 C447.8399,2872.4393 442.5727,2874.3776 436.6892,2868.2537 C432.9,2875.4231 428.4607,2875.6997 423.7375,2869.1345 C419.4933,2875.7029 415.3424,2875.7732 410.9671,2869.2626 C407.1881,2874.2745 402.6925,2875.3459 399.3181,2868.853 C394.7256,2874.6876 389.1748,2873.7445 386.8331,2866.6752 C382.463,2873.2799 376.3791,2872.4184 372.7535,2865.8778 C367.8299,2870.6605 363.3949,2869.8699 360.0422,2864.0027 C356.2251,2869.5668 351.2904,2868.3053 348.8189,2862.656 C344.8393,2868.5303 339.8743,2869.0617 335.5074,2863.0914 C332.0123,2868.4255 325.563,2868.3288 322.4794,2862.6066 C311.8969,2857.715 312.3207,2850.4453 321.0335,2844.0502 C313.8018,2838.4053 313.5158,2832.5019 322.3562,2828.198" fill="#FEF3C7" style="stroke:#181818;stroke-width:0.5;"/><text fill="#000000" font-family="Monospace" font-size="14" lengthAdjust="spacing" textLength="164.0234" x="328.79" y="2849.2039">repo-architecture.drawio</text></g><!--entity tool_run--><g class="entity" data-qualified-name="tool_run" data-source-line="40" id="ent0035"><path d="M392.4602,56.8706 C397.3318,47.7293 405.6348,46.1296 412.6951,54.3143 C418.5587,46.5504 426.8835,48.2883 430.2827,56.9525 C439.8723,57.6613 445.5616,62.4144 440.0744,72.5737 C445.3085,82.0202 441.8065,87.44 431.433,88.3228 C431.1946,101.0475 424.8631,106.0421 412.8697,99.8709 C401.963,104.9036 394.8006,103.4176 394.1002,89.6703 C384.4393,88.8356 380.6511,80.744 386.0039,72.7327 C380.9485,64.6057 383.3647,59.2377 392.4602,56.8706" fill="#FEF3C7" style="stroke:#181818;stroke-width:0.5;"/><text fill="#000000" font-family="Monospace" font-size="14" lengthAdjust="spacing" textLength="23.0859" x="399.25" y="77.2039">run</text></g><!--entity tool_screen--><g class="entity" data-qualified-name="tool_screen" data-source-line="41" id="ent0036"><path d="M382.2383,1568.0872 C385.8739,1560.3804 392.2838,1560.24 397.1183,1566.8402 C402.1541,1560.7285 407.6767,1560.6973 412.2491,1567.3878 C416.5638,1560.8558 423.3036,1561.1984 427.1865,1567.8761 C431.0303,1561.0593 436.0895,1562.4978 440.0726,1567.7271 C450.4748,1568.796 455.8003,1573.0879 450.9861,1584.2235 C456.5233,1595.0446 452.0156,1599.4559 441.341,1600.9013 C437.8966,1609.5155 432.8953,1610.3351 426.3806,1603.9671 C423.9579,1612.5245 418.7736,1613.8201 411.8212,1608.8379 C406.1942,1614.1877 400.1065,1611.511 398.2618,1604.641 C392.3622,1611.0792 386.556,1610.8644 382.8967,1602.3404 C373.174,1600.3214 369.6883,1592.9669 374.6244,1584.2462 C370.0354,1576.7017 372.3723,1568.8206 382.2383,1568.0872" fill="#FEF3C7" style="stroke:#181818;stroke-width:0.5;"/><text fill="#000000" font-family="Monospace" font-size="14" lengthAdjust="spacing" textLength="43.6518" x="388.97" y="1589.2039">screen</text></g><!--entity tool_session_create--><g class="entity" data-qualified-name="tool_session_create" data-source-line="42" id="ent0037"><path d="M357.2112,1652.0349 C360.8551,1646.9628 365.7121,1647.4924 368.4033,1653.039 C371.7969,1648.2142 375.7672,1646.7895 379.4842,1652.7053 C381.8253,1646.1714 386.1833,1645.1458 390.8594,1650.4643 C394.7177,1644.9959 399.0629,1645.5596 401.6682,1651.6373 C403.4786,1645.4522 408.7834,1644.8951 412.5823,1649.6543 C416.2418,1645.8235 420.3891,1645.7689 422.587,1651.2284 C426.4809,1645.379 431.5784,1646.4064 434.3846,1652.3194 C437.3162,1646.5595 441.8272,1647.107 445.3742,1651.664 C448.9836,1647.1042 452.2243,1647.2539 455.0758,1652.42 C459.2196,1646.1279 463.6434,1646.7302 467.8863,1652.3131 C477.3827,1654.2097 479.6566,1661.0584 473.4961,1668.4111 C479.9673,1675.5939 476.8115,1683.9619 467.5591,1685.7657 C465.144,1691.8404 459.651,1692.6215 455.267,1688.0361 C452.0516,1692.759 447.9601,1692.7271 444.6942,1688.0931 C441.8261,1693.1258 438.2794,1694.173 434.0993,1689.5298 C431.7697,1694.7212 426.6915,1695.9561 423.0469,1690.9559 C420.3685,1696.2507 415.3375,1697.2588 411.6306,1692.0765 C408.195,1697.627 404.0901,1696.447 401.064,1691.658 C397.1904,1695.6134 393.005,1696.2184 390.4629,1690.2375 C386.2397,1695.532 382.8806,1694.4217 379.8758,1689.0303 C375.2594,1693.8893 368.9823,1693.0826 366.9354,1686.1987 C362.5093,1691.3043 358.7555,1690.6339 355.9319,1684.6138 C345.5468,1684.094 343.9329,1676.5614 349.0737,1669.1541 C342.7563,1659.9074 347.676,1653.7461 357.2112,1652.0349" fill="#FEF3C7" style="stroke:#181818;stroke-width:0.5;"/><text fill="#000000" font-family="Monospace" font-size="14" lengthAdjust="spacing" textLength="96.1656" x="362.71" y="1673.2039">session_create</text></g><!--entity tool_session_kill--><g class="entity" data-qualified-name="tool_session_kill" data-source-line="43" id="ent0038"><path d="M368.3262,1735.7082 C373.5212,1728.0868 378.7594,1729.6606 383.1877,1736.4963 C386.8049,1729.344 392.5134,1729.5784 396.5949,1736.0389 C401.4297,1728.5744 406.1971,1727.3043 412.4029,1734.5673 C416.4643,1727.1986 423.5653,1727.4645 427.1899,1735.0007 C431.7751,1728.1402 438.6676,1728.4172 441.884,1736.3593 C445.5211,1730.5437 452.2224,1729.9811 455.3857,1736.8631 C464.7534,1736.9338 468.8634,1744.7506 463.7733,1752.5512 C469.7179,1761.1643 466.0453,1767.1668 456.4504,1768.7589 C452.6678,1776.6116 445.0768,1776.5194 440.1579,1770.0518 C436.8508,1778.1702 431.5683,1777.661 426.3088,1772.0165 C423.5162,1779.3986 416.6315,1778.8855 412.5716,1773.3659 C407.7418,1778.9436 402.7709,1779.923 398.4328,1772.8179 C392.8742,1778.4868 386.5518,1777.7957 383.4543,1770.0665 C379.2637,1777.7876 372.7726,1777.8277 368.8976,1769.7753 C358.3376,1768.9199 356.4051,1759.6176 361.8471,1752.3045 C356.5333,1745.1206 357.5992,1736.6298 368.3262,1735.7082" fill="#FEF3C7" style="stroke:#181818;stroke-width:0.5;"/><text fill="#000000" font-family="Monospace" font-size="14" lengthAdjust="spacing" textLength="73.2757" x="374.16" y="1757.2039">session_kill</text></g><!--entity tool_success--><g class="entity" data-qualified-name="tool_success" data-source-line="44" id="ent0039"><path d="M380.1273,2491.4511 C385.0688,2482.4778 390.9547,2483.816 396.2649,2491.0848 C400.2227,2482.2261 408.0565,2483.8503 412.2872,2490.8084 C417.785,2482.5336 424.6438,2483.0659 428.5002,2492.3261 C433.1051,2486.3068 440.1912,2486.3775 444.1033,2493.17 C453.305,2493.8362 458.3113,2500.5437 452.8733,2509.2129 C459.407,2519.622 454.7806,2526.0356 443.2849,2526.367 C439.0078,2534.3144 431.4686,2533.5609 427.0997,2526.4657 C423.6992,2533.0376 417.0057,2534.7068 412.017,2528.3134 C406.8718,2535.9524 400.2477,2534.5994 396.544,2526.8628 C391.6754,2536.1563 383.3183,2534.4863 379.1829,2526.141 C368.6024,2522.4287 368.9213,2514.3951 376.6421,2508.1046 C370.6862,2500.8141 372.2002,2495.8362 380.1273,2491.4511" fill="#FEF3C7" style="stroke:#181818;stroke-width:0.5;"/><text fill="#000000" font-family="Monospace" font-size="14" lengthAdjust="spacing" textLength="50.1058" x="385.74" y="2513.2039">success</text></g><!--entity tool_summarize--><g class="entity" data-qualified-name="tool_summarize" data-source-line="45" id="ent0040"><path d="M368.3362,139.7082 C373.5305,132.088 378.7679,133.6617 383.1954,140.4963 C386.8119,133.3452 392.5194,133.5795 396.6002,140.0389 C401.4342,132.5754 406.2009,131.3054 412.4059,138.5673 C416.4667,131.1997 423.5665,131.4657 427.1906,139.0007 C431.7751,132.1413 438.6665,132.4184 441.8824,140.3593 C445.5189,134.5447 452.219,133.9823 455.3817,140.8631 C464.7494,140.9338 468.8594,148.7506 463.7693,156.5512 C469.7139,165.1643 466.0413,171.1668 456.4464,172.7589 C452.6644,180.6105 445.0745,180.5184 440.1562,174.0518 C436.8499,182.1689 431.5683,181.6599 426.3095,176.0165 C423.5174,183.3974 416.6339,182.8845 412.5746,177.3659 C407.7456,182.9427 402.7755,183.9218 398.4381,176.8179 C392.8802,182.4858 386.5588,181.7947 383.4619,174.0665 C379.272,181.7863 372.7819,181.8264 368.9076,173.7753 C358.3476,172.9199 356.4151,163.6176 361.8571,156.3045 C356.5433,149.1206 357.6092,140.6298 368.3362,139.7082" fill="#FEF3C7" style="stroke:#181818;stroke-width:0.5;"/><text fill="#000000" font-family="Monospace" font-size="14" lengthAdjust="spacing" textLength="73.2617" x="374.17" y="161.2039">summarize</text></g><!--entity tool_tachometer--><g class="entity" data-qualified-name="tool_tachometer" data-source-line="46" id="ent0041"><path d="M367.1372,223.6907 C369.9107,218.6174 374.466,218.9775 377.1974,223.7338 C381.2784,217.5092 386.6257,218.9347 390.0826,224.4206 C393.4005,218.9344 396.6563,218.5078 400.3978,224.0235 C403.2886,217.1195 407.8421,217.0811 412.5758,222.1488 C416.3908,216.9114 420.7824,219.0105 423.0633,223.7599 C426.1961,218.6305 430.2249,218.416 433.746,223.3474 C437.5874,217.506 442.4907,218.6284 445.5576,224.1523 C448.626,218.4488 453.2669,219.7477 456.2423,224.2497 C464.4708,228.061 465.1521,235.0747 457.9896,240.5371 C466.01,245.5006 465.491,251.1823 458.1584,256.3101 C454.9761,261.712 450.6887,262.4527 446.7612,257.0998 C444.1029,263.7654 439.0421,264.0238 434.528,259.0502 C430.5625,264.4338 427.2446,263.6977 423.5271,258.7852 C421.1191,264.4725 415.8553,264.6148 412.8516,259.3666 C409.4425,264.1032 404.345,264.5201 401.2293,259.0332 C397.2047,262.8121 392.4951,263.0921 390.3626,256.959 C387.363,263.9778 381.2263,263.2166 377.1872,258.0863 C373.6431,262.5639 368.017,262.1996 365.6647,256.7087 C356.8579,255.5597 353.9025,247.3143 358.7787,240.3911 C354.0621,230.9882 355.4816,224.8994 367.1372,223.6907" fill="#FEF3C7" style="stroke:#181818;stroke-width:0.5;"/><text fill="#000000" font-family="Monospace" font-size="14" lengthAdjust="spacing" textLength="76.4677" x="372.56" y="245.2039">tachometer</text></g><!--entity tool_tmux--><g class="entity" data-qualified-name="tool_tmux" data-source-line="47" id="ent0042"><path d="M387.3212,1232.8532 C389.3385,1226.3673 395.3745,1225.8468 399.4998,1230.5611 C403.3649,1223.9451 407.6854,1223.7995 412.1074,1230.0139 C416.5111,1224.5281 420.3555,1224.7449 423.8734,1230.9086 C428.1137,1225.1587 433.8992,1225.2029 436.7493,1232.3017 C444.7422,1236.1633 445.4631,1242.6647 438.9401,1248.4906 C445.4522,1254.6082 444.571,1262.4189 435.9217,1265.9092 C434.1997,1272.1391 428.9485,1274.6423 423.6025,1270.025 C422.6112,1276.274 417.3075,1277.3817 412.9589,1273.5806 C406.4195,1279.0585 401.0108,1277.181 399.4636,1268.7403 C393.6736,1274.6314 388.8773,1273.2432 386.7537,1265.3578 C376.1335,1263.4828 374.6482,1257.3657 380.6449,1249.206 C374.7282,1240.88 378.5206,1235.1707 387.3212,1232.8532" fill="#FEF3C7" style="stroke:#181818;stroke-width:0.5;"/><text fill="#000000" font-family="Monospace" font-size="14" lengthAdjust="spacing" textLength="34.2019" x="393.7" y="1253.2039">tmux</text></g><!--entity tool_warn--><g class="entity" data-qualified-name="tool_warn" data-source-line="48" id="ent0043"><path d="M387.3982,2575.5985 C391.5607,2569.7415 396.3707,2569.5806 400.2012,2575.9462 C403.2976,2569.7789 408.7493,2568.8574 412.822,2574.9404 C415.6444,2570.3998 420.7494,2569.2072 423.7398,2574.7586 C427.7746,2569.3141 432.9796,2569.7731 436.0204,2575.8208 C446.8888,2577.9442 446.4395,2587.3509 440.3924,2593.6275 C446.8448,2600.3504 444.4068,2606.4418 435.8884,2608.6874 C434.0411,2614.2743 428.73,2615.822 424.4005,2611.5921 C421.3695,2617.9238 416.7626,2618.7408 412.1543,2613.2221 C408.1016,2618.7837 401.7505,2618.8212 398.9865,2611.8664 C394.2181,2615.8015 389.53,2614.2836 387.365,2608.6909 C377.0463,2608.2708 374.271,2599.5091 379.3457,2591.7866 C373.5628,2583.833 376.6648,2575.3363 387.3982,2575.5985" fill="#FEF3C7" style="stroke:#181818;stroke-width:0.5;"/><text fill="#000000" font-family="Monospace" font-size="14" lengthAdjust="spacing" textLength="33.2919" x="394.15" y="2597.2039">warn</text></g><!--entity tool_xargs--><g class="entity" data-qualified-name="tool_xargs" data-source-line="49" id="ent0044"><path d="M387.6773,308.1046 C390.9092,301.5937 396.4767,301.1248 400.0977,307.7362 C403.6727,302.4195 408.9362,302.1396 412.8895,307.2732 C415.6754,301.8466 420.6147,301.0181 423.8587,306.8259 C428.3249,301.3428 434.1181,301.9985 436.7465,308.7603 C448.0768,308.9242 452.9421,314.6854 447.528,325.5815 C450.4899,335.7938 447.9202,341.4805 436.2839,341.1481 C435.2884,348.1203 429.4547,348.3374 425.1735,344.5368 C423.8065,351.4671 418.5291,353.8544 412.8271,349.1284 C407.0066,354.2565 401.6657,352.3757 399.5912,345.1235 C394.404,349.883 390.0395,348.3378 387.6758,342.0721 C377.4293,340.9593 374.363,332.8738 381.43,325.3098 C374.1242,317.5178 378.0074,309.7325 387.6773,308.1046" fill="#FEF3C7" style="stroke:#181818;stroke-width:0.5;"/><text fill="#000000" font-family="Monospace" font-size="14" lengthAdjust="spacing" textLength="36.3579" x="392.62" y="329.2039">xargs</text></g><g class="entity" data-qualified-name="toolingGraphSummary" data-source-line="101" id="ent0095"><path d="M26.64,46.0679 L26.64,91.4799 L234.1512,91.4799 L234.1512,56.0679 L224.1512,46.0679 L26.64,46.0679" fill="#FEFFDD" style="stroke:#181818;stroke-width:0.5;"/><path d="M224.1512,46.0679 L224.1512,56.0679 L234.1512,56.0679 L224.1512,46.0679" fill="#FEFFDD" style="stroke:#181818;stroke-width:1;"/><text fill="#000000" font-family="Monospace" font-size="13" lengthAdjust="spacing" textLength="186.5112" x="32.64" y="64.9649">Scanned&#160;6&#160;tooling&#160;entrypoints.</text><text fill="#000000" font-family="Monospace" font-size="13" lengthAdjust="spacing" textLength="179.2182" x="32.64" y="82.6709">Detected&#160;37&#160;third-party&#160;tools.</text></g><!--link source_github_workflows_ci_yml to tool_actions_checkout--><g class="link" data-entity-1="ent0002" data-entity-2="ent0012" data-link-type="dependency" data-source-line="50" id="lnk45"><path d="M221.82,407.7779 C260.02,407.7779 297.73,407.7779 333.49,407.7779" fill="none" id="source_github_workflows_ci_yml-to-tool_actions_checkout" style="stroke:#181818;stroke-width:1;"/><polygon fill="#181818" points="339.49,407.7779,330.49,403.7779,334.49,407.7779,330.49,411.7779,339.49,407.7779" style="stroke:#181818;stroke-width:1;"/></g><!--link source_github_workflows_ci_yml to tool_apt_get--><g class="link" data-entity-1="ent0002" data-entity-2="ent0013" data-link-type="dependency" data-source-line="51" id="lnk46"><path d="M130.81,437.2979 C130.81,457.7779 130.81,481.3979 130.81,481.3979 C130.81,481.3979 288.51,481.3979 365.57,481.3979" fill="none" id="source_github_workflows_ci_yml-to-tool_apt_get" style="stroke:#181818;stroke-width:1;"/><polygon fill="#181818" points="371.57,481.3979,362.57,477.3979,366.57,481.3979,362.57,485.3979,371.57,481.3979" style="stroke:#181818;stroke-width:1;"/></g><!--link source_github_workflows_ci_yml to tool_xargs--><g class="link" data-entity-1="ent0002" data-entity-2="ent0044" data-link-type="dependency" data-source-line="52" id="lnk47"><path d="M130.81,378.3979 C130.81,354.1679 130.81,323.7779 130.81,323.7779 C130.81,323.7779 296.98,323.7779 371.3,323.7779" fill="none" id="source_github_workflows_ci_yml-to-tool_xargs" style="stroke:#181818;stroke-width:1;"/><polygon fill="#181818" points="377.3,323.7779,368.3,319.7779,372.3,323.7779,368.3,327.7779,377.3,323.7779" style="stroke:#181818;stroke-width:1;"/></g><!--link source_github_workflows_secret_scan_yml to tool_actions_checkout--><g class="link" data-entity-1="ent0003" data-entity-2="ent0012" data-link-type="dependency" data-source-line="53" id="lnk48"><path d="M253.98,533.7779 C306.48,533.7779 355.81,533.7779 355.81,533.7779 C355.81,533.7779 355.81,475.3879 355.81,438.6679" fill="none" id="source_github_workflows_secret_scan_yml-to-tool_actions_checkout" style="stroke:#181818;stroke-width:1;"/><polygon fill="#181818" points="355.81,432.6679,351.81,441.6679,355.81,437.6679,359.81,441.6679,355.81,432.6679" style="stroke:#181818;stroke-width:1;"/></g><!--link source_github_workflows_secret_scan_yml to tool_gitleaks_gitleaks_action--><g class="link" data-entity-1="ent0003" data-entity-2="ent0024" data-link-type="dependency" data-source-line="54" id="lnk49"><path d="M254.2,559.5379 C276.2,559.5379 292.76,559.5379 313.65,559.5379" fill="none" id="source_github_workflows_secret_scan_yml-to-tool_gitleaks_gitleaks_action" style="stroke:#181818;stroke-width:1;"/><polygon fill="#181818" points="319.65,559.5379,310.65,555.5379,314.65,559.5379,310.65,563.5379,319.65,559.5379" style="stroke:#181818;stroke-width:1;"/></g><!--link source_install_sh to tool_apt_get--><g class="link" data-entity-1="ent0004" data-entity-2="ent0013" data-link-type="dependency" data-source-line="55" id="lnk50"><path d="M197.24,1062.2479 C238.58,1062.2479 283.81,1062.2479 283.81,1062.2479 C283.81,1062.2479 283.81,495.5479 283.81,495.5479 C283.81,495.5479 328.35,495.5479 365.66,495.5479" fill="none" id="source_install_sh-to-tool_apt_get" style="stroke:#181818;stroke-width:1;"/><polygon fill="#181818" points="371.66,495.5479,362.66,491.5479,366.66,495.5479,362.66,499.5479,371.66,495.5479" style="stroke:#181818;stroke-width:1;"/></g><!--link source_install_sh to tool_bash--><g class="link" data-entity-1="ent0004" data-entity-2="ent0016" data-link-type="dependency" data-source-line="56" id="lnk51"><path d="M85.81,1050.2379 C85.81,954.6379 85.81,659.7779 85.81,659.7779 C85.81,659.7779 292.29,659.7779 373.64,659.7779" fill="none" id="source_install_sh-to-tool_bash" style="stroke:#181818;stroke-width:1;"/><polygon fill="#181818" points="379.64,659.7779,370.64,655.7779,374.64,659.7779,370.64,663.7779,379.64,659.7779" style="stroke:#181818;stroke-width:1;"/></g><!--link source_install_sh to tool_cp--><g class="link" data-entity-1="ent0004" data-entity-2="ent0019" data-link-type="dependency" data-source-line="57" id="lnk52"><path d="M107.81,1050.2479 C107.81,968.2579 107.81,743.7779 107.81,743.7779 C107.81,743.7779 311.56,743.7779 382.02,743.7779" fill="none" id="source_install_sh-to-tool_cp" style="stroke:#181818;stroke-width:1;"/><polygon fill="#181818" points="388.02,743.7779,379.02,739.7779,383.02,743.7779,379.02,747.7779,388.02,743.7779" style="stroke:#181818;stroke-width:1;"/></g><!--link source_install_sh to tool_die--><g class="link" data-entity-1="ent0004" data-entity-2="ent0022" data-link-type="dependency" data-source-line="58" id="lnk53"><path d="M197.41,1076.2679 C221.48,1076.2679 242.81,1076.2679 242.81,1076.2679 C242.81,1076.2679 242.81,2327.5079 242.81,2327.5079 C242.81,2327.5079 332.29,2327.5079 379.28,2327.5079" fill="none" id="source_install_sh-to-tool_die" style="stroke:#181818;stroke-width:1;"/><polygon fill="#181818" points="385.28,2327.5079,376.28,2323.5079,380.28,2327.5079,376.28,2331.5079,385.28,2327.5079" style="stroke:#181818;stroke-width:1;"/></g><!--link source_install_sh to tool_git--><g class="link" data-entity-1="ent0004" data-entity-2="ent0023" data-link-type="dependency" data-source-line="59" id="lnk54"><path d="M130.81,1050.3779 C130.81,983.8979 130.81,827.7779 130.81,827.7779 C130.81,827.7779 313.22,827.7779 380.93,827.7779" fill="none" id="source_install_sh-to-tool_git" style="stroke:#181818;stroke-width:1;"/><polygon fill="#181818" points="386.93,827.7779,377.93,823.7779,381.93,827.7779,377.93,831.7779,386.93,827.7779" style="stroke:#181818;stroke-width:1;"/></g><!--link source_install_sh to tool_grep--><g class="link" data-entity-1="ent0004" data-entity-2="ent0025" data-link-type="dependency" data-source-line="60" id="lnk55"><path d="M183.81,1109.3079 C183.81,1130.5979 183.81,1155.5979 183.81,1155.5979 C183.81,1155.5979 312.23,1155.5979 374.18,1155.5979" fill="none" id="source_install_sh-to-tool_grep" style="stroke:#181818;stroke-width:1;"/><polygon fill="#181818" points="380.18,1155.5979,371.18,1151.5979,375.18,1155.5979,371.18,1159.5979,380.18,1155.5979" style="stroke:#181818;stroke-width:1;"/></g><!--link source_install_sh to tool_info--><g class="link" data-entity-1="ent0004" data-entity-2="ent0026" data-link-type="dependency" data-source-line="61" id="lnk56"><path d="M197.37,1083.2779 C215.79,1083.2779 230.81,1083.2779 230.81,1083.2779 C230.81,1083.2779 230.81,2411.5079 230.81,2411.5079 C230.81,2411.5079 326.05,2411.5079 376.67,2411.5079" fill="none" id="source_install_sh-to-tool_info" style="stroke:#181818;stroke-width:1;"/><polygon fill="#181818" points="382.67,2411.5079,373.67,2407.5079,377.67,2411.5079,373.67,2415.5079,382.67,2411.5079" style="stroke:#181818;stroke-width:1;"/></g><!--link source_install_sh to tool_install_backend--><g class="link" data-entity-1="ent0004" data-entity-2="ent0027" data-link-type="dependency" data-source-line="62" id="lnk57"><path d="M152.81,1050.5079 C152.81,1002.3779 152.81,911.7779 152.81,911.7779 C152.81,911.7779 262.59,911.7779 339.03,911.7779" fill="none" id="source_install_sh-to-tool_install_backend" style="stroke:#181818;stroke-width:1;"/><polygon fill="#181818" points="345.03,911.7779,336.03,907.7779,340.03,911.7779,336.03,915.7779,345.03,911.7779" style="stroke:#181818;stroke-width:1;"/></g><!--link source_install_sh to tool_install_plugins--><g class="link" data-entity-1="ent0004" data-entity-2="ent0028" data-link-type="dependency" data-source-line="63" id="lnk58"><path d="M174.81,1050.3979 C174.81,1026.1679 174.81,995.7779 174.81,995.7779 C174.81,995.7779 272.57,995.7779 342.48,995.7779" fill="none" id="source_install_sh-to-tool_install_plugins" style="stroke:#181818;stroke-width:1;"/><polygon fill="#181818" points="348.48,995.7779,339.48,991.7779,343.48,995.7779,339.48,999.7779,348.48,995.7779" style="stroke:#181818;stroke-width:1;"/></g><!--link source_install_sh to tool_print_quickref--><g class="link" data-entity-1="ent0004" data-entity-2="ent0033" data-link-type="dependency" data-source-line="64" id="lnk59"><path d="M197.56,1069.2579 C243.89,1069.2579 299,1069.2579 343.92,1069.2579" fill="none" id="source_install_sh-to-tool_print_quickref" style="stroke:#181818;stroke-width:1;"/><polygon fill="#181818" points="349.92,1069.2579,340.92,1065.2579,344.92,1069.2579,340.92,1073.2579,349.92,1069.2579" style="stroke:#181818;stroke-width:1;"/></g><!--link source_install_sh to tool_success--><g class="link" data-entity-1="ent0004" data-entity-2="ent0039" data-link-type="dependency" data-source-line="65" id="lnk60"><path d="M197.25,1090.2879 C210.18,1090.2879 219.81,1090.2879 219.81,1090.2879 C219.81,1090.2879 219.81,2495.5079 219.81,2495.5079 C219.81,2495.5079 308.23,2495.5079 364.29,2495.5079" fill="none" id="source_install_sh-to-tool_success" style="stroke:#181818;stroke-width:1;"/><polygon fill="#181818" points="370.29,2495.5079,361.29,2491.5079,365.29,2495.5079,361.29,2499.5079,370.29,2495.5079" style="stroke:#181818;stroke-width:1;"/></g><!--link source_install_sh to tool_tmux--><g class="link" data-entity-1="ent0004" data-entity-2="ent0042" data-link-type="dependency" data-source-line="66" id="lnk61"><path d="M156.81,1109.0879 C156.81,1155.2279 156.81,1239.5979 156.81,1239.5979 C156.81,1239.5979 303.9,1239.5979 372.37,1239.5979" fill="none" id="source_install_sh-to-tool_tmux" style="stroke:#181818;stroke-width:1;"/><polygon fill="#181818" points="378.37,1239.5979,369.37,1235.5979,373.37,1239.5979,369.37,1243.5979,378.37,1239.5979" style="stroke:#181818;stroke-width:1;"/></g><!--link source_install_sh to tool_warn--><g class="link" data-entity-1="ent0004" data-entity-2="ent0043" data-link-type="dependency" data-source-line="67" id="lnk62"><path d="M197.24,1097.2979 C204.21,1097.2979 208.81,1097.2979 208.81,1097.2979 C208.81,1097.2979 208.81,2579.5079 208.81,2579.5079 C208.81,2579.5079 315.84,2579.5079 372.79,2579.5079" fill="none" id="source_install_sh-to-tool_warn" style="stroke:#181818;stroke-width:1;"/><polygon fill="#181818" points="378.79,2579.5079,369.79,2575.5079,373.79,2579.5079,369.79,2583.5079,378.79,2579.5079" style="stroke:#181818;stroke-width:1;"/></g><!--link source_scripts_run_tachometer_profile_sh to tool_run--><g class="link" data-entity-1="ent0005" data-entity-2="ent0035" data-link-type="dependency" data-source-line="68" id="lnk63"><path d="M242.81,126.5179 C242.81,101.4479 242.81,69.3579 242.81,69.3579 C242.81,69.3579 330.32,69.3579 377.81,69.3579" fill="none" id="source_scripts_run_tachometer_profile_sh-to-tool_run" style="stroke:#181818;stroke-width:1;"/><polygon fill="#181818" points="383.81,69.3579,374.81,65.3579,378.81,69.3579,374.81,73.3579,383.81,69.3579" style="stroke:#181818;stroke-width:1;"/></g><!--link source_scripts_run_tachometer_profile_sh to tool_summarize--><g class="link" data-entity-1="ent0005" data-entity-2="ent0040" data-link-type="dependency" data-source-line="69" id="lnk64"><path d="M251.75,155.7779 C289.35,155.7779 322.78,155.7779 352.98,155.7779" fill="none" id="source_scripts_run_tachometer_profile_sh-to-tool_summarize" style="stroke:#181818;stroke-width:1;"/><polygon fill="#181818" points="358.98,155.7779,349.98,151.7779,353.98,155.7779,349.98,159.7779,358.98,155.7779" style="stroke:#181818;stroke-width:1;"/></g><!--link source_scripts_run_tachometer_profile_sh to tool_tachometer--><g class="link" data-entity-1="ent0005" data-entity-2="ent0041" data-link-type="dependency" data-source-line="70" id="lnk65"><path d="M236.81,185.1579 C236.81,209.3779 236.81,239.7779 236.81,239.7779 C236.81,239.7779 300.05,239.7779 351.17,239.7779" fill="none" id="source_scripts_run_tachometer_profile_sh-to-tool_tachometer" style="stroke:#181818;stroke-width:1;"/><polygon fill="#181818" points="357.17,239.7779,348.17,235.7779,352.17,239.7779,348.17,243.7779,357.17,239.7779" style="stroke:#181818;stroke-width:1;"/></g><!--link source_sessions_sh to tool_bashrc--><g class="link" data-entity-1="ent0006" data-entity-2="ent0008" data-link-type="dependency" data-source-line="71" id="lnk66"><path d="M170.81,1890.3979 C170.81,1866.1679 170.81,1835.7779 170.81,1835.7779 C170.81,1835.7779 297.35,1835.7779 365.44,1835.7779" fill="none" id="source_sessions_sh-to-tool_bashrc" style="stroke:#181818;stroke-width:1;"/><polygon fill="#181818" points="371.44,1835.7779,362.44,1831.7779,366.44,1835.7779,362.44,1839.7779,371.44,1835.7779" style="stroke:#181818;stroke-width:1;"/></g><!--link source_sessions_sh to tool_kshrc--><g class="link" data-entity-1="ent0006" data-entity-2="ent0009" data-link-type="dependency" data-source-line="72" id="lnk67"><path d="M197.56,1919.7779 C253.62,1919.7779 325.29,1919.7779 369.76,1919.7779" fill="none" id="source_sessions_sh-to-tool_kshrc" style="stroke:#181818;stroke-width:1;"/><polygon fill="#181818" points="375.76,1919.7779,366.76,1915.7779,370.76,1919.7779,366.76,1923.7779,375.76,1919.7779" style="stroke:#181818;stroke-width:1;"/></g><!--link source_sessions_sh to tool_mkshrc--><g class="link" data-entity-1="ent0006" data-entity-2="ent0010" data-link-type="dependency" data-source-line="73" id="lnk68"><path d="M185.81,1949.1579 C185.81,1973.3779 185.81,2003.7779 185.81,2003.7779 C185.81,2003.7779 298.26,2003.7779 363.27,2003.7779" fill="none" id="source_sessions_sh-to-tool_mkshrc" style="stroke:#181818;stroke-width:1;"/><polygon fill="#181818" points="369.27,2003.7779,360.27,1999.7779,364.27,2003.7779,360.27,2007.7779,369.27,2003.7779" style="stroke:#181818;stroke-width:1;"/></g><!--link source_sessions_sh to tool_zshrc--><g class="link" data-entity-1="ent0006" data-entity-2="ent0011" data-link-type="dependency" data-source-line="74" id="lnk69"><path d="M163.81,1949.0379 C163.81,1997.1679 163.81,2087.7779 163.81,2087.7779 C163.81,2087.7779 302.59,2087.7779 370.45,2087.7779" fill="none" id="source_sessions_sh-to-tool_zshrc" style="stroke:#181818;stroke-width:1;"/><polygon fill="#181818" points="376.45,2087.7779,367.45,2083.7779,371.45,2087.7779,367.45,2091.7779,376.45,2087.7779" style="stroke:#181818;stroke-width:1;"/></g><!--link source_sessions_sh to tool_backend_check--><g class="link" data-entity-1="ent0006" data-entity-2="ent0014" data-link-type="dependency" data-source-line="75" id="lnk70"><path d="M197.41,1927.9479 C263.86,1927.9479 355.81,1927.9479 355.81,1927.9479 C355.81,1927.9479 355.81,2079.0679 355.81,2141.0579" fill="none" id="source_sessions_sh-to-tool_backend_check" style="stroke:#181818;stroke-width:1;"/><polygon fill="#181818" points="355.81,2147.0579,359.81,2138.0579,355.81,2142.0579,351.81,2138.0579,355.81,2147.0579" style="stroke:#181818;stroke-width:1;"/></g><!--link source_sessions_sh to tool_backend_start_server--><g class="link" data-entity-1="ent0006" data-entity-2="ent0015" data-link-type="dependency" data-source-line="76" id="lnk71"><path d="M197.37,1936.1279 C257.31,1936.1279 335.81,1936.1279 335.81,1936.1279 C335.81,1936.1279 335.81,2149.8579 335.81,2224.9579" fill="none" id="source_sessions_sh-to-tool_backend_start_server" style="stroke:#181818;stroke-width:1;"/><polygon fill="#181818" points="335.81,2230.9579,339.81,2221.9579,335.81,2225.9579,331.81,2221.9579,335.81,2230.9579" style="stroke:#181818;stroke-width:1;"/></g><!--link source_sessions_sh to tool_declare--><g class="link" data-entity-1="ent0006" data-entity-2="ent0021" data-link-type="dependency" data-source-line="77" id="lnk72"><path d="M103.81,1890.2079 C103.81,1770.9779 103.81,1331.7779 103.81,1331.7779 C103.81,1331.7779 282.38,1331.7779 365.29,1331.7779" fill="none" id="source_sessions_sh-to-tool_declare" style="stroke:#181818;stroke-width:1;"/><polygon fill="#181818" points="371.29,1331.7779,362.29,1327.7779,366.29,1331.7779,362.29,1335.7779,371.29,1331.7779" style="stroke:#181818;stroke-width:1;"/></g><!--link source_sessions_sh to tool_die--><g class="link" data-entity-1="ent0006" data-entity-2="ent0022" data-link-type="dependency" data-source-line="78" id="lnk73"><path d="M118.81,1949.3079 C118.81,2044.9079 118.81,2339.7779 118.81,2339.7779 C118.81,2339.7779 308.36,2339.7779 379.4,2339.7779" fill="none" id="source_sessions_sh-to-tool_die" style="stroke:#181818;stroke-width:1;"/><polygon fill="#181818" points="385.4,2339.7779,376.4,2335.7779,380.4,2339.7779,376.4,2343.7779,385.4,2339.7779" style="stroke:#181818;stroke-width:1;"/></g><!--link source_sessions_sh to tool_grep--><g class="link" data-entity-1="ent0006" data-entity-2="ent0025" data-link-type="dependency" data-source-line="79" id="lnk74"><path d="M76.81,1890.4579 C76.81,1752.1979 76.81,1171.9479 76.81,1171.9479 C76.81,1171.9479 291.29,1171.9479 373.97,1171.9479" fill="none" id="source_sessions_sh-to-tool_grep" style="stroke:#181818;stroke-width:1;"/><polygon fill="#181818" points="379.97,1171.9479,370.97,1167.9479,374.97,1171.9479,370.97,1175.9479,379.97,1171.9479" style="stroke:#181818;stroke-width:1;"/></g><!--link source_sessions_sh to tool_info--><g class="link" data-entity-1="ent0006" data-entity-2="ent0026" data-link-type="dependency" data-source-line="80" id="lnk75"><path d="M107.81,1949.0479 C107.81,2056.6179 107.81,2423.7779 107.81,2423.7779 C107.81,2423.7779 301.35,2423.7779 376.56,2423.7779" fill="none" id="source_sessions_sh-to-tool_info" style="stroke:#181818;stroke-width:1;"/><polygon fill="#181818" points="382.56,2423.7779,373.56,2419.7779,377.56,2423.7779,373.56,2427.7779,382.56,2423.7779" style="stroke:#181818;stroke-width:1;"/></g><!--link source_sessions_sh to tool_mapfile--><g class="link" data-entity-1="ent0006" data-entity-2="ent0030" data-link-type="dependency" data-source-line="81" id="lnk76"><path d="M116.81,1890.4979 C116.81,1782.9279 116.81,1415.7779 116.81,1415.7779 C116.81,1415.7779 284.46,1415.7779 364.84,1415.7779" fill="none" id="source_sessions_sh-to-tool_mapfile" style="stroke:#181818;stroke-width:1;"/><polygon fill="#181818" points="370.84,1415.7779,361.84,1411.7779,365.84,1415.7779,361.84,1419.7779,370.84,1415.7779" style="stroke:#181818;stroke-width:1;"/></g><!--link source_sessions_sh to tool_mkdir--><g class="link" data-entity-1="ent0006" data-entity-2="ent0031" data-link-type="dependency" data-source-line="82" id="lnk77"><path d="M74.81,1949.1779 C74.81,2087.8879 74.81,2669.9779 74.81,2669.9779 C74.81,2669.9779 284.26,2669.9779 370.11,2669.9779" fill="none" id="source_sessions_sh-to-tool_mkdir" style="stroke:#181818;stroke-width:1;"/><polygon fill="#181818" points="376.11,2669.9779,367.11,2665.9779,371.11,2669.9779,367.11,2673.9779,376.11,2669.9779" style="stroke:#181818;stroke-width:1;"/></g><!--link source_sessions_sh to tool_mv--><g class="link" data-entity-1="ent0006" data-entity-2="ent0032" data-link-type="dependency" data-source-line="83" id="lnk78"><path d="M130.81,1890.2379 C130.81,1794.6379 130.81,1499.7779 130.81,1499.7779 C130.81,1499.7779 310.53,1499.7779 379.46,1499.7779" fill="none" id="source_sessions_sh-to-tool_mv" style="stroke:#181818;stroke-width:1;"/><polygon fill="#181818" points="385.46,1499.7779,376.46,1495.7779,380.46,1499.7779,376.46,1503.7779,385.46,1499.7779" style="stroke:#181818;stroke-width:1;"/></g><!--link source_sessions_sh to tool_screen--><g class="link" data-entity-1="ent0006" data-entity-2="ent0036" data-link-type="dependency" data-source-line="84" id="lnk79"><path d="M143.81,1890.2479 C143.81,1808.2579 143.81,1583.7779 143.81,1583.7779 C143.81,1583.7779 294.31,1583.7779 367.67,1583.7779" fill="none" id="source_sessions_sh-to-tool_screen" style="stroke:#181818;stroke-width:1;"/><polygon fill="#181818" points="373.67,1583.7779,364.67,1579.7779,368.67,1583.7779,364.67,1587.7779,373.67,1583.7779" style="stroke:#181818;stroke-width:1;"/></g><!--link source_sessions_sh to tool_session_create--><g class="link" data-entity-1="ent0006" data-entity-2="ent0037" data-link-type="dependency" data-source-line="85" id="lnk80"><path d="M197.43,1903.4179 C262.59,1903.4179 351.81,1903.4179 351.81,1903.4179 C351.81,1903.4179 351.81,1759.0479 351.81,1698.5479" fill="none" id="source_sessions_sh-to-tool_session_create" style="stroke:#181818;stroke-width:1;"/><polygon fill="#181818" points="351.81,1692.5479,347.81,1701.5479,351.81,1697.5479,355.81,1701.5479,351.81,1692.5479" style="stroke:#181818;stroke-width:1;"/></g><!--link source_sessions_sh to tool_session_kill--><g class="link" data-entity-1="ent0006" data-entity-2="ent0038" data-link-type="dependency" data-source-line="86" id="lnk81"><path d="M197.25,1911.5979 C266.54,1911.5979 364.81,1911.5979 364.81,1911.5979 C364.81,1911.5979 364.81,1827.6979 364.81,1782.7479" fill="none" id="source_sessions_sh-to-tool_session_kill" style="stroke:#181818;stroke-width:1;"/><polygon fill="#181818" points="364.81,1776.7479,360.81,1785.7479,364.81,1781.7479,368.81,1785.7479,364.81,1776.7479" style="stroke:#181818;stroke-width:1;"/></g><!--link source_sessions_sh to tool_success--><g class="link" data-entity-1="ent0006" data-entity-2="ent0039" data-link-type="dependency" data-source-line="87" id="lnk82"><path d="M96.81,1949.3379 C96.81,2068.5679 96.81,2507.7779 96.81,2507.7779 C96.81,2507.7779 279.59,2507.7779 364.39,2507.7779" fill="none" id="source_sessions_sh-to-tool_success" style="stroke:#181818;stroke-width:1;"/><polygon fill="#181818" points="370.39,2507.7779,361.39,2503.7779,365.39,2507.7779,361.39,2511.7779,370.39,2507.7779" style="stroke:#181818;stroke-width:1;"/></g><!--link source_sessions_sh to tool_tmux--><g class="link" data-entity-1="ent0006" data-entity-2="ent0042" data-link-type="dependency" data-source-line="88" id="lnk83"><path d="M90.81,1890.3979 C90.81,1761.9279 90.81,1255.9479 90.81,1255.9479 C90.81,1255.9479 291,1255.9479 372.35,1255.9479" fill="none" id="source_sessions_sh-to-tool_tmux" style="stroke:#181818;stroke-width:1;"/><polygon fill="#181818" points="378.35,1255.9479,369.35,1251.9479,373.35,1255.9479,369.35,1259.9479,378.35,1255.9479" style="stroke:#181818;stroke-width:1;"/></g><!--link source_sessions_sh to tool_warn--><g class="link" data-entity-1="ent0006" data-entity-2="ent0043" data-link-type="dependency" data-source-line="89" id="lnk84"><path d="M85.81,1949.0779 C85.81,2078.4179 85.81,2591.7779 85.81,2591.7779 C85.81,2591.7779 290.76,2591.7779 372.75,2591.7779" fill="none" id="source_sessions_sh-to-tool_warn" style="stroke:#181818;stroke-width:1;"/><polygon fill="#181818" points="378.75,2591.7779,369.75,2587.7779,373.75,2591.7779,369.75,2595.7779,378.75,2591.7779" style="stroke:#181818;stroke-width:1;"/></g><!--link source_setup_sh to tool_cat--><g class="link" data-entity-1="ent0007" data-entity-2="ent0017" data-link-type="dependency" data-source-line="90" id="lnk85"><path d="M163.81,2746.9779 C163.81,2804.6779 163.81,2927.7779 163.81,2927.7779 C163.81,2927.7779 316.96,2927.7779 379.76,2927.7779" fill="none" id="source_setup_sh-to-tool_cat" style="stroke:#181818;stroke-width:1;"/><polygon fill="#181818" points="385.76,2927.7779,376.76,2923.7779,380.76,2927.7779,376.76,2931.7779,385.76,2927.7779" style="stroke:#181818;stroke-width:1;"/></g><!--link source_setup_sh to tool_chmod--><g class="link" data-entity-1="ent0007" data-entity-2="ent0018" data-link-type="dependency" data-source-line="91" id="lnk86"><path d="M130.81,2747.3079 C130.81,2821.8679 130.81,3011.7779 130.81,3011.7779 C130.81,3011.7779 290.19,3011.7779 366.74,3011.7779" fill="none" id="source_setup_sh-to-tool_chmod" style="stroke:#181818;stroke-width:1;"/><polygon fill="#181818" points="372.74,3011.7779,363.74,3007.7779,367.74,3011.7779,363.74,3015.7779,372.74,3011.7779" style="stroke:#181818;stroke-width:1;"/></g><!--link source_setup_sh to tool_curl--><g class="link" data-entity-1="ent0007" data-entity-2="ent0020" data-link-type="dependency" data-source-line="92" id="lnk87"><path d="M96.81,2747.1179 C96.81,2835.9379 96.81,3095.7779 96.81,3095.7779 C96.81,3095.7779 300.09,3095.7779 376.93,3095.7779" fill="none" id="source_setup_sh-to-tool_curl" style="stroke:#181818;stroke-width:1;"/><polygon fill="#181818" points="382.93,3095.7779,373.93,3091.7779,377.93,3095.7779,373.93,3099.7779,382.93,3095.7779" style="stroke:#181818;stroke-width:1;"/></g><!--link source_setup_sh to tool_die--><g class="link" data-entity-1="ent0007" data-entity-2="ent0022" data-link-type="dependency" data-source-line="93" id="lnk88"><path d="M130.81,2688.4579 C130.81,2601.6779 130.81,2352.0379 130.81,2352.0379 C130.81,2352.0379 310.53,2352.0379 379.46,2352.0379" fill="none" id="source_setup_sh-to-tool_die" style="stroke:#181818;stroke-width:1;"/><polygon fill="#181818" points="385.46,2352.0379,376.46,2348.0379,380.46,2352.0379,376.46,2356.0379,385.46,2352.0379" style="stroke:#181818;stroke-width:1;"/></g><!--link source_setup_sh to tool_info--><g class="link" data-entity-1="ent0007" data-entity-2="ent0026" data-link-type="dependency" data-source-line="94" id="lnk89"><path d="M141.81,2688.4179 C141.81,2616.2579 141.81,2436.0379 141.81,2436.0379 C141.81,2436.0379 307.88,2436.0379 376.77,2436.0379" fill="none" id="source_setup_sh-to-tool_info" style="stroke:#181818;stroke-width:1;"/><polygon fill="#181818" points="382.77,2436.0379,373.77,2432.0379,377.77,2436.0379,373.77,2440.0379,382.77,2436.0379" style="stroke:#181818;stroke-width:1;"/></g><!--link source_setup_sh to tool_java--><g class="link" data-entity-1="ent0007" data-entity-2="ent0029" data-link-type="dependency" data-source-line="95" id="lnk90"><path d="M197.56,2739.1079 C256.53,2739.1079 333.43,2739.1079 376.43,2739.1079" fill="none" id="source_setup_sh-to-tool_java" style="stroke:#181818;stroke-width:1;"/><polygon fill="#181818" points="382.43,2739.1079,373.43,2735.1079,377.43,2739.1079,373.43,2743.1079,382.43,2739.1079" style="stroke:#181818;stroke-width:1;"/></g><!--link source_setup_sh to tool_mkdir--><g class="link" data-entity-1="ent0007" data-entity-2="ent0031" data-link-type="dependency" data-source-line="96" id="lnk91"><path d="M197.56,2694.5079 C253.78,2694.5079 325.74,2694.5079 370.15,2694.5079" fill="none" id="source_setup_sh-to-tool_mkdir" style="stroke:#181818;stroke-width:1;"/><polygon fill="#181818" points="376.15,2694.5079,367.15,2690.5079,371.15,2694.5079,367.15,2698.5079,376.15,2694.5079" style="stroke:#181818;stroke-width:1;"/></g><!--link source_setup_sh to tool_repo_architecture_drawio--><g class="link" data-entity-1="ent0007" data-entity-2="ent0034" data-link-type="dependency" data-source-line="97" id="lnk92"><path d="M197.4,2742.9779 C261.28,2742.9779 347.81,2742.9779 347.81,2742.9779 C347.81,2742.9779 347.81,2783.0079 347.81,2812.8579" fill="none" id="source_setup_sh-to-tool_repo_architecture_drawio" style="stroke:#181818;stroke-width:1;"/><polygon fill="#181818" points="347.81,2818.8579,351.81,2809.8579,347.81,2813.8579,343.81,2809.8579,347.81,2818.8579" style="stroke:#181818;stroke-width:1;"/></g><!--link source_setup_sh to tool_success--><g class="link" data-entity-1="ent0007" data-entity-2="ent0039" data-link-type="dependency" data-source-line="98" id="lnk93"><path d="M152.81,2688.5979 C152.81,2633.5979 152.81,2520.0379 152.81,2520.0379 C152.81,2520.0379 291.93,2520.0379 364.49,2520.0379" fill="none" id="source_setup_sh-to-tool_success" style="stroke:#181818;stroke-width:1;"/><polygon fill="#181818" points="370.49,2520.0379,361.49,2516.0379,365.49,2520.0379,361.49,2524.0379,370.49,2520.0379" style="stroke:#181818;stroke-width:1;"/></g><!--link source_setup_sh to tool_warn--><g class="link" data-entity-1="ent0007" data-entity-2="ent0043" data-link-type="dependency" data-source-line="99" id="lnk94"><path d="M174.81,2688.4879 C174.81,2654.7879 174.81,2604.0379 174.81,2604.0379 C174.81,2604.0379 308.56,2604.0379 372.97,2604.0379" fill="none" id="source_setup_sh-to-tool_warn" style="stroke:#181818;stroke-width:1;"/><polygon fill="#181818" points="378.97,2604.0379,369.97,2600.0379,373.97,2604.0379,369.97,2608.0379,378.97,2604.0379" style="stroke:#181818;stroke-width:1;"/></g><?plantuml-src dPV1SjiW48RlUWfDShQT9ZFDzD9B6tTwQ2_fCJCQWh14XO02icC_VHSZMmWaxEIcvVzsXO1TLeOQHd93L4ivPTJiypz2CCgh_2Stf5B8KC5rniZ6v4RaYbQroKkg2BP2fXlA9LAepNMDIh6pZXl4DF6KacnGnynQSFCRjIJ_9RZG4c6VmQALWXDkdiqUvcF38run7u594REN91VAr28x8_dDigAcxbvNEw6Q3HCxlS9qkM_P2t-0bni0IGcJ5qpVv4ZdMdGAay8v5MUd0jC2dFBRfxlr_Vef_G9Di29ceJ7YxattxtcJyowizzmhATS6CRRKzGl_bFgC7YnqFHL6OqMbqIlLyS8WN8iM0gb2Ah6XZ1oZfuBtxiMq-zmxYTRsqBYvVqc5xydPGAQJBifTCWfWVWZCH5V2hhqYNIjyHArJuUpyTlsqVlZsUCQQCTLCGcr0jTFOOKmTfY1qJ1quf3N1ZUZCWFTASL8YJsaM5V4Tf2bW8EHU4Mu8BrqS__kzuJaVE4qAZYPHMw9YLr-D8-XwlDWXWP4tTp0YlMv5wH7MZ1Zf0J9IEyKy7QoGA0bcI941wWSYZleCZNH8wa47Oq9d13LwTNfOkDqTEHs5uS4HKIH5l6-sLaXGlX43OQsOS5MYtqSV7WbpVf9r5Jp7VhqG-lr5MpJ0rWg95abRGxoCSWCHry1ju-STc16pzO1jg4f5kId-THGtYcm6SZmUUi4oYmLIkAQsxdIAB4k5TjHRPqiKFb4u8ehKUPiEHgX3aIN4GvmTKQvM5Y0YuotRU7pEgw6CnJvsDFBeC0RPWzr0pBKjKlJWJ-Kq5BB3rJ70mrX4jzsRnu4L4ZkalFMoLaYy8LLvtt0qpyo51c2n-3fTZgztT6NvQluulUpQRk7zyvkDC5U2ihYvcFkuASJM_fIEPKg5OfkIOQf96T8ofTlgcDP71V4QjA-1ANHSQr9adsufnAP4IhS9aLtTmPtT0Fc0rpdfF-0xoDb4HpWwJWedaUOYqLv63XU9KGTr5UatJ4c7lWr9CpIj-sT_4l0F__GgkKlumah25PmcjadPNN1fP7IhNONQoomDZZDhal5JQn8OvTRfnsCeRCWaHDlE9cHeLkVLqTQ7udXRGzLsN_Dgi9kXFDVap7j4onm2noNa0fgL_dgclFgXaAoVZwLadpt3FSNXJ-_pISq9Dsel1THGlSo-d_u47nvpKrDLBYJasDxz62upsyNQwFy1?></g></svg>
